<?xml version="1.0" standalone="no"?>
<!DOCTYPE svg PUBLIC "-//W3C//DTD SVG 1.1//EN"
  "http://www.w3.org/Graphics/SVG/1.1/DTD/svg11.dtd">
<svg width="42mm" height="41.99999999999999mm" viewBox="129 -11.999999999999998 42 41.99999999999999" xmlns="http://www.w3.org/2000/svg" version="1.1">
	<title>svgOutput</title>
	<desc>made with tinkercad</desc>
<path d="M 167.63800048828125 -0.4280000030994413 L 167.84030151367188 1.1102230246251565e-16 L 168.4770050048828 1.347000002861023 L 169.13800048828125 3.194999933242797 L 169.61500549316406 5.0989999771118155 L 169.9029998779297 7.039999961853026 L 170 8.999999999999998 L 169.93801879882812 10.253000259399412 L 169.9029998779297 10.961000442504881 L 169.61500549316406 12.90200042724609 L 169.13800048828125 14.805999755859371 L 168.4770050048828 16.653999328613278 L 167.63800048828125 18.427999496459957 L 166.62899780273438 20.111999511718746 L 165.4600067138672 21.687999725341793 L 164.14199829101562 23.142999649047848 L 163.83999633789062 23.416564941406246 L 163.7469940185547 23.500806808471676 L 162.68699645996094 24.461000442504876 L 161.6192626953125 25.253000259399407 L 161.11099243164062 25.629999160766594 L 159.42799377441406 26.638999938964837 L 157.6529998779297 27.478000640869134 L 155.80499267578125 28.138999938964837 L 153.9010009765625 28.61599922180175 L 151.9600067138672 28.903999328613274 L 150 28.999999999999993 L 148.7469940185547 28.938659667968743 L 148.03900146484375 28.903999328613274 L 147.45599365234375 28.81749534606933 L 146.09800720214844 28.61599922180175 L 144.19400024414062 28.138999938964837 L 142.3459930419922 27.478000640869134 L 140.57200622558594 26.638999938964837 L 138.88800048828125 25.629999160766594 L 137.31199645996094 24.461000442504876 L 135.85699462890625 23.142999649047848 L 134.53900146484375 21.687999725341793 L 133.7469940185547 20.62025642395019 L 133.3699951171875 20.111999511718746 L 132.36099243164062 18.427999496459957 L 131.52200317382812 16.653999328613278 L 131.07200622558594 15.395906448364254 L 130.86099243164062 14.805999755859371 L 130.38400268554688 12.90200042724609 L 130.0959930419922 10.961000442504881 L 130 8.999999999999998 L 130.0959930419922 7.039999961853026 L 130.38400268554688 5.0989999771118155 L 130.86099243164062 3.194999933242797 L 131.07200622558594 2.605093717575073 L 131.52200317382812 1.347000002861023 L 132.15869140625 1.1102230246251565e-16 L 132.36099243164062 -0.4280000030994413 L 133.3699951171875 -2.111000061035156 L 134.53900146484375 -3.687000036239623 L 135.85699462890625 -5.142000198364257 L 137.31199645996094 -6.460000038146971 L 138.88800048828125 -7.629000186920164 L 140.57200622558594 -8.637999534606932 L 142.3459930419922 -9.477000236511229 L 144.19400024414062 -10.137999534606932 L 146.09800720214844 -10.614999771118162 L 147.45599365234375 -10.81649589538574 L 148.03900146484375 -10.902999877929686 L 148.7469940185547 -10.938020706176756 L 150 -10.999999999999998 L 151.2519989013672 -10.938038825988768 L 151.9600067138672 -10.902999877929686 L 153.9010009765625 -10.614999771118162 L 155.80499267578125 -10.137999534606932 L 157.6529998779297 -9.477000236511229 L 159.42799377441406 -8.637999534606932 L 161.11099243164062 -7.629000186920164 L 162.68699645996094 -6.460000038146971 L 163.83999633789062 -5.415564060211181 L 164.14199829101562 -5.142000198364257 L 165.4600067138672 -3.687000036239623 L 166.62899780273438 -2.111000061035156 L 167.63800048828125 -0.4280000030994413 M 150.38699340820312 -4.808000087738036 L 150.73599243164062 -4.986000061035155 L 151.01300048828125 -5.263000011444091 L 151.1909942626953 -5.612999916076659 L 151.2519989013672 -5.999999999999998 L 151.22930908203125 -6.14400005340576 L 151.1909942626953 -6.387000083923338 L 151.01300048828125 -6.7360000610351545 L 150.73599243164062 -7.01300001144409 L 150.38699340820312 -7.190999984741209 L 150 -7.251999855041502 L 149.61300659179688 -7.190999984741209 L 149.26300048828125 -7.01300001144409 L 148.98599243164062 -6.7360000610351545 L 148.80799865722656 -6.387000083923338 L 148.7696990966797 -6.14400005340576 L 148.7469940185547 -5.999999999999998 L 148.80799865722656 -5.612999916076659 L 148.98599243164062 -5.263000011444091 L 149.26300048828125 -4.986000061035155 L 149.61300659179688 -4.808000087738036 L 150 -4.747000217437743 L 150.38699340820312 -4.808000087738036 M 163.98599243164062 8.263999938964842 L 163.83999633789062 8.550258636474608 L 163.80799865722656 8.612999916076658 L 163.7469940185547 8.999999999999998 L 163.80799865722656 9.387000083923338 L 163.83999633789062 9.44992160797119 L 163.98599243164062 9.737000465393065 L 164.26300048828125 10.013999938964842 L 164.61300659179688 10.19200038909912 L 165 10.253000259399412 L 165.38699340820312 10.19200038909912 L 165.73599243164062 10.013999938964842 L 166.01300048828125 9.737000465393065 L 166.1909942626953 9.387000083923338 L 166.2519989013672 8.999999999999998 L 166.1909942626953 8.612999916076658 L 166.01300048828125 8.263999938964842 L 165.9409942626953 8.19200038909912 L 165.73599243164062 7.986999988555906 L 165.38699340820312 7.809000015258787 L 165 7.748000144958494 L 164.61300659179688 7.809000015258787 L 164.26300048828125 7.986999988555906 L 164.05799865722656 8.19200038909912 L 163.98599243164062 8.263999938964842 M 149.61300659179688 25.191999435424798 L 150 25.253000259399407 L 150.38699340820312 25.191999435424798 L 150.73599243164062 25.013999938964837 L 151.01300048828125 24.736999511718743 L 151.09487915039062 24.57600021362304 L 151.1909942626953 24.386999130249016 L 151.2519989013672 23.999999999999993 L 151.1909942626953 23.613000869750973 L 151.01300048828125 23.26399993896484 L 150.73599243164062 22.986999511718746 L 150.38699340820312 22.809000015258786 L 150 22.747999191284176 L 149.61300659179688 22.809000015258786 L 149.26300048828125 22.986999511718746 L 148.98599243164062 23.26399993896484 L 148.80799865722656 23.613000869750973 L 148.7469940185547 23.999999999999993 L 148.80799865722656 24.386999130249016 L 148.90411376953125 24.57600021362304 L 148.98599243164062 24.736999511718743 L 149.26300048828125 25.013999938964837 L 149.61300659179688 25.191999435424798 M 133.80799865722656 8.612999916076658 L 133.7469940185547 8.999999999999998 L 133.80799865722656 9.387000083923338 L 133.98599243164062 9.737000465393065 L 134.26300048828125 10.013999938964842 L 134.61300659179688 10.19200038909912 L 135 10.253000259399412 L 135.16799926757812 10.22651958465576 L 135.38699340820312 10.19200038909912 L 135.73599243164062 10.013999938964842 L 136.01300048828125 9.737000465393065 L 136.1909942626953 9.387000083923338 L 136.2519989013672 8.999999999999998 L 136.1909942626953 8.612999916076658 L 136.01300048828125 8.263999938964842 L 135.9409942626953 8.19200038909912 L 135.73599243164062 7.986999988555906 L 135.38699340820312 7.809000015258787 L 135 7.748000144958494 L 134.61300659179688 7.809000015258787 L 134.26300048828125 7.986999988555906 L 134.05799865722656 8.19200038909912 L 133.98599243164062 8.263999938964842 L 133.80799865722656 8.612999916076658 z" fill="none" stroke="rgb(255,0,0)" stroke-width="0.001mm" />
</svg>