%TF.GenerationSoftware,KiCad,Pcbnew,7.0.9*%
%TF.CreationDate,2024-03-26T06:33:17-07:00*%
%TF.ProjectId,cnft-tpl-esp32cam,636e6674-2d74-4706-9c2d-657370333263,rev?*%
%TF.SameCoordinates,Original*%
%TF.FileFunction,Legend,Top*%
%TF.FilePolarity,Positive*%
%FSLAX46Y46*%
G04 Gerber Fmt 4.6, Leading zero omitted, Abs format (unit mm)*
G04 Created by KiCad (PCBNEW 7.0.9) date 2024-03-26 06:33:17*
%MOMM*%
%LPD*%
G01*
G04 APERTURE LIST*
G04 Aperture macros list*
%AMRoundRect*
0 Rectangle with rounded corners*
0 $1 Rounding radius*
0 $2 $3 $4 $5 $6 $7 $8 $9 X,Y pos of 4 corners*
0 Add a 4 corners polygon primitive as box body*
4,1,4,$2,$3,$4,$5,$6,$7,$8,$9,$2,$3,0*
0 Add four circle primitives for the rounded corners*
1,1,$1+$1,$2,$3*
1,1,$1+$1,$4,$5*
1,1,$1+$1,$6,$7*
1,1,$1+$1,$8,$9*
0 Add four rect primitives between the rounded corners*
20,1,$1+$1,$2,$3,$4,$5,0*
20,1,$1+$1,$4,$5,$6,$7,0*
20,1,$1+$1,$6,$7,$8,$9,0*
20,1,$1+$1,$8,$9,$2,$3,0*%
%AMFreePoly0*
4,1,19,0.500000,-0.750000,0.000000,-0.750000,0.000000,-0.744911,-0.071157,-0.744911,-0.207708,-0.704816,-0.327430,-0.627875,-0.420627,-0.520320,-0.479746,-0.390866,-0.500000,-0.250000,-0.500000,0.250000,-0.479746,0.390866,-0.420627,0.520320,-0.327430,0.627875,-0.207708,0.704816,-0.071157,0.744911,0.000000,0.744911,0.000000,0.750000,0.500000,0.750000,0.500000,-0.750000,0.500000,-0.750000,
$1*%
%AMFreePoly1*
4,1,19,0.000000,0.744911,0.071157,0.744911,0.207708,0.704816,0.327430,0.627875,0.420627,0.520320,0.479746,0.390866,0.500000,0.250000,0.500000,-0.250000,0.479746,-0.390866,0.420627,-0.520320,0.327430,-0.627875,0.207708,-0.704816,0.071157,-0.744911,0.000000,-0.744911,0.000000,-0.750000,-0.500000,-0.750000,-0.500000,0.750000,0.000000,0.750000,0.000000,0.744911,0.000000,0.744911,
$1*%
G04 Aperture macros list end*
%ADD10C,0.200000*%
%ADD11C,0.170000*%
%ADD12C,0.150000*%
%ADD13C,0.120000*%
%ADD14C,0.010000*%
%ADD15R,0.900000X2.000000*%
%ADD16RoundRect,0.150000X-0.150000X0.587500X-0.150000X-0.587500X0.150000X-0.587500X0.150000X0.587500X0*%
%ADD17R,1.700000X1.700000*%
%ADD18O,1.700000X1.700000*%
%ADD19RoundRect,0.250000X-0.475000X0.250000X-0.475000X-0.250000X0.475000X-0.250000X0.475000X0.250000X0*%
%ADD20RoundRect,0.150000X0.150000X-0.512500X0.150000X0.512500X-0.150000X0.512500X-0.150000X-0.512500X0*%
%ADD21RoundRect,0.250000X2.500000X-0.250000X2.500000X0.250000X-2.500000X0.250000X-2.500000X-0.250000X0*%
%ADD22RoundRect,0.250000X1.250000X-0.550000X1.250000X0.550000X-1.250000X0.550000X-1.250000X-0.550000X0*%
%ADD23R,1.200000X1.200000*%
%ADD24R,1.500000X1.600000*%
%ADD25RoundRect,0.250000X-0.262500X-0.450000X0.262500X-0.450000X0.262500X0.450000X-0.262500X0.450000X0*%
%ADD26FreePoly0,90.000000*%
%ADD27FreePoly1,90.000000*%
%ADD28RoundRect,0.250000X0.262500X0.450000X-0.262500X0.450000X-0.262500X-0.450000X0.262500X-0.450000X0*%
%ADD29RoundRect,0.250000X-0.550000X1.250000X-0.550000X-1.250000X0.550000X-1.250000X0.550000X1.250000X0*%
%ADD30RoundRect,0.218750X-0.218750X-0.256250X0.218750X-0.256250X0.218750X0.256250X-0.218750X0.256250X0*%
G04 APERTURE END LIST*
D10*
X18093323Y45712823D02*
X30632400Y45712823D01*
X13013323Y45712823D02*
X482600Y45712823D01*
D11*
X18609601Y5984254D02*
X18657220Y6079492D01*
X18657220Y6079492D02*
X18657220Y6222349D01*
X18657220Y6222349D02*
X18609601Y6365206D01*
X18609601Y6365206D02*
X18514363Y6460444D01*
X18514363Y6460444D02*
X18419125Y6508063D01*
X18419125Y6508063D02*
X18228649Y6555682D01*
X18228649Y6555682D02*
X18085792Y6555682D01*
X18085792Y6555682D02*
X17895316Y6508063D01*
X17895316Y6508063D02*
X17800078Y6460444D01*
X17800078Y6460444D02*
X17704840Y6365206D01*
X17704840Y6365206D02*
X17657220Y6222349D01*
X17657220Y6222349D02*
X17657220Y6127111D01*
X17657220Y6127111D02*
X17704840Y5984254D01*
X17704840Y5984254D02*
X17752459Y5936635D01*
X17752459Y5936635D02*
X18085792Y5936635D01*
X18085792Y5936635D02*
X18085792Y6127111D01*
X17657220Y5508063D02*
X18657220Y5508063D01*
X18657220Y5508063D02*
X17657220Y4936635D01*
X17657220Y4936635D02*
X18657220Y4936635D01*
X17657220Y4460444D02*
X18657220Y4460444D01*
X18657220Y4460444D02*
X18657220Y4222349D01*
X18657220Y4222349D02*
X18609601Y4079492D01*
X18609601Y4079492D02*
X18514363Y3984254D01*
X18514363Y3984254D02*
X18419125Y3936635D01*
X18419125Y3936635D02*
X18228649Y3889016D01*
X18228649Y3889016D02*
X18085792Y3889016D01*
X18085792Y3889016D02*
X17895316Y3936635D01*
X17895316Y3936635D02*
X17800078Y3984254D01*
X17800078Y3984254D02*
X17704840Y4079492D01*
X17704840Y4079492D02*
X17657220Y4222349D01*
X17657220Y4222349D02*
X17657220Y4460444D01*
X23689601Y5984254D02*
X23737220Y6079492D01*
X23737220Y6079492D02*
X23737220Y6222349D01*
X23737220Y6222349D02*
X23689601Y6365206D01*
X23689601Y6365206D02*
X23594363Y6460444D01*
X23594363Y6460444D02*
X23499125Y6508063D01*
X23499125Y6508063D02*
X23308649Y6555682D01*
X23308649Y6555682D02*
X23165792Y6555682D01*
X23165792Y6555682D02*
X22975316Y6508063D01*
X22975316Y6508063D02*
X22880078Y6460444D01*
X22880078Y6460444D02*
X22784840Y6365206D01*
X22784840Y6365206D02*
X22737220Y6222349D01*
X22737220Y6222349D02*
X22737220Y6127111D01*
X22737220Y6127111D02*
X22784840Y5984254D01*
X22784840Y5984254D02*
X22832459Y5936635D01*
X22832459Y5936635D02*
X23165792Y5936635D01*
X23165792Y5936635D02*
X23165792Y6127111D01*
X22737220Y5508063D02*
X23737220Y5508063D01*
X23737220Y5508063D02*
X23737220Y5127111D01*
X23737220Y5127111D02*
X23689601Y5031873D01*
X23689601Y5031873D02*
X23641982Y4984254D01*
X23641982Y4984254D02*
X23546744Y4936635D01*
X23546744Y4936635D02*
X23403887Y4936635D01*
X23403887Y4936635D02*
X23308649Y4984254D01*
X23308649Y4984254D02*
X23261030Y5031873D01*
X23261030Y5031873D02*
X23213411Y5127111D01*
X23213411Y5127111D02*
X23213411Y5508063D01*
X22737220Y4508063D02*
X23737220Y4508063D01*
X23737220Y3841397D02*
X23737220Y3650921D01*
X23737220Y3650921D02*
X23689601Y3555683D01*
X23689601Y3555683D02*
X23594363Y3460445D01*
X23594363Y3460445D02*
X23403887Y3412826D01*
X23403887Y3412826D02*
X23070554Y3412826D01*
X23070554Y3412826D02*
X22880078Y3460445D01*
X22880078Y3460445D02*
X22784840Y3555683D01*
X22784840Y3555683D02*
X22737220Y3650921D01*
X22737220Y3650921D02*
X22737220Y3841397D01*
X22737220Y3841397D02*
X22784840Y3936635D01*
X22784840Y3936635D02*
X22880078Y4031873D01*
X22880078Y4031873D02*
X23070554Y4079492D01*
X23070554Y4079492D02*
X23403887Y4079492D01*
X23403887Y4079492D02*
X23594363Y4031873D01*
X23594363Y4031873D02*
X23689601Y3936635D01*
X23689601Y3936635D02*
X23737220Y3841397D01*
X22737220Y2460445D02*
X22737220Y3031873D01*
X22737220Y2746159D02*
X23737220Y2746159D01*
X23737220Y2746159D02*
X23594363Y2841397D01*
X23594363Y2841397D02*
X23499125Y2936635D01*
X23499125Y2936635D02*
X23451506Y3031873D01*
X9122480Y40602821D02*
X9455813Y39602821D01*
X9455813Y39602821D02*
X9789146Y40602821D01*
X10551051Y39650440D02*
X10455813Y39602821D01*
X10455813Y39602821D02*
X10265337Y39602821D01*
X10265337Y39602821D02*
X10170099Y39650440D01*
X10170099Y39650440D02*
X10122480Y39698060D01*
X10122480Y39698060D02*
X10074861Y39793298D01*
X10074861Y39793298D02*
X10074861Y40079012D01*
X10074861Y40079012D02*
X10122480Y40174250D01*
X10122480Y40174250D02*
X10170099Y40221869D01*
X10170099Y40221869D02*
X10265337Y40269488D01*
X10265337Y40269488D02*
X10455813Y40269488D01*
X10455813Y40269488D02*
X10551051Y40221869D01*
X11408194Y39650440D02*
X11312956Y39602821D01*
X11312956Y39602821D02*
X11122480Y39602821D01*
X11122480Y39602821D02*
X11027242Y39650440D01*
X11027242Y39650440D02*
X10979623Y39698060D01*
X10979623Y39698060D02*
X10932004Y39793298D01*
X10932004Y39793298D02*
X10932004Y40079012D01*
X10932004Y40079012D02*
X10979623Y40174250D01*
X10979623Y40174250D02*
X11027242Y40221869D01*
X11027242Y40221869D02*
X11122480Y40269488D01*
X11122480Y40269488D02*
X11312956Y40269488D01*
X11312956Y40269488D02*
X11408194Y40221869D01*
X25438727Y34405621D02*
X24962537Y34405621D01*
X24962537Y34405621D02*
X24962537Y35405621D01*
X25772061Y34929431D02*
X26105394Y34929431D01*
X26248251Y34405621D02*
X25772061Y34405621D01*
X25772061Y34405621D02*
X25772061Y35405621D01*
X25772061Y35405621D02*
X26248251Y35405621D01*
X26676823Y34405621D02*
X26676823Y35405621D01*
X26676823Y35405621D02*
X26914918Y35405621D01*
X26914918Y35405621D02*
X27057775Y35358002D01*
X27057775Y35358002D02*
X27153013Y35262764D01*
X27153013Y35262764D02*
X27200632Y35167526D01*
X27200632Y35167526D02*
X27248251Y34977050D01*
X27248251Y34977050D02*
X27248251Y34834193D01*
X27248251Y34834193D02*
X27200632Y34643717D01*
X27200632Y34643717D02*
X27153013Y34548479D01*
X27153013Y34548479D02*
X27057775Y34453240D01*
X27057775Y34453240D02*
X26914918Y34405621D01*
X26914918Y34405621D02*
X26676823Y34405621D01*
X24962537Y33319431D02*
X25295870Y33319431D01*
X25438727Y32795621D02*
X24962537Y32795621D01*
X24962537Y32795621D02*
X24962537Y33795621D01*
X24962537Y33795621D02*
X25438727Y33795621D01*
X25867299Y33462288D02*
X25867299Y32795621D01*
X25867299Y33367050D02*
X25914918Y33414669D01*
X25914918Y33414669D02*
X26010156Y33462288D01*
X26010156Y33462288D02*
X26153013Y33462288D01*
X26153013Y33462288D02*
X26248251Y33414669D01*
X26248251Y33414669D02*
X26295870Y33319431D01*
X26295870Y33319431D02*
X26295870Y32795621D01*
X27200632Y32795621D02*
X27200632Y33319431D01*
X27200632Y33319431D02*
X27153013Y33414669D01*
X27153013Y33414669D02*
X27057775Y33462288D01*
X27057775Y33462288D02*
X26867299Y33462288D01*
X26867299Y33462288D02*
X26772061Y33414669D01*
X27200632Y32843240D02*
X27105394Y32795621D01*
X27105394Y32795621D02*
X26867299Y32795621D01*
X26867299Y32795621D02*
X26772061Y32843240D01*
X26772061Y32843240D02*
X26724442Y32938479D01*
X26724442Y32938479D02*
X26724442Y33033717D01*
X26724442Y33033717D02*
X26772061Y33128955D01*
X26772061Y33128955D02*
X26867299Y33176574D01*
X26867299Y33176574D02*
X27105394Y33176574D01*
X27105394Y33176574D02*
X27200632Y33224193D01*
X27676823Y32795621D02*
X27676823Y33795621D01*
X27676823Y33414669D02*
X27772061Y33462288D01*
X27772061Y33462288D02*
X27962537Y33462288D01*
X27962537Y33462288D02*
X28057775Y33414669D01*
X28057775Y33414669D02*
X28105394Y33367050D01*
X28105394Y33367050D02*
X28153013Y33271812D01*
X28153013Y33271812D02*
X28153013Y32986098D01*
X28153013Y32986098D02*
X28105394Y32890860D01*
X28105394Y32890860D02*
X28057775Y32843240D01*
X28057775Y32843240D02*
X27962537Y32795621D01*
X27962537Y32795621D02*
X27772061Y32795621D01*
X27772061Y32795621D02*
X27676823Y32843240D01*
X28724442Y32795621D02*
X28629204Y32843240D01*
X28629204Y32843240D02*
X28581585Y32938479D01*
X28581585Y32938479D02*
X28581585Y33795621D01*
X29486347Y32843240D02*
X29391109Y32795621D01*
X29391109Y32795621D02*
X29200633Y32795621D01*
X29200633Y32795621D02*
X29105395Y32843240D01*
X29105395Y32843240D02*
X29057776Y32938479D01*
X29057776Y32938479D02*
X29057776Y33319431D01*
X29057776Y33319431D02*
X29105395Y33414669D01*
X29105395Y33414669D02*
X29200633Y33462288D01*
X29200633Y33462288D02*
X29391109Y33462288D01*
X29391109Y33462288D02*
X29486347Y33414669D01*
X29486347Y33414669D02*
X29533966Y33319431D01*
X29533966Y33319431D02*
X29533966Y33224193D01*
X29533966Y33224193D02*
X29057776Y33128955D01*
X21197220Y6650920D02*
X20197220Y6317587D01*
X20197220Y6317587D02*
X21197220Y5984254D01*
X20244840Y5222349D02*
X20197220Y5317587D01*
X20197220Y5317587D02*
X20197220Y5508063D01*
X20197220Y5508063D02*
X20244840Y5603301D01*
X20244840Y5603301D02*
X20292459Y5650920D01*
X20292459Y5650920D02*
X20387697Y5698539D01*
X20387697Y5698539D02*
X20673411Y5698539D01*
X20673411Y5698539D02*
X20768649Y5650920D01*
X20768649Y5650920D02*
X20816268Y5603301D01*
X20816268Y5603301D02*
X20863887Y5508063D01*
X20863887Y5508063D02*
X20863887Y5317587D01*
X20863887Y5317587D02*
X20816268Y5222349D01*
X20244840Y4365206D02*
X20197220Y4460444D01*
X20197220Y4460444D02*
X20197220Y4650920D01*
X20197220Y4650920D02*
X20244840Y4746158D01*
X20244840Y4746158D02*
X20292459Y4793777D01*
X20292459Y4793777D02*
X20387697Y4841396D01*
X20387697Y4841396D02*
X20673411Y4841396D01*
X20673411Y4841396D02*
X20768649Y4793777D01*
X20768649Y4793777D02*
X20816268Y4746158D01*
X20816268Y4746158D02*
X20863887Y4650920D01*
X20863887Y4650920D02*
X20863887Y4460444D01*
X20863887Y4460444D02*
X20816268Y4365206D01*
X11129080Y34491221D02*
X11700508Y34491221D01*
X11414794Y33491221D02*
X11414794Y34491221D01*
X12033842Y33491221D02*
X12033842Y34157888D01*
X12033842Y33967412D02*
X12081461Y34062650D01*
X12081461Y34062650D02*
X12129080Y34110269D01*
X12129080Y34110269D02*
X12224318Y34157888D01*
X12224318Y34157888D02*
X12319556Y34157888D01*
X12652890Y33491221D02*
X12652890Y34157888D01*
X12652890Y34491221D02*
X12605271Y34443602D01*
X12605271Y34443602D02*
X12652890Y34395983D01*
X12652890Y34395983D02*
X12700509Y34443602D01*
X12700509Y34443602D02*
X12652890Y34491221D01*
X12652890Y34491221D02*
X12652890Y34395983D01*
X13129080Y33491221D02*
X13129080Y34157888D01*
X13129080Y34062650D02*
X13176699Y34110269D01*
X13176699Y34110269D02*
X13271937Y34157888D01*
X13271937Y34157888D02*
X13414794Y34157888D01*
X13414794Y34157888D02*
X13510032Y34110269D01*
X13510032Y34110269D02*
X13557651Y34015031D01*
X13557651Y34015031D02*
X13557651Y33491221D01*
X13557651Y34015031D02*
X13605270Y34110269D01*
X13605270Y34110269D02*
X13700508Y34157888D01*
X13700508Y34157888D02*
X13843365Y34157888D01*
X13843365Y34157888D02*
X13938604Y34110269D01*
X13938604Y34110269D02*
X13986223Y34015031D01*
X13986223Y34015031D02*
X13986223Y33491221D01*
X11271937Y32405031D02*
X11605270Y32405031D01*
X11748127Y31881221D02*
X11271937Y31881221D01*
X11271937Y31881221D02*
X11271937Y32881221D01*
X11271937Y32881221D02*
X11748127Y32881221D01*
X12176699Y32547888D02*
X12176699Y31881221D01*
X12176699Y32452650D02*
X12224318Y32500269D01*
X12224318Y32500269D02*
X12319556Y32547888D01*
X12319556Y32547888D02*
X12462413Y32547888D01*
X12462413Y32547888D02*
X12557651Y32500269D01*
X12557651Y32500269D02*
X12605270Y32405031D01*
X12605270Y32405031D02*
X12605270Y31881221D01*
X13510032Y31881221D02*
X13510032Y32405031D01*
X13510032Y32405031D02*
X13462413Y32500269D01*
X13462413Y32500269D02*
X13367175Y32547888D01*
X13367175Y32547888D02*
X13176699Y32547888D01*
X13176699Y32547888D02*
X13081461Y32500269D01*
X13510032Y31928840D02*
X13414794Y31881221D01*
X13414794Y31881221D02*
X13176699Y31881221D01*
X13176699Y31881221D02*
X13081461Y31928840D01*
X13081461Y31928840D02*
X13033842Y32024079D01*
X13033842Y32024079D02*
X13033842Y32119317D01*
X13033842Y32119317D02*
X13081461Y32214555D01*
X13081461Y32214555D02*
X13176699Y32262174D01*
X13176699Y32262174D02*
X13414794Y32262174D01*
X13414794Y32262174D02*
X13510032Y32309793D01*
X13986223Y31881221D02*
X13986223Y32881221D01*
X13986223Y32500269D02*
X14081461Y32547888D01*
X14081461Y32547888D02*
X14271937Y32547888D01*
X14271937Y32547888D02*
X14367175Y32500269D01*
X14367175Y32500269D02*
X14414794Y32452650D01*
X14414794Y32452650D02*
X14462413Y32357412D01*
X14462413Y32357412D02*
X14462413Y32071698D01*
X14462413Y32071698D02*
X14414794Y31976460D01*
X14414794Y31976460D02*
X14367175Y31928840D01*
X14367175Y31928840D02*
X14271937Y31881221D01*
X14271937Y31881221D02*
X14081461Y31881221D01*
X14081461Y31881221D02*
X13986223Y31928840D01*
X15033842Y31881221D02*
X14938604Y31928840D01*
X14938604Y31928840D02*
X14890985Y32024079D01*
X14890985Y32024079D02*
X14890985Y32881221D01*
X15795747Y31928840D02*
X15700509Y31881221D01*
X15700509Y31881221D02*
X15510033Y31881221D01*
X15510033Y31881221D02*
X15414795Y31928840D01*
X15414795Y31928840D02*
X15367176Y32024079D01*
X15367176Y32024079D02*
X15367176Y32405031D01*
X15367176Y32405031D02*
X15414795Y32500269D01*
X15414795Y32500269D02*
X15510033Y32547888D01*
X15510033Y32547888D02*
X15700509Y32547888D01*
X15700509Y32547888D02*
X15795747Y32500269D01*
X15795747Y32500269D02*
X15843366Y32405031D01*
X15843366Y32405031D02*
X15843366Y32309793D01*
X15843366Y32309793D02*
X15367176Y32214555D01*
X8449601Y5984254D02*
X8497220Y6079492D01*
X8497220Y6079492D02*
X8497220Y6222349D01*
X8497220Y6222349D02*
X8449601Y6365206D01*
X8449601Y6365206D02*
X8354363Y6460444D01*
X8354363Y6460444D02*
X8259125Y6508063D01*
X8259125Y6508063D02*
X8068649Y6555682D01*
X8068649Y6555682D02*
X7925792Y6555682D01*
X7925792Y6555682D02*
X7735316Y6508063D01*
X7735316Y6508063D02*
X7640078Y6460444D01*
X7640078Y6460444D02*
X7544840Y6365206D01*
X7544840Y6365206D02*
X7497220Y6222349D01*
X7497220Y6222349D02*
X7497220Y6127111D01*
X7497220Y6127111D02*
X7544840Y5984254D01*
X7544840Y5984254D02*
X7592459Y5936635D01*
X7592459Y5936635D02*
X7925792Y5936635D01*
X7925792Y5936635D02*
X7925792Y6127111D01*
X7497220Y5508063D02*
X8497220Y5508063D01*
X8497220Y5508063D02*
X8497220Y5127111D01*
X8497220Y5127111D02*
X8449601Y5031873D01*
X8449601Y5031873D02*
X8401982Y4984254D01*
X8401982Y4984254D02*
X8306744Y4936635D01*
X8306744Y4936635D02*
X8163887Y4936635D01*
X8163887Y4936635D02*
X8068649Y4984254D01*
X8068649Y4984254D02*
X8021030Y5031873D01*
X8021030Y5031873D02*
X7973411Y5127111D01*
X7973411Y5127111D02*
X7973411Y5508063D01*
X7497220Y4508063D02*
X8497220Y4508063D01*
X8497220Y3841397D02*
X8497220Y3650921D01*
X8497220Y3650921D02*
X8449601Y3555683D01*
X8449601Y3555683D02*
X8354363Y3460445D01*
X8354363Y3460445D02*
X8163887Y3412826D01*
X8163887Y3412826D02*
X7830554Y3412826D01*
X7830554Y3412826D02*
X7640078Y3460445D01*
X7640078Y3460445D02*
X7544840Y3555683D01*
X7544840Y3555683D02*
X7497220Y3650921D01*
X7497220Y3650921D02*
X7497220Y3841397D01*
X7497220Y3841397D02*
X7544840Y3936635D01*
X7544840Y3936635D02*
X7640078Y4031873D01*
X7640078Y4031873D02*
X7830554Y4079492D01*
X7830554Y4079492D02*
X8163887Y4079492D01*
X8163887Y4079492D02*
X8354363Y4031873D01*
X8354363Y4031873D02*
X8449601Y3936635D01*
X8449601Y3936635D02*
X8497220Y3841397D01*
X8497220Y3079492D02*
X8497220Y2460445D01*
X8497220Y2460445D02*
X8116268Y2793778D01*
X8116268Y2793778D02*
X8116268Y2650921D01*
X8116268Y2650921D02*
X8068649Y2555683D01*
X8068649Y2555683D02*
X8021030Y2508064D01*
X8021030Y2508064D02*
X7925792Y2460445D01*
X7925792Y2460445D02*
X7687697Y2460445D01*
X7687697Y2460445D02*
X7592459Y2508064D01*
X7592459Y2508064D02*
X7544840Y2555683D01*
X7544840Y2555683D02*
X7497220Y2650921D01*
X7497220Y2650921D02*
X7497220Y2936635D01*
X7497220Y2936635D02*
X7544840Y3031873D01*
X7544840Y3031873D02*
X7592459Y3079492D01*
X11037220Y6650920D02*
X10037220Y6317587D01*
X10037220Y6317587D02*
X11037220Y5984254D01*
X10084840Y5222349D02*
X10037220Y5317587D01*
X10037220Y5317587D02*
X10037220Y5508063D01*
X10037220Y5508063D02*
X10084840Y5603301D01*
X10084840Y5603301D02*
X10132459Y5650920D01*
X10132459Y5650920D02*
X10227697Y5698539D01*
X10227697Y5698539D02*
X10513411Y5698539D01*
X10513411Y5698539D02*
X10608649Y5650920D01*
X10608649Y5650920D02*
X10656268Y5603301D01*
X10656268Y5603301D02*
X10703887Y5508063D01*
X10703887Y5508063D02*
X10703887Y5317587D01*
X10703887Y5317587D02*
X10656268Y5222349D01*
X10084840Y4365206D02*
X10037220Y4460444D01*
X10037220Y4460444D02*
X10037220Y4650920D01*
X10037220Y4650920D02*
X10084840Y4746158D01*
X10084840Y4746158D02*
X10132459Y4793777D01*
X10132459Y4793777D02*
X10227697Y4841396D01*
X10227697Y4841396D02*
X10513411Y4841396D01*
X10513411Y4841396D02*
X10608649Y4793777D01*
X10608649Y4793777D02*
X10656268Y4746158D01*
X10656268Y4746158D02*
X10703887Y4650920D01*
X10703887Y4650920D02*
X10703887Y4460444D01*
X10703887Y4460444D02*
X10656268Y4365206D01*
X9687546Y42511002D02*
X9592308Y42558621D01*
X9592308Y42558621D02*
X9449451Y42558621D01*
X9449451Y42558621D02*
X9306594Y42511002D01*
X9306594Y42511002D02*
X9211356Y42415764D01*
X9211356Y42415764D02*
X9163737Y42320526D01*
X9163737Y42320526D02*
X9116118Y42130050D01*
X9116118Y42130050D02*
X9116118Y41987193D01*
X9116118Y41987193D02*
X9163737Y41796717D01*
X9163737Y41796717D02*
X9211356Y41701479D01*
X9211356Y41701479D02*
X9306594Y41606240D01*
X9306594Y41606240D02*
X9449451Y41558621D01*
X9449451Y41558621D02*
X9544689Y41558621D01*
X9544689Y41558621D02*
X9687546Y41606240D01*
X9687546Y41606240D02*
X9735165Y41653860D01*
X9735165Y41653860D02*
X9735165Y41987193D01*
X9735165Y41987193D02*
X9544689Y41987193D01*
X10163737Y41558621D02*
X10163737Y42558621D01*
X10163737Y42558621D02*
X10735165Y41558621D01*
X10735165Y41558621D02*
X10735165Y42558621D01*
X11211356Y41558621D02*
X11211356Y42558621D01*
X11211356Y42558621D02*
X11449451Y42558621D01*
X11449451Y42558621D02*
X11592308Y42511002D01*
X11592308Y42511002D02*
X11687546Y42415764D01*
X11687546Y42415764D02*
X11735165Y42320526D01*
X11735165Y42320526D02*
X11782784Y42130050D01*
X11782784Y42130050D02*
X11782784Y41987193D01*
X11782784Y41987193D02*
X11735165Y41796717D01*
X11735165Y41796717D02*
X11687546Y41701479D01*
X11687546Y41701479D02*
X11592308Y41606240D01*
X11592308Y41606240D02*
X11449451Y41558621D01*
X11449451Y41558621D02*
X11211356Y41558621D01*
X13529601Y5984254D02*
X13577220Y6079492D01*
X13577220Y6079492D02*
X13577220Y6222349D01*
X13577220Y6222349D02*
X13529601Y6365206D01*
X13529601Y6365206D02*
X13434363Y6460444D01*
X13434363Y6460444D02*
X13339125Y6508063D01*
X13339125Y6508063D02*
X13148649Y6555682D01*
X13148649Y6555682D02*
X13005792Y6555682D01*
X13005792Y6555682D02*
X12815316Y6508063D01*
X12815316Y6508063D02*
X12720078Y6460444D01*
X12720078Y6460444D02*
X12624840Y6365206D01*
X12624840Y6365206D02*
X12577220Y6222349D01*
X12577220Y6222349D02*
X12577220Y6127111D01*
X12577220Y6127111D02*
X12624840Y5984254D01*
X12624840Y5984254D02*
X12672459Y5936635D01*
X12672459Y5936635D02*
X13005792Y5936635D01*
X13005792Y5936635D02*
X13005792Y6127111D01*
X12577220Y5508063D02*
X13577220Y5508063D01*
X13577220Y5508063D02*
X12577220Y4936635D01*
X12577220Y4936635D02*
X13577220Y4936635D01*
X12577220Y4460444D02*
X13577220Y4460444D01*
X13577220Y4460444D02*
X13577220Y4222349D01*
X13577220Y4222349D02*
X13529601Y4079492D01*
X13529601Y4079492D02*
X13434363Y3984254D01*
X13434363Y3984254D02*
X13339125Y3936635D01*
X13339125Y3936635D02*
X13148649Y3889016D01*
X13148649Y3889016D02*
X13005792Y3889016D01*
X13005792Y3889016D02*
X12815316Y3936635D01*
X12815316Y3936635D02*
X12720078Y3984254D01*
X12720078Y3984254D02*
X12624840Y4079492D01*
X12624840Y4079492D02*
X12577220Y4222349D01*
X12577220Y4222349D02*
X12577220Y4460444D01*
D12*
X14112819Y36908596D02*
X14922342Y36908596D01*
X14922342Y36908596D02*
X15017580Y36956215D01*
X15017580Y36956215D02*
X15065200Y37003834D01*
X15065200Y37003834D02*
X15112819Y37099072D01*
X15112819Y37099072D02*
X15112819Y37289548D01*
X15112819Y37289548D02*
X15065200Y37384786D01*
X15065200Y37384786D02*
X15017580Y37432405D01*
X15017580Y37432405D02*
X14922342Y37480024D01*
X14922342Y37480024D02*
X14112819Y37480024D01*
X14208057Y37908596D02*
X14160438Y37956215D01*
X14160438Y37956215D02*
X14112819Y38051453D01*
X14112819Y38051453D02*
X14112819Y38289548D01*
X14112819Y38289548D02*
X14160438Y38384786D01*
X14160438Y38384786D02*
X14208057Y38432405D01*
X14208057Y38432405D02*
X14303295Y38480024D01*
X14303295Y38480024D02*
X14398533Y38480024D01*
X14398533Y38480024D02*
X14541390Y38432405D01*
X14541390Y38432405D02*
X15112819Y37860977D01*
X15112819Y37860977D02*
X15112819Y38480024D01*
D13*
%TO.C,SW1*%
X17414200Y48460200D02*
X12867600Y48460200D01*
X17414200Y48742600D02*
X17414200Y48460200D01*
X17414200Y50952400D02*
X17414200Y51257200D01*
X17414200Y51257200D02*
X12867600Y51252400D01*
X12867600Y48460200D02*
X12867600Y48760200D01*
X12867600Y51252400D02*
X12867600Y50952400D01*
%TO.C,U2*%
X13818000Y37670500D02*
X13818000Y39345500D01*
X13818000Y37670500D02*
X13818000Y37020500D01*
X10698000Y37670500D02*
X10698000Y38320500D01*
X10698000Y37670500D02*
X10698000Y37020500D01*
%TO.C,J2*%
X5444800Y10150000D02*
X5444800Y27990000D01*
X5444800Y10150000D02*
X2784800Y10150000D01*
X5444800Y27990000D02*
X2784800Y27990000D01*
X4114800Y7550000D02*
X2784800Y7550000D01*
X2784800Y7550000D02*
X2784800Y8880000D01*
X2784800Y10150000D02*
X2784800Y27990000D01*
%TO.C,C1*%
X15975000Y37586252D02*
X15975000Y37063748D01*
X14505000Y37586252D02*
X14505000Y37063748D01*
%TO.C,U1*%
X16474000Y40913900D02*
X16474000Y39113900D01*
X16474000Y40913900D02*
X16474000Y41713900D01*
X19594000Y40913900D02*
X19594000Y40113900D01*
X19594000Y40913900D02*
X19594000Y41713900D01*
%TO.C,J3*%
X687400Y36946500D02*
X687400Y45116500D01*
X1537400Y36946500D02*
X687400Y36946500D01*
X5057400Y36946500D02*
X5907400Y36946500D01*
X5907400Y36946500D02*
X5907400Y39271500D01*
X5907400Y39271500D02*
X8297400Y39271500D01*
X687400Y45116500D02*
X1537400Y45116500D01*
X5057400Y45116500D02*
X5907400Y45116500D01*
X5907400Y45116500D02*
X5907400Y42791500D01*
%TO.C,RV1*%
X1715800Y34362800D02*
X1715800Y33662800D01*
X2215800Y32762800D02*
X2215800Y32362800D01*
X2415800Y34362800D02*
X1715800Y34362800D01*
X3315800Y34162800D02*
X6215800Y34162800D01*
X3315800Y30962800D02*
X6215800Y30962800D01*
X6215800Y34162800D02*
X6215800Y33562800D01*
X6215800Y30962800D02*
X6215800Y31562800D01*
%TO.C,R2*%
X26125936Y30478400D02*
X26580064Y30478400D01*
X26125936Y29008400D02*
X26580064Y29008400D01*
%TO.C,JP2*%
X9698000Y31874000D02*
X9098000Y31874000D01*
X8398000Y32574000D02*
X8398000Y33974000D01*
X10398000Y33974000D02*
X10398000Y32574000D01*
X9098000Y34674000D02*
X9698000Y34674000D01*
X8398000Y32574000D02*
G75*
G03*
X9098000Y31874000I699999J-1D01*
G01*
X9698000Y31874000D02*
G75*
G03*
X10398000Y32574000I1J699999D01*
G01*
X9098000Y34674000D02*
G75*
G03*
X8398000Y33974000I0J-700000D01*
G01*
X10398000Y33974000D02*
G75*
G03*
X9698000Y34674000I-700000J0D01*
G01*
%TO.C,J5*%
X6620000Y7560000D02*
X6620000Y8890000D01*
X7950000Y7560000D02*
X6620000Y7560000D01*
X9220000Y7560000D02*
X14360000Y7560000D01*
X9220000Y7560000D02*
X9220000Y10220000D01*
X14360000Y7560000D02*
X14360000Y10220000D01*
X9220000Y10220000D02*
X14360000Y10220000D01*
%TO.C,R1*%
X18452064Y43638800D02*
X17997936Y43638800D01*
X18452064Y45108800D02*
X17997936Y45108800D01*
%TO.C,G\u002A\u002A\u002A*%
D14*
X18741572Y47314619D02*
X18614572Y47207714D01*
X18528919Y47149105D01*
X18443296Y47110750D01*
X18374432Y47096600D01*
X18339057Y47110608D01*
X18345807Y47144214D01*
X18432065Y47256868D01*
X18535769Y47308730D01*
X18611124Y47315595D01*
X18741572Y47314619D01*
G36*
X18741572Y47314619D02*
G01*
X18614572Y47207714D01*
X18528919Y47149105D01*
X18443296Y47110750D01*
X18374432Y47096600D01*
X18339057Y47110608D01*
X18345807Y47144214D01*
X18432065Y47256868D01*
X18535769Y47308730D01*
X18611124Y47315595D01*
X18741572Y47314619D01*
G37*
X12453967Y47238756D02*
X12506885Y47216544D01*
X12511964Y47167648D01*
X12496547Y47119968D01*
X12456114Y47081706D01*
X12364420Y47064482D01*
X12296975Y47062572D01*
X12194754Y47068689D01*
X12130578Y47084297D01*
X12119429Y47095889D01*
X12136314Y47180611D01*
X12195325Y47227039D01*
X12308992Y47243550D01*
X12341025Y47244000D01*
X12453967Y47238756D01*
G36*
X12453967Y47238756D02*
G01*
X12506885Y47216544D01*
X12511964Y47167648D01*
X12496547Y47119968D01*
X12456114Y47081706D01*
X12364420Y47064482D01*
X12296975Y47062572D01*
X12194754Y47068689D01*
X12130578Y47084297D01*
X12119429Y47095889D01*
X12136314Y47180611D01*
X12195325Y47227039D01*
X12308992Y47243550D01*
X12341025Y47244000D01*
X12453967Y47238756D01*
G37*
X20685165Y47232319D02*
X20698745Y47202400D01*
X20692070Y47155019D01*
X20674405Y47099624D01*
X20635429Y47072243D01*
X20554521Y47063219D01*
X20494675Y47062572D01*
X20388159Y47065488D01*
X20336933Y47079812D01*
X20323778Y47113905D01*
X20326548Y47144214D01*
X20343106Y47193559D01*
X20387466Y47220385D01*
X20478749Y47233647D01*
X20523943Y47236662D01*
X20632439Y47241048D01*
X20685165Y47232319D01*
G36*
X20685165Y47232319D02*
G01*
X20698745Y47202400D01*
X20692070Y47155019D01*
X20674405Y47099624D01*
X20635429Y47072243D01*
X20554521Y47063219D01*
X20494675Y47062572D01*
X20388159Y47065488D01*
X20336933Y47079812D01*
X20323778Y47113905D01*
X20326548Y47144214D01*
X20343106Y47193559D01*
X20387466Y47220385D01*
X20478749Y47233647D01*
X20523943Y47236662D01*
X20632439Y47241048D01*
X20685165Y47232319D01*
G37*
X20523089Y46879076D02*
X20578769Y46864864D01*
X20604009Y46826493D01*
X20601936Y46751948D01*
X20575676Y46629214D01*
X20537714Y46482000D01*
X20502831Y46336440D01*
X20477224Y46205878D01*
X20465919Y46116290D01*
X20465765Y46110072D01*
X20461550Y46054029D01*
X20438156Y46024245D01*
X20378117Y46012428D01*
X20263966Y46010288D01*
X20255537Y46010286D01*
X20045930Y46010286D01*
X20151664Y46445714D01*
X20257398Y46881143D01*
X20433842Y46881143D01*
X20523089Y46879076D01*
G36*
X20523089Y46879076D02*
G01*
X20578769Y46864864D01*
X20604009Y46826493D01*
X20601936Y46751948D01*
X20575676Y46629214D01*
X20537714Y46482000D01*
X20502831Y46336440D01*
X20477224Y46205878D01*
X20465919Y46116290D01*
X20465765Y46110072D01*
X20461550Y46054029D01*
X20438156Y46024245D01*
X20378117Y46012428D01*
X20263966Y46010288D01*
X20255537Y46010286D01*
X20045930Y46010286D01*
X20151664Y46445714D01*
X20257398Y46881143D01*
X20433842Y46881143D01*
X20523089Y46879076D01*
G37*
X12373598Y46876965D02*
X12428063Y46862202D01*
X12435250Y46833100D01*
X12434212Y46830190D01*
X12418789Y46775229D01*
X12392345Y46666380D01*
X12358933Y46520747D01*
X12331103Y46394761D01*
X12247546Y46010286D01*
X12052255Y46010286D01*
X11940364Y46012436D01*
X11885217Y46023840D01*
X11871008Y46051930D01*
X11878633Y46091929D01*
X11895997Y46161596D01*
X11924938Y46282037D01*
X11960693Y46433318D01*
X11982650Y46527230D01*
X12065000Y46880889D01*
X12259382Y46881016D01*
X12373598Y46876965D01*
G36*
X12373598Y46876965D02*
G01*
X12428063Y46862202D01*
X12435250Y46833100D01*
X12434212Y46830190D01*
X12418789Y46775229D01*
X12392345Y46666380D01*
X12358933Y46520747D01*
X12331103Y46394761D01*
X12247546Y46010286D01*
X12052255Y46010286D01*
X11940364Y46012436D01*
X11885217Y46023840D01*
X11871008Y46051930D01*
X11878633Y46091929D01*
X11895997Y46161596D01*
X11924938Y46282037D01*
X11960693Y46433318D01*
X11982650Y46527230D01*
X12065000Y46880889D01*
X12259382Y46881016D01*
X12373598Y46876965D01*
G37*
X16173693Y46876961D02*
X16211433Y46854706D01*
X16214968Y46799814D01*
X16213053Y46781886D01*
X16199739Y46719819D01*
X16164726Y46693502D01*
X16086330Y46691343D01*
X16048407Y46693870D01*
X15918748Y46685735D01*
X15821815Y46633996D01*
X15750269Y46530342D01*
X15696772Y46366463D01*
X15677103Y46273357D01*
X15627502Y46010286D01*
X15429519Y46010286D01*
X15316632Y46012376D01*
X15260560Y46023504D01*
X15245569Y46050956D01*
X15253204Y46091929D01*
X15270569Y46161596D01*
X15299510Y46282037D01*
X15335264Y46433318D01*
X15357222Y46527230D01*
X15439572Y46880889D01*
X15610790Y46881016D01*
X15716024Y46876068D01*
X15761510Y46858280D01*
X15762531Y46830385D01*
X15760120Y46773572D01*
X15798886Y46759805D01*
X15859050Y46792742D01*
X15875775Y46809427D01*
X15976582Y46868539D01*
X16082606Y46881143D01*
X16173693Y46876961D01*
G36*
X16173693Y46876961D02*
G01*
X16211433Y46854706D01*
X16214968Y46799814D01*
X16213053Y46781886D01*
X16199739Y46719819D01*
X16164726Y46693502D01*
X16086330Y46691343D01*
X16048407Y46693870D01*
X15918748Y46685735D01*
X15821815Y46633996D01*
X15750269Y46530342D01*
X15696772Y46366463D01*
X15677103Y46273357D01*
X15627502Y46010286D01*
X15429519Y46010286D01*
X15316632Y46012376D01*
X15260560Y46023504D01*
X15245569Y46050956D01*
X15253204Y46091929D01*
X15270569Y46161596D01*
X15299510Y46282037D01*
X15335264Y46433318D01*
X15357222Y46527230D01*
X15439572Y46880889D01*
X15610790Y46881016D01*
X15716024Y46876068D01*
X15761510Y46858280D01*
X15762531Y46830385D01*
X15760120Y46773572D01*
X15798886Y46759805D01*
X15859050Y46792742D01*
X15875775Y46809427D01*
X15976582Y46868539D01*
X16082606Y46881143D01*
X16173693Y46876961D01*
G37*
X21586874Y46879499D02*
X21705531Y46873580D01*
X21774115Y46861905D01*
X21803848Y46842993D01*
X21807714Y46828241D01*
X21790637Y46799621D01*
X21731485Y46780825D01*
X21618383Y46769168D01*
X21526548Y46764741D01*
X21245382Y46754143D01*
X21196926Y46609000D01*
X21163810Y46474327D01*
X21143940Y46327246D01*
X21142450Y46300571D01*
X21136429Y46137286D01*
X21383810Y46126501D01*
X21526200Y46115426D01*
X21601690Y46096848D01*
X21616710Y46072072D01*
X21575374Y46049003D01*
X21467225Y46032080D01*
X21289937Y46021001D01*
X21202360Y46018219D01*
X21019075Y46015363D01*
X20894905Y46018817D01*
X20816557Y46029970D01*
X20770743Y46050213D01*
X20755203Y46064987D01*
X20733984Y46105780D01*
X20729780Y46168050D01*
X20743529Y46267960D01*
X20775764Y46419910D01*
X20820859Y46600581D01*
X20868858Y46726728D01*
X20933102Y46808099D01*
X21026929Y46854442D01*
X21163681Y46875507D01*
X21356698Y46881041D01*
X21406922Y46881143D01*
X21586874Y46879499D01*
G36*
X21586874Y46879499D02*
G01*
X21705531Y46873580D01*
X21774115Y46861905D01*
X21803848Y46842993D01*
X21807714Y46828241D01*
X21790637Y46799621D01*
X21731485Y46780825D01*
X21618383Y46769168D01*
X21526548Y46764741D01*
X21245382Y46754143D01*
X21196926Y46609000D01*
X21163810Y46474327D01*
X21143940Y46327246D01*
X21142450Y46300571D01*
X21136429Y46137286D01*
X21383810Y46126501D01*
X21526200Y46115426D01*
X21601690Y46096848D01*
X21616710Y46072072D01*
X21575374Y46049003D01*
X21467225Y46032080D01*
X21289937Y46021001D01*
X21202360Y46018219D01*
X21019075Y46015363D01*
X20894905Y46018817D01*
X20816557Y46029970D01*
X20770743Y46050213D01*
X20755203Y46064987D01*
X20733984Y46105780D01*
X20729780Y46168050D01*
X20743529Y46267960D01*
X20775764Y46419910D01*
X20820859Y46600581D01*
X20868858Y46726728D01*
X20933102Y46808099D01*
X21026929Y46854442D01*
X21163681Y46875507D01*
X21356698Y46881041D01*
X21406922Y46881143D01*
X21586874Y46879499D01*
G37*
X16701618Y46871819D02*
X16767056Y46846417D01*
X16774584Y46835786D01*
X16798813Y46808625D01*
X16839293Y46835786D01*
X16897831Y46857673D01*
X17005057Y46873085D01*
X17137300Y46881090D01*
X17270890Y46880758D01*
X17382156Y46871157D01*
X17432318Y46859118D01*
X17474986Y46807741D01*
X17488023Y46696336D01*
X17471410Y46522822D01*
X17426562Y46291500D01*
X17363374Y46010286D01*
X17170099Y46010286D01*
X17058398Y46013370D01*
X17003992Y46026305D01*
X16991737Y46054612D01*
X16995923Y46073786D01*
X17032038Y46208634D01*
X17065506Y46358969D01*
X17092805Y46505196D01*
X17110415Y46627719D01*
X17114815Y46706944D01*
X17112317Y46721553D01*
X17072554Y46757878D01*
X16982791Y46767576D01*
X16936689Y46765317D01*
X16836889Y46752424D01*
X16782579Y46719036D01*
X16746675Y46644550D01*
X16735927Y46612592D01*
X16703608Y46497882D01*
X16668445Y46349596D01*
X16646009Y46240663D01*
X16602307Y46010286D01*
X16406779Y46010286D01*
X16294799Y46012431D01*
X16239568Y46023811D01*
X16225286Y46051846D01*
X16232905Y46091929D01*
X16249983Y46161687D01*
X16278149Y46282306D01*
X16312768Y46433797D01*
X16333849Y46527357D01*
X16413139Y46881143D01*
X16585546Y46881143D01*
X16701618Y46871819D01*
G36*
X16701618Y46871819D02*
G01*
X16767056Y46846417D01*
X16774584Y46835786D01*
X16798813Y46808625D01*
X16839293Y46835786D01*
X16897831Y46857673D01*
X17005057Y46873085D01*
X17137300Y46881090D01*
X17270890Y46880758D01*
X17382156Y46871157D01*
X17432318Y46859118D01*
X17474986Y46807741D01*
X17488023Y46696336D01*
X17471410Y46522822D01*
X17426562Y46291500D01*
X17363374Y46010286D01*
X17170099Y46010286D01*
X17058398Y46013370D01*
X17003992Y46026305D01*
X16991737Y46054612D01*
X16995923Y46073786D01*
X17032038Y46208634D01*
X17065506Y46358969D01*
X17092805Y46505196D01*
X17110415Y46627719D01*
X17114815Y46706944D01*
X17112317Y46721553D01*
X17072554Y46757878D01*
X16982791Y46767576D01*
X16936689Y46765317D01*
X16836889Y46752424D01*
X16782579Y46719036D01*
X16746675Y46644550D01*
X16735927Y46612592D01*
X16703608Y46497882D01*
X16668445Y46349596D01*
X16646009Y46240663D01*
X16602307Y46010286D01*
X16406779Y46010286D01*
X16294799Y46012431D01*
X16239568Y46023811D01*
X16225286Y46051846D01*
X16232905Y46091929D01*
X16249983Y46161687D01*
X16278149Y46282306D01*
X16312768Y46433797D01*
X16333849Y46527357D01*
X16413139Y46881143D01*
X16585546Y46881143D01*
X16701618Y46871819D01*
G37*
X19619360Y47094920D02*
X19658295Y47073649D01*
X19662689Y47020855D01*
X19660383Y46999071D01*
X19658283Y46938902D01*
X19682160Y46907788D01*
X19749671Y46893713D01*
X19823401Y46888131D01*
X19937337Y46871055D01*
X19982780Y46843478D01*
X19961677Y46812367D01*
X19875971Y46784688D01*
X19791049Y46772286D01*
X19612440Y46754143D01*
X19551838Y46536429D01*
X19518522Y46402377D01*
X19495308Y46281849D01*
X19488332Y46218929D01*
X19491134Y46160192D01*
X19516152Y46130665D01*
X19581614Y46120328D01*
X19669881Y46119143D01*
X19785178Y46113143D01*
X19836442Y46093776D01*
X19839303Y46073786D01*
X19796462Y46047216D01*
X19701146Y46028238D01*
X19573085Y46017178D01*
X19432013Y46014365D01*
X19297659Y46020127D01*
X19189757Y46034791D01*
X19128036Y46058686D01*
X19124896Y46061914D01*
X19105284Y46103714D01*
X19103486Y46171465D01*
X19120619Y46280432D01*
X19150935Y46416988D01*
X19181527Y46556833D01*
X19201581Y46669110D01*
X19208033Y46735714D01*
X19206410Y46745072D01*
X19161655Y46767790D01*
X19120430Y46772286D01*
X19062793Y46795529D01*
X19050000Y46826714D01*
X19082455Y46869926D01*
X19158857Y46881143D01*
X19243837Y46896714D01*
X19267714Y46932980D01*
X19300620Y47016789D01*
X19389188Y47075301D01*
X19518197Y47098776D01*
X19526903Y47098857D01*
X19619360Y47094920D01*
G36*
X19619360Y47094920D02*
G01*
X19658295Y47073649D01*
X19662689Y47020855D01*
X19660383Y46999071D01*
X19658283Y46938902D01*
X19682160Y46907788D01*
X19749671Y46893713D01*
X19823401Y46888131D01*
X19937337Y46871055D01*
X19982780Y46843478D01*
X19961677Y46812367D01*
X19875971Y46784688D01*
X19791049Y46772286D01*
X19612440Y46754143D01*
X19551838Y46536429D01*
X19518522Y46402377D01*
X19495308Y46281849D01*
X19488332Y46218929D01*
X19491134Y46160192D01*
X19516152Y46130665D01*
X19581614Y46120328D01*
X19669881Y46119143D01*
X19785178Y46113143D01*
X19836442Y46093776D01*
X19839303Y46073786D01*
X19796462Y46047216D01*
X19701146Y46028238D01*
X19573085Y46017178D01*
X19432013Y46014365D01*
X19297659Y46020127D01*
X19189757Y46034791D01*
X19128036Y46058686D01*
X19124896Y46061914D01*
X19105284Y46103714D01*
X19103486Y46171465D01*
X19120619Y46280432D01*
X19150935Y46416988D01*
X19181527Y46556833D01*
X19201581Y46669110D01*
X19208033Y46735714D01*
X19206410Y46745072D01*
X19161655Y46767790D01*
X19120430Y46772286D01*
X19062793Y46795529D01*
X19050000Y46826714D01*
X19082455Y46869926D01*
X19158857Y46881143D01*
X19243837Y46896714D01*
X19267714Y46932980D01*
X19300620Y47016789D01*
X19389188Y47075301D01*
X19518197Y47098776D01*
X19526903Y47098857D01*
X19619360Y47094920D01*
G37*
X11708511Y47242707D02*
X11814582Y47237535D01*
X11871467Y47226547D01*
X11890844Y47207804D01*
X11887454Y47186604D01*
X11868103Y47123274D01*
X11865511Y47104961D01*
X11832391Y47094629D01*
X11745095Y47090116D01*
X11621849Y47092287D01*
X11609824Y47092829D01*
X11454193Y47093576D01*
X11344959Y47080296D01*
X11303795Y47063231D01*
X11271288Y47008488D01*
X11233188Y46902978D01*
X11193401Y46764051D01*
X11155829Y46609057D01*
X11124378Y46455344D01*
X11102953Y46320263D01*
X11095457Y46221162D01*
X11104266Y46176635D01*
X11158863Y46157551D01*
X11265468Y46145104D01*
X11403646Y46141606D01*
X11412747Y46141735D01*
X11549239Y46142728D01*
X11626217Y46137689D01*
X11656696Y46123064D01*
X11653692Y46095299D01*
X11645241Y46078235D01*
X11622592Y46049155D01*
X11582917Y46029713D01*
X11513195Y46018021D01*
X11400400Y46012194D01*
X11231508Y46010347D01*
X11176000Y46010286D01*
X10990783Y46011303D01*
X10864974Y46015677D01*
X10785424Y46025392D01*
X10738982Y46042433D01*
X10712498Y46068783D01*
X10705097Y46081342D01*
X10690722Y46140019D01*
X10694852Y46236980D01*
X10718566Y46384040D01*
X10744039Y46507699D01*
X10800679Y46754988D01*
X10855154Y46939771D01*
X10917286Y47071115D01*
X10996897Y47158089D01*
X11103809Y47209759D01*
X11247844Y47235195D01*
X11438824Y47243464D01*
X11541574Y47244000D01*
X11708511Y47242707D01*
G36*
X11708511Y47242707D02*
G01*
X11814582Y47237535D01*
X11871467Y47226547D01*
X11890844Y47207804D01*
X11887454Y47186604D01*
X11868103Y47123274D01*
X11865511Y47104961D01*
X11832391Y47094629D01*
X11745095Y47090116D01*
X11621849Y47092287D01*
X11609824Y47092829D01*
X11454193Y47093576D01*
X11344959Y47080296D01*
X11303795Y47063231D01*
X11271288Y47008488D01*
X11233188Y46902978D01*
X11193401Y46764051D01*
X11155829Y46609057D01*
X11124378Y46455344D01*
X11102953Y46320263D01*
X11095457Y46221162D01*
X11104266Y46176635D01*
X11158863Y46157551D01*
X11265468Y46145104D01*
X11403646Y46141606D01*
X11412747Y46141735D01*
X11549239Y46142728D01*
X11626217Y46137689D01*
X11656696Y46123064D01*
X11653692Y46095299D01*
X11645241Y46078235D01*
X11622592Y46049155D01*
X11582917Y46029713D01*
X11513195Y46018021D01*
X11400400Y46012194D01*
X11231508Y46010347D01*
X11176000Y46010286D01*
X10990783Y46011303D01*
X10864974Y46015677D01*
X10785424Y46025392D01*
X10738982Y46042433D01*
X10712498Y46068783D01*
X10705097Y46081342D01*
X10690722Y46140019D01*
X10694852Y46236980D01*
X10718566Y46384040D01*
X10744039Y46507699D01*
X10800679Y46754988D01*
X10855154Y46939771D01*
X10917286Y47071115D01*
X10996897Y47158089D01*
X11103809Y47209759D01*
X11247844Y47235195D01*
X11438824Y47243464D01*
X11541574Y47244000D01*
X11708511Y47242707D01*
G37*
X8983910Y47243236D02*
X9088735Y47238938D01*
X9147541Y47228102D01*
X9173606Y47207721D01*
X9180203Y47174789D01*
X9180370Y47162357D01*
X9176106Y47120435D01*
X9152892Y47096914D01*
X9095258Y47087582D01*
X8987735Y47088224D01*
X8917299Y47090708D01*
X8781103Y47091471D01*
X8670569Y47084069D01*
X8608292Y47070085D01*
X8606357Y47068923D01*
X8577809Y47021654D01*
X8539798Y46921392D01*
X8497323Y46786259D01*
X8455381Y46634377D01*
X8418971Y46483869D01*
X8393092Y46352858D01*
X8382742Y46259465D01*
X8382728Y46258097D01*
X8396620Y46184814D01*
X8453796Y46147064D01*
X8492319Y46136965D01*
X8594797Y46127584D01*
X8727286Y46131704D01*
X8788082Y46138240D01*
X8895637Y46150590D01*
X8946738Y46146699D01*
X8956343Y46123232D01*
X8949907Y46102191D01*
X8929756Y46042398D01*
X8926286Y46025461D01*
X8892898Y46014219D01*
X8803892Y46008034D01*
X8676007Y46006379D01*
X8525981Y46008727D01*
X8370553Y46014549D01*
X8226462Y46023318D01*
X8110446Y46034507D01*
X8039243Y46047587D01*
X8026400Y46053829D01*
X7994418Y46114243D01*
X7986819Y46213263D01*
X8004234Y46359444D01*
X8047294Y46561344D01*
X8070720Y46655264D01*
X8130722Y46872759D01*
X8190138Y47028998D01*
X8261775Y47134049D01*
X8358444Y47197979D01*
X8492955Y47230857D01*
X8678117Y47242749D01*
X8819791Y47244000D01*
X8983910Y47243236D01*
G36*
X8983910Y47243236D02*
G01*
X9088735Y47238938D01*
X9147541Y47228102D01*
X9173606Y47207721D01*
X9180203Y47174789D01*
X9180370Y47162357D01*
X9176106Y47120435D01*
X9152892Y47096914D01*
X9095258Y47087582D01*
X8987735Y47088224D01*
X8917299Y47090708D01*
X8781103Y47091471D01*
X8670569Y47084069D01*
X8608292Y47070085D01*
X8606357Y47068923D01*
X8577809Y47021654D01*
X8539798Y46921392D01*
X8497323Y46786259D01*
X8455381Y46634377D01*
X8418971Y46483869D01*
X8393092Y46352858D01*
X8382742Y46259465D01*
X8382728Y46258097D01*
X8396620Y46184814D01*
X8453796Y46147064D01*
X8492319Y46136965D01*
X8594797Y46127584D01*
X8727286Y46131704D01*
X8788082Y46138240D01*
X8895637Y46150590D01*
X8946738Y46146699D01*
X8956343Y46123232D01*
X8949907Y46102191D01*
X8929756Y46042398D01*
X8926286Y46025461D01*
X8892898Y46014219D01*
X8803892Y46008034D01*
X8676007Y46006379D01*
X8525981Y46008727D01*
X8370553Y46014549D01*
X8226462Y46023318D01*
X8110446Y46034507D01*
X8039243Y46047587D01*
X8026400Y46053829D01*
X7994418Y46114243D01*
X7986819Y46213263D01*
X8004234Y46359444D01*
X8047294Y46561344D01*
X8070720Y46655264D01*
X8130722Y46872759D01*
X8190138Y47028998D01*
X8261775Y47134049D01*
X8358444Y47197979D01*
X8492955Y47230857D01*
X8678117Y47242749D01*
X8819791Y47244000D01*
X8983910Y47243236D01*
G37*
X13087586Y47242379D02*
X13156539Y47238426D01*
X13171284Y47234929D01*
X13162516Y47197929D01*
X13140318Y47111808D01*
X13118192Y47027973D01*
X13087655Y46897186D01*
X13084562Y46826653D01*
X13111149Y46808577D01*
X13169650Y46835161D01*
X13172872Y46837159D01*
X13247482Y46860318D01*
X13367196Y46875354D01*
X13504894Y46881200D01*
X13633451Y46876791D01*
X13725746Y46861059D01*
X13731175Y46859118D01*
X13774412Y46811218D01*
X13786003Y46709945D01*
X13765942Y46550954D01*
X13730456Y46392556D01*
X13680463Y46221726D01*
X13622847Y46110544D01*
X13541813Y46046551D01*
X13421565Y46017285D01*
X13246309Y46010286D01*
X13245896Y46010286D01*
X13078226Y46015521D01*
X12978418Y46031624D01*
X12943417Y46055643D01*
X12919187Y46082804D01*
X12878707Y46055643D01*
X12823087Y46031185D01*
X12733649Y46015596D01*
X12636018Y46010166D01*
X12555817Y46016184D01*
X12518671Y46034941D01*
X12518311Y46037500D01*
X12526027Y46080293D01*
X12547547Y46181448D01*
X12550444Y46194528D01*
X12944793Y46194528D01*
X12969410Y46143028D01*
X13030491Y46124511D01*
X13129291Y46126375D01*
X13297307Y46137286D01*
X13361112Y46409429D01*
X13389647Y46545439D01*
X13406823Y46656524D01*
X13409538Y46721813D01*
X13408312Y46726929D01*
X13363822Y46756765D01*
X13273190Y46771730D01*
X13249868Y46772286D01*
X13156186Y46765745D01*
X13092258Y46737156D01*
X13047062Y46673065D01*
X13009575Y46560022D01*
X12982276Y46445714D01*
X12950970Y46291320D01*
X12944793Y46194528D01*
X12550444Y46194528D01*
X12580157Y46328659D01*
X12621141Y46509624D01*
X12654382Y46654217D01*
X12790715Y47243719D01*
X12981215Y47243860D01*
X13087586Y47242379D01*
G36*
X13087586Y47242379D02*
G01*
X13156539Y47238426D01*
X13171284Y47234929D01*
X13162516Y47197929D01*
X13140318Y47111808D01*
X13118192Y47027973D01*
X13087655Y46897186D01*
X13084562Y46826653D01*
X13111149Y46808577D01*
X13169650Y46835161D01*
X13172872Y46837159D01*
X13247482Y46860318D01*
X13367196Y46875354D01*
X13504894Y46881200D01*
X13633451Y46876791D01*
X13725746Y46861059D01*
X13731175Y46859118D01*
X13774412Y46811218D01*
X13786003Y46709945D01*
X13765942Y46550954D01*
X13730456Y46392556D01*
X13680463Y46221726D01*
X13622847Y46110544D01*
X13541813Y46046551D01*
X13421565Y46017285D01*
X13246309Y46010286D01*
X13245896Y46010286D01*
X13078226Y46015521D01*
X12978418Y46031624D01*
X12943417Y46055643D01*
X12919187Y46082804D01*
X12878707Y46055643D01*
X12823087Y46031185D01*
X12733649Y46015596D01*
X12636018Y46010166D01*
X12555817Y46016184D01*
X12518671Y46034941D01*
X12518311Y46037500D01*
X12526027Y46080293D01*
X12547547Y46181448D01*
X12550444Y46194528D01*
X12944793Y46194528D01*
X12969410Y46143028D01*
X13030491Y46124511D01*
X13129291Y46126375D01*
X13297307Y46137286D01*
X13361112Y46409429D01*
X13389647Y46545439D01*
X13406823Y46656524D01*
X13409538Y46721813D01*
X13408312Y46726929D01*
X13363822Y46756765D01*
X13273190Y46771730D01*
X13249868Y46772286D01*
X13156186Y46765745D01*
X13092258Y46737156D01*
X13047062Y46673065D01*
X13009575Y46560022D01*
X12982276Y46445714D01*
X12950970Y46291320D01*
X12944793Y46194528D01*
X12550444Y46194528D01*
X12580157Y46328659D01*
X12621141Y46509624D01*
X12654382Y46654217D01*
X12790715Y47243719D01*
X12981215Y47243860D01*
X13087586Y47242379D01*
G37*
X14609571Y46873690D02*
X14640511Y46873067D01*
X15113000Y46863000D01*
X15124215Y46765980D01*
X15121909Y46667441D01*
X15101997Y46546688D01*
X15095602Y46521051D01*
X15055774Y46373143D01*
X14680405Y46373143D01*
X14510220Y46371869D01*
X14399171Y46366514D01*
X14333845Y46354776D01*
X14300828Y46334354D01*
X14287406Y46305725D01*
X14278242Y46225003D01*
X14306696Y46170556D01*
X14381859Y46137832D01*
X14512820Y46122280D01*
X14660093Y46119143D01*
X14815403Y46117408D01*
X14910132Y46110771D01*
X14956216Y46097087D01*
X14965593Y46074210D01*
X14962836Y46064714D01*
X14942346Y46042322D01*
X14893793Y46026818D01*
X14806378Y46017068D01*
X14669302Y46011940D01*
X14471766Y46010302D01*
X14443880Y46010286D01*
X14260635Y46011959D01*
X14104102Y46016549D01*
X13988255Y46023406D01*
X13927068Y46031885D01*
X13921619Y46034476D01*
X13901613Y46097644D01*
X13903850Y46209378D01*
X13924042Y46350695D01*
X13957903Y46502615D01*
X13978953Y46572495D01*
X14351477Y46572495D01*
X14352606Y46515920D01*
X14353576Y46514118D01*
X14398535Y46495375D01*
X14490574Y46483803D01*
X14549830Y46482000D01*
X14656584Y46485418D01*
X14712510Y46503470D01*
X14739292Y46547857D01*
X14749949Y46589972D01*
X14760590Y46690596D01*
X14729274Y46746637D01*
X14644658Y46769594D01*
X14570123Y46772286D01*
X14468856Y46767000D01*
X14414305Y46741337D01*
X14380835Y46680589D01*
X14373127Y46659261D01*
X14351477Y46572495D01*
X13978953Y46572495D01*
X14001142Y46646155D01*
X14049474Y46762333D01*
X14098609Y46832167D01*
X14102510Y46835230D01*
X14155742Y46856516D01*
X14251680Y46869577D01*
X14399798Y46875079D01*
X14609571Y46873690D01*
G36*
X14609571Y46873690D02*
G01*
X14640511Y46873067D01*
X15113000Y46863000D01*
X15124215Y46765980D01*
X15121909Y46667441D01*
X15101997Y46546688D01*
X15095602Y46521051D01*
X15055774Y46373143D01*
X14680405Y46373143D01*
X14510220Y46371869D01*
X14399171Y46366514D01*
X14333845Y46354776D01*
X14300828Y46334354D01*
X14287406Y46305725D01*
X14278242Y46225003D01*
X14306696Y46170556D01*
X14381859Y46137832D01*
X14512820Y46122280D01*
X14660093Y46119143D01*
X14815403Y46117408D01*
X14910132Y46110771D01*
X14956216Y46097087D01*
X14965593Y46074210D01*
X14962836Y46064714D01*
X14942346Y46042322D01*
X14893793Y46026818D01*
X14806378Y46017068D01*
X14669302Y46011940D01*
X14471766Y46010302D01*
X14443880Y46010286D01*
X14260635Y46011959D01*
X14104102Y46016549D01*
X13988255Y46023406D01*
X13927068Y46031885D01*
X13921619Y46034476D01*
X13901613Y46097644D01*
X13903850Y46209378D01*
X13924042Y46350695D01*
X13957903Y46502615D01*
X13978953Y46572495D01*
X14351477Y46572495D01*
X14352606Y46515920D01*
X14353576Y46514118D01*
X14398535Y46495375D01*
X14490574Y46483803D01*
X14549830Y46482000D01*
X14656584Y46485418D01*
X14712510Y46503470D01*
X14739292Y46547857D01*
X14749949Y46589972D01*
X14760590Y46690596D01*
X14729274Y46746637D01*
X14644658Y46769594D01*
X14570123Y46772286D01*
X14468856Y46767000D01*
X14414305Y46741337D01*
X14380835Y46680589D01*
X14373127Y46659261D01*
X14351477Y46572495D01*
X13978953Y46572495D01*
X14001142Y46646155D01*
X14049474Y46762333D01*
X14098609Y46832167D01*
X14102510Y46835230D01*
X14155742Y46856516D01*
X14251680Y46869577D01*
X14399798Y46875079D01*
X14609571Y46873690D01*
G37*
X18347000Y46873690D02*
X18377940Y46873067D01*
X18850429Y46863000D01*
X18861644Y46765980D01*
X18859337Y46667441D01*
X18839426Y46546688D01*
X18833031Y46521051D01*
X18793203Y46373143D01*
X18417834Y46373143D01*
X18247649Y46371869D01*
X18136600Y46366514D01*
X18071273Y46354776D01*
X18038256Y46334354D01*
X18024834Y46305725D01*
X18015671Y46225003D01*
X18044125Y46170556D01*
X18119287Y46137832D01*
X18250248Y46122280D01*
X18397522Y46119143D01*
X18552832Y46117408D01*
X18647560Y46110771D01*
X18693645Y46097087D01*
X18703022Y46074210D01*
X18700265Y46064714D01*
X18679774Y46042322D01*
X18631221Y46026818D01*
X18543806Y46017068D01*
X18406730Y46011940D01*
X18209194Y46010302D01*
X18181309Y46010286D01*
X17998063Y46011959D01*
X17841531Y46016549D01*
X17725684Y46023406D01*
X17664497Y46031885D01*
X17659048Y46034476D01*
X17639041Y46097644D01*
X17641278Y46209378D01*
X17661471Y46350695D01*
X17695331Y46502615D01*
X17716381Y46572495D01*
X18088906Y46572495D01*
X18090035Y46515920D01*
X18091005Y46514118D01*
X18135963Y46495375D01*
X18228003Y46483803D01*
X18287259Y46482000D01*
X18394013Y46485418D01*
X18449939Y46503470D01*
X18476720Y46547857D01*
X18487377Y46589972D01*
X18498018Y46690596D01*
X18466702Y46746637D01*
X18382086Y46769594D01*
X18307551Y46772286D01*
X18206285Y46767000D01*
X18151734Y46741337D01*
X18118263Y46680589D01*
X18110556Y46659261D01*
X18088906Y46572495D01*
X17716381Y46572495D01*
X17738571Y46646155D01*
X17786902Y46762333D01*
X17836037Y46832167D01*
X17839938Y46835230D01*
X17893170Y46856516D01*
X17989108Y46869577D01*
X18137226Y46875079D01*
X18347000Y46873690D01*
G36*
X18347000Y46873690D02*
G01*
X18377940Y46873067D01*
X18850429Y46863000D01*
X18861644Y46765980D01*
X18859337Y46667441D01*
X18839426Y46546688D01*
X18833031Y46521051D01*
X18793203Y46373143D01*
X18417834Y46373143D01*
X18247649Y46371869D01*
X18136600Y46366514D01*
X18071273Y46354776D01*
X18038256Y46334354D01*
X18024834Y46305725D01*
X18015671Y46225003D01*
X18044125Y46170556D01*
X18119287Y46137832D01*
X18250248Y46122280D01*
X18397522Y46119143D01*
X18552832Y46117408D01*
X18647560Y46110771D01*
X18693645Y46097087D01*
X18703022Y46074210D01*
X18700265Y46064714D01*
X18679774Y46042322D01*
X18631221Y46026818D01*
X18543806Y46017068D01*
X18406730Y46011940D01*
X18209194Y46010302D01*
X18181309Y46010286D01*
X17998063Y46011959D01*
X17841531Y46016549D01*
X17725684Y46023406D01*
X17664497Y46031885D01*
X17659048Y46034476D01*
X17639041Y46097644D01*
X17641278Y46209378D01*
X17661471Y46350695D01*
X17695331Y46502615D01*
X17716381Y46572495D01*
X18088906Y46572495D01*
X18090035Y46515920D01*
X18091005Y46514118D01*
X18135963Y46495375D01*
X18228003Y46483803D01*
X18287259Y46482000D01*
X18394013Y46485418D01*
X18449939Y46503470D01*
X18476720Y46547857D01*
X18487377Y46589972D01*
X18498018Y46690596D01*
X18466702Y46746637D01*
X18382086Y46769594D01*
X18307551Y46772286D01*
X18206285Y46767000D01*
X18151734Y46741337D01*
X18118263Y46680589D01*
X18110556Y46659261D01*
X18088906Y46572495D01*
X17716381Y46572495D01*
X17738571Y46646155D01*
X17786902Y46762333D01*
X17836037Y46832167D01*
X17839938Y46835230D01*
X17893170Y46856516D01*
X17989108Y46869577D01*
X18137226Y46875079D01*
X18347000Y46873690D01*
G37*
X22808597Y46879615D02*
X22930577Y46873504D01*
X22996072Y46863768D01*
X23044766Y46837405D01*
X23071385Y46781586D01*
X23076279Y46686593D01*
X23059797Y46542704D01*
X23022289Y46340199D01*
X23016007Y46309643D01*
X22953964Y46010286D01*
X22779982Y46010286D01*
X22678956Y46017076D01*
X22616189Y46034365D01*
X22606000Y46046572D01*
X22576610Y46078763D01*
X22551572Y46082857D01*
X22503284Y46063264D01*
X22497143Y46046572D01*
X22463065Y46028838D01*
X22369479Y46016300D01*
X22229355Y46010503D01*
X22192597Y46010286D01*
X22037069Y46012905D01*
X21939905Y46022437D01*
X21887031Y46041391D01*
X21865673Y46068600D01*
X21860503Y46150193D01*
X21872021Y46213553D01*
X22247680Y46213553D01*
X22277428Y46148517D01*
X22364535Y46124672D01*
X22431910Y46126112D01*
X22528245Y46137996D01*
X22580729Y46169052D01*
X22613992Y46240068D01*
X22630041Y46293335D01*
X22675027Y46449384D01*
X22489151Y46438478D01*
X22376898Y46427691D01*
X22315103Y46404812D01*
X22281656Y46358563D01*
X22269787Y46326589D01*
X22247680Y46213553D01*
X21872021Y46213553D01*
X21881494Y46265658D01*
X21920504Y46384913D01*
X21969393Y46477877D01*
X21980000Y46491071D01*
X22027531Y46525519D01*
X22104937Y46545314D01*
X22229168Y46553674D01*
X22314403Y46554572D01*
X22513791Y46565315D01*
X22644285Y46597496D01*
X22705708Y46651044D01*
X22703749Y46712610D01*
X22679790Y46742402D01*
X22626414Y46760596D01*
X22529431Y46769715D01*
X22374652Y46772284D01*
X22368258Y46772286D01*
X22209644Y46775116D01*
X22114279Y46784536D01*
X22073029Y46801939D01*
X22070719Y46817643D01*
X22110356Y46835524D01*
X22205745Y46851502D01*
X22340075Y46864738D01*
X22496535Y46874394D01*
X22658313Y46879632D01*
X22808597Y46879615D01*
G36*
X22808597Y46879615D02*
G01*
X22930577Y46873504D01*
X22996072Y46863768D01*
X23044766Y46837405D01*
X23071385Y46781586D01*
X23076279Y46686593D01*
X23059797Y46542704D01*
X23022289Y46340199D01*
X23016007Y46309643D01*
X22953964Y46010286D01*
X22779982Y46010286D01*
X22678956Y46017076D01*
X22616189Y46034365D01*
X22606000Y46046572D01*
X22576610Y46078763D01*
X22551572Y46082857D01*
X22503284Y46063264D01*
X22497143Y46046572D01*
X22463065Y46028838D01*
X22369479Y46016300D01*
X22229355Y46010503D01*
X22192597Y46010286D01*
X22037069Y46012905D01*
X21939905Y46022437D01*
X21887031Y46041391D01*
X21865673Y46068600D01*
X21860503Y46150193D01*
X21872021Y46213553D01*
X22247680Y46213553D01*
X22277428Y46148517D01*
X22364535Y46124672D01*
X22431910Y46126112D01*
X22528245Y46137996D01*
X22580729Y46169052D01*
X22613992Y46240068D01*
X22630041Y46293335D01*
X22675027Y46449384D01*
X22489151Y46438478D01*
X22376898Y46427691D01*
X22315103Y46404812D01*
X22281656Y46358563D01*
X22269787Y46326589D01*
X22247680Y46213553D01*
X21872021Y46213553D01*
X21881494Y46265658D01*
X21920504Y46384913D01*
X21969393Y46477877D01*
X21980000Y46491071D01*
X22027531Y46525519D01*
X22104937Y46545314D01*
X22229168Y46553674D01*
X22314403Y46554572D01*
X22513791Y46565315D01*
X22644285Y46597496D01*
X22705708Y46651044D01*
X22703749Y46712610D01*
X22679790Y46742402D01*
X22626414Y46760596D01*
X22529431Y46769715D01*
X22374652Y46772284D01*
X22368258Y46772286D01*
X22209644Y46775116D01*
X22114279Y46784536D01*
X22073029Y46801939D01*
X22070719Y46817643D01*
X22110356Y46835524D01*
X22205745Y46851502D01*
X22340075Y46864738D01*
X22496535Y46874394D01*
X22658313Y46879632D01*
X22808597Y46879615D01*
G37*
X10096316Y47241402D02*
X10270149Y47234284D01*
X10408578Y47223661D01*
X10495044Y47210546D01*
X10506378Y47207082D01*
X10564220Y47179556D01*
X10588513Y47140299D01*
X10587187Y47066168D01*
X10577858Y46998439D01*
X10533905Y46797796D01*
X10471955Y46656367D01*
X10394642Y46579732D01*
X10376759Y46572411D01*
X10339584Y46557478D01*
X10317836Y46532490D01*
X10311083Y46484291D01*
X10318892Y46399722D01*
X10340832Y46265623D01*
X10362696Y46144395D01*
X10387847Y46006362D01*
X10174138Y46017395D01*
X9960429Y46028429D01*
X9923954Y46282429D01*
X9903408Y46414878D01*
X9883283Y46491698D01*
X9854463Y46529203D01*
X9807834Y46543705D01*
X9775925Y46547338D01*
X9713041Y46549623D01*
X9674875Y46530298D01*
X9648896Y46473395D01*
X9622574Y46362946D01*
X9619317Y46347766D01*
X9585758Y46191654D01*
X9558810Y46092902D01*
X9527601Y46038437D01*
X9481259Y46015185D01*
X9408912Y46010072D01*
X9338681Y46010286D01*
X9224701Y46013189D01*
X9168188Y46025423D01*
X9154151Y46052276D01*
X9158666Y46073786D01*
X9186212Y46173400D01*
X9221679Y46316006D01*
X9261446Y46485226D01*
X9301888Y46664686D01*
X9320171Y46749203D01*
X9726681Y46749203D01*
X9762969Y46712242D01*
X9846091Y46704002D01*
X9915072Y46706890D01*
X10026606Y46715839D01*
X10088736Y46736927D01*
X10124511Y46786365D01*
X10155632Y46876095D01*
X10182006Y46987718D01*
X10167549Y47054727D01*
X10102417Y47087920D01*
X9976766Y47098096D01*
X9953063Y47098302D01*
X9855259Y47093911D01*
X9804093Y47067523D01*
X9773718Y47000733D01*
X9762765Y46962786D01*
X9729267Y46828259D01*
X9726681Y46749203D01*
X9320171Y46749203D01*
X9339383Y46838009D01*
X9370309Y46988820D01*
X9391042Y47100742D01*
X9398000Y47155598D01*
X9398000Y47244000D01*
X9903638Y47244000D01*
X10096316Y47241402D01*
G36*
X10096316Y47241402D02*
G01*
X10270149Y47234284D01*
X10408578Y47223661D01*
X10495044Y47210546D01*
X10506378Y47207082D01*
X10564220Y47179556D01*
X10588513Y47140299D01*
X10587187Y47066168D01*
X10577858Y46998439D01*
X10533905Y46797796D01*
X10471955Y46656367D01*
X10394642Y46579732D01*
X10376759Y46572411D01*
X10339584Y46557478D01*
X10317836Y46532490D01*
X10311083Y46484291D01*
X10318892Y46399722D01*
X10340832Y46265623D01*
X10362696Y46144395D01*
X10387847Y46006362D01*
X10174138Y46017395D01*
X9960429Y46028429D01*
X9923954Y46282429D01*
X9903408Y46414878D01*
X9883283Y46491698D01*
X9854463Y46529203D01*
X9807834Y46543705D01*
X9775925Y46547338D01*
X9713041Y46549623D01*
X9674875Y46530298D01*
X9648896Y46473395D01*
X9622574Y46362946D01*
X9619317Y46347766D01*
X9585758Y46191654D01*
X9558810Y46092902D01*
X9527601Y46038437D01*
X9481259Y46015185D01*
X9408912Y46010072D01*
X9338681Y46010286D01*
X9224701Y46013189D01*
X9168188Y46025423D01*
X9154151Y46052276D01*
X9158666Y46073786D01*
X9186212Y46173400D01*
X9221679Y46316006D01*
X9261446Y46485226D01*
X9301888Y46664686D01*
X9320171Y46749203D01*
X9726681Y46749203D01*
X9762969Y46712242D01*
X9846091Y46704002D01*
X9915072Y46706890D01*
X10026606Y46715839D01*
X10088736Y46736927D01*
X10124511Y46786365D01*
X10155632Y46876095D01*
X10182006Y46987718D01*
X10167549Y47054727D01*
X10102417Y47087920D01*
X9976766Y47098096D01*
X9953063Y47098302D01*
X9855259Y47093911D01*
X9804093Y47067523D01*
X9773718Y47000733D01*
X9762765Y46962786D01*
X9729267Y46828259D01*
X9726681Y46749203D01*
X9320171Y46749203D01*
X9339383Y46838009D01*
X9370309Y46988820D01*
X9391042Y47100742D01*
X9398000Y47155598D01*
X9398000Y47244000D01*
X9903638Y47244000D01*
X10096316Y47241402D01*
G37*
D13*
%TO.C,JP1*%
X29002000Y34236200D02*
X28402000Y34236200D01*
X27702000Y34936200D02*
X27702000Y36336200D01*
X29702000Y36336200D02*
X29702000Y34936200D01*
X28402000Y37036200D02*
X29002000Y37036200D01*
X27702000Y34936200D02*
G75*
G03*
X28402000Y34236200I699999J-1D01*
G01*
X29002000Y34236200D02*
G75*
G03*
X29702000Y34936200I1J699999D01*
G01*
X28402000Y37036200D02*
G75*
G03*
X27702000Y36336200I0J-700000D01*
G01*
X29702000Y36336200D02*
G75*
G03*
X29002000Y37036200I-700000J0D01*
G01*
%TO.C,G\u002A\u002A\u002A*%
G36*
X17475029Y22398947D02*
G01*
X17475029Y19331903D01*
X16766398Y19331903D01*
X16057767Y19331903D01*
X16057767Y22398947D01*
X16057767Y25465992D01*
X16766398Y25465992D01*
X17475029Y25465992D01*
X17475029Y22398947D01*
G37*
G36*
X17630042Y27032731D02*
G01*
X17630042Y26163550D01*
X15897218Y26163550D01*
X14164393Y26163550D01*
X14164393Y27032731D01*
X14164393Y27901911D01*
X15897218Y27901911D01*
X17630042Y27901911D01*
X17630042Y27032731D01*
G37*
G36*
X13300028Y27169706D02*
G01*
X13352850Y27164455D01*
X13393022Y27153940D01*
X13425227Y27136719D01*
X13454149Y27111349D01*
X13466018Y27098403D01*
X13497723Y27047091D01*
X13508227Y26990709D01*
X13497298Y26931300D01*
X13487448Y26908297D01*
X13464739Y26872309D01*
X13437528Y26842401D01*
X13425739Y26833428D01*
X13402597Y26816947D01*
X13390323Y26804186D01*
X13389754Y26802392D01*
X13394814Y26789734D01*
X13408852Y26762281D01*
X13429601Y26724319D01*
X13450226Y26688024D01*
X13474781Y26645095D01*
X13494598Y26609693D01*
X13507417Y26585904D01*
X13511124Y26577887D01*
X13501070Y26575410D01*
X13474979Y26573721D01*
X13445857Y26573228D01*
X13380591Y26573228D01*
X13317899Y26683951D01*
X13286886Y26736561D01*
X13263367Y26771118D01*
X13245721Y26789754D01*
X13233688Y26794675D01*
X13223885Y26793011D01*
X13217607Y26785356D01*
X13214080Y26767715D01*
X13212527Y26736091D01*
X13212170Y26686489D01*
X13212170Y26683951D01*
X13212170Y26573228D01*
X13156808Y26573228D01*
X13101446Y26573228D01*
X13101446Y26872182D01*
X13101446Y27074146D01*
X13212170Y27074146D01*
X13212170Y26991618D01*
X13213097Y26950777D01*
X13215544Y26919029D01*
X13219010Y26902470D01*
X13219551Y26901708D01*
X13238897Y26895302D01*
X13272663Y26895833D01*
X13314328Y26903042D01*
X13325531Y26905945D01*
X13363942Y26926002D01*
X13385758Y26957222D01*
X13389364Y26994640D01*
X13373144Y27033296D01*
X13368830Y27038983D01*
X13351385Y27054441D01*
X13325949Y27063619D01*
X13285835Y27068798D01*
X13280251Y27069221D01*
X13212170Y27074146D01*
X13101446Y27074146D01*
X13101446Y27171135D01*
X13229873Y27171135D01*
X13300028Y27169706D01*
G37*
G36*
X13355528Y27409629D02*
G01*
X13451102Y27386352D01*
X13540205Y27346009D01*
X13620726Y27290292D01*
X13690553Y27220893D01*
X13747576Y27139505D01*
X13789683Y27047821D01*
X13814763Y26947533D01*
X13821150Y26862891D01*
X13810454Y26760211D01*
X13779710Y26662184D01*
X13730931Y26571563D01*
X13666133Y26491102D01*
X13587331Y26423553D01*
X13496538Y26371671D01*
X13447807Y26352642D01*
X13390518Y26339365D01*
X13320625Y26331844D01*
X13246991Y26330398D01*
X13178477Y26335346D01*
X13142795Y26341683D01*
X13058341Y26372210D01*
X12977207Y26421583D01*
X12903002Y26486507D01*
X12839338Y26563685D01*
X12789824Y26649822D01*
X12779781Y26673110D01*
X12761614Y26736333D01*
X12750949Y26811889D01*
X12748974Y26868951D01*
X12874889Y26868951D01*
X12874897Y26866645D01*
X12875837Y26808259D01*
X12878760Y26765862D01*
X12884553Y26733327D01*
X12894099Y26704525D01*
X12900448Y26689849D01*
X12950421Y26604301D01*
X13013694Y26536017D01*
X13088949Y26485821D01*
X13174868Y26454537D01*
X13270132Y26442988D01*
X13295212Y26443279D01*
X13354013Y26447867D01*
X13401870Y26458212D01*
X13449729Y26476708D01*
X13451448Y26477491D01*
X13530901Y26525638D01*
X13596679Y26590302D01*
X13647336Y26669536D01*
X13681424Y26761396D01*
X13689444Y26797624D01*
X13695413Y26888371D01*
X13681806Y26980445D01*
X13650152Y27068480D01*
X13601986Y27147111D01*
X13583277Y27169475D01*
X13538940Y27208101D01*
X13480578Y27244547D01*
X13416227Y27274711D01*
X13353923Y27294489D01*
X13330045Y27298745D01*
X13240711Y27299172D01*
X13153895Y27279325D01*
X13072835Y27241061D01*
X13000766Y27186239D01*
X12940922Y27116717D01*
X12905460Y27054876D01*
X12891506Y27022945D01*
X12882515Y26994814D01*
X12877444Y26964055D01*
X12875250Y26924243D01*
X12874889Y26868951D01*
X12748974Y26868951D01*
X12748206Y26891131D01*
X12753807Y26965411D01*
X12763340Y27011304D01*
X12804207Y27115745D01*
X12862021Y27207304D01*
X12935175Y27284389D01*
X13022061Y27345404D01*
X13121072Y27388755D01*
X13153412Y27398211D01*
X13255594Y27414146D01*
X13355528Y27409629D01*
G37*
G36*
X15730455Y22653804D02*
G01*
X15731194Y22621935D01*
X15731905Y22570234D01*
X15732584Y22499854D01*
X15733227Y22411954D01*
X15733828Y22307687D01*
X15734384Y22188210D01*
X15734891Y22054680D01*
X15735343Y21908250D01*
X15735736Y21750078D01*
X15736067Y21581319D01*
X15736329Y21403129D01*
X15736520Y21216664D01*
X15736634Y21023079D01*
X15736668Y20843280D01*
X15736668Y19021877D01*
X16605849Y19021877D01*
X17475029Y19021877D01*
X17475029Y16895983D01*
X17475029Y14770089D01*
X17450117Y14771951D01*
X17422549Y14774085D01*
X17386990Y14776925D01*
X17380914Y14777418D01*
X17154996Y14799578D01*
X16945827Y14828350D01*
X16748723Y14864781D01*
X16558997Y14909918D01*
X16371966Y14964808D01*
X16182944Y15030500D01*
X16091195Y15065755D01*
X15813958Y15187129D01*
X15547479Y15327586D01*
X15292617Y15486398D01*
X15050232Y15662838D01*
X14821184Y15856179D01*
X14606332Y16065695D01*
X14406537Y16290657D01*
X14222658Y16530339D01*
X14055556Y16784014D01*
X14051439Y16790795D01*
X13906796Y17049983D01*
X13781983Y17317489D01*
X13676725Y17594106D01*
X13590748Y17880632D01*
X13523777Y18177860D01*
X13481448Y18440577D01*
X13475152Y18502268D01*
X13469977Y18581719D01*
X13465950Y18674800D01*
X13463094Y18777381D01*
X13461434Y18885331D01*
X13460996Y18994520D01*
X13461803Y19100818D01*
X13463880Y19200095D01*
X13467252Y19288220D01*
X13471944Y19361064D01*
X13475723Y19398337D01*
X13519947Y19688264D01*
X13579267Y19964117D01*
X13654545Y20228789D01*
X13746645Y20485173D01*
X13856430Y20736161D01*
X13903719Y20832208D01*
X14031312Y21066248D01*
X14169615Y21285596D01*
X14321455Y21494128D01*
X14489663Y21695720D01*
X14677068Y21894249D01*
X14683970Y21901150D01*
X14819215Y22031427D01*
X14950726Y22147814D01*
X15085271Y22255917D01*
X15229620Y22361340D01*
X15288990Y22402232D01*
X15337781Y22434560D01*
X15393901Y22470461D01*
X15454201Y22508059D01*
X15515534Y22545480D01*
X15574752Y22580847D01*
X15628705Y22612288D01*
X15674245Y22637926D01*
X15708224Y22655886D01*
X15727495Y22664294D01*
X15729693Y22664684D01*
X15730455Y22653804D01*
G37*
G36*
X15039110Y24039040D02*
G01*
X15039110Y22612089D01*
X14947763Y22542222D01*
X14696066Y22337180D01*
X14463752Y22121746D01*
X14250342Y21895326D01*
X14055361Y21657326D01*
X13878329Y21407151D01*
X13718771Y21144208D01*
X13576209Y20867901D01*
X13539626Y20788842D01*
X13455899Y20592379D01*
X13383536Y20397780D01*
X13321306Y20200637D01*
X13267978Y19996540D01*
X13222321Y19781081D01*
X13183105Y19549852D01*
X13171504Y19470307D01*
X13164069Y19401478D01*
X13158201Y19314625D01*
X13153898Y19213814D01*
X13151162Y19103112D01*
X13149992Y18986585D01*
X13150389Y18868298D01*
X13152352Y18752317D01*
X13155881Y18642709D01*
X13160978Y18543538D01*
X13167641Y18458872D01*
X13171471Y18423969D01*
X13190646Y18288099D01*
X13215152Y18144971D01*
X13243721Y18000656D01*
X13275081Y17861228D01*
X13307965Y17732759D01*
X13335813Y17637831D01*
X13350266Y17592042D01*
X13364513Y17546923D01*
X13373397Y17518803D01*
X13380569Y17494128D01*
X13381367Y17479341D01*
X13372882Y17474165D01*
X13352205Y17478323D01*
X13316428Y17491538D01*
X13273068Y17509231D01*
X13063396Y17606869D01*
X12866659Y17721260D01*
X12683868Y17851566D01*
X12516032Y17996949D01*
X12364159Y18156569D01*
X12229261Y18329587D01*
X12160286Y18433984D01*
X12056041Y18621979D01*
X11966036Y18826854D01*
X11890263Y19048632D01*
X11828715Y19287340D01*
X11781384Y19543000D01*
X11765352Y19658537D01*
X11763304Y19675927D01*
X11761401Y19694859D01*
X11759635Y19716174D01*
X11758001Y19740714D01*
X11756492Y19769320D01*
X11755101Y19802833D01*
X11753823Y19842094D01*
X11752650Y19887944D01*
X11751577Y19941225D01*
X11750596Y20002778D01*
X11749702Y20073443D01*
X11748887Y20154062D01*
X11748145Y20245477D01*
X11747471Y20348528D01*
X11746856Y20464056D01*
X11746296Y20592903D01*
X11745783Y20735910D01*
X11745311Y20893918D01*
X11744874Y21067768D01*
X11744464Y21258302D01*
X11744076Y21466359D01*
X11743703Y21692783D01*
X11743339Y21938413D01*
X11742977Y22204092D01*
X11742611Y22490659D01*
X11742427Y22639771D01*
X11738972Y25465992D01*
X13389040Y25465992D01*
X15039110Y25465992D01*
X15039110Y24039040D01*
G37*
%TO.C,C2*%
X28075600Y45144200D02*
X28075600Y44519200D01*
X28388100Y44831700D02*
X27763100Y44831700D01*
X28086163Y44279200D02*
X27450600Y44279200D01*
X28086163Y44279200D02*
X29150600Y43214763D01*
X24695037Y44279200D02*
X25330600Y44279200D01*
X24695037Y44279200D02*
X23630600Y43214763D01*
X29150600Y43214763D02*
X29150600Y38759200D01*
X23630600Y43214763D02*
X23630600Y38759200D01*
X29150600Y38759200D02*
X27450600Y38759200D01*
X23630600Y38759200D02*
X25330600Y38759200D01*
%TO.C,D1*%
X24905500Y32485000D02*
X24905500Y31015000D01*
X24905500Y31015000D02*
X27190500Y31015000D01*
X27190500Y32485000D02*
X24905500Y32485000D01*
%TO.C,J1*%
X28310000Y10150000D02*
X28310000Y27990000D01*
X28310000Y10150000D02*
X25650000Y10150000D01*
X28310000Y27990000D02*
X25650000Y27990000D01*
X26980000Y7550000D02*
X25650000Y7550000D01*
X25650000Y7550000D02*
X25650000Y8880000D01*
X25650000Y10150000D02*
X25650000Y27990000D01*
%TO.C,J4*%
X24444000Y10220000D02*
X24444000Y8890000D01*
X23114000Y10220000D02*
X24444000Y10220000D01*
X21844000Y10220000D02*
X16704000Y10220000D01*
X21844000Y10220000D02*
X21844000Y7560000D01*
X16704000Y10220000D02*
X16704000Y7560000D01*
X21844000Y7560000D02*
X16704000Y7560000D01*
%TD*%
%LPC*%
D15*
%TO.C,SW1*%
X17378600Y49860200D03*
X12928600Y49860200D03*
%TD*%
D16*
%TO.C,U2*%
X13208000Y38608000D03*
X11308000Y38608000D03*
X12258000Y36733000D03*
%TD*%
D17*
%TO.C,J2*%
X4114800Y8880000D03*
D18*
X4114800Y11420000D03*
X4114800Y13960000D03*
X4114800Y16500000D03*
X4114800Y19040000D03*
X4114800Y21580000D03*
X4114800Y24120000D03*
X4114800Y26660000D03*
%TD*%
D19*
%TO.C,C1*%
X15240000Y38275000D03*
X15240000Y36375000D03*
%TD*%
D20*
%TO.C,U1*%
X17084000Y39776400D03*
X18034000Y39776400D03*
X18984000Y39776400D03*
X18984000Y42051400D03*
X18034000Y42051400D03*
X17084000Y42051400D03*
%TD*%
D21*
%TO.C,J3*%
X5547400Y40031500D03*
X5547400Y42031500D03*
D22*
X3297400Y37631500D03*
X3297400Y44431500D03*
%TD*%
D23*
%TO.C,RV1*%
X2515800Y33562800D03*
D24*
X5765800Y32562800D03*
D23*
X2515800Y31562800D03*
%TD*%
D25*
%TO.C,R2*%
X25440500Y29743400D03*
X27265500Y29743400D03*
%TD*%
D26*
%TO.C,JP2*%
X9398000Y32624000D03*
D27*
X9398000Y33924000D03*
%TD*%
D17*
%TO.C,J5*%
X7950000Y8890000D03*
D18*
X10490000Y8890000D03*
X13030000Y8890000D03*
%TD*%
D28*
%TO.C,R1*%
X19137500Y44373800D03*
X17312500Y44373800D03*
%TD*%
D26*
%TO.C,JP1*%
X28702000Y34986200D03*
D27*
X28702000Y36286200D03*
%TD*%
D29*
%TO.C,C2*%
X26390600Y43719200D03*
X26390600Y39319200D03*
%TD*%
D30*
%TO.C,D1*%
X25603000Y31750000D03*
X27178000Y31750000D03*
%TD*%
D17*
%TO.C,J1*%
X26980000Y8880000D03*
D18*
X26980000Y11420000D03*
X26980000Y13960000D03*
X26980000Y16500000D03*
X26980000Y19040000D03*
X26980000Y21580000D03*
X26980000Y24120000D03*
X26980000Y26660000D03*
%TD*%
D17*
%TO.C,J4*%
X23114000Y8890000D03*
D18*
X20574000Y8890000D03*
X18034000Y8890000D03*
%TD*%
%LPD*%
M02*
