%TF.GenerationSoftware,KiCad,Pcbnew,7.0.9*%
%TF.CreationDate,2024-03-26T06:33:17-07:00*%
%TF.ProjectId,cnft-tpl-esp32cam,636e6674-2d74-4706-9c2d-657370333263,rev?*%
%TF.SameCoordinates,Original*%
%TF.FileFunction,Copper,L1,Top*%
%TF.FilePolarity,Positive*%
%FSLAX46Y46*%
G04 Gerber Fmt 4.6, Leading zero omitted, Abs format (unit mm)*
G04 Created by KiCad (PCBNEW 7.0.9) date 2024-03-26 06:33:17*
%MOMM*%
%LPD*%
G01*
G04 APERTURE LIST*
G04 Aperture macros list*
%AMRoundRect*
0 Rectangle with rounded corners*
0 $1 Rounding radius*
0 $2 $3 $4 $5 $6 $7 $8 $9 X,Y pos of 4 corners*
0 Add a 4 corners polygon primitive as box body*
4,1,4,$2,$3,$4,$5,$6,$7,$8,$9,$2,$3,0*
0 Add four circle primitives for the rounded corners*
1,1,$1+$1,$2,$3*
1,1,$1+$1,$4,$5*
1,1,$1+$1,$6,$7*
1,1,$1+$1,$8,$9*
0 Add four rect primitives between the rounded corners*
20,1,$1+$1,$2,$3,$4,$5,0*
20,1,$1+$1,$4,$5,$6,$7,0*
20,1,$1+$1,$6,$7,$8,$9,0*
20,1,$1+$1,$8,$9,$2,$3,0*%
%AMFreePoly0*
4,1,19,0.500000,-0.750000,0.000000,-0.750000,0.000000,-0.744911,-0.071157,-0.744911,-0.207708,-0.704816,-0.327430,-0.627875,-0.420627,-0.520320,-0.479746,-0.390866,-0.500000,-0.250000,-0.500000,0.250000,-0.479746,0.390866,-0.420627,0.520320,-0.327430,0.627875,-0.207708,0.704816,-0.071157,0.744911,0.000000,0.744911,0.000000,0.750000,0.500000,0.750000,0.500000,-0.750000,0.500000,-0.750000,
$1*%
%AMFreePoly1*
4,1,19,0.000000,0.744911,0.071157,0.744911,0.207708,0.704816,0.327430,0.627875,0.420627,0.520320,0.479746,0.390866,0.500000,0.250000,0.500000,-0.250000,0.479746,-0.390866,0.420627,-0.520320,0.327430,-0.627875,0.207708,-0.704816,0.071157,-0.744911,0.000000,-0.744911,0.000000,-0.750000,-0.500000,-0.750000,-0.500000,0.750000,0.000000,0.750000,0.000000,0.744911,0.000000,0.744911,
$1*%
G04 Aperture macros list end*
%TA.AperFunction,SMDPad,CuDef*%
%ADD10R,0.900000X2.000000*%
%TD*%
%TA.AperFunction,SMDPad,CuDef*%
%ADD11RoundRect,0.150000X-0.150000X0.587500X-0.150000X-0.587500X0.150000X-0.587500X0.150000X0.587500X0*%
%TD*%
%TA.AperFunction,ComponentPad*%
%ADD12R,1.700000X1.700000*%
%TD*%
%TA.AperFunction,ComponentPad*%
%ADD13O,1.700000X1.700000*%
%TD*%
%TA.AperFunction,SMDPad,CuDef*%
%ADD14RoundRect,0.250000X-0.475000X0.250000X-0.475000X-0.250000X0.475000X-0.250000X0.475000X0.250000X0*%
%TD*%
%TA.AperFunction,SMDPad,CuDef*%
%ADD15RoundRect,0.150000X0.150000X-0.512500X0.150000X0.512500X-0.150000X0.512500X-0.150000X-0.512500X0*%
%TD*%
%TA.AperFunction,SMDPad,CuDef*%
%ADD16RoundRect,0.250000X2.500000X-0.250000X2.500000X0.250000X-2.500000X0.250000X-2.500000X-0.250000X0*%
%TD*%
%TA.AperFunction,SMDPad,CuDef*%
%ADD17RoundRect,0.250000X1.250000X-0.550000X1.250000X0.550000X-1.250000X0.550000X-1.250000X-0.550000X0*%
%TD*%
%TA.AperFunction,SMDPad,CuDef*%
%ADD18R,1.200000X1.200000*%
%TD*%
%TA.AperFunction,SMDPad,CuDef*%
%ADD19R,1.500000X1.600000*%
%TD*%
%TA.AperFunction,SMDPad,CuDef*%
%ADD20RoundRect,0.250000X-0.262500X-0.450000X0.262500X-0.450000X0.262500X0.450000X-0.262500X0.450000X0*%
%TD*%
%TA.AperFunction,SMDPad,CuDef*%
%ADD21FreePoly0,90.000000*%
%TD*%
%TA.AperFunction,SMDPad,CuDef*%
%ADD22FreePoly1,90.000000*%
%TD*%
%TA.AperFunction,SMDPad,CuDef*%
%ADD23RoundRect,0.250000X0.262500X0.450000X-0.262500X0.450000X-0.262500X-0.450000X0.262500X-0.450000X0*%
%TD*%
%TA.AperFunction,SMDPad,CuDef*%
%ADD24RoundRect,0.250000X-0.550000X1.250000X-0.550000X-1.250000X0.550000X-1.250000X0.550000X1.250000X0*%
%TD*%
%TA.AperFunction,SMDPad,CuDef*%
%ADD25RoundRect,0.218750X-0.218750X-0.256250X0.218750X-0.256250X0.218750X0.256250X-0.218750X0.256250X0*%
%TD*%
%TA.AperFunction,ViaPad*%
%ADD26C,0.600000*%
%TD*%
%TA.AperFunction,Conductor*%
%ADD27C,0.300000*%
%TD*%
%TA.AperFunction,Conductor*%
%ADD28C,0.500000*%
%TD*%
%TA.AperFunction,Conductor*%
%ADD29C,0.250000*%
%TD*%
%TA.AperFunction,Conductor*%
%ADD30C,0.400000*%
%TD*%
G04 APERTURE END LIST*
%TA.AperFunction,EtchedComponent*%
%TO.C,JP2*%
G36*
X9698000Y33024000D02*
G01*
X9098000Y33024000D01*
X9098000Y33524000D01*
X9698000Y33524000D01*
X9698000Y33024000D01*
G37*
%TD.AperFunction*%
%TD*%
D10*
%TO.P,SW1,1,1*%
%TO.N,Net-(JP2-B)*%
X17378600Y49860200D03*
%TO.P,SW1,2,2*%
%TO.N,VDD*%
X12928600Y49860200D03*
%TD*%
D11*
%TO.P,U2,1,G*%
%TO.N,Net-(U1-DRV)*%
X13208000Y38608000D03*
%TO.P,U2,2,S*%
%TO.N,VDD*%
X11308000Y38608000D03*
%TO.P,U2,3,D*%
%TO.N,PWOUT*%
X12258000Y36733000D03*
%TD*%
D12*
%TO.P,J2,1,Pin_1*%
%TO.N,unconnected-(J2-Pin_1-Pad1)*%
X4114800Y8880000D03*
D13*
%TO.P,J2,2,Pin_2*%
%TO.N,unconnected-(J2-Pin_2-Pad2)*%
X4114800Y11420000D03*
%TO.P,J2,3,Pin_3*%
%TO.N,unconnected-(J2-Pin_3-Pad3)*%
X4114800Y13960000D03*
%TO.P,J2,4,Pin_4*%
%TO.N,unconnected-(J2-Pin_4-Pad4)*%
X4114800Y16500000D03*
%TO.P,J2,5,Pin_5*%
%TO.N,unconnected-(J2-Pin_5-Pad5)*%
X4114800Y19040000D03*
%TO.P,J2,6,Pin_6*%
%TO.N,DONE*%
X4114800Y21580000D03*
%TO.P,J2,7,Pin_7*%
%TO.N,GND*%
X4114800Y24120000D03*
%TO.P,J2,8,Pin_8*%
%TO.N,PWOUT*%
X4114800Y26660000D03*
%TD*%
D14*
%TO.P,C1,1*%
%TO.N,VDD*%
X15240000Y38275000D03*
%TO.P,C1,2*%
%TO.N,GND*%
X15240000Y36375000D03*
%TD*%
D15*
%TO.P,U1,1,VDD*%
%TO.N,VDD*%
X17084000Y39776400D03*
%TO.P,U1,2,GND*%
%TO.N,GND*%
X18034000Y39776400D03*
%TO.P,U1,3,DELAY/M_DRV*%
%TO.N,Net-(JP2-B)*%
X18984000Y39776400D03*
%TO.P,U1,4,DONE*%
%TO.N,DONE*%
X18984000Y42051400D03*
%TO.P,U1,5,DRV*%
%TO.N,Net-(U1-DRV)*%
X18034000Y42051400D03*
%TO.P,U1,6,EN/ONE_SHOT*%
%TO.N,VDD*%
X17084000Y42051400D03*
%TD*%
D16*
%TO.P,J3,1,Pin_1*%
%TO.N,VDD*%
X5547400Y40031500D03*
%TO.P,J3,2,Pin_2*%
%TO.N,GND*%
X5547400Y42031500D03*
D17*
%TO.P,J3,MP*%
%TO.N,N/C*%
X3297400Y37631500D03*
X3297400Y44431500D03*
%TD*%
D18*
%TO.P,RV1,1,1*%
%TO.N,unconnected-(RV1-Pad1)*%
X2515800Y33562800D03*
D19*
%TO.P,RV1,2,2*%
%TO.N,Net-(JP2-A)*%
X5765800Y32562800D03*
D18*
%TO.P,RV1,3,3*%
%TO.N,GND*%
X2515800Y31562800D03*
%TD*%
D20*
%TO.P,R2,1*%
%TO.N,Net-(D1-K)*%
X25440500Y29743400D03*
%TO.P,R2,2*%
%TO.N,GND*%
X27265500Y29743400D03*
%TD*%
D21*
%TO.P,JP2,1,A*%
%TO.N,Net-(JP2-A)*%
X9398000Y32624000D03*
D22*
%TO.P,JP2,2,B*%
%TO.N,Net-(JP2-B)*%
X9398000Y33924000D03*
%TD*%
D12*
%TO.P,J5,1,Pin_1*%
%TO.N,GPIO3*%
X7950000Y8890000D03*
D13*
%TO.P,J5,2,Pin_2*%
%TO.N,PWOUT*%
X10490000Y8890000D03*
%TO.P,J5,3,Pin_3*%
%TO.N,GND*%
X13030000Y8890000D03*
%TD*%
D23*
%TO.P,R1,1*%
%TO.N,DONE*%
X19137500Y44373800D03*
%TO.P,R1,2*%
%TO.N,GND*%
X17312500Y44373800D03*
%TD*%
D21*
%TO.P,JP1,1,A*%
%TO.N,Net-(D1-A)*%
X28702000Y34986200D03*
D22*
%TO.P,JP1,2,B*%
%TO.N,PWOUT*%
X28702000Y36286200D03*
%TD*%
D24*
%TO.P,C2,1*%
%TO.N,DONE*%
X26390600Y43719200D03*
%TO.P,C2,2*%
%TO.N,GND*%
X26390600Y39319200D03*
%TD*%
D25*
%TO.P,D1,1,K*%
%TO.N,Net-(D1-K)*%
X25603000Y31750000D03*
%TO.P,D1,2,A*%
%TO.N,Net-(D1-A)*%
X27178000Y31750000D03*
%TD*%
D12*
%TO.P,J1,1,Pin_1*%
%TO.N,unconnected-(J1-Pin_1-Pad1)*%
X26980000Y8880000D03*
D13*
%TO.P,J1,2,Pin_2*%
%TO.N,GPIO1*%
X26980000Y11420000D03*
%TO.P,J1,3,Pin_3*%
%TO.N,GPIO3*%
X26980000Y13960000D03*
%TO.P,J1,4,Pin_4*%
%TO.N,unconnected-(J1-Pin_4-Pad4)*%
X26980000Y16500000D03*
%TO.P,J1,5,Pin_5*%
%TO.N,GND*%
X26980000Y19040000D03*
%TO.P,J1,6,Pin_6*%
%TO.N,unconnected-(J1-Pin_6-Pad6)*%
X26980000Y21580000D03*
%TO.P,J1,7,Pin_7*%
%TO.N,unconnected-(J1-Pin_7-Pad7)*%
X26980000Y24120000D03*
%TO.P,J1,8,Pin_8*%
%TO.N,unconnected-(J1-Pin_8-Pad8)*%
X26980000Y26660000D03*
%TD*%
D12*
%TO.P,J4,1,Pin_1*%
%TO.N,GPIO1*%
X23114000Y8890000D03*
D13*
%TO.P,J4,2,Pin_2*%
%TO.N,PWOUT*%
X20574000Y8890000D03*
%TO.P,J4,3,Pin_3*%
%TO.N,GND*%
X18034000Y8890000D03*
%TD*%
D26*
%TO.N,GND*%
X17018000Y37846000D03*
X12192000Y40132000D03*
X13462000Y35306000D03*
X7620000Y34798000D03*
%TO.N,PWOUT*%
X13462000Y36576000D03*
X23901400Y36576000D03*
%TO.N,Net-(JP2-B)*%
X19304000Y49784000D03*
X20320000Y40132000D03*
%TO.N,Net-(U1-DRV)*%
X13462000Y41148000D03*
X16002000Y43180000D03*
%TD*%
D27*
%TO.N,VDD*%
X12776200Y42051400D02*
X12725400Y42102200D01*
X12725400Y49657000D02*
X12928600Y49860200D01*
D28*
X5547400Y40031500D02*
X10172100Y40031500D01*
D27*
X15900400Y39776400D02*
X15240000Y39116000D01*
D28*
X12776200Y42051400D02*
X12587400Y42051400D01*
X11308000Y38608000D02*
X11308000Y39568200D01*
D27*
X12725400Y42102200D02*
X12725400Y49657000D01*
D28*
X10844700Y40031500D02*
X10172100Y40031500D01*
D27*
X17084000Y39776400D02*
X15900400Y39776400D01*
X17084000Y39776400D02*
X17084000Y42051400D01*
D28*
X12587400Y42051400D02*
X10567500Y40031500D01*
X17084000Y42051400D02*
X12776200Y42051400D01*
X10567500Y40031500D02*
X10172100Y40031500D01*
X11308000Y39568200D02*
X10844700Y40031500D01*
D27*
X16992000Y39684400D02*
X17084000Y39776400D01*
X15240000Y39116000D02*
X15240000Y38100000D01*
D28*
%TO.N,GND*%
X5567300Y42051400D02*
X5547400Y42031500D01*
%TO.N,DONE*%
X21223400Y42051400D02*
X20178600Y42051400D01*
X16754000Y21580000D02*
X4114800Y21580000D01*
X21844000Y41430800D02*
X21223400Y42051400D01*
X26384800Y43713400D02*
X22885400Y43713400D01*
X20178600Y42051400D02*
X18984000Y42051400D01*
X22885400Y43713400D02*
X21223400Y42051400D01*
X21844000Y26670000D02*
X16754000Y21580000D01*
D27*
X18984000Y44130000D02*
X19050000Y44196000D01*
D28*
X21844000Y26670000D02*
X21844000Y41430800D01*
D27*
X18984000Y42051400D02*
X18984000Y44130000D01*
%TO.N,Net-(D1-K)*%
X25440500Y30059500D02*
X25440500Y31587500D01*
X25440500Y31587500D02*
X25603000Y31750000D01*
X25528000Y29972000D02*
X25440500Y30059500D01*
D29*
%TO.N,Net-(D1-A)*%
X28270200Y31750000D02*
X28702000Y32181800D01*
X28702000Y32181800D02*
X28702000Y34986200D01*
X27178000Y31750000D02*
X28270200Y31750000D01*
D30*
%TO.N,GPIO3*%
X7950000Y10744000D02*
X11166000Y13960000D01*
X11166000Y13960000D02*
X26980000Y13960000D01*
X7950000Y8890000D02*
X7950000Y10744000D01*
%TO.N,PWOUT*%
X20574000Y10160000D02*
X20574000Y8890000D01*
X11176000Y10922000D02*
X19812000Y10922000D01*
X19812000Y10922000D02*
X20574000Y10160000D01*
D27*
X12258000Y36733000D02*
X13305000Y36733000D01*
D29*
X24191200Y36286200D02*
X23901400Y36576000D01*
X28702000Y36286200D02*
X24191200Y36286200D01*
D28*
X12258000Y36733000D02*
X7269000Y36733000D01*
D30*
X10490000Y8890000D02*
X10490000Y10236000D01*
X10490000Y10236000D02*
X11176000Y10922000D01*
D28*
X7269000Y36733000D02*
X4114800Y33578800D01*
X4114800Y33578800D02*
X4114800Y26660000D01*
D27*
X13305000Y36733000D02*
X13462000Y36576000D01*
%TO.N,Net-(JP2-A)*%
X9398000Y32624000D02*
X6156000Y32624000D01*
%TO.N,Net-(JP2-B)*%
X9398000Y33924000D02*
X15382000Y33924000D01*
X20320000Y40132000D02*
X19964400Y39776400D01*
X17454800Y49784000D02*
X17378600Y49860200D01*
X19304000Y49784000D02*
X17454800Y49784000D01*
X15382000Y33924000D02*
X18984000Y37526000D01*
X19964400Y39776400D02*
X18984000Y39776400D01*
X18984000Y37526000D02*
X18984000Y39776400D01*
%TO.N,Net-(U1-DRV)*%
X17800950Y43180000D02*
X16002000Y43180000D01*
X13208000Y40894000D02*
X13208000Y38608000D01*
X18034000Y42051400D02*
X18034000Y42946950D01*
X13462000Y41148000D02*
X13208000Y40894000D01*
X18034000Y42946950D02*
X17800950Y43180000D01*
%TD*%
%TA.AperFunction,Conductor*%
%TO.N,GND*%
G36*
X12824960Y41413693D02*
G01*
X12868225Y41370428D01*
X12877601Y41311222D01*
X12877803Y41311195D01*
X12877713Y41310517D01*
X12877796Y41309996D01*
X12877398Y41308124D01*
X12864272Y41208427D01*
X12847922Y41165589D01*
X12845317Y41161767D01*
X12840594Y41154838D01*
X12840522Y41154733D01*
X12805205Y41106880D01*
X12801742Y41100326D01*
X12801353Y41100532D01*
X12800350Y41098545D01*
X12800746Y41098354D01*
X12797528Y41091673D01*
X12779992Y41034823D01*
X12760355Y40978703D01*
X12758976Y40971413D01*
X12758544Y40971495D01*
X12758171Y40969300D01*
X12758605Y40969234D01*
X12757500Y40961901D01*
X12757500Y40902428D01*
X12755276Y40842990D01*
X12756107Y40835615D01*
X12755668Y40835566D01*
X12757500Y40821656D01*
X12757500Y39579562D01*
X12738593Y39521371D01*
X12738155Y39520774D01*
X12655207Y39408384D01*
X12610355Y39280204D01*
X12610353Y39280195D01*
X12607500Y39249775D01*
X12607500Y37966226D01*
X12610353Y37935806D01*
X12610355Y37935797D01*
X12625722Y37891881D01*
X12627095Y37830711D01*
X12592251Y37780416D01*
X12534500Y37760208D01*
X12499583Y37765738D01*
X12492704Y37768145D01*
X12492694Y37768147D01*
X12462274Y37771000D01*
X12462266Y37771000D01*
X12053734Y37771000D01*
X12053725Y37771000D01*
X12023305Y37768147D01*
X12023296Y37768145D01*
X12016414Y37765737D01*
X11955244Y37764367D01*
X11904951Y37799214D01*
X11884746Y37856967D01*
X11890276Y37891877D01*
X11905646Y37935801D01*
X11908499Y37966227D01*
X11908500Y37966227D01*
X11908500Y39249773D01*
X11908499Y39249775D01*
X11905646Y39280195D01*
X11905646Y39280197D01*
X11905646Y39280199D01*
X11884353Y39341052D01*
X11864056Y39399058D01*
X11858500Y39431756D01*
X11858500Y39558803D01*
X11859209Y39579562D01*
X11860762Y39625026D01*
X11850127Y39668663D01*
X11849185Y39673622D01*
X11843070Y39718120D01*
X11835066Y39736546D01*
X11829687Y39752540D01*
X11824933Y39772052D01*
X11802923Y39811196D01*
X11800676Y39815720D01*
X11792752Y39833962D01*
X11782783Y39856915D01*
X11782777Y39856924D01*
X11770109Y39872494D01*
X11760606Y39886456D01*
X11750766Y39903957D01*
X11750765Y39903959D01*
X11719011Y39935713D01*
X11715614Y39939478D01*
X11687278Y39974308D01*
X11687276Y39974309D01*
X11687275Y39974311D01*
X11670869Y39985892D01*
X11657957Y39996767D01*
X11554628Y40100096D01*
X11526851Y40154613D01*
X11536422Y40215045D01*
X11554628Y40240104D01*
X12149214Y40834690D01*
X12710012Y41395488D01*
X12764528Y41423264D01*
X12824960Y41413693D01*
G37*
%TD.AperFunction*%
%TA.AperFunction,Conductor*%
G36*
X26984531Y53332263D02*
G01*
X27072118Y53327961D01*
X27135777Y53324833D01*
X27361935Y53312979D01*
X27366594Y53312513D01*
X27546744Y53285789D01*
X27743986Y53254547D01*
X27748262Y53253674D01*
X27850413Y53228087D01*
X27930163Y53208110D01*
X28117518Y53157907D01*
X28118097Y53157752D01*
X28121951Y53156549D01*
X28264501Y53105544D01*
X28300736Y53092578D01*
X28480485Y53023579D01*
X28483885Y53022125D01*
X28590663Y52971622D01*
X28656717Y52940380D01*
X28827384Y52853421D01*
X28830354Y52851777D01*
X28995029Y52753074D01*
X29155264Y52649016D01*
X29157792Y52647260D01*
X29312415Y52532585D01*
X29460833Y52412399D01*
X29462853Y52410667D01*
X29604837Y52281981D01*
X29606580Y52280321D01*
X29740819Y52146082D01*
X29742481Y52144336D01*
X29871161Y52002360D01*
X29872903Y52000327D01*
X29992396Y51852766D01*
X29993081Y51851920D01*
X30107758Y51697294D01*
X30109514Y51694766D01*
X30213573Y51534530D01*
X30312275Y51369856D01*
X30313922Y51366880D01*
X30400878Y51196221D01*
X30482617Y51023400D01*
X30484082Y51019974D01*
X30553077Y50840237D01*
X30617043Y50661466D01*
X30618250Y50657600D01*
X30668612Y50469650D01*
X30714172Y50287764D01*
X30715047Y50283478D01*
X30746297Y50086185D01*
X30773009Y49906107D01*
X30773477Y49901432D01*
X30785335Y49675212D01*
X30792763Y49524031D01*
X30792823Y49521601D01*
X30792823Y3804044D01*
X30792763Y3801615D01*
X30785589Y3655566D01*
X30773415Y3423759D01*
X30772947Y3419090D01*
X30746984Y3244049D01*
X30714931Y3041663D01*
X30714057Y3037377D01*
X30669299Y2858691D01*
X30618072Y2667508D01*
X30616864Y2663643D01*
X30553759Y2487268D01*
X30483831Y2305100D01*
X30482366Y2301675D01*
X30401559Y2130818D01*
X30313585Y1958161D01*
X30311938Y1955186D01*
X30214245Y1792191D01*
X30109089Y1630262D01*
X30107333Y1627734D01*
X29993744Y1474574D01*
X29872383Y1324704D01*
X29870591Y1322613D01*
X29743127Y1181977D01*
X29741451Y1180217D01*
X29605923Y1044687D01*
X29604163Y1043011D01*
X29463525Y915544D01*
X29461435Y913753D01*
X29311550Y792374D01*
X29158422Y678806D01*
X29155894Y677050D01*
X28993927Y571866D01*
X28830948Y474181D01*
X28827973Y472533D01*
X28655307Y384553D01*
X28484468Y303752D01*
X28481042Y302286D01*
X28298831Y232340D01*
X28122512Y169252D01*
X28118646Y168045D01*
X27927412Y116802D01*
X27748771Y72054D01*
X27744485Y71179D01*
X27542051Y39116D01*
X27367089Y13162D01*
X27362414Y12694D01*
X27121528Y68D01*
X27118936Y0D01*
X3988619Y0D01*
X3986189Y60D01*
X3970855Y813D01*
X3744729Y12663D01*
X3740055Y13131D01*
X3559893Y39853D01*
X3362670Y71090D01*
X3358384Y71964D01*
X3176461Y117533D01*
X3029232Y156982D01*
X2988543Y167884D01*
X2984682Y169090D01*
X2805879Y233066D01*
X2626157Y302055D01*
X2622731Y303520D01*
X2449918Y385254D01*
X2279243Y472218D01*
X2276266Y473865D01*
X2111615Y572553D01*
X1951349Y676630D01*
X1948828Y678381D01*
X1867763Y738503D01*
X1794212Y793053D01*
X1645832Y913209D01*
X1643741Y915001D01*
X1501800Y1043649D01*
X1500040Y1045324D01*
X1365822Y1179542D01*
X1364147Y1181302D01*
X1324920Y1224582D01*
X1235491Y1323252D01*
X1233707Y1325334D01*
X1113552Y1473713D01*
X1071682Y1530168D01*
X998870Y1628342D01*
X997139Y1630835D01*
X893052Y1791116D01*
X823386Y1907347D01*
X794352Y1955787D01*
X792715Y1958745D01*
X788449Y1967117D01*
X705750Y2129425D01*
X624008Y2302255D01*
X622553Y2305659D01*
X553565Y2485380D01*
X489582Y2664203D01*
X488391Y2668013D01*
X438039Y2855934D01*
X392456Y3037913D01*
X391592Y3042152D01*
X371688Y3167824D01*
X1982680Y3167824D01*
X1990716Y3070845D01*
X1990885Y3066755D01*
X1990885Y3043744D01*
X1994671Y3021046D01*
X1995177Y3016988D01*
X2003214Y2920002D01*
X2027103Y2825664D01*
X2027943Y2821660D01*
X2031730Y2798967D01*
X2039206Y2777184D01*
X2040373Y2773265D01*
X2064259Y2678944D01*
X2064260Y2678942D01*
X2103346Y2589832D01*
X2104833Y2586020D01*
X2112303Y2564259D01*
X2112309Y2564247D01*
X2123273Y2543984D01*
X2125069Y2540310D01*
X2164144Y2451227D01*
X2164151Y2451214D01*
X2217369Y2369757D01*
X2219463Y2366242D01*
X2230421Y2345995D01*
X2230423Y2345992D01*
X2244564Y2327822D01*
X2246942Y2324492D01*
X2300157Y2243040D01*
X2366067Y2171442D01*
X2368712Y2168318D01*
X2382838Y2150168D01*
X2382847Y2150159D01*
X2399777Y2134574D01*
X2402661Y2131691D01*
X2468579Y2060085D01*
X2545373Y2000314D01*
X2548488Y1997676D01*
X2553112Y1993419D01*
X2565422Y1982085D01*
X2584693Y1969495D01*
X2588024Y1967117D01*
X2664810Y1907352D01*
X2664817Y1907347D01*
X2688847Y1894343D01*
X2750408Y1861028D01*
X2753903Y1858945D01*
X2773178Y1846352D01*
X2787746Y1839962D01*
X2794258Y1837105D01*
X2797925Y1835313D01*
X2883513Y1788995D01*
X2975549Y1757399D01*
X2979358Y1755913D01*
X3000439Y1746666D01*
X3022754Y1741016D01*
X3026673Y1739848D01*
X3118709Y1708252D01*
X3214701Y1692234D01*
X3218679Y1691401D01*
X3241008Y1685746D01*
X3263964Y1683844D01*
X3267973Y1683345D01*
X3363988Y1667323D01*
X3363989Y1667323D01*
X3461280Y1667323D01*
X3465370Y1667154D01*
X3488323Y1665252D01*
X3511276Y1667154D01*
X3515366Y1667323D01*
X3612658Y1667323D01*
X3708672Y1683345D01*
X3712681Y1683844D01*
X3735638Y1685746D01*
X3757975Y1691403D01*
X3761921Y1692231D01*
X3857937Y1708252D01*
X3949996Y1739857D01*
X3953887Y1741014D01*
X3976207Y1746666D01*
X3997313Y1755925D01*
X4001059Y1757386D01*
X4093133Y1788995D01*
X4178749Y1835329D01*
X4182355Y1837092D01*
X4203468Y1846352D01*
X4222770Y1858963D01*
X4226211Y1861014D01*
X4311832Y1907349D01*
X4388658Y1967146D01*
X4391908Y1969467D01*
X4411221Y1982084D01*
X4428165Y1997683D01*
X4431257Y2000302D01*
X4508067Y2060085D01*
X4573984Y2131691D01*
X4576855Y2134562D01*
X4593800Y2150160D01*
X4607962Y2168356D01*
X4610556Y2171419D01*
X4676487Y2243038D01*
X4729713Y2324508D01*
X4732079Y2327822D01*
X4746225Y2345995D01*
X4757193Y2366263D01*
X4759263Y2369737D01*
X4812496Y2451216D01*
X4851586Y2540335D01*
X4853371Y2543984D01*
X4864337Y2564247D01*
X4871826Y2586064D01*
X4873276Y2589783D01*
X4912386Y2678942D01*
X4936278Y2773291D01*
X4937433Y2777171D01*
X4944915Y2798964D01*
X4948706Y2821688D01*
X4949534Y2825637D01*
X4973431Y2920002D01*
X4981468Y3017003D01*
X4981973Y3021044D01*
X4985761Y3043742D01*
X4986418Y3075598D01*
X4986574Y3078619D01*
X4993966Y3167823D01*
X4993966Y3167824D01*
X26112680Y3167824D01*
X26120716Y3070845D01*
X26120885Y3066755D01*
X26120885Y3043744D01*
X26124671Y3021046D01*
X26125177Y3016988D01*
X26133214Y2920002D01*
X26157103Y2825664D01*
X26157943Y2821660D01*
X26161730Y2798967D01*
X26169206Y2777184D01*
X26170373Y2773265D01*
X26194259Y2678944D01*
X26194260Y2678942D01*
X26233346Y2589832D01*
X26234833Y2586020D01*
X26242303Y2564259D01*
X26242309Y2564247D01*
X26253273Y2543984D01*
X26255069Y2540310D01*
X26294144Y2451227D01*
X26294151Y2451214D01*
X26347369Y2369757D01*
X26349463Y2366242D01*
X26360421Y2345995D01*
X26360423Y2345992D01*
X26374564Y2327822D01*
X26376942Y2324492D01*
X26430157Y2243040D01*
X26496067Y2171442D01*
X26498712Y2168318D01*
X26512838Y2150168D01*
X26512847Y2150159D01*
X26529777Y2134574D01*
X26532661Y2131691D01*
X26598579Y2060085D01*
X26675373Y2000314D01*
X26678488Y1997676D01*
X26683112Y1993419D01*
X26695422Y1982085D01*
X26714693Y1969495D01*
X26718024Y1967117D01*
X26794810Y1907352D01*
X26794817Y1907347D01*
X26818847Y1894343D01*
X26880408Y1861028D01*
X26883903Y1858945D01*
X26903178Y1846352D01*
X26917746Y1839962D01*
X26924258Y1837105D01*
X26927925Y1835313D01*
X27013513Y1788995D01*
X27105549Y1757399D01*
X27109358Y1755913D01*
X27130439Y1746666D01*
X27152754Y1741016D01*
X27156673Y1739848D01*
X27248709Y1708252D01*
X27344701Y1692234D01*
X27348679Y1691401D01*
X27371008Y1685746D01*
X27393964Y1683844D01*
X27397973Y1683345D01*
X27493988Y1667323D01*
X27493989Y1667323D01*
X27591280Y1667323D01*
X27595370Y1667154D01*
X27618323Y1665252D01*
X27641276Y1667154D01*
X27645366Y1667323D01*
X27742658Y1667323D01*
X27838672Y1683345D01*
X27842681Y1683844D01*
X27865638Y1685746D01*
X27887975Y1691403D01*
X27891921Y1692231D01*
X27987937Y1708252D01*
X28079996Y1739857D01*
X28083887Y1741014D01*
X28106207Y1746666D01*
X28127313Y1755925D01*
X28131059Y1757386D01*
X28223133Y1788995D01*
X28308749Y1835329D01*
X28312355Y1837092D01*
X28333468Y1846352D01*
X28352770Y1858963D01*
X28356211Y1861014D01*
X28441832Y1907349D01*
X28518658Y1967146D01*
X28521908Y1969467D01*
X28541221Y1982084D01*
X28558165Y1997683D01*
X28561257Y2000302D01*
X28638067Y2060085D01*
X28703984Y2131691D01*
X28706855Y2134562D01*
X28723800Y2150160D01*
X28737962Y2168356D01*
X28740556Y2171419D01*
X28806487Y2243038D01*
X28859713Y2324508D01*
X28862079Y2327822D01*
X28876225Y2345995D01*
X28887193Y2366263D01*
X28889263Y2369737D01*
X28942496Y2451216D01*
X28981586Y2540335D01*
X28983371Y2543984D01*
X28994337Y2564247D01*
X29001826Y2586064D01*
X29003276Y2589783D01*
X29042386Y2678942D01*
X29066278Y2773291D01*
X29067433Y2777171D01*
X29074915Y2798964D01*
X29078706Y2821688D01*
X29079534Y2825637D01*
X29103431Y2920002D01*
X29111468Y3017003D01*
X29111973Y3021044D01*
X29115761Y3043742D01*
X29116418Y3075598D01*
X29116574Y3078619D01*
X29123966Y3167823D01*
X29116574Y3257024D01*
X29116418Y3260065D01*
X29115761Y3291904D01*
X29111973Y3314605D01*
X29111467Y3318653D01*
X29103431Y3415644D01*
X29079539Y3509988D01*
X29078702Y3513987D01*
X29074915Y3536682D01*
X29067437Y3558465D01*
X29066274Y3562372D01*
X29052789Y3615624D01*
X29042386Y3656704D01*
X29003286Y3745843D01*
X29001820Y3749602D01*
X28994337Y3771399D01*
X28983375Y3791654D01*
X28981586Y3795313D01*
X28942496Y3884430D01*
X28889270Y3965899D01*
X28887197Y3969377D01*
X28876225Y3989651D01*
X28862076Y4007830D01*
X28859710Y4011144D01*
X28843419Y4036079D01*
X28806487Y4092609D01*
X28740578Y4164205D01*
X28737933Y4167328D01*
X28723803Y4185482D01*
X28723800Y4185486D01*
X28706866Y4201075D01*
X28706861Y4201080D01*
X28703967Y4203974D01*
X28638066Y4275562D01*
X28561272Y4335333D01*
X28558154Y4337974D01*
X28541221Y4353562D01*
X28521945Y4366156D01*
X28518635Y4368519D01*
X28441832Y4428297D01*
X28356248Y4474613D01*
X28352734Y4476707D01*
X28333468Y4489295D01*
X28316430Y4496768D01*
X28312386Y4498542D01*
X28308714Y4500337D01*
X28223137Y4546649D01*
X28223136Y4546650D01*
X28223133Y4546651D01*
X28185298Y4559640D01*
X28131091Y4578250D01*
X28127279Y4579737D01*
X28106207Y4588980D01*
X28083894Y4594632D01*
X28079974Y4595799D01*
X27987939Y4627394D01*
X27891951Y4643412D01*
X27887947Y4644252D01*
X27865641Y4649900D01*
X27842695Y4651802D01*
X27838637Y4652308D01*
X27742659Y4668323D01*
X27742658Y4668323D01*
X27645354Y4668323D01*
X27641265Y4668492D01*
X27618323Y4670393D01*
X27595380Y4668492D01*
X27591292Y4668323D01*
X27493987Y4668323D01*
X27398007Y4652307D01*
X27393946Y4651801D01*
X27371007Y4649901D01*
X27371006Y4649900D01*
X27348700Y4644252D01*
X27344696Y4643412D01*
X27248704Y4627394D01*
X27156675Y4595800D01*
X27152755Y4594633D01*
X27130444Y4588982D01*
X27130426Y4588976D01*
X27109356Y4579735D01*
X27105548Y4578249D01*
X27013513Y4546652D01*
X27013505Y4546648D01*
X26927928Y4500335D01*
X26924252Y4498539D01*
X26903183Y4489297D01*
X26903167Y4489288D01*
X26883911Y4476707D01*
X26880397Y4474613D01*
X26794817Y4428300D01*
X26794810Y4428295D01*
X26718023Y4368529D01*
X26714694Y4366152D01*
X26695431Y4353567D01*
X26695419Y4353558D01*
X26678490Y4337974D01*
X26675369Y4335332D01*
X26598583Y4275566D01*
X26598581Y4275564D01*
X26532669Y4203966D01*
X26529778Y4201075D01*
X26512847Y4185487D01*
X26512846Y4185486D01*
X26498702Y4167316D01*
X26496059Y4164196D01*
X26430159Y4092609D01*
X26376935Y4011146D01*
X26374559Y4007818D01*
X26360422Y3989653D01*
X26360415Y3989643D01*
X26349460Y3969399D01*
X26347366Y3965885D01*
X26294151Y3884433D01*
X26294146Y3884424D01*
X26255063Y3795324D01*
X26253266Y3791650D01*
X26242311Y3771406D01*
X26242308Y3771398D01*
X26234832Y3749623D01*
X26233346Y3745813D01*
X26194260Y3656705D01*
X26170372Y3562380D01*
X26169206Y3558461D01*
X26161731Y3536685D01*
X26161729Y3536676D01*
X26157942Y3513987D01*
X26157103Y3509984D01*
X26133215Y3415647D01*
X26125177Y3318657D01*
X26124671Y3314599D01*
X26121763Y3297168D01*
X26120887Y3291912D01*
X26120885Y3291902D01*
X26120885Y3268893D01*
X26120716Y3264803D01*
X26112680Y3167824D01*
X4993966Y3167824D01*
X4986574Y3257024D01*
X4986418Y3260065D01*
X4985761Y3291904D01*
X4981973Y3314605D01*
X4981467Y3318653D01*
X4973431Y3415644D01*
X4949539Y3509988D01*
X4948702Y3513987D01*
X4944915Y3536682D01*
X4937437Y3558465D01*
X4936274Y3562372D01*
X4922789Y3615624D01*
X4912386Y3656704D01*
X4873286Y3745843D01*
X4871820Y3749602D01*
X4864337Y3771399D01*
X4853375Y3791654D01*
X4851586Y3795313D01*
X4812496Y3884430D01*
X4759270Y3965899D01*
X4757197Y3969377D01*
X4746225Y3989651D01*
X4732076Y4007830D01*
X4729710Y4011144D01*
X4713419Y4036079D01*
X4676487Y4092609D01*
X4610578Y4164205D01*
X4607933Y4167328D01*
X4593803Y4185482D01*
X4593800Y4185486D01*
X4576866Y4201075D01*
X4576861Y4201080D01*
X4573967Y4203974D01*
X4508066Y4275562D01*
X4431272Y4335333D01*
X4428154Y4337974D01*
X4411221Y4353562D01*
X4391945Y4366156D01*
X4388635Y4368519D01*
X4311832Y4428297D01*
X4226248Y4474613D01*
X4222734Y4476707D01*
X4203468Y4489295D01*
X4186430Y4496768D01*
X4182386Y4498542D01*
X4178714Y4500337D01*
X4093137Y4546649D01*
X4093136Y4546650D01*
X4093133Y4546651D01*
X4055298Y4559640D01*
X4001091Y4578250D01*
X3997279Y4579737D01*
X3976207Y4588980D01*
X3953894Y4594632D01*
X3949974Y4595799D01*
X3857939Y4627394D01*
X3761951Y4643412D01*
X3757947Y4644252D01*
X3735641Y4649900D01*
X3712695Y4651802D01*
X3708637Y4652308D01*
X3612659Y4668323D01*
X3612658Y4668323D01*
X3515354Y4668323D01*
X3511265Y4668492D01*
X3488323Y4670393D01*
X3465380Y4668492D01*
X3461292Y4668323D01*
X3363987Y4668323D01*
X3268007Y4652307D01*
X3263946Y4651801D01*
X3241007Y4649901D01*
X3241006Y4649900D01*
X3218700Y4644252D01*
X3214696Y4643412D01*
X3118704Y4627394D01*
X3026675Y4595800D01*
X3022755Y4594633D01*
X3000444Y4588982D01*
X3000426Y4588976D01*
X2979356Y4579735D01*
X2975548Y4578249D01*
X2883513Y4546652D01*
X2883505Y4546648D01*
X2797928Y4500335D01*
X2794252Y4498539D01*
X2773183Y4489297D01*
X2773167Y4489288D01*
X2753911Y4476707D01*
X2750397Y4474613D01*
X2664817Y4428300D01*
X2664810Y4428295D01*
X2588023Y4368529D01*
X2584694Y4366152D01*
X2565431Y4353567D01*
X2565419Y4353558D01*
X2548490Y4337974D01*
X2545369Y4335332D01*
X2468583Y4275566D01*
X2468581Y4275564D01*
X2402669Y4203966D01*
X2399778Y4201075D01*
X2382847Y4185487D01*
X2382846Y4185486D01*
X2368702Y4167316D01*
X2366059Y4164196D01*
X2300159Y4092609D01*
X2246935Y4011146D01*
X2244559Y4007818D01*
X2230422Y3989653D01*
X2230415Y3989643D01*
X2219460Y3969399D01*
X2217366Y3965885D01*
X2164151Y3884433D01*
X2164146Y3884424D01*
X2125063Y3795324D01*
X2123266Y3791650D01*
X2112311Y3771406D01*
X2112308Y3771398D01*
X2104832Y3749623D01*
X2103346Y3745813D01*
X2064260Y3656705D01*
X2040372Y3562380D01*
X2039206Y3558461D01*
X2031731Y3536685D01*
X2031729Y3536676D01*
X2027942Y3513987D01*
X2027103Y3509984D01*
X2003215Y3415647D01*
X1995177Y3318657D01*
X1994671Y3314599D01*
X1991763Y3297168D01*
X1990887Y3291912D01*
X1990885Y3291902D01*
X1990885Y3268893D01*
X1990716Y3264803D01*
X1982680Y3167824D01*
X371688Y3167824D01*
X360358Y3239358D01*
X333628Y3419557D01*
X333162Y3424219D01*
X321318Y3650226D01*
X315367Y3771399D01*
X313883Y3801615D01*
X313823Y3804043D01*
X313823Y7985140D01*
X2964300Y7985140D01*
X2964301Y7985137D01*
X2967214Y7960010D01*
X2992556Y7902615D01*
X3012594Y7857235D01*
X3092035Y7777794D01*
X3194809Y7732415D01*
X3219935Y7729500D01*
X5009664Y7729501D01*
X5034791Y7732415D01*
X5137565Y7777794D01*
X5217006Y7857235D01*
X5262385Y7960009D01*
X5265300Y7985135D01*
X5265300Y7995140D01*
X6799500Y7995140D01*
X6799501Y7995137D01*
X6802414Y7970010D01*
X6803325Y7967947D01*
X6847794Y7867235D01*
X6927235Y7787794D01*
X7030009Y7742415D01*
X7055135Y7739500D01*
X8844864Y7739501D01*
X8869991Y7742415D01*
X8972765Y7787794D01*
X9052206Y7867235D01*
X9097585Y7970009D01*
X9100500Y7995135D01*
X9100499Y8890000D01*
X9334571Y8890000D01*
X9354244Y8677690D01*
X9412595Y8472611D01*
X9507634Y8281745D01*
X9636128Y8111593D01*
X9636135Y8111587D01*
X9793692Y7967953D01*
X9793699Y7967947D01*
X9897389Y7903745D01*
X9974981Y7855702D01*
X10173802Y7778679D01*
X10383390Y7739500D01*
X10596610Y7739500D01*
X10806198Y7778679D01*
X11005019Y7855702D01*
X11186302Y7967948D01*
X11343872Y8111593D01*
X11472366Y8281745D01*
X11567405Y8472611D01*
X11625756Y8677690D01*
X11631530Y8740000D01*
X11888973Y8740000D01*
X11894738Y8677784D01*
X11953064Y8472790D01*
X12048057Y8282017D01*
X12048062Y8282008D01*
X12176496Y8111936D01*
X12176506Y8111925D01*
X12333995Y7968353D01*
X12333994Y7968353D01*
X12515206Y7856153D01*
X12713941Y7779162D01*
X12879999Y7748120D01*
X12880000Y7748120D01*
X12880000Y8408830D01*
X12887685Y8405320D01*
X12994237Y8390000D01*
X13065763Y8390000D01*
X13172315Y8405320D01*
X13180000Y8408830D01*
X13180000Y7748120D01*
X13346058Y7779162D01*
X13544793Y7856153D01*
X13726004Y7968353D01*
X13883493Y8111925D01*
X13883503Y8111936D01*
X14011937Y8282008D01*
X14011942Y8282017D01*
X14106935Y8472790D01*
X14165261Y8677784D01*
X14171027Y8740000D01*
X16892973Y8740000D01*
X16898738Y8677784D01*
X16957064Y8472790D01*
X17052057Y8282017D01*
X17052062Y8282008D01*
X17180496Y8111936D01*
X17180506Y8111925D01*
X17337995Y7968353D01*
X17337994Y7968353D01*
X17519206Y7856153D01*
X17717941Y7779162D01*
X17883999Y7748120D01*
X17884000Y7748120D01*
X17884000Y8408830D01*
X17891685Y8405320D01*
X17998237Y8390000D01*
X18069763Y8390000D01*
X18176315Y8405320D01*
X18184000Y8408830D01*
X18184000Y7748120D01*
X18350058Y7779162D01*
X18548793Y7856153D01*
X18730004Y7968353D01*
X18887493Y8111925D01*
X18887503Y8111936D01*
X19015937Y8282008D01*
X19015942Y8282017D01*
X19110935Y8472790D01*
X19169261Y8677784D01*
X19175027Y8740000D01*
X18511065Y8740000D01*
X18534000Y8818111D01*
X18534000Y8961889D01*
X18511065Y9040000D01*
X19175026Y9040000D01*
X19169261Y9102217D01*
X19110935Y9307211D01*
X19015942Y9497984D01*
X19015937Y9497993D01*
X18887503Y9668065D01*
X18887493Y9668076D01*
X18730004Y9811648D01*
X18730005Y9811648D01*
X18548793Y9923848D01*
X18350061Y10000838D01*
X18350055Y10000840D01*
X18184000Y10031882D01*
X18184000Y9371171D01*
X18176315Y9374680D01*
X18069763Y9390000D01*
X17998237Y9390000D01*
X17891685Y9374680D01*
X17884000Y9371171D01*
X17884000Y10031881D01*
X17883999Y10031882D01*
X17717944Y10000840D01*
X17717938Y10000838D01*
X17519206Y9923848D01*
X17337995Y9811648D01*
X17180506Y9668076D01*
X17180496Y9668065D01*
X17052062Y9497993D01*
X17052057Y9497984D01*
X16957064Y9307211D01*
X16898738Y9102217D01*
X16892973Y9040000D01*
X17556935Y9040000D01*
X17534000Y8961889D01*
X17534000Y8818111D01*
X17556935Y8740000D01*
X16892973Y8740000D01*
X14171027Y8740000D01*
X13507065Y8740000D01*
X13530000Y8818111D01*
X13530000Y8961889D01*
X13507065Y9040000D01*
X14171026Y9040000D01*
X14165261Y9102217D01*
X14106935Y9307211D01*
X14011942Y9497984D01*
X14011937Y9497993D01*
X13883503Y9668065D01*
X13883493Y9668076D01*
X13726004Y9811648D01*
X13726005Y9811648D01*
X13544793Y9923848D01*
X13346061Y10000838D01*
X13346055Y10000840D01*
X13180000Y10031882D01*
X13180000Y9371171D01*
X13172315Y9374680D01*
X13065763Y9390000D01*
X12994237Y9390000D01*
X12887685Y9374680D01*
X12880000Y9371171D01*
X12880000Y10031881D01*
X12879999Y10031882D01*
X12713944Y10000840D01*
X12713938Y10000838D01*
X12515206Y9923848D01*
X12333995Y9811648D01*
X12176506Y9668076D01*
X12176496Y9668065D01*
X12048062Y9497993D01*
X12048057Y9497984D01*
X11953064Y9307211D01*
X11894738Y9102217D01*
X11888973Y9040000D01*
X12552935Y9040000D01*
X12530000Y8961889D01*
X12530000Y8818111D01*
X12552935Y8740000D01*
X11888973Y8740000D01*
X11631530Y8740000D01*
X11645429Y8890000D01*
X11625756Y9102310D01*
X11567405Y9307389D01*
X11472366Y9498255D01*
X11343872Y9668407D01*
X11289623Y9717861D01*
X11186307Y9812048D01*
X11186300Y9812054D01*
X11037847Y9903972D01*
X10998326Y9950680D01*
X10993807Y10011699D01*
X11019961Y10058147D01*
X11354319Y10392504D01*
X11408835Y10420281D01*
X11424322Y10421500D01*
X19563678Y10421500D01*
X19621869Y10402593D01*
X19633682Y10392504D01*
X19997101Y10029085D01*
X20024878Y9974568D01*
X20015307Y9914136D01*
X19979215Y9874910D01*
X19877695Y9812051D01*
X19877692Y9812048D01*
X19720135Y9668414D01*
X19720131Y9668411D01*
X19720128Y9668407D01*
X19720125Y9668403D01*
X19591635Y9498257D01*
X19591630Y9498248D01*
X19496596Y9307392D01*
X19438244Y9102312D01*
X19438244Y9102310D01*
X19418571Y8890000D01*
X19438244Y8677690D01*
X19496595Y8472611D01*
X19591634Y8281745D01*
X19720128Y8111593D01*
X19720135Y8111587D01*
X19877692Y7967953D01*
X19877699Y7967947D01*
X19981389Y7903745D01*
X20058981Y7855702D01*
X20257802Y7778679D01*
X20467390Y7739500D01*
X20680610Y7739500D01*
X20890198Y7778679D01*
X21089019Y7855702D01*
X21270302Y7967948D01*
X21300130Y7995140D01*
X21963500Y7995140D01*
X21963501Y7995137D01*
X21966414Y7970010D01*
X21967325Y7967947D01*
X22011794Y7867235D01*
X22091235Y7787794D01*
X22194009Y7742415D01*
X22219135Y7739500D01*
X24008864Y7739501D01*
X24033991Y7742415D01*
X24136765Y7787794D01*
X24216206Y7867235D01*
X24261585Y7970009D01*
X24263340Y7985140D01*
X25829500Y7985140D01*
X25829501Y7985137D01*
X25832414Y7960010D01*
X25857756Y7902615D01*
X25877794Y7857235D01*
X25957235Y7777794D01*
X26060009Y7732415D01*
X26085135Y7729500D01*
X27874864Y7729501D01*
X27899991Y7732415D01*
X28002765Y7777794D01*
X28082206Y7857235D01*
X28127585Y7960009D01*
X28130500Y7985135D01*
X28130499Y9774864D01*
X28127585Y9799991D01*
X28082206Y9902765D01*
X28002765Y9982206D01*
X27899991Y10027585D01*
X27899990Y10027586D01*
X27899988Y10027586D01*
X27874868Y10030500D01*
X26085139Y10030500D01*
X26085136Y10030499D01*
X26060009Y10027586D01*
X25957235Y9982206D01*
X25877794Y9902765D01*
X25832414Y9799989D01*
X25829500Y9774870D01*
X25829500Y7985140D01*
X24263340Y7985140D01*
X24264500Y7995135D01*
X24264499Y9784864D01*
X24261585Y9809991D01*
X24216206Y9912765D01*
X24136765Y9992206D01*
X24033991Y10037585D01*
X24033990Y10037586D01*
X24033988Y10037586D01*
X24008868Y10040500D01*
X22219139Y10040500D01*
X22219136Y10040499D01*
X22194009Y10037586D01*
X22091235Y9992206D01*
X22011794Y9912765D01*
X21966414Y9809989D01*
X21963500Y9784870D01*
X21963500Y7995140D01*
X21300130Y7995140D01*
X21427872Y8111593D01*
X21556366Y8281745D01*
X21651405Y8472611D01*
X21709756Y8677690D01*
X21729429Y8890000D01*
X21709756Y9102310D01*
X21651405Y9307389D01*
X21556366Y9498255D01*
X21427872Y9668407D01*
X21373623Y9717861D01*
X21270307Y9812048D01*
X21270300Y9812054D01*
X21121383Y9904260D01*
X21081862Y9950969D01*
X21074500Y9988431D01*
X21074500Y10095544D01*
X21076763Y10116592D01*
X21078359Y10123927D01*
X21074626Y10176120D01*
X21074500Y10179653D01*
X21074500Y10195799D01*
X21073906Y10199927D01*
X21072198Y10211804D01*
X21071825Y10215271D01*
X21068091Y10267483D01*
X21065468Y10274516D01*
X21060233Y10295025D01*
X21059165Y10302457D01*
X21037425Y10350059D01*
X21036077Y10353315D01*
X21033401Y10360489D01*
X21017796Y10402331D01*
X21013291Y10408349D01*
X21002495Y10426546D01*
X20999377Y10433373D01*
X20999375Y10433375D01*
X20999375Y10433376D01*
X20965124Y10472903D01*
X20962906Y10475655D01*
X20953222Y10488591D01*
X20953221Y10488593D01*
X20941796Y10500018D01*
X20939387Y10502606D01*
X20905129Y10542143D01*
X20905127Y10542144D01*
X20898810Y10546204D01*
X20882332Y10559482D01*
X20211480Y11230334D01*
X20198199Y11246817D01*
X20194144Y11253127D01*
X20194138Y11253132D01*
X20154598Y11287394D01*
X20152026Y11289789D01*
X20140595Y11301219D01*
X20140593Y11301221D01*
X20127636Y11310920D01*
X20124917Y11313112D01*
X20085373Y11347377D01*
X20078538Y11350499D01*
X20060348Y11361292D01*
X20059293Y11362082D01*
X20054331Y11365796D01*
X20054328Y11365797D01*
X20054327Y11365798D01*
X20005314Y11384079D01*
X20002049Y11385431D01*
X19954458Y11407165D01*
X19954454Y11407166D01*
X19947014Y11408236D01*
X19926520Y11413467D01*
X19919482Y11416092D01*
X19919483Y11416092D01*
X19867301Y11419824D01*
X19865665Y11420000D01*
X25824571Y11420000D01*
X25844244Y11207690D01*
X25902595Y11002611D01*
X25997634Y10811745D01*
X26126128Y10641593D01*
X26195229Y10578599D01*
X26283692Y10497953D01*
X26283699Y10497947D01*
X26324147Y10472903D01*
X26464981Y10385702D01*
X26663802Y10308679D01*
X26873390Y10269500D01*
X27086610Y10269500D01*
X27296198Y10308679D01*
X27495019Y10385702D01*
X27676302Y10497948D01*
X27833872Y10641593D01*
X27962366Y10811745D01*
X28057405Y11002611D01*
X28115756Y11207690D01*
X28135429Y11420000D01*
X28115756Y11632310D01*
X28057405Y11837389D01*
X27962366Y12028255D01*
X27833872Y12198407D01*
X27779623Y12247861D01*
X27676307Y12342048D01*
X27676300Y12342054D01*
X27495024Y12454295D01*
X27495019Y12454298D01*
X27296195Y12531322D01*
X27086610Y12570500D01*
X26873390Y12570500D01*
X26663804Y12531322D01*
X26464980Y12454298D01*
X26464975Y12454295D01*
X26283699Y12342054D01*
X26283692Y12342048D01*
X26126135Y12198414D01*
X26126131Y12198411D01*
X26126128Y12198407D01*
X26126125Y12198403D01*
X25997635Y12028257D01*
X25997630Y12028248D01*
X25902596Y11837392D01*
X25844244Y11632312D01*
X25844244Y11632310D01*
X25824571Y11420000D01*
X19865665Y11420000D01*
X19863788Y11420202D01*
X19847800Y11422500D01*
X19847799Y11422500D01*
X19831652Y11422500D01*
X19828119Y11422626D01*
X19798240Y11424763D01*
X19775927Y11426359D01*
X19775926Y11426359D01*
X19775925Y11426359D01*
X19768590Y11424763D01*
X19747544Y11422500D01*
X11240456Y11422500D01*
X11219410Y11424763D01*
X11212074Y11426359D01*
X11212073Y11426359D01*
X11191874Y11424915D01*
X11159881Y11422626D01*
X11156348Y11422500D01*
X11140200Y11422500D01*
X11124212Y11420202D01*
X11120700Y11419824D01*
X11068517Y11416092D01*
X11061471Y11413464D01*
X11040985Y11408236D01*
X11033547Y11407166D01*
X11033544Y11407166D01*
X11033543Y11407165D01*
X11033542Y11407165D01*
X11033540Y11407164D01*
X10985959Y11385435D01*
X10982695Y11384083D01*
X10933671Y11365798D01*
X10933669Y11365797D01*
X10927646Y11361288D01*
X10909463Y11350500D01*
X10902626Y11347378D01*
X10863097Y11313126D01*
X10860348Y11310911D01*
X10847407Y11301222D01*
X10835986Y11289801D01*
X10833401Y11287394D01*
X10793859Y11253132D01*
X10793856Y11253128D01*
X10789793Y11246806D01*
X10776519Y11230335D01*
X10181665Y10635481D01*
X10165194Y10622207D01*
X10158872Y10618144D01*
X10158868Y10618141D01*
X10124606Y10578599D01*
X10122199Y10576014D01*
X10110778Y10564593D01*
X10101089Y10551652D01*
X10098874Y10548903D01*
X10064622Y10509374D01*
X10061500Y10502537D01*
X10050712Y10484354D01*
X10046203Y10478331D01*
X10046202Y10478329D01*
X10027917Y10429305D01*
X10026565Y10426041D01*
X10004836Y10378460D01*
X10004834Y10378453D01*
X10003764Y10371015D01*
X9998536Y10350529D01*
X9995908Y10343483D01*
X9992176Y10291300D01*
X9991798Y10287788D01*
X9989500Y10271800D01*
X9989500Y10255653D01*
X9989374Y10252120D01*
X9985641Y10199927D01*
X9987237Y10192592D01*
X9989500Y10171544D01*
X9989500Y9988431D01*
X9970593Y9930240D01*
X9942617Y9904260D01*
X9793699Y9812054D01*
X9793692Y9812048D01*
X9636135Y9668414D01*
X9636131Y9668411D01*
X9636128Y9668407D01*
X9636125Y9668403D01*
X9507635Y9498257D01*
X9507630Y9498248D01*
X9412596Y9307392D01*
X9354244Y9102312D01*
X9354244Y9102310D01*
X9334571Y8890000D01*
X9100499Y8890000D01*
X9100499Y9784864D01*
X9097585Y9809991D01*
X9052206Y9912765D01*
X8972765Y9992206D01*
X8869991Y10037585D01*
X8869990Y10037586D01*
X8869988Y10037586D01*
X8844869Y10040500D01*
X8844865Y10040500D01*
X8549500Y10040500D01*
X8491309Y10059407D01*
X8455345Y10108907D01*
X8450500Y10139500D01*
X8450500Y10495678D01*
X8469407Y10553869D01*
X8479496Y10565682D01*
X11344318Y13430504D01*
X11398835Y13458281D01*
X11414322Y13459500D01*
X25882681Y13459500D01*
X25940872Y13440593D01*
X25971301Y13404630D01*
X25997634Y13351745D01*
X26126128Y13181593D01*
X26126135Y13181587D01*
X26283692Y13037953D01*
X26283699Y13037947D01*
X26387389Y12973745D01*
X26464981Y12925702D01*
X26663802Y12848679D01*
X26873390Y12809500D01*
X27086610Y12809500D01*
X27296198Y12848679D01*
X27495019Y12925702D01*
X27676302Y13037948D01*
X27833872Y13181593D01*
X27962366Y13351745D01*
X28057405Y13542611D01*
X28115756Y13747690D01*
X28135429Y13960000D01*
X28115756Y14172310D01*
X28057405Y14377389D01*
X27962366Y14568255D01*
X27833872Y14738407D01*
X27779623Y14787861D01*
X27676307Y14882048D01*
X27676300Y14882054D01*
X27495024Y14994295D01*
X27495019Y14994298D01*
X27296195Y15071322D01*
X27086610Y15110500D01*
X26873390Y15110500D01*
X26663804Y15071322D01*
X26464980Y14994298D01*
X26464975Y14994295D01*
X26283699Y14882054D01*
X26283692Y14882048D01*
X26126135Y14738414D01*
X26126131Y14738411D01*
X26126128Y14738407D01*
X26126125Y14738403D01*
X25997635Y14568257D01*
X25997634Y14568255D01*
X25971301Y14515372D01*
X25928440Y14471710D01*
X25882681Y14460500D01*
X11230456Y14460500D01*
X11209410Y14462763D01*
X11202074Y14464359D01*
X11202073Y14464359D01*
X11181874Y14462915D01*
X11149881Y14460626D01*
X11146348Y14460500D01*
X11130200Y14460500D01*
X11114212Y14458202D01*
X11110700Y14457824D01*
X11058517Y14454092D01*
X11051471Y14451464D01*
X11030985Y14446236D01*
X11023547Y14445166D01*
X11023544Y14445166D01*
X11023543Y14445165D01*
X11023542Y14445165D01*
X11023540Y14445164D01*
X10975959Y14423435D01*
X10972695Y14422083D01*
X10923671Y14403798D01*
X10923669Y14403797D01*
X10917646Y14399288D01*
X10899463Y14388500D01*
X10892626Y14385378D01*
X10853097Y14351126D01*
X10850348Y14348911D01*
X10837407Y14339222D01*
X10825986Y14327801D01*
X10823401Y14325394D01*
X10783859Y14291132D01*
X10783856Y14291128D01*
X10779793Y14284806D01*
X10766519Y14268335D01*
X7641665Y11143481D01*
X7625194Y11130207D01*
X7618872Y11126144D01*
X7618868Y11126141D01*
X7584606Y11086599D01*
X7582199Y11084014D01*
X7570778Y11072593D01*
X7561089Y11059652D01*
X7558874Y11056903D01*
X7524622Y11017374D01*
X7521500Y11010537D01*
X7510712Y10992354D01*
X7506203Y10986331D01*
X7506202Y10986329D01*
X7487917Y10937305D01*
X7486565Y10934041D01*
X7464836Y10886460D01*
X7464834Y10886453D01*
X7463764Y10879015D01*
X7458536Y10858529D01*
X7455908Y10851483D01*
X7452176Y10799300D01*
X7451798Y10795788D01*
X7449500Y10779800D01*
X7449500Y10763653D01*
X7449374Y10760120D01*
X7445641Y10707927D01*
X7447237Y10700592D01*
X7449500Y10679544D01*
X7449500Y10139500D01*
X7430593Y10081309D01*
X7381093Y10045345D01*
X7350500Y10040500D01*
X7055139Y10040500D01*
X7055136Y10040499D01*
X7030009Y10037586D01*
X6927235Y9992206D01*
X6847794Y9912765D01*
X6802414Y9809989D01*
X6799500Y9784870D01*
X6799500Y7995140D01*
X5265300Y7995140D01*
X5265299Y9774864D01*
X5262385Y9799991D01*
X5217006Y9902765D01*
X5137565Y9982206D01*
X5034791Y10027585D01*
X5034790Y10027586D01*
X5034788Y10027586D01*
X5009668Y10030500D01*
X3219939Y10030500D01*
X3219936Y10030499D01*
X3194809Y10027586D01*
X3092035Y9982206D01*
X3012594Y9902765D01*
X2967214Y9799989D01*
X2964300Y9774870D01*
X2964300Y7985140D01*
X313823Y7985140D01*
X313823Y11420000D01*
X2959371Y11420000D01*
X2979044Y11207690D01*
X3037395Y11002611D01*
X3132434Y10811745D01*
X3260928Y10641593D01*
X3330029Y10578599D01*
X3418492Y10497953D01*
X3418499Y10497947D01*
X3458947Y10472903D01*
X3599781Y10385702D01*
X3798602Y10308679D01*
X4008190Y10269500D01*
X4221410Y10269500D01*
X4430998Y10308679D01*
X4629819Y10385702D01*
X4811102Y10497948D01*
X4968672Y10641593D01*
X5097166Y10811745D01*
X5192205Y11002611D01*
X5250556Y11207690D01*
X5270229Y11420000D01*
X5250556Y11632310D01*
X5192205Y11837389D01*
X5097166Y12028255D01*
X4968672Y12198407D01*
X4914423Y12247861D01*
X4811107Y12342048D01*
X4811100Y12342054D01*
X4629824Y12454295D01*
X4629819Y12454298D01*
X4430995Y12531322D01*
X4221410Y12570500D01*
X4008190Y12570500D01*
X3798604Y12531322D01*
X3599780Y12454298D01*
X3599775Y12454295D01*
X3418499Y12342054D01*
X3418492Y12342048D01*
X3260935Y12198414D01*
X3260931Y12198411D01*
X3260928Y12198407D01*
X3260925Y12198403D01*
X3132435Y12028257D01*
X3132430Y12028248D01*
X3037396Y11837392D01*
X2979044Y11632312D01*
X2979044Y11632310D01*
X2959371Y11420000D01*
X313823Y11420000D01*
X313823Y13960000D01*
X2959371Y13960000D01*
X2979044Y13747690D01*
X3037395Y13542611D01*
X3132434Y13351745D01*
X3260928Y13181593D01*
X3260935Y13181587D01*
X3418492Y13037953D01*
X3418499Y13037947D01*
X3522189Y12973745D01*
X3599781Y12925702D01*
X3798602Y12848679D01*
X4008190Y12809500D01*
X4221410Y12809500D01*
X4430998Y12848679D01*
X4629819Y12925702D01*
X4811102Y13037948D01*
X4968672Y13181593D01*
X5097166Y13351745D01*
X5192205Y13542611D01*
X5250556Y13747690D01*
X5270229Y13960000D01*
X5250556Y14172310D01*
X5192205Y14377389D01*
X5097166Y14568255D01*
X4968672Y14738407D01*
X4914423Y14787861D01*
X4811107Y14882048D01*
X4811100Y14882054D01*
X4629824Y14994295D01*
X4629819Y14994298D01*
X4430995Y15071322D01*
X4221410Y15110500D01*
X4008190Y15110500D01*
X3798604Y15071322D01*
X3599780Y14994298D01*
X3599775Y14994295D01*
X3418499Y14882054D01*
X3418492Y14882048D01*
X3260935Y14738414D01*
X3260931Y14738411D01*
X3260928Y14738407D01*
X3260925Y14738403D01*
X3132435Y14568257D01*
X3132430Y14568248D01*
X3037396Y14377392D01*
X2979044Y14172312D01*
X2979044Y14172310D01*
X2959371Y13960000D01*
X313823Y13960000D01*
X313823Y16500000D01*
X2959371Y16500000D01*
X2979044Y16287690D01*
X3037395Y16082611D01*
X3132434Y15891745D01*
X3260928Y15721593D01*
X3260935Y15721587D01*
X3418492Y15577953D01*
X3418499Y15577947D01*
X3522189Y15513745D01*
X3599781Y15465702D01*
X3798602Y15388679D01*
X4008190Y15349500D01*
X4221410Y15349500D01*
X4430998Y15388679D01*
X4629819Y15465702D01*
X4811102Y15577948D01*
X4968672Y15721593D01*
X5097166Y15891745D01*
X5192205Y16082611D01*
X5250556Y16287690D01*
X5270229Y16500000D01*
X25824571Y16500000D01*
X25844244Y16287690D01*
X25902595Y16082611D01*
X25997634Y15891745D01*
X26126128Y15721593D01*
X26126135Y15721587D01*
X26283692Y15577953D01*
X26283699Y15577947D01*
X26387389Y15513745D01*
X26464981Y15465702D01*
X26663802Y15388679D01*
X26873390Y15349500D01*
X27086610Y15349500D01*
X27296198Y15388679D01*
X27495019Y15465702D01*
X27676302Y15577948D01*
X27833872Y15721593D01*
X27962366Y15891745D01*
X28057405Y16082611D01*
X28115756Y16287690D01*
X28135429Y16500000D01*
X28115756Y16712310D01*
X28057405Y16917389D01*
X27962366Y17108255D01*
X27833872Y17278407D01*
X27779623Y17327861D01*
X27676307Y17422048D01*
X27676300Y17422054D01*
X27495024Y17534295D01*
X27495019Y17534298D01*
X27296195Y17611322D01*
X27086610Y17650500D01*
X26873390Y17650500D01*
X26663804Y17611322D01*
X26464980Y17534298D01*
X26464975Y17534295D01*
X26283699Y17422054D01*
X26283692Y17422048D01*
X26126135Y17278414D01*
X26126131Y17278411D01*
X26126128Y17278407D01*
X26126125Y17278403D01*
X25997635Y17108257D01*
X25997630Y17108248D01*
X25902596Y16917392D01*
X25844244Y16712312D01*
X25844244Y16712310D01*
X25824571Y16500000D01*
X5270229Y16500000D01*
X5250556Y16712310D01*
X5192205Y16917389D01*
X5097166Y17108255D01*
X4968672Y17278407D01*
X4914423Y17327861D01*
X4811107Y17422048D01*
X4811100Y17422054D01*
X4629824Y17534295D01*
X4629819Y17534298D01*
X4430995Y17611322D01*
X4221410Y17650500D01*
X4008190Y17650500D01*
X3798604Y17611322D01*
X3599780Y17534298D01*
X3599775Y17534295D01*
X3418499Y17422054D01*
X3418492Y17422048D01*
X3260935Y17278414D01*
X3260931Y17278411D01*
X3260928Y17278407D01*
X3260925Y17278403D01*
X3132435Y17108257D01*
X3132430Y17108248D01*
X3037396Y16917392D01*
X2979044Y16712312D01*
X2979044Y16712310D01*
X2959371Y16500000D01*
X313823Y16500000D01*
X313823Y19040000D01*
X2959371Y19040000D01*
X2979044Y18827690D01*
X3037395Y18622611D01*
X3132434Y18431745D01*
X3260928Y18261593D01*
X3260935Y18261587D01*
X3418492Y18117953D01*
X3418499Y18117947D01*
X3522189Y18053745D01*
X3599781Y18005702D01*
X3798602Y17928679D01*
X4008190Y17889500D01*
X4221410Y17889500D01*
X4430998Y17928679D01*
X4629819Y18005702D01*
X4811102Y18117948D01*
X4968672Y18261593D01*
X5097166Y18431745D01*
X5192205Y18622611D01*
X5250556Y18827690D01*
X5256330Y18890000D01*
X25838973Y18890000D01*
X25844738Y18827784D01*
X25903064Y18622790D01*
X25998057Y18432017D01*
X25998062Y18432008D01*
X26126496Y18261936D01*
X26126506Y18261925D01*
X26283995Y18118353D01*
X26283994Y18118353D01*
X26465206Y18006153D01*
X26663941Y17929162D01*
X26829999Y17898120D01*
X26830000Y17898120D01*
X26830000Y18558830D01*
X26837685Y18555320D01*
X26944237Y18540000D01*
X27015763Y18540000D01*
X27122315Y18555320D01*
X27130000Y18558830D01*
X27130000Y17898120D01*
X27296058Y17929162D01*
X27494793Y18006153D01*
X27676004Y18118353D01*
X27833493Y18261925D01*
X27833503Y18261936D01*
X27961937Y18432008D01*
X27961942Y18432017D01*
X28056935Y18622790D01*
X28115261Y18827784D01*
X28121027Y18890000D01*
X27457065Y18890000D01*
X27480000Y18968111D01*
X27480000Y19111889D01*
X27457065Y19190000D01*
X28121026Y19190000D01*
X28115261Y19252217D01*
X28056935Y19457211D01*
X27961942Y19647984D01*
X27961937Y19647993D01*
X27833503Y19818065D01*
X27833493Y19818076D01*
X27676004Y19961648D01*
X27676005Y19961648D01*
X27494793Y20073848D01*
X27296061Y20150838D01*
X27296055Y20150840D01*
X27130000Y20181882D01*
X27130000Y19521171D01*
X27122315Y19524680D01*
X27015763Y19540000D01*
X26944237Y19540000D01*
X26837685Y19524680D01*
X26830000Y19521171D01*
X26830000Y20181881D01*
X26829999Y20181882D01*
X26663944Y20150840D01*
X26663938Y20150838D01*
X26465206Y20073848D01*
X26283995Y19961648D01*
X26126506Y19818076D01*
X26126496Y19818065D01*
X25998062Y19647993D01*
X25998057Y19647984D01*
X25903064Y19457211D01*
X25844738Y19252217D01*
X25838973Y19190000D01*
X26502935Y19190000D01*
X26480000Y19111889D01*
X26480000Y18968111D01*
X26502935Y18890000D01*
X25838973Y18890000D01*
X5256330Y18890000D01*
X5270229Y19040000D01*
X5250556Y19252310D01*
X5192205Y19457389D01*
X5097166Y19648255D01*
X4968672Y19818407D01*
X4914423Y19867861D01*
X4811107Y19962048D01*
X4811100Y19962054D01*
X4629824Y20074295D01*
X4629819Y20074298D01*
X4430998Y20151321D01*
X4430997Y20151322D01*
X4430995Y20151322D01*
X4221410Y20190500D01*
X4008190Y20190500D01*
X3798604Y20151322D01*
X3599780Y20074298D01*
X3599775Y20074295D01*
X3418499Y19962054D01*
X3418492Y19962048D01*
X3260935Y19818414D01*
X3260931Y19818411D01*
X3260928Y19818407D01*
X3260925Y19818403D01*
X3132435Y19648257D01*
X3132430Y19648248D01*
X3037396Y19457392D01*
X2979044Y19252312D01*
X2979044Y19252310D01*
X2959371Y19040000D01*
X313823Y19040000D01*
X313823Y23970000D01*
X2973773Y23970000D01*
X2979538Y23907784D01*
X3037864Y23702790D01*
X3132857Y23512017D01*
X3132862Y23512008D01*
X3261296Y23341936D01*
X3261306Y23341925D01*
X3418795Y23198353D01*
X3418794Y23198353D01*
X3600006Y23086153D01*
X3798741Y23009162D01*
X3964799Y22978120D01*
X3964800Y22978120D01*
X3964800Y23638830D01*
X3972485Y23635320D01*
X4079037Y23620000D01*
X4150563Y23620000D01*
X4257115Y23635320D01*
X4264800Y23638830D01*
X4264800Y22978120D01*
X4430858Y23009162D01*
X4629593Y23086153D01*
X4810804Y23198353D01*
X4968293Y23341925D01*
X4968303Y23341936D01*
X5096737Y23512008D01*
X5096742Y23512017D01*
X5191735Y23702790D01*
X5250061Y23907784D01*
X5255827Y23970000D01*
X4591865Y23970000D01*
X4614800Y24048111D01*
X4614800Y24191889D01*
X4591865Y24270000D01*
X5255826Y24270000D01*
X5250061Y24332217D01*
X5191735Y24537211D01*
X5096742Y24727984D01*
X5096737Y24727993D01*
X4968303Y24898065D01*
X4968293Y24898076D01*
X4810804Y25041648D01*
X4810805Y25041648D01*
X4629593Y25153848D01*
X4430861Y25230838D01*
X4430855Y25230840D01*
X4264800Y25261882D01*
X4264800Y24601171D01*
X4257115Y24604680D01*
X4150563Y24620000D01*
X4079037Y24620000D01*
X3972485Y24604680D01*
X3964800Y24601171D01*
X3964800Y25261881D01*
X3964799Y25261882D01*
X3798744Y25230840D01*
X3798738Y25230838D01*
X3600006Y25153848D01*
X3418795Y25041648D01*
X3261306Y24898076D01*
X3261296Y24898065D01*
X3132862Y24727993D01*
X3132857Y24727984D01*
X3037864Y24537211D01*
X2979538Y24332217D01*
X2973773Y24270000D01*
X3637735Y24270000D01*
X3614800Y24191889D01*
X3614800Y24048111D01*
X3637735Y23970000D01*
X2973773Y23970000D01*
X313823Y23970000D01*
X313823Y30918009D01*
X1615801Y30918009D01*
X1618709Y30892926D01*
X1664013Y30790323D01*
X1743322Y30711014D01*
X1845927Y30665710D01*
X1871003Y30662801D01*
X2365798Y30662801D01*
X2365800Y30662802D01*
X2365800Y31412799D01*
X2365799Y31412800D01*
X1615802Y31412800D01*
X1615801Y31412799D01*
X1615801Y30918009D01*
X313823Y30918009D01*
X313823Y31712801D01*
X1615800Y31712801D01*
X1615801Y31712800D01*
X2365799Y31712800D01*
X2365800Y31712801D01*
X2365800Y32462799D01*
X2365799Y32462800D01*
X1871010Y32462800D01*
X1871007Y32462799D01*
X1845925Y32459891D01*
X1743322Y32414587D01*
X1664013Y32335278D01*
X1618709Y32232673D01*
X1615800Y32207598D01*
X1615800Y31712801D01*
X313823Y31712801D01*
X313823Y32917940D01*
X1615300Y32917940D01*
X1615301Y32917937D01*
X1618214Y32892810D01*
X1631033Y32863778D01*
X1663594Y32790035D01*
X1743035Y32710594D01*
X1845809Y32665215D01*
X1870935Y32662300D01*
X3160664Y32662301D01*
X3185791Y32665215D01*
X3288565Y32710594D01*
X3368006Y32790035D01*
X3374736Y32805278D01*
X3415535Y32850872D01*
X3475344Y32863778D01*
X3531316Y32839065D01*
X3562072Y32786172D01*
X3564300Y32765289D01*
X3564300Y32359076D01*
X3545393Y32300885D01*
X3495893Y32264921D01*
X3434707Y32264921D01*
X3385207Y32300885D01*
X3374735Y32319088D01*
X3367586Y32335278D01*
X3288277Y32414587D01*
X3185672Y32459891D01*
X3160597Y32462800D01*
X2665801Y32462800D01*
X2665800Y32462799D01*
X2665800Y30662802D01*
X2665801Y30662801D01*
X3160590Y30662801D01*
X3160591Y30662802D01*
X3185674Y30665710D01*
X3288277Y30711014D01*
X3367587Y30790324D01*
X3374735Y30806512D01*
X3415535Y30852108D01*
X3475343Y30865014D01*
X3531316Y30840301D01*
X3562072Y30787408D01*
X3564300Y30766525D01*
X3564300Y27727473D01*
X3545393Y27669282D01*
X3517417Y27643302D01*
X3418499Y27582055D01*
X3418496Y27582052D01*
X3260935Y27438414D01*
X3260931Y27438411D01*
X3260928Y27438407D01*
X3260925Y27438403D01*
X3132435Y27268257D01*
X3132430Y27268248D01*
X3037396Y27077392D01*
X2979044Y26872312D01*
X2959371Y26660000D01*
X2979044Y26447689D01*
X3002249Y26366133D01*
X3037395Y26242611D01*
X3132434Y26051745D01*
X3260928Y25881593D01*
X3260935Y25881587D01*
X3418492Y25737953D01*
X3418499Y25737947D01*
X3522189Y25673745D01*
X3599781Y25625702D01*
X3798602Y25548679D01*
X4008190Y25509500D01*
X4221410Y25509500D01*
X4430998Y25548679D01*
X4629819Y25625702D01*
X4811102Y25737948D01*
X4968672Y25881593D01*
X5097166Y26051745D01*
X5192205Y26242611D01*
X5250556Y26447690D01*
X5270229Y26660000D01*
X5250556Y26872310D01*
X5192205Y27077389D01*
X5097166Y27268255D01*
X4968672Y27438407D01*
X4930339Y27473353D01*
X4811103Y27582052D01*
X4811100Y27582055D01*
X4712183Y27643302D01*
X4672662Y27690011D01*
X4665300Y27727473D01*
X4665300Y31449322D01*
X4684207Y31507513D01*
X4733707Y31543477D01*
X4794893Y31543477D01*
X4834301Y31519328D01*
X4843035Y31510594D01*
X4945809Y31465215D01*
X4970935Y31462300D01*
X6560664Y31462301D01*
X6585791Y31465215D01*
X6688565Y31510594D01*
X6768006Y31590035D01*
X6813385Y31692809D01*
X6816300Y31717935D01*
X6816300Y32074500D01*
X6835207Y32132691D01*
X6884707Y32168655D01*
X6915300Y32173500D01*
X8425716Y32173500D01*
X8483907Y32154593D01*
X8506640Y32130524D01*
X8506947Y32130753D01*
X8508943Y32128086D01*
X8508995Y32128031D01*
X8509059Y32127931D01*
X8509067Y32127921D01*
X8555356Y32074500D01*
X8566046Y32062164D01*
X8566053Y32062158D01*
X8566055Y32062156D01*
X8674701Y31968014D01*
X8674714Y31968005D01*
X8747895Y31920975D01*
X8747897Y31920974D01*
X8747905Y31920969D01*
X8878690Y31861241D01*
X8962178Y31836727D01*
X9009616Y31829907D01*
X9104489Y31816265D01*
X9104493Y31816265D01*
X9191505Y31816265D01*
X9191506Y31816265D01*
X9198617Y31817288D01*
X9212705Y31818295D01*
X9583295Y31818295D01*
X9597382Y31817288D01*
X9604494Y31816265D01*
X9604495Y31816265D01*
X9691511Y31816265D01*
X9772829Y31827958D01*
X9833822Y31836727D01*
X9917310Y31861241D01*
X10048095Y31920969D01*
X10121293Y31968010D01*
X10229954Y32062164D01*
X10286937Y32127926D01*
X10364669Y32248880D01*
X10400815Y32328029D01*
X10441322Y32465984D01*
X10449879Y32525500D01*
X10453705Y32552107D01*
X10453705Y33123997D01*
X10452401Y33152203D01*
X10452401Y33152207D01*
X10426818Y33242122D01*
X10429078Y33303263D01*
X10429919Y33304948D01*
X10429748Y33305014D01*
X10433061Y33313568D01*
X10447852Y33392691D01*
X10477129Y33446416D01*
X10532394Y33472673D01*
X10545166Y33473500D01*
X15353913Y33473500D01*
X15359459Y33473189D01*
X15399035Y33468730D01*
X15457479Y33479789D01*
X15516287Y33488652D01*
X15516294Y33488656D01*
X15523381Y33490841D01*
X15523512Y33490416D01*
X15525613Y33491108D01*
X15525467Y33491527D01*
X15532464Y33493976D01*
X15532472Y33493977D01*
X15546322Y33501298D01*
X15585072Y33521777D01*
X15613702Y33535565D01*
X15638642Y33547575D01*
X15638646Y33547579D01*
X15644778Y33551758D01*
X15645028Y33551391D01*
X15646835Y33552674D01*
X15646572Y33553031D01*
X15652539Y33557435D01*
X15694598Y33599496D01*
X15696017Y33600814D01*
X15738194Y33639945D01*
X15738197Y33639951D01*
X15742822Y33645749D01*
X15743167Y33645474D01*
X15751702Y33656600D01*
X19282699Y37187598D01*
X19286830Y37191290D01*
X19317970Y37216121D01*
X19351480Y37265272D01*
X19386793Y37313118D01*
X19386796Y37313127D01*
X19390263Y37319684D01*
X19390655Y37319477D01*
X19391653Y37321453D01*
X19391254Y37321645D01*
X19394473Y37328329D01*
X19412006Y37385172D01*
X19419012Y37405195D01*
X19431646Y37441300D01*
X19431646Y37441307D01*
X19433026Y37448593D01*
X19433460Y37448511D01*
X19433831Y37450693D01*
X19433394Y37450758D01*
X19434500Y37458096D01*
X19434500Y37517573D01*
X19434958Y37529814D01*
X19436724Y37577010D01*
X19436722Y37577018D01*
X19435893Y37584382D01*
X19436331Y37584432D01*
X19434500Y37598343D01*
X19434500Y38879838D01*
X19453407Y38938029D01*
X19453845Y38938626D01*
X19536792Y39051017D01*
X19536791Y39051017D01*
X19536793Y39051018D01*
X19581646Y39179201D01*
X19584499Y39209627D01*
X19584500Y39209627D01*
X19584500Y39226900D01*
X19603407Y39285091D01*
X19652907Y39321055D01*
X19683500Y39325900D01*
X19936313Y39325900D01*
X19941859Y39325589D01*
X19981435Y39321130D01*
X20039879Y39332189D01*
X20098687Y39341052D01*
X20098694Y39341056D01*
X20105781Y39343241D01*
X20105912Y39342816D01*
X20108013Y39343508D01*
X20107867Y39343927D01*
X20114864Y39346376D01*
X20114872Y39346377D01*
X20128722Y39353698D01*
X20167472Y39374177D01*
X20197383Y39388582D01*
X20221042Y39399975D01*
X20221046Y39399979D01*
X20227178Y39404158D01*
X20227428Y39403791D01*
X20229232Y39405071D01*
X20228968Y39405429D01*
X20234929Y39409830D01*
X20234938Y39409834D01*
X20277000Y39451897D01*
X20320594Y39492345D01*
X20320595Y39492348D01*
X20320597Y39492349D01*
X20325223Y39498149D01*
X20327736Y39496145D01*
X20362830Y39527814D01*
X20390269Y39535570D01*
X20476762Y39546956D01*
X20622841Y39607464D01*
X20748282Y39703718D01*
X20844536Y39829159D01*
X20905044Y39975238D01*
X20925682Y40132000D01*
X20905044Y40288762D01*
X20890199Y40324602D01*
X20844537Y40434839D01*
X20844537Y40434840D01*
X20748286Y40560277D01*
X20748285Y40560278D01*
X20748282Y40560282D01*
X20748277Y40560286D01*
X20748276Y40560287D01*
X20622838Y40656538D01*
X20476766Y40717043D01*
X20476758Y40717045D01*
X20320001Y40737682D01*
X20319999Y40737682D01*
X20163241Y40717045D01*
X20163233Y40717043D01*
X20017161Y40656538D01*
X20017160Y40656538D01*
X19891723Y40560287D01*
X19891713Y40560277D01*
X19795463Y40434840D01*
X19767192Y40366588D01*
X19727455Y40320062D01*
X19667960Y40305779D01*
X19611432Y40329194D01*
X19582284Y40371776D01*
X19560217Y40434840D01*
X19536793Y40501782D01*
X19498371Y40553842D01*
X19456154Y40611045D01*
X19456152Y40611047D01*
X19456150Y40611050D01*
X19456146Y40611053D01*
X19456144Y40611055D01*
X19346883Y40691693D01*
X19218703Y40736545D01*
X19218694Y40736547D01*
X19188274Y40739400D01*
X19188266Y40739400D01*
X18779734Y40739400D01*
X18779725Y40739400D01*
X18749305Y40736547D01*
X18749296Y40736545D01*
X18621116Y40691693D01*
X18567365Y40652023D01*
X18509317Y40632682D01*
X18450987Y40651154D01*
X18449789Y40652024D01*
X18396647Y40691246D01*
X18268601Y40736050D01*
X18238211Y40738900D01*
X18184001Y40738900D01*
X18184000Y40738899D01*
X18184000Y38813902D01*
X18184001Y38813901D01*
X18238203Y38813901D01*
X18268600Y38816751D01*
X18268606Y38816752D01*
X18401802Y38863359D01*
X18462972Y38864732D01*
X18513267Y38829888D01*
X18533475Y38772137D01*
X18533500Y38769915D01*
X18533500Y37753611D01*
X18514593Y37695420D01*
X18504504Y37683607D01*
X15224393Y34403496D01*
X15169876Y34375719D01*
X15154389Y34374500D01*
X10370284Y34374500D01*
X10312093Y34393407D01*
X10289359Y34417477D01*
X10289053Y34417247D01*
X10287056Y34419915D01*
X10287005Y34419969D01*
X10286940Y34420070D01*
X10286932Y34420080D01*
X10229962Y34485827D01*
X10229960Y34485829D01*
X10229954Y34485836D01*
X10224994Y34490134D01*
X10121298Y34579987D01*
X10121285Y34579996D01*
X10048104Y34627026D01*
X10048098Y34627029D01*
X10048095Y34627031D01*
X9917310Y34686759D01*
X9917305Y34686761D01*
X9917304Y34686761D01*
X9833823Y34711273D01*
X9833819Y34711274D01*
X9691511Y34731735D01*
X9691507Y34731735D01*
X9604494Y34731735D01*
X9597382Y34730713D01*
X9583295Y34729705D01*
X9212705Y34729705D01*
X9198617Y34730713D01*
X9191506Y34731735D01*
X9104493Y34731735D01*
X9104489Y34731735D01*
X8962180Y34711274D01*
X8962176Y34711273D01*
X8878695Y34686761D01*
X8878691Y34686760D01*
X8878690Y34686759D01*
X8747905Y34627031D01*
X8747903Y34627030D01*
X8747895Y34627026D01*
X8674714Y34579996D01*
X8674701Y34579987D01*
X8566055Y34485845D01*
X8566037Y34485827D01*
X8509066Y34420079D01*
X8509057Y34420067D01*
X8431336Y34299130D01*
X8431332Y34299123D01*
X8395183Y34219966D01*
X8354678Y34082018D01*
X8354677Y34082014D01*
X8342295Y33995894D01*
X8342295Y33424003D01*
X8343598Y33395798D01*
X8343598Y33395795D01*
X8343599Y33395793D01*
X8366994Y33313567D01*
X8369182Y33305880D01*
X8366921Y33244736D01*
X8366100Y33243045D01*
X8366252Y33242986D01*
X8362938Y33234432D01*
X8348148Y33155309D01*
X8318871Y33101583D01*
X8263605Y33075327D01*
X8250834Y33074500D01*
X6915299Y33074500D01*
X6857108Y33093407D01*
X6821144Y33142907D01*
X6816299Y33173500D01*
X6816299Y33407661D01*
X6816299Y33407664D01*
X6813385Y33432791D01*
X6768006Y33535565D01*
X6688565Y33615006D01*
X6585791Y33660385D01*
X6585790Y33660386D01*
X6585788Y33660386D01*
X6560669Y33663300D01*
X6560665Y33663300D01*
X5216831Y33663300D01*
X5158640Y33682207D01*
X5122676Y33731707D01*
X5122676Y33792893D01*
X5146827Y33832304D01*
X7468028Y36153504D01*
X7522545Y36181281D01*
X7538032Y36182500D01*
X11558791Y36182500D01*
X11616982Y36163593D01*
X11652946Y36114093D01*
X11657359Y36092744D01*
X11657500Y36091241D01*
X11657500Y36091234D01*
X11658372Y36081936D01*
X11660354Y36060798D01*
X11660355Y36060797D01*
X11705207Y35932617D01*
X11785845Y35823356D01*
X11785847Y35823354D01*
X11785850Y35823350D01*
X11785853Y35823348D01*
X11785855Y35823346D01*
X11895116Y35742708D01*
X11895117Y35742708D01*
X11895118Y35742707D01*
X12023301Y35697854D01*
X12053725Y35695001D01*
X12053727Y35695000D01*
X12053734Y35695000D01*
X12462273Y35695000D01*
X12462273Y35695001D01*
X12492699Y35697854D01*
X12620882Y35742707D01*
X12730150Y35823350D01*
X12810793Y35932618D01*
X12855646Y36060801D01*
X12857629Y36081942D01*
X12858717Y36093540D01*
X12860036Y36093417D01*
X12879846Y36146339D01*
X12930881Y36180090D01*
X12992007Y36177398D01*
X13027758Y36150936D01*
X13029130Y36152307D01*
X13033713Y36147724D01*
X13033718Y36147718D01*
X13159159Y36051464D01*
X13159160Y36051464D01*
X13159161Y36051463D01*
X13305233Y35990958D01*
X13305238Y35990956D01*
X13422809Y35975478D01*
X13461999Y35970318D01*
X13462000Y35970318D01*
X13462001Y35970318D01*
X13493352Y35974446D01*
X13618762Y35990956D01*
X13764841Y36051464D01*
X13804553Y36081936D01*
X14215000Y36081936D01*
X14225613Y35993557D01*
X14281080Y35852905D01*
X14372435Y35732436D01*
X14492904Y35641081D01*
X14633556Y35585614D01*
X14721935Y35575001D01*
X14721942Y35575000D01*
X15089999Y35575000D01*
X15090000Y35575001D01*
X15390000Y35575001D01*
X15390001Y35575000D01*
X15758058Y35575000D01*
X15758064Y35575001D01*
X15846443Y35585614D01*
X15987095Y35641081D01*
X16107564Y35732436D01*
X16198919Y35852905D01*
X16254386Y35993557D01*
X16264999Y36081936D01*
X16265000Y36081942D01*
X16265000Y36224999D01*
X16264999Y36225000D01*
X15390001Y36225000D01*
X15390000Y36224999D01*
X15390000Y35575001D01*
X15090000Y35575001D01*
X15090000Y36224999D01*
X15089999Y36225000D01*
X14215001Y36225000D01*
X14215000Y36224999D01*
X14215000Y36081936D01*
X13804553Y36081936D01*
X13890282Y36147718D01*
X13986536Y36273159D01*
X14047044Y36419238D01*
X14052684Y36462080D01*
X14079023Y36517303D01*
X14132793Y36546499D01*
X14193455Y36538514D01*
X14212578Y36525000D01*
X15089999Y36525000D01*
X15090000Y36525001D01*
X15390000Y36525001D01*
X15390001Y36525000D01*
X16264999Y36525000D01*
X16265000Y36525001D01*
X16265000Y36668059D01*
X16264999Y36668065D01*
X16254386Y36756444D01*
X16198919Y36897096D01*
X16107564Y37017565D01*
X15987095Y37108920D01*
X15846443Y37164387D01*
X15758064Y37175000D01*
X15390001Y37175000D01*
X15390000Y37174999D01*
X15390000Y36525001D01*
X15090000Y36525001D01*
X15090000Y37174999D01*
X15089999Y37175000D01*
X14721935Y37175000D01*
X14633556Y37164387D01*
X14492904Y37108920D01*
X14372435Y37017565D01*
X14281077Y36897093D01*
X14223580Y36751289D01*
X14184644Y36704092D01*
X14125401Y36688795D01*
X14068482Y36711241D01*
X14040019Y36749722D01*
X14015398Y36809161D01*
X13986536Y36878841D01*
X13890282Y37004282D01*
X13890277Y37004286D01*
X13890276Y37004287D01*
X13776089Y37091905D01*
X13764841Y37100536D01*
X13764840Y37100537D01*
X13764838Y37100538D01*
X13618766Y37161043D01*
X13618758Y37161045D01*
X13462001Y37181682D01*
X13461996Y37181682D01*
X13430678Y37177560D01*
X13397307Y37181002D01*
X13396979Y37179268D01*
X13382405Y37182027D01*
X13382486Y37182458D01*
X13380302Y37182829D01*
X13380237Y37182395D01*
X13372903Y37183500D01*
X13372902Y37183500D01*
X13313427Y37183500D01*
X13293614Y37184242D01*
X13253990Y37185724D01*
X13253989Y37185724D01*
X13253988Y37185724D01*
X13246615Y37184893D01*
X13246565Y37185332D01*
X13232656Y37183500D01*
X12957500Y37183500D01*
X12899309Y37202407D01*
X12863345Y37251907D01*
X12858500Y37282500D01*
X12858500Y37374773D01*
X12858499Y37374775D01*
X12855646Y37405195D01*
X12855646Y37405199D01*
X12840276Y37449122D01*
X12838903Y37510289D01*
X12873747Y37560584D01*
X12931498Y37580793D01*
X12966418Y37575263D01*
X12973301Y37572854D01*
X13003725Y37570001D01*
X13003727Y37570000D01*
X13003734Y37570000D01*
X13412273Y37570000D01*
X13412273Y37570001D01*
X13442699Y37572854D01*
X13570882Y37617707D01*
X13680150Y37698350D01*
X13760793Y37807618D01*
X13805646Y37935801D01*
X13808499Y37966227D01*
X13808500Y37966227D01*
X13808500Y39249773D01*
X13808499Y39249775D01*
X13805646Y39280195D01*
X13805646Y39280197D01*
X13805646Y39280199D01*
X13760793Y39408382D01*
X13760792Y39408384D01*
X13677845Y39520774D01*
X13658503Y39578822D01*
X13658500Y39579562D01*
X13658500Y40513268D01*
X13677407Y40571459D01*
X13719614Y40604731D01*
X13764841Y40623464D01*
X13890282Y40719718D01*
X13986536Y40845159D01*
X14047044Y40991238D01*
X14067682Y41148000D01*
X14047044Y41304762D01*
X14047042Y41304767D01*
X14022501Y41364015D01*
X14017700Y41425011D01*
X14049670Y41477180D01*
X14106198Y41500595D01*
X14113965Y41500900D01*
X16399769Y41500900D01*
X16457960Y41481993D01*
X16493213Y41434598D01*
X16531207Y41326017D01*
X16614155Y41213626D01*
X16633497Y41155578D01*
X16633500Y41154838D01*
X16633500Y40672962D01*
X16614593Y40614771D01*
X16614155Y40614174D01*
X16531207Y40501784D01*
X16486355Y40373604D01*
X16486353Y40373595D01*
X16483500Y40343175D01*
X16483500Y40325900D01*
X16464593Y40267709D01*
X16415093Y40231745D01*
X16384500Y40226900D01*
X15928487Y40226900D01*
X15922941Y40227211D01*
X15883366Y40231670D01*
X15883361Y40231670D01*
X15824910Y40220611D01*
X15766114Y40211749D01*
X15759032Y40209564D01*
X15758903Y40209982D01*
X15756786Y40209286D01*
X15756931Y40208874D01*
X15749928Y40206424D01*
X15731739Y40196812D01*
X15697326Y40178623D01*
X15662047Y40161634D01*
X15643759Y40152826D01*
X15637633Y40148649D01*
X15637387Y40149009D01*
X15635572Y40147721D01*
X15635830Y40147371D01*
X15629864Y40142968D01*
X15587813Y40100917D01*
X15544204Y40060455D01*
X15539581Y40054657D01*
X15539237Y40054931D01*
X15530695Y40043800D01*
X14941301Y39454407D01*
X14937160Y39450706D01*
X14906031Y39425881D01*
X14872519Y39376729D01*
X14837207Y39328884D01*
X14833742Y39322326D01*
X14833353Y39322532D01*
X14832350Y39320545D01*
X14832746Y39320354D01*
X14829528Y39313673D01*
X14811992Y39256823D01*
X14792355Y39200703D01*
X14790976Y39193413D01*
X14790544Y39193495D01*
X14790171Y39191300D01*
X14790605Y39191234D01*
X14789500Y39183901D01*
X14789500Y39171442D01*
X14770593Y39113251D01*
X14721093Y39077287D01*
X14702305Y39073148D01*
X14633433Y39064877D01*
X14492660Y39009363D01*
X14492656Y39009360D01*
X14372081Y38917925D01*
X14372075Y38917919D01*
X14280640Y38797344D01*
X14280637Y38797340D01*
X14225123Y38656566D01*
X14214500Y38568107D01*
X14214500Y37981894D01*
X14225123Y37893435D01*
X14280637Y37752661D01*
X14280638Y37752659D01*
X14280639Y37752658D01*
X14372078Y37632078D01*
X14492658Y37540639D01*
X14492659Y37540639D01*
X14492660Y37540638D01*
X14511060Y37533382D01*
X14633436Y37485123D01*
X14721898Y37474500D01*
X14721900Y37474500D01*
X15758100Y37474500D01*
X15758102Y37474500D01*
X15846564Y37485123D01*
X15987342Y37540639D01*
X16107922Y37632078D01*
X16199361Y37752658D01*
X16254877Y37893436D01*
X16265500Y37981898D01*
X16265500Y38568102D01*
X16254877Y38656564D01*
X16199361Y38797342D01*
X16107922Y38917922D01*
X15987342Y39009361D01*
X15972212Y39015328D01*
X15925017Y39054265D01*
X15909721Y39113508D01*
X15932169Y39170427D01*
X15938531Y39177428D01*
X16058008Y39296904D01*
X16112524Y39324681D01*
X16128011Y39325900D01*
X16384500Y39325900D01*
X16442691Y39306993D01*
X16478655Y39257493D01*
X16483500Y39226900D01*
X16483500Y39209626D01*
X16486353Y39179206D01*
X16486355Y39179197D01*
X16531207Y39051017D01*
X16611845Y38941756D01*
X16611847Y38941754D01*
X16611850Y38941750D01*
X16611853Y38941748D01*
X16611855Y38941746D01*
X16721116Y38861108D01*
X16721117Y38861108D01*
X16721118Y38861107D01*
X16849301Y38816254D01*
X16879725Y38813401D01*
X16879727Y38813400D01*
X16879734Y38813400D01*
X17288273Y38813400D01*
X17288273Y38813401D01*
X17318699Y38816254D01*
X17446882Y38861107D01*
X17500634Y38900778D01*
X17558680Y38920119D01*
X17617010Y38901648D01*
X17618210Y38900777D01*
X17671352Y38861555D01*
X17799399Y38816751D01*
X17829788Y38813901D01*
X17883999Y38813902D01*
X17884000Y38813902D01*
X17884000Y40738901D01*
X17829796Y40738900D01*
X17799399Y40736050D01*
X17799397Y40736050D01*
X17666197Y40689441D01*
X17605027Y40688069D01*
X17554733Y40722913D01*
X17534525Y40780665D01*
X17534500Y40782886D01*
X17534500Y41044385D01*
X17553407Y41102576D01*
X17602907Y41138540D01*
X17664093Y41138540D01*
X17666198Y41137829D01*
X17671116Y41136108D01*
X17671118Y41136107D01*
X17799301Y41091254D01*
X17829725Y41088401D01*
X17829727Y41088400D01*
X17829734Y41088400D01*
X18238273Y41088400D01*
X18238273Y41088401D01*
X18268699Y41091254D01*
X18396882Y41136107D01*
X18450212Y41175466D01*
X18508259Y41194808D01*
X18566590Y41176337D01*
X18567788Y41175466D01*
X18621116Y41136108D01*
X18621117Y41136108D01*
X18621118Y41136107D01*
X18749301Y41091254D01*
X18779725Y41088401D01*
X18779727Y41088400D01*
X18779734Y41088400D01*
X19188273Y41088400D01*
X19188273Y41088401D01*
X19218699Y41091254D01*
X19346882Y41136107D01*
X19456150Y41216750D01*
X19536793Y41326018D01*
X19574787Y41434598D01*
X19611852Y41483278D01*
X19668231Y41500900D01*
X20102935Y41500900D01*
X20954367Y41500900D01*
X21012558Y41481993D01*
X21024371Y41471904D01*
X21264504Y41231771D01*
X21292281Y41177254D01*
X21293500Y41161767D01*
X21293500Y26939033D01*
X21274593Y26880842D01*
X21264504Y26869029D01*
X16554971Y22159496D01*
X16500454Y22131719D01*
X16484967Y22130500D01*
X5187223Y22130500D01*
X5129032Y22149407D01*
X5098604Y22185368D01*
X5097170Y22188246D01*
X5097169Y22188248D01*
X5097166Y22188255D01*
X4968672Y22358407D01*
X4914423Y22407861D01*
X4811107Y22502048D01*
X4811100Y22502054D01*
X4629824Y22614295D01*
X4629819Y22614298D01*
X4430995Y22691322D01*
X4221410Y22730500D01*
X4008190Y22730500D01*
X3798604Y22691322D01*
X3599780Y22614298D01*
X3599775Y22614295D01*
X3418499Y22502054D01*
X3418492Y22502048D01*
X3260935Y22358414D01*
X3260931Y22358411D01*
X3260928Y22358407D01*
X3260925Y22358403D01*
X3132435Y22188257D01*
X3132430Y22188248D01*
X3037396Y21997392D01*
X2979044Y21792312D01*
X2979044Y21792310D01*
X2959371Y21580000D01*
X2979044Y21367690D01*
X3037395Y21162611D01*
X3132434Y20971745D01*
X3260928Y20801593D01*
X3260935Y20801587D01*
X3418492Y20657953D01*
X3418499Y20657947D01*
X3522189Y20593745D01*
X3599781Y20545702D01*
X3798602Y20468679D01*
X4008190Y20429500D01*
X4221410Y20429500D01*
X4430998Y20468679D01*
X4629819Y20545702D01*
X4811102Y20657948D01*
X4968672Y20801593D01*
X5097166Y20971745D01*
X5098604Y20974632D01*
X5099548Y20975594D01*
X5099575Y20975637D01*
X5099584Y20975631D01*
X5141469Y21018293D01*
X5187223Y21029500D01*
X16744603Y21029500D01*
X16810826Y21027238D01*
X16854450Y21037870D01*
X16859416Y21038815D01*
X16903920Y21044930D01*
X16922339Y21052932D01*
X16938337Y21058313D01*
X16957852Y21063067D01*
X16997004Y21085082D01*
X17001511Y21087321D01*
X17042720Y21105220D01*
X17058298Y21117895D01*
X17072257Y21127394D01*
X17089755Y21137232D01*
X17089754Y21137232D01*
X17089759Y21137234D01*
X17121529Y21169006D01*
X17125275Y21172385D01*
X17160108Y21200722D01*
X17171687Y21217128D01*
X17182557Y21230034D01*
X17532523Y21580000D01*
X25824571Y21580000D01*
X25844244Y21367690D01*
X25902595Y21162611D01*
X25997634Y20971745D01*
X26126128Y20801593D01*
X26126135Y20801587D01*
X26283692Y20657953D01*
X26283699Y20657947D01*
X26387389Y20593745D01*
X26464981Y20545702D01*
X26663802Y20468679D01*
X26873390Y20429500D01*
X27086610Y20429500D01*
X27296198Y20468679D01*
X27495019Y20545702D01*
X27676302Y20657948D01*
X27833872Y20801593D01*
X27962366Y20971745D01*
X28057405Y21162611D01*
X28115756Y21367690D01*
X28135429Y21580000D01*
X28115756Y21792310D01*
X28057405Y21997389D01*
X27962366Y22188255D01*
X27833872Y22358407D01*
X27779623Y22407861D01*
X27676307Y22502048D01*
X27676300Y22502054D01*
X27495024Y22614295D01*
X27495019Y22614298D01*
X27296195Y22691322D01*
X27086610Y22730500D01*
X26873390Y22730500D01*
X26663804Y22691322D01*
X26464980Y22614298D01*
X26464975Y22614295D01*
X26283699Y22502054D01*
X26283692Y22502048D01*
X26126135Y22358414D01*
X26126131Y22358411D01*
X26126128Y22358407D01*
X26126125Y22358403D01*
X25997635Y22188257D01*
X25997630Y22188248D01*
X25902596Y21997392D01*
X25844244Y21792312D01*
X25844244Y21792310D01*
X25824571Y21580000D01*
X17532523Y21580000D01*
X20072523Y24120000D01*
X25824571Y24120000D01*
X25844244Y23907690D01*
X25902595Y23702611D01*
X25997634Y23511745D01*
X26126128Y23341593D01*
X26126135Y23341587D01*
X26283692Y23197953D01*
X26283699Y23197947D01*
X26387389Y23133745D01*
X26464981Y23085702D01*
X26663802Y23008679D01*
X26873390Y22969500D01*
X27086610Y22969500D01*
X27296198Y23008679D01*
X27495019Y23085702D01*
X27676302Y23197948D01*
X27833872Y23341593D01*
X27962366Y23511745D01*
X28057405Y23702611D01*
X28115756Y23907690D01*
X28135429Y24120000D01*
X28115756Y24332310D01*
X28057405Y24537389D01*
X27962366Y24728255D01*
X27833872Y24898407D01*
X27779623Y24947861D01*
X27676307Y25042048D01*
X27676300Y25042054D01*
X27495024Y25154295D01*
X27495019Y25154298D01*
X27296198Y25231321D01*
X27296197Y25231322D01*
X27296195Y25231322D01*
X27086610Y25270500D01*
X26873390Y25270500D01*
X26663804Y25231322D01*
X26464980Y25154298D01*
X26464975Y25154295D01*
X26283699Y25042054D01*
X26283692Y25042048D01*
X26126135Y24898414D01*
X26126131Y24898411D01*
X26126128Y24898407D01*
X26126125Y24898403D01*
X25997635Y24728257D01*
X25997630Y24728248D01*
X25902596Y24537392D01*
X25844244Y24332312D01*
X25844244Y24332310D01*
X25824571Y24120000D01*
X20072523Y24120000D01*
X22226603Y26274080D01*
X22275044Y26319320D01*
X22298383Y26357702D01*
X22301229Y26361882D01*
X22328361Y26397658D01*
X22335727Y26416340D01*
X22343239Y26431463D01*
X22353672Y26448618D01*
X22365790Y26491870D01*
X22367397Y26496652D01*
X22383876Y26538436D01*
X22385929Y26558415D01*
X22389082Y26574996D01*
X22394499Y26594332D01*
X22394500Y26594333D01*
X22394500Y26639237D01*
X22394760Y26644302D01*
X22396373Y26660000D01*
X25824571Y26660000D01*
X25844244Y26447689D01*
X25867449Y26366133D01*
X25902595Y26242611D01*
X25997634Y26051745D01*
X26126128Y25881593D01*
X26126135Y25881587D01*
X26283692Y25737953D01*
X26283699Y25737947D01*
X26387389Y25673745D01*
X26464981Y25625702D01*
X26663802Y25548679D01*
X26873390Y25509500D01*
X27086610Y25509500D01*
X27296198Y25548679D01*
X27495019Y25625702D01*
X27676302Y25737948D01*
X27833872Y25881593D01*
X27962366Y26051745D01*
X28057405Y26242611D01*
X28115756Y26447690D01*
X28135429Y26660000D01*
X28115756Y26872310D01*
X28057405Y27077389D01*
X27962366Y27268255D01*
X27833872Y27438407D01*
X27779623Y27487861D01*
X27676307Y27582048D01*
X27676300Y27582054D01*
X27495024Y27694295D01*
X27495019Y27694298D01*
X27296195Y27771322D01*
X27086610Y27810500D01*
X26873390Y27810500D01*
X26663804Y27771322D01*
X26464980Y27694298D01*
X26464975Y27694295D01*
X26283699Y27582054D01*
X26283692Y27582048D01*
X26126135Y27438414D01*
X26126131Y27438411D01*
X26126128Y27438407D01*
X26126125Y27438403D01*
X25997635Y27268257D01*
X25997630Y27268248D01*
X25902596Y27077392D01*
X25844244Y26872312D01*
X25824571Y26660000D01*
X22396373Y26660000D01*
X22399352Y26688972D01*
X22395939Y26708769D01*
X22394500Y26725588D01*
X22394500Y36576000D01*
X23295718Y36576000D01*
X23316355Y36419242D01*
X23316357Y36419234D01*
X23376862Y36273162D01*
X23376862Y36273161D01*
X23473113Y36147724D01*
X23473118Y36147718D01*
X23598559Y36051464D01*
X23598560Y36051464D01*
X23598561Y36051463D01*
X23744633Y35990958D01*
X23744638Y35990956D01*
X23872612Y35974108D01*
X23927836Y35947769D01*
X23929654Y35945998D01*
X23937980Y35937672D01*
X23961252Y35925815D01*
X23974491Y35917702D01*
X23995619Y35902351D01*
X24020459Y35894281D01*
X24034797Y35888342D01*
X24058074Y35876481D01*
X24083866Y35872397D01*
X24098976Y35868769D01*
X24123807Y35860700D01*
X24157712Y35860700D01*
X27548322Y35860700D01*
X27606513Y35841793D01*
X27642477Y35792293D01*
X27647216Y35766272D01*
X27647598Y35757998D01*
X27647598Y35757995D01*
X27647599Y35757993D01*
X27670994Y35675767D01*
X27673182Y35668080D01*
X27670921Y35606936D01*
X27670100Y35605245D01*
X27670252Y35605186D01*
X27666938Y35596632D01*
X27646295Y35486200D01*
X27646295Y34914307D01*
X27658677Y34828187D01*
X27658678Y34828183D01*
X27693006Y34711273D01*
X27699185Y34690229D01*
X27728047Y34627030D01*
X27735332Y34611078D01*
X27735336Y34611071D01*
X27813057Y34490134D01*
X27813066Y34490122D01*
X27870037Y34424374D01*
X27870046Y34424364D01*
X27870053Y34424358D01*
X27870055Y34424356D01*
X27978701Y34330214D01*
X27978714Y34330205D01*
X28051895Y34283175D01*
X28051897Y34283174D01*
X28051905Y34283169D01*
X28182690Y34223441D01*
X28205391Y34216776D01*
X28255896Y34182243D01*
X28276460Y34124616D01*
X28276500Y34121786D01*
X28276500Y32399056D01*
X28257593Y32340865D01*
X28247504Y32329052D01*
X28122948Y32204496D01*
X28068431Y32176719D01*
X28052944Y32175500D01*
X27955552Y32175500D01*
X27897361Y32194407D01*
X27863455Y32238180D01*
X27853615Y32263132D01*
X27853613Y32263134D01*
X27767369Y32376864D01*
X27767367Y32376867D01*
X27653632Y32463115D01*
X27653631Y32463116D01*
X27653629Y32463117D01*
X27520848Y32515479D01*
X27437404Y32525500D01*
X27437402Y32525500D01*
X26918598Y32525500D01*
X26918595Y32525500D01*
X26835151Y32515479D01*
X26702370Y32463117D01*
X26702366Y32463114D01*
X26588636Y32376870D01*
X26588630Y32376864D01*
X26502386Y32263134D01*
X26502383Y32263130D01*
X26482597Y32212954D01*
X26443661Y32165757D01*
X26384418Y32150460D01*
X26327499Y32172906D01*
X26298403Y32212954D01*
X26278616Y32263130D01*
X26278615Y32263131D01*
X26278615Y32263132D01*
X26192367Y32376867D01*
X26078632Y32463115D01*
X26078631Y32463116D01*
X26078629Y32463117D01*
X25945848Y32515479D01*
X25862404Y32525500D01*
X25862402Y32525500D01*
X25343598Y32525500D01*
X25343595Y32525500D01*
X25260151Y32515479D01*
X25127370Y32463117D01*
X25127366Y32463114D01*
X25013636Y32376870D01*
X25013630Y32376864D01*
X24927386Y32263134D01*
X24927383Y32263130D01*
X24875021Y32130349D01*
X24865000Y32046905D01*
X24865000Y31453096D01*
X24875021Y31369652D01*
X24927383Y31236871D01*
X24927386Y31236867D01*
X24969884Y31180825D01*
X24989979Y31123034D01*
X24990000Y31121006D01*
X24990000Y30778401D01*
X24971093Y30720210D01*
X24927320Y30686304D01*
X24905658Y30677762D01*
X24785081Y30586325D01*
X24785075Y30586319D01*
X24693640Y30465744D01*
X24693637Y30465740D01*
X24638123Y30324966D01*
X24627500Y30236507D01*
X24627500Y29250294D01*
X24638123Y29161835D01*
X24693637Y29021061D01*
X24693638Y29021059D01*
X24693639Y29021058D01*
X24785078Y28900478D01*
X24905658Y28809039D01*
X24905659Y28809039D01*
X24905660Y28809038D01*
X24976047Y28781281D01*
X25046436Y28753523D01*
X25134898Y28742900D01*
X25134900Y28742900D01*
X25746100Y28742900D01*
X25746102Y28742900D01*
X25834564Y28753523D01*
X25975342Y28809039D01*
X26095922Y28900478D01*
X26187361Y29021058D01*
X26242877Y29161836D01*
X26253500Y29250298D01*
X26253500Y29250336D01*
X26453000Y29250336D01*
X26463613Y29161957D01*
X26519080Y29021305D01*
X26610435Y28900836D01*
X26730904Y28809481D01*
X26871556Y28754014D01*
X26959935Y28743401D01*
X26959942Y28743400D01*
X27115499Y28743400D01*
X27115500Y28743401D01*
X27415500Y28743401D01*
X27415501Y28743400D01*
X27571058Y28743400D01*
X27571064Y28743401D01*
X27659443Y28754014D01*
X27800095Y28809481D01*
X27920564Y28900836D01*
X28011919Y29021305D01*
X28067386Y29161957D01*
X28077999Y29250336D01*
X28078000Y29250342D01*
X28078000Y29593399D01*
X28077999Y29593400D01*
X27415501Y29593400D01*
X27415500Y29593399D01*
X27415500Y28743401D01*
X27115500Y28743401D01*
X27115500Y29593399D01*
X27115499Y29593400D01*
X26453001Y29593400D01*
X26453000Y29593399D01*
X26453000Y29250336D01*
X26253500Y29250336D01*
X26253500Y29893401D01*
X26453000Y29893401D01*
X26453001Y29893400D01*
X27115499Y29893400D01*
X27115500Y29893401D01*
X27415500Y29893401D01*
X27415501Y29893400D01*
X28077999Y29893400D01*
X28078000Y29893401D01*
X28078000Y30236459D01*
X28077999Y30236465D01*
X28067386Y30324844D01*
X28011919Y30465496D01*
X27920564Y30585965D01*
X27800095Y30677320D01*
X27659443Y30732787D01*
X27571064Y30743400D01*
X27415501Y30743400D01*
X27415500Y30743399D01*
X27415500Y29893401D01*
X27115500Y29893401D01*
X27115500Y30743399D01*
X27115499Y30743400D01*
X26959935Y30743400D01*
X26871556Y30732787D01*
X26730904Y30677320D01*
X26610435Y30585965D01*
X26519080Y30465496D01*
X26463613Y30324844D01*
X26453000Y30236465D01*
X26453000Y29893401D01*
X26253500Y29893401D01*
X26253500Y30236502D01*
X26242877Y30324964D01*
X26187361Y30465742D01*
X26095922Y30586322D01*
X25995070Y30662801D01*
X25975341Y30677762D01*
X25953680Y30686304D01*
X25906483Y30725242D01*
X25891000Y30778401D01*
X25891000Y30895514D01*
X25909907Y30953705D01*
X25953679Y30987611D01*
X26078632Y31036885D01*
X26192367Y31123133D01*
X26278615Y31236868D01*
X26298403Y31287050D01*
X26337339Y31334244D01*
X26396581Y31349541D01*
X26453501Y31327095D01*
X26482595Y31287051D01*
X26502384Y31236871D01*
X26502386Y31236866D01*
X26544884Y31180825D01*
X26588633Y31123133D01*
X26702368Y31036885D01*
X26702369Y31036885D01*
X26702370Y31036884D01*
X26835151Y30984522D01*
X26835154Y30984521D01*
X26918598Y30974500D01*
X26918600Y30974500D01*
X27437400Y30974500D01*
X27437402Y30974500D01*
X27520846Y30984521D01*
X27653632Y31036885D01*
X27767367Y31123133D01*
X27853615Y31236868D01*
X27863455Y31261820D01*
X27902392Y31309017D01*
X27955552Y31324500D01*
X28337594Y31324500D01*
X28347075Y31327582D01*
X28362422Y31332569D01*
X28377528Y31336197D01*
X28403326Y31340281D01*
X28426605Y31352144D01*
X28440938Y31358080D01*
X28465781Y31366151D01*
X28486907Y31381502D01*
X28500150Y31389617D01*
X28523420Y31401472D01*
X28618728Y31496780D01*
X28839884Y31717936D01*
X29026553Y31904604D01*
X29050528Y31928580D01*
X29062385Y31951853D01*
X29070494Y31965086D01*
X29085849Y31986219D01*
X29093920Y32011062D01*
X29099856Y32025395D01*
X29111719Y32048674D01*
X29115803Y32074472D01*
X29119431Y32089578D01*
X29127500Y32114407D01*
X29127500Y32249193D01*
X29127500Y34121786D01*
X29146407Y34179977D01*
X29195907Y34215941D01*
X29198549Y34216759D01*
X29221310Y34223441D01*
X29352095Y34283169D01*
X29425293Y34330210D01*
X29533954Y34424364D01*
X29590937Y34490126D01*
X29668669Y34611080D01*
X29704815Y34690229D01*
X29745322Y34828184D01*
X29750629Y34865096D01*
X29757705Y34914307D01*
X29757705Y35486197D01*
X29756401Y35514403D01*
X29756401Y35514407D01*
X29730818Y35604322D01*
X29733078Y35665463D01*
X29733919Y35667148D01*
X29733748Y35667214D01*
X29737061Y35675768D01*
X29740657Y35695001D01*
X29757705Y35786200D01*
X29757705Y36358089D01*
X29757705Y36358094D01*
X29745322Y36444214D01*
X29745321Y36444218D01*
X29704815Y36582171D01*
X29668669Y36661320D01*
X29668663Y36661330D01*
X29590942Y36782267D01*
X29590933Y36782279D01*
X29533962Y36848027D01*
X29533960Y36848029D01*
X29533954Y36848036D01*
X29533944Y36848045D01*
X29425298Y36942187D01*
X29425285Y36942196D01*
X29352104Y36989226D01*
X29352098Y36989229D01*
X29352095Y36989231D01*
X29221310Y37048959D01*
X29221305Y37048961D01*
X29221304Y37048961D01*
X29137823Y37073473D01*
X29137819Y37073474D01*
X28995511Y37093935D01*
X28995507Y37093935D01*
X28908494Y37093935D01*
X28901382Y37092913D01*
X28887295Y37091905D01*
X28516705Y37091905D01*
X28502617Y37092913D01*
X28495506Y37093935D01*
X28408493Y37093935D01*
X28408489Y37093935D01*
X28266180Y37073474D01*
X28266176Y37073473D01*
X28182695Y37048961D01*
X28182691Y37048960D01*
X28182690Y37048959D01*
X28084873Y37004287D01*
X28051903Y36989230D01*
X28051895Y36989226D01*
X27978714Y36942196D01*
X27978701Y36942187D01*
X27870055Y36848045D01*
X27870037Y36848027D01*
X27813066Y36782279D01*
X27813060Y36782271D01*
X27796935Y36757178D01*
X27749570Y36718446D01*
X27713650Y36711700D01*
X24561318Y36711700D01*
X24503127Y36730607D01*
X24469854Y36772814D01*
X24454798Y36809161D01*
X24425936Y36878841D01*
X24329682Y37004282D01*
X24329677Y37004286D01*
X24329676Y37004287D01*
X24215489Y37091905D01*
X24204241Y37100536D01*
X24204240Y37100537D01*
X24204238Y37100538D01*
X24058166Y37161043D01*
X24058158Y37161045D01*
X23901401Y37181682D01*
X23901399Y37181682D01*
X23744641Y37161045D01*
X23744633Y37161043D01*
X23598561Y37100538D01*
X23598560Y37100538D01*
X23473123Y37004287D01*
X23473113Y37004277D01*
X23376862Y36878840D01*
X23376862Y36878839D01*
X23316357Y36732767D01*
X23316355Y36732759D01*
X23295718Y36576001D01*
X23295718Y36576000D01*
X22394500Y36576000D01*
X22394500Y38026136D01*
X25290600Y38026136D01*
X25301213Y37937757D01*
X25356680Y37797105D01*
X25448035Y37676636D01*
X25568504Y37585281D01*
X25709156Y37529814D01*
X25797535Y37519201D01*
X25797542Y37519200D01*
X26240599Y37519200D01*
X26240600Y37519201D01*
X26540600Y37519201D01*
X26540601Y37519200D01*
X26983658Y37519200D01*
X26983664Y37519201D01*
X27072043Y37529814D01*
X27212695Y37585281D01*
X27333164Y37676636D01*
X27424519Y37797105D01*
X27479986Y37937757D01*
X27490599Y38026136D01*
X27490600Y38026142D01*
X27490600Y39169199D01*
X27490599Y39169200D01*
X26540601Y39169200D01*
X26540600Y39169199D01*
X26540600Y37519201D01*
X26240600Y37519201D01*
X26240600Y39169199D01*
X26240599Y39169200D01*
X25290601Y39169200D01*
X25290600Y39169199D01*
X25290600Y38026136D01*
X22394500Y38026136D01*
X22394500Y39469201D01*
X25290600Y39469201D01*
X25290601Y39469200D01*
X26240599Y39469200D01*
X26240600Y39469201D01*
X26540600Y39469201D01*
X26540601Y39469200D01*
X27490599Y39469200D01*
X27490600Y39469201D01*
X27490600Y40612259D01*
X27490599Y40612265D01*
X27479986Y40700644D01*
X27424519Y40841296D01*
X27333164Y40961765D01*
X27212695Y41053120D01*
X27072043Y41108587D01*
X26983664Y41119200D01*
X26540601Y41119200D01*
X26540600Y41119199D01*
X26540600Y39469201D01*
X26240600Y39469201D01*
X26240600Y41119199D01*
X26240599Y41119200D01*
X25797535Y41119200D01*
X25709156Y41108587D01*
X25568504Y41053120D01*
X25448035Y40961765D01*
X25356680Y40841296D01*
X25301213Y40700644D01*
X25290600Y40612265D01*
X25290600Y39469201D01*
X22394500Y39469201D01*
X22394500Y41421403D01*
X22394951Y41434598D01*
X22396762Y41487626D01*
X22386127Y41531263D01*
X22385185Y41536222D01*
X22379070Y41580720D01*
X22371067Y41599142D01*
X22365686Y41615147D01*
X22360933Y41634651D01*
X22360933Y41634652D01*
X22338922Y41673798D01*
X22336671Y41678329D01*
X22318780Y41719520D01*
X22318778Y41719522D01*
X22318779Y41719522D01*
X22306110Y41735093D01*
X22296607Y41749056D01*
X22286768Y41766557D01*
X22255008Y41798318D01*
X22251610Y41802083D01*
X22223278Y41836908D01*
X22213378Y41843896D01*
X22206871Y41848490D01*
X22193961Y41859364D01*
X22071929Y41981396D01*
X22044152Y42035913D01*
X22053723Y42096345D01*
X22071929Y42121404D01*
X23084429Y43133904D01*
X23138946Y43161681D01*
X23154433Y43162900D01*
X25191100Y43162900D01*
X25249291Y43143993D01*
X25285255Y43094493D01*
X25290100Y43063900D01*
X25290100Y42426094D01*
X25300723Y42337635D01*
X25356237Y42196861D01*
X25356238Y42196859D01*
X25356239Y42196858D01*
X25447678Y42076278D01*
X25568258Y41984839D01*
X25568259Y41984839D01*
X25568260Y41984838D01*
X25638647Y41957081D01*
X25709036Y41929323D01*
X25797498Y41918700D01*
X25797500Y41918700D01*
X26983700Y41918700D01*
X26983702Y41918700D01*
X27072164Y41929323D01*
X27212942Y41984839D01*
X27333522Y42076278D01*
X27424961Y42196858D01*
X27480477Y42337636D01*
X27491100Y42426098D01*
X27491100Y45012302D01*
X27480477Y45100764D01*
X27424961Y45241542D01*
X27333522Y45362122D01*
X27212942Y45453561D01*
X27212941Y45453562D01*
X27212939Y45453563D01*
X27072165Y45509077D01*
X26983706Y45519700D01*
X26983702Y45519700D01*
X25797498Y45519700D01*
X25797493Y45519700D01*
X25709034Y45509077D01*
X25568260Y45453563D01*
X25568256Y45453560D01*
X25447681Y45362125D01*
X25447675Y45362119D01*
X25356240Y45241544D01*
X25356237Y45241540D01*
X25300723Y45100766D01*
X25290100Y45012307D01*
X25290100Y44362900D01*
X25271193Y44304709D01*
X25221693Y44268745D01*
X25191100Y44263900D01*
X22894797Y44263900D01*
X22828575Y44266162D01*
X22828567Y44266162D01*
X22788440Y44256383D01*
X22784954Y44255533D01*
X22779975Y44254587D01*
X22735481Y44248471D01*
X22735480Y44248471D01*
X22717057Y44240468D01*
X22701059Y44235088D01*
X22681549Y44230334D01*
X22681544Y44230332D01*
X22642409Y44208328D01*
X22637870Y44206074D01*
X22596679Y44188180D01*
X22581098Y44175505D01*
X22567152Y44166013D01*
X22549641Y44156166D01*
X22517884Y44124412D01*
X22514121Y44121016D01*
X22479292Y44092680D01*
X22479291Y44092679D01*
X22467710Y44076273D01*
X22456837Y44063364D01*
X21024371Y42630896D01*
X20969854Y42603119D01*
X20954367Y42601900D01*
X19668231Y42601900D01*
X19610040Y42620807D01*
X19574787Y42668202D01*
X19542257Y42761167D01*
X19536793Y42776782D01*
X19536792Y42776784D01*
X19453845Y42889174D01*
X19434503Y42947222D01*
X19434500Y42947962D01*
X19434500Y43284445D01*
X19453407Y43342636D01*
X19502907Y43378600D01*
X19521696Y43382739D01*
X19531564Y43383923D01*
X19672342Y43439439D01*
X19792922Y43530878D01*
X19884361Y43651458D01*
X19939877Y43792236D01*
X19950500Y43880698D01*
X19950500Y44866902D01*
X19939877Y44955364D01*
X19884361Y45096142D01*
X19792922Y45216722D01*
X19672342Y45308161D01*
X19672341Y45308162D01*
X19672339Y45308163D01*
X19531565Y45363677D01*
X19443106Y45374300D01*
X19443102Y45374300D01*
X18831898Y45374300D01*
X18831893Y45374300D01*
X18743434Y45363677D01*
X18602660Y45308163D01*
X18602656Y45308160D01*
X18482081Y45216725D01*
X18482075Y45216719D01*
X18390640Y45096144D01*
X18390637Y45096140D01*
X18335123Y44955366D01*
X18324500Y44866907D01*
X18324500Y43880694D01*
X18335123Y43792235D01*
X18390637Y43651461D01*
X18390638Y43651459D01*
X18390639Y43651458D01*
X18482078Y43530878D01*
X18494319Y43521596D01*
X18529261Y43471371D01*
X18533500Y43442712D01*
X18533500Y43323560D01*
X18514593Y43265369D01*
X18465093Y43229405D01*
X18403907Y43229405D01*
X18364498Y43253555D01*
X18358516Y43259537D01*
X18353105Y43265369D01*
X18318056Y43303144D01*
X18312258Y43307767D01*
X18312532Y43308111D01*
X18301397Y43316656D01*
X18139352Y43478702D01*
X18135650Y43482845D01*
X18110829Y43513970D01*
X18092356Y43526565D01*
X18054928Y43574968D01*
X18053099Y43636126D01*
X18056924Y43645214D01*
X18056436Y43645406D01*
X18114386Y43792357D01*
X18124999Y43880736D01*
X18125000Y43880742D01*
X18125000Y44223799D01*
X18124999Y44223800D01*
X16500001Y44223800D01*
X16500000Y44223799D01*
X16500000Y43880736D01*
X16510614Y43792356D01*
X16518497Y43772364D01*
X16522253Y43711294D01*
X16489396Y43659679D01*
X16432476Y43637235D01*
X16373235Y43652534D01*
X16366152Y43657491D01*
X16304841Y43704536D01*
X16304838Y43704537D01*
X16304836Y43704539D01*
X16158766Y43765043D01*
X16158758Y43765045D01*
X16002001Y43785682D01*
X16001999Y43785682D01*
X15845241Y43765045D01*
X15845233Y43765043D01*
X15699161Y43704538D01*
X15699160Y43704538D01*
X15573723Y43608287D01*
X15573713Y43608277D01*
X15477462Y43482840D01*
X15477462Y43482839D01*
X15416957Y43336767D01*
X15416955Y43336759D01*
X15396318Y43180001D01*
X15396318Y43180000D01*
X15416955Y43023242D01*
X15416957Y43023234D01*
X15477462Y42877162D01*
X15477462Y42877161D01*
X15566467Y42761167D01*
X15586891Y42703491D01*
X15569513Y42644825D01*
X15520971Y42607578D01*
X15487925Y42601900D01*
X13274900Y42601900D01*
X13216709Y42620807D01*
X13180745Y42670307D01*
X13175900Y42700900D01*
X13175900Y44523801D01*
X16500000Y44523801D01*
X16500001Y44523800D01*
X17162499Y44523800D01*
X17162500Y44523801D01*
X17462500Y44523801D01*
X17462501Y44523800D01*
X18124999Y44523800D01*
X18125000Y44523801D01*
X18125000Y44866859D01*
X18124999Y44866865D01*
X18114386Y44955244D01*
X18058919Y45095896D01*
X17967564Y45216365D01*
X17847095Y45307720D01*
X17706443Y45363187D01*
X17618064Y45373800D01*
X17462501Y45373800D01*
X17462500Y45373799D01*
X17462500Y44523801D01*
X17162500Y44523801D01*
X17162500Y45373799D01*
X17162499Y45373800D01*
X17006935Y45373800D01*
X16918556Y45363187D01*
X16777904Y45307720D01*
X16657435Y45216365D01*
X16566080Y45095896D01*
X16510613Y44955244D01*
X16500000Y44866865D01*
X16500000Y44523801D01*
X13175900Y44523801D01*
X13175900Y48460701D01*
X13194807Y48518892D01*
X13244307Y48554856D01*
X13274900Y48559701D01*
X13423461Y48559701D01*
X13423464Y48559701D01*
X13448591Y48562615D01*
X13551365Y48607994D01*
X13630806Y48687435D01*
X13676185Y48790209D01*
X13679100Y48815335D01*
X13679100Y48815340D01*
X16628100Y48815340D01*
X16628101Y48815337D01*
X16631014Y48790210D01*
X16654656Y48736666D01*
X16676394Y48687435D01*
X16755835Y48607994D01*
X16858609Y48562615D01*
X16883735Y48559700D01*
X17873464Y48559701D01*
X17898591Y48562615D01*
X18001365Y48607994D01*
X18080806Y48687435D01*
X18126185Y48790209D01*
X18129100Y48815335D01*
X18129100Y49234500D01*
X18148007Y49292691D01*
X18197507Y49328655D01*
X18228100Y49333500D01*
X18871068Y49333500D01*
X18929259Y49314593D01*
X18931315Y49313057D01*
X19001159Y49259464D01*
X19147238Y49198956D01*
X19264809Y49183478D01*
X19303999Y49178318D01*
X19304000Y49178318D01*
X19304001Y49178318D01*
X19335352Y49182446D01*
X19460762Y49198956D01*
X19606841Y49259464D01*
X19732282Y49355718D01*
X19828536Y49481159D01*
X19889044Y49627238D01*
X19909682Y49784000D01*
X19909028Y49788964D01*
X19893094Y49909999D01*
X19889044Y49940762D01*
X19828537Y50086839D01*
X19828537Y50086840D01*
X19774070Y50157823D01*
X26112680Y50157823D01*
X26118227Y50090876D01*
X26120716Y50060845D01*
X26120885Y50056755D01*
X26120885Y50033744D01*
X26124671Y50011046D01*
X26125177Y50006988D01*
X26133214Y49910002D01*
X26157103Y49815664D01*
X26157943Y49811660D01*
X26161730Y49788967D01*
X26169206Y49767184D01*
X26170373Y49763265D01*
X26194259Y49668944D01*
X26194260Y49668942D01*
X26233346Y49579832D01*
X26234833Y49576020D01*
X26242303Y49554259D01*
X26242309Y49554247D01*
X26253273Y49533984D01*
X26255069Y49530310D01*
X26294144Y49441227D01*
X26294151Y49441214D01*
X26347369Y49359757D01*
X26349463Y49356242D01*
X26360421Y49335995D01*
X26360423Y49335992D01*
X26374564Y49317822D01*
X26376942Y49314492D01*
X26430157Y49233040D01*
X26496067Y49161442D01*
X26498712Y49158318D01*
X26512838Y49140168D01*
X26512847Y49140159D01*
X26529777Y49124574D01*
X26532661Y49121691D01*
X26598579Y49050085D01*
X26675373Y48990314D01*
X26678488Y48987676D01*
X26683112Y48983419D01*
X26695422Y48972085D01*
X26714693Y48959495D01*
X26718024Y48957117D01*
X26794810Y48897352D01*
X26794817Y48897347D01*
X26818847Y48884343D01*
X26880408Y48851028D01*
X26883903Y48848945D01*
X26903178Y48836352D01*
X26917746Y48829962D01*
X26924258Y48827105D01*
X26927925Y48825313D01*
X27013513Y48778995D01*
X27105549Y48747399D01*
X27109358Y48745913D01*
X27130439Y48736666D01*
X27152754Y48731016D01*
X27156673Y48729848D01*
X27248709Y48698252D01*
X27344701Y48682234D01*
X27348679Y48681401D01*
X27371008Y48675746D01*
X27393964Y48673844D01*
X27397973Y48673345D01*
X27493988Y48657323D01*
X27493989Y48657323D01*
X27591280Y48657323D01*
X27595370Y48657154D01*
X27618323Y48655252D01*
X27641276Y48657154D01*
X27645366Y48657323D01*
X27742658Y48657323D01*
X27838672Y48673345D01*
X27842681Y48673844D01*
X27865638Y48675746D01*
X27887975Y48681403D01*
X27891921Y48682231D01*
X27987937Y48698252D01*
X28079996Y48729857D01*
X28083887Y48731014D01*
X28106207Y48736666D01*
X28127313Y48745925D01*
X28131059Y48747386D01*
X28223133Y48778995D01*
X28308749Y48825329D01*
X28312355Y48827092D01*
X28333468Y48836352D01*
X28352770Y48848963D01*
X28356211Y48851014D01*
X28441832Y48897349D01*
X28518658Y48957146D01*
X28521908Y48959467D01*
X28541221Y48972084D01*
X28558165Y48987683D01*
X28561257Y48990302D01*
X28638067Y49050085D01*
X28703984Y49121691D01*
X28706855Y49124562D01*
X28723800Y49140160D01*
X28737962Y49158356D01*
X28740556Y49161419D01*
X28806487Y49233038D01*
X28859713Y49314508D01*
X28862079Y49317822D01*
X28876225Y49335995D01*
X28887193Y49356263D01*
X28889263Y49359737D01*
X28942496Y49441216D01*
X28981586Y49530335D01*
X28983371Y49533984D01*
X28994337Y49554247D01*
X29001826Y49576064D01*
X29003276Y49579783D01*
X29042386Y49668942D01*
X29066278Y49763291D01*
X29067433Y49767171D01*
X29074915Y49788964D01*
X29078706Y49811688D01*
X29079534Y49815637D01*
X29103431Y49910002D01*
X29111468Y50007003D01*
X29111973Y50011044D01*
X29115761Y50033742D01*
X29116418Y50065598D01*
X29116574Y50068619D01*
X29123966Y50157823D01*
X29116574Y50247024D01*
X29116418Y50250065D01*
X29116349Y50253407D01*
X29115761Y50281904D01*
X29115584Y50282963D01*
X29111973Y50304605D01*
X29111467Y50308653D01*
X29103431Y50405644D01*
X29079539Y50499988D01*
X29078702Y50503987D01*
X29074915Y50526682D01*
X29067437Y50548465D01*
X29066274Y50552372D01*
X29066272Y50552380D01*
X29042386Y50646704D01*
X29003286Y50735843D01*
X29001820Y50739602D01*
X28994337Y50761399D01*
X28983375Y50781654D01*
X28981586Y50785313D01*
X28942496Y50874430D01*
X28889270Y50955899D01*
X28887197Y50959377D01*
X28876225Y50979651D01*
X28862076Y50997830D01*
X28859710Y51001144D01*
X28838920Y51032965D01*
X28806487Y51082609D01*
X28740578Y51154205D01*
X28737933Y51157328D01*
X28723803Y51175482D01*
X28723800Y51175486D01*
X28706866Y51191075D01*
X28706861Y51191080D01*
X28703967Y51193974D01*
X28638066Y51265562D01*
X28561272Y51325333D01*
X28558154Y51327974D01*
X28541221Y51343562D01*
X28521945Y51356156D01*
X28518635Y51358519D01*
X28441832Y51418297D01*
X28356248Y51464613D01*
X28352734Y51466707D01*
X28333468Y51479295D01*
X28316430Y51486768D01*
X28312386Y51488542D01*
X28308714Y51490337D01*
X28223137Y51536649D01*
X28223136Y51536650D01*
X28223133Y51536651D01*
X28185298Y51549640D01*
X28131091Y51568250D01*
X28127279Y51569737D01*
X28106207Y51578980D01*
X28083894Y51584632D01*
X28079974Y51585799D01*
X27987939Y51617394D01*
X27891951Y51633412D01*
X27887947Y51634252D01*
X27865641Y51639900D01*
X27842695Y51641802D01*
X27838637Y51642308D01*
X27742659Y51658323D01*
X27742658Y51658323D01*
X27645354Y51658323D01*
X27641265Y51658492D01*
X27618323Y51660393D01*
X27595380Y51658492D01*
X27591292Y51658323D01*
X27493987Y51658323D01*
X27398007Y51642307D01*
X27393946Y51641801D01*
X27371007Y51639901D01*
X27371006Y51639900D01*
X27348700Y51634252D01*
X27344696Y51633412D01*
X27248704Y51617394D01*
X27156675Y51585800D01*
X27152755Y51584633D01*
X27130444Y51578982D01*
X27130426Y51578976D01*
X27109356Y51569735D01*
X27105548Y51568249D01*
X27013513Y51536652D01*
X27013505Y51536648D01*
X26927928Y51490335D01*
X26924252Y51488539D01*
X26903183Y51479297D01*
X26903167Y51479288D01*
X26883911Y51466707D01*
X26880397Y51464613D01*
X26794817Y51418300D01*
X26794810Y51418295D01*
X26718023Y51358529D01*
X26714694Y51356152D01*
X26695431Y51343567D01*
X26695419Y51343558D01*
X26678490Y51327974D01*
X26675369Y51325332D01*
X26598583Y51265566D01*
X26598581Y51265564D01*
X26532669Y51193966D01*
X26529778Y51191075D01*
X26512847Y51175487D01*
X26512846Y51175486D01*
X26498702Y51157316D01*
X26496059Y51154196D01*
X26430159Y51082609D01*
X26376935Y51001146D01*
X26374559Y50997818D01*
X26360422Y50979653D01*
X26360415Y50979643D01*
X26349460Y50959399D01*
X26347366Y50955885D01*
X26294151Y50874433D01*
X26294146Y50874424D01*
X26255063Y50785324D01*
X26253266Y50781650D01*
X26242311Y50761406D01*
X26242308Y50761398D01*
X26234832Y50739623D01*
X26233346Y50735813D01*
X26194260Y50646705D01*
X26170372Y50552380D01*
X26169206Y50548461D01*
X26161731Y50526685D01*
X26161729Y50526676D01*
X26157942Y50503987D01*
X26157103Y50499984D01*
X26133215Y50405647D01*
X26125177Y50308657D01*
X26124671Y50304599D01*
X26121863Y50287764D01*
X26120887Y50281912D01*
X26120885Y50281902D01*
X26120885Y50258893D01*
X26120716Y50254804D01*
X26112680Y50157823D01*
X19774070Y50157823D01*
X19732286Y50212277D01*
X19732285Y50212278D01*
X19732282Y50212282D01*
X19732277Y50212286D01*
X19732276Y50212287D01*
X19641551Y50281902D01*
X19606841Y50308536D01*
X19606840Y50308537D01*
X19606838Y50308538D01*
X19460766Y50369043D01*
X19460758Y50369045D01*
X19304001Y50389682D01*
X19303999Y50389682D01*
X19147241Y50369045D01*
X19147233Y50369043D01*
X19001161Y50308538D01*
X18996028Y50304599D01*
X18931334Y50254958D01*
X18873659Y50234534D01*
X18871068Y50234500D01*
X18228099Y50234500D01*
X18169908Y50253407D01*
X18133944Y50302907D01*
X18129099Y50333500D01*
X18129099Y50905061D01*
X18129099Y50905064D01*
X18126185Y50930191D01*
X18080806Y51032965D01*
X18001365Y51112406D01*
X17898591Y51157785D01*
X17898590Y51157786D01*
X17898588Y51157786D01*
X17873468Y51160700D01*
X16883739Y51160700D01*
X16883736Y51160699D01*
X16858609Y51157786D01*
X16755835Y51112406D01*
X16676394Y51032965D01*
X16631014Y50930189D01*
X16628100Y50905070D01*
X16628100Y48815340D01*
X13679100Y48815340D01*
X13679099Y50905064D01*
X13676185Y50930191D01*
X13630806Y51032965D01*
X13551365Y51112406D01*
X13448591Y51157785D01*
X13448590Y51157786D01*
X13448588Y51157786D01*
X13423468Y51160700D01*
X12433739Y51160700D01*
X12433736Y51160699D01*
X12408609Y51157786D01*
X12305835Y51112406D01*
X12226394Y51032965D01*
X12181014Y50930189D01*
X12178100Y50905070D01*
X12178100Y48815340D01*
X12178101Y48815337D01*
X12181014Y48790210D01*
X12204656Y48736666D01*
X12226394Y48687435D01*
X12245905Y48667924D01*
X12273681Y48613409D01*
X12274900Y48597922D01*
X12274900Y42558433D01*
X12255993Y42500242D01*
X12245901Y42488427D01*
X12219884Y42462412D01*
X12216121Y42459016D01*
X12181292Y42430680D01*
X12181291Y42430679D01*
X12169710Y42414273D01*
X12158837Y42401364D01*
X10368471Y40610996D01*
X10313954Y40583219D01*
X10298467Y40582000D01*
X8559580Y40582000D01*
X8501389Y40600907D01*
X8480699Y40621177D01*
X8440322Y40674422D01*
X8319742Y40765861D01*
X8319741Y40765862D01*
X8319739Y40765863D01*
X8178965Y40821377D01*
X8090506Y40832000D01*
X8090502Y40832000D01*
X3004298Y40832000D01*
X3004293Y40832000D01*
X2915834Y40821377D01*
X2775060Y40765863D01*
X2775056Y40765860D01*
X2654481Y40674425D01*
X2654475Y40674419D01*
X2563040Y40553844D01*
X2563037Y40553840D01*
X2507523Y40413066D01*
X2496900Y40324607D01*
X2496900Y39738394D01*
X2507523Y39649935D01*
X2563037Y39509161D01*
X2563038Y39509159D01*
X2563039Y39509158D01*
X2654478Y39388578D01*
X2775058Y39297139D01*
X2775059Y39297139D01*
X2775060Y39297138D01*
X2818025Y39280195D01*
X2915836Y39241623D01*
X3004298Y39231000D01*
X3004300Y39231000D01*
X8090500Y39231000D01*
X8090502Y39231000D01*
X8178964Y39241623D01*
X8319742Y39297139D01*
X8440322Y39388578D01*
X8480697Y39441822D01*
X8530923Y39476762D01*
X8559580Y39481000D01*
X10096435Y39481000D01*
X10558101Y39481000D01*
X10561737Y39480876D01*
X10579724Y39480262D01*
X10637235Y39459382D01*
X10646345Y39451330D01*
X10686187Y39411489D01*
X10694135Y39403541D01*
X10721912Y39349024D01*
X10717577Y39300843D01*
X10710353Y39280197D01*
X10707500Y39249775D01*
X10707500Y37966226D01*
X10710353Y37935806D01*
X10710355Y37935797D01*
X10755207Y37807617D01*
X10835845Y37698356D01*
X10835847Y37698354D01*
X10835850Y37698350D01*
X10835853Y37698348D01*
X10835855Y37698346D01*
X10945116Y37617708D01*
X10945117Y37617708D01*
X10945118Y37617707D01*
X11073301Y37572854D01*
X11103725Y37570001D01*
X11103727Y37570000D01*
X11103734Y37570000D01*
X11512273Y37570000D01*
X11512273Y37570001D01*
X11542699Y37572854D01*
X11549577Y37575262D01*
X11610746Y37576637D01*
X11661042Y37541795D01*
X11681253Y37484044D01*
X11675723Y37449122D01*
X11674035Y37444300D01*
X11660354Y37405201D01*
X11659647Y37397665D01*
X11657500Y37374766D01*
X11657500Y37374760D01*
X11657359Y37373256D01*
X11633101Y37317085D01*
X11580459Y37285900D01*
X11558791Y37283500D01*
X7278397Y37283500D01*
X7212175Y37285762D01*
X7212167Y37285762D01*
X7172040Y37275983D01*
X7168554Y37275133D01*
X7163575Y37274187D01*
X7119081Y37268071D01*
X7119080Y37268071D01*
X7100657Y37260068D01*
X7084659Y37254688D01*
X7065149Y37249934D01*
X7065147Y37249933D01*
X7026012Y37227929D01*
X7021473Y37225675D01*
X6980279Y37207780D01*
X6964697Y37195103D01*
X6950744Y37185607D01*
X6933242Y37175767D01*
X6933242Y37175766D01*
X6901485Y37144011D01*
X6897721Y37140614D01*
X6862892Y37112279D01*
X6862887Y37112273D01*
X6851308Y37095870D01*
X6840435Y37082961D01*
X3732182Y33974708D01*
X3683756Y33929481D01*
X3683755Y33929479D01*
X3660424Y33891116D01*
X3657573Y33886927D01*
X3630439Y33851143D01*
X3630438Y33851141D01*
X3623069Y33832457D01*
X3615565Y33817348D01*
X3601612Y33794400D01*
X3599919Y33795430D01*
X3565566Y33756581D01*
X3505835Y33743323D01*
X3449718Y33767707D01*
X3418651Y33820419D01*
X3416299Y33841870D01*
X3416299Y34207661D01*
X3416299Y34207664D01*
X3413385Y34232791D01*
X3368006Y34335565D01*
X3288565Y34415006D01*
X3185791Y34460385D01*
X3185790Y34460386D01*
X3185788Y34460386D01*
X3160668Y34463300D01*
X1870939Y34463300D01*
X1870936Y34463299D01*
X1845809Y34460386D01*
X1743035Y34415006D01*
X1663594Y34335565D01*
X1618214Y34232789D01*
X1615300Y34207670D01*
X1615300Y32917940D01*
X313823Y32917940D01*
X313823Y37038394D01*
X1496900Y37038394D01*
X1507523Y36949935D01*
X1563037Y36809161D01*
X1563038Y36809159D01*
X1563039Y36809158D01*
X1654478Y36688578D01*
X1775058Y36597139D01*
X1775059Y36597139D01*
X1775060Y36597138D01*
X1828660Y36576001D01*
X1915836Y36541623D01*
X2004298Y36531000D01*
X2004300Y36531000D01*
X4590500Y36531000D01*
X4590502Y36531000D01*
X4678964Y36541623D01*
X4819742Y36597139D01*
X4940322Y36688578D01*
X5031761Y36809158D01*
X5087277Y36949936D01*
X5097900Y37038398D01*
X5097900Y38224602D01*
X5087277Y38313064D01*
X5031761Y38453842D01*
X4940322Y38574422D01*
X4819742Y38665861D01*
X4819741Y38665862D01*
X4819739Y38665863D01*
X4678965Y38721377D01*
X4590506Y38732000D01*
X4590502Y38732000D01*
X2004298Y38732000D01*
X2004293Y38732000D01*
X1915834Y38721377D01*
X1775060Y38665863D01*
X1775056Y38665860D01*
X1654481Y38574425D01*
X1654475Y38574419D01*
X1563040Y38453844D01*
X1563037Y38453840D01*
X1507523Y38313066D01*
X1496900Y38224607D01*
X1496900Y37038394D01*
X313823Y37038394D01*
X313823Y41738436D01*
X2497400Y41738436D01*
X2508013Y41650057D01*
X2563480Y41509405D01*
X2654835Y41388936D01*
X2775304Y41297581D01*
X2915956Y41242114D01*
X3004335Y41231501D01*
X3004342Y41231500D01*
X5397399Y41231500D01*
X5397400Y41231501D01*
X5697400Y41231501D01*
X5697401Y41231500D01*
X8090458Y41231500D01*
X8090464Y41231501D01*
X8178843Y41242114D01*
X8319495Y41297581D01*
X8439964Y41388936D01*
X8531319Y41509405D01*
X8586786Y41650057D01*
X8597399Y41738436D01*
X8597400Y41738442D01*
X8597400Y41881499D01*
X8597399Y41881500D01*
X5697401Y41881500D01*
X5697400Y41881499D01*
X5697400Y41231501D01*
X5397400Y41231501D01*
X5397400Y41881499D01*
X5397399Y41881500D01*
X2497401Y41881500D01*
X2497400Y41881499D01*
X2497400Y41738436D01*
X313823Y41738436D01*
X313823Y42181501D01*
X2497400Y42181501D01*
X2497401Y42181500D01*
X5397399Y42181500D01*
X5397400Y42181501D01*
X5697400Y42181501D01*
X5697401Y42181500D01*
X8597399Y42181500D01*
X8597400Y42181501D01*
X8597400Y42324559D01*
X8597399Y42324565D01*
X8586786Y42412944D01*
X8531319Y42553596D01*
X8439964Y42674065D01*
X8319495Y42765420D01*
X8178843Y42820887D01*
X8090464Y42831500D01*
X5697401Y42831500D01*
X5697400Y42831499D01*
X5697400Y42181501D01*
X5397400Y42181501D01*
X5397400Y42831499D01*
X5397399Y42831500D01*
X3004335Y42831500D01*
X2915956Y42820887D01*
X2775304Y42765420D01*
X2654835Y42674065D01*
X2563480Y42553596D01*
X2508013Y42412944D01*
X2497400Y42324565D01*
X2497400Y42181501D01*
X313823Y42181501D01*
X313823Y43838394D01*
X1496900Y43838394D01*
X1507523Y43749935D01*
X1563037Y43609161D01*
X1563038Y43609159D01*
X1563039Y43609158D01*
X1654478Y43488578D01*
X1775058Y43397139D01*
X1775059Y43397139D01*
X1775060Y43397138D01*
X1822069Y43378600D01*
X1915836Y43341623D01*
X2004298Y43331000D01*
X2004300Y43331000D01*
X4590500Y43331000D01*
X4590502Y43331000D01*
X4678964Y43341623D01*
X4819742Y43397139D01*
X4940322Y43488578D01*
X5031761Y43609158D01*
X5087277Y43749936D01*
X5097900Y43838398D01*
X5097900Y45024602D01*
X5087277Y45113064D01*
X5031761Y45253842D01*
X4940322Y45374422D01*
X4819742Y45465861D01*
X4819741Y45465862D01*
X4819739Y45465863D01*
X4678965Y45521377D01*
X4590506Y45532000D01*
X4590502Y45532000D01*
X2004298Y45532000D01*
X2004293Y45532000D01*
X1915834Y45521377D01*
X1775060Y45465863D01*
X1775056Y45465860D01*
X1654481Y45374425D01*
X1654475Y45374419D01*
X1563040Y45253844D01*
X1563037Y45253840D01*
X1507523Y45113066D01*
X1496900Y45024607D01*
X1496900Y43838394D01*
X313823Y43838394D01*
X313823Y49521603D01*
X313883Y49524032D01*
X321585Y49680805D01*
X333100Y49900996D01*
X333563Y49905621D01*
X361050Y50090909D01*
X371649Y50157823D01*
X1982680Y50157823D01*
X1988227Y50090876D01*
X1990716Y50060845D01*
X1990885Y50056755D01*
X1990885Y50033744D01*
X1994671Y50011046D01*
X1995177Y50006988D01*
X2003214Y49910002D01*
X2027103Y49815664D01*
X2027943Y49811660D01*
X2031730Y49788967D01*
X2039206Y49767184D01*
X2040373Y49763265D01*
X2064259Y49668944D01*
X2064260Y49668942D01*
X2103346Y49579832D01*
X2104833Y49576020D01*
X2112303Y49554259D01*
X2112309Y49554247D01*
X2123273Y49533984D01*
X2125069Y49530310D01*
X2164144Y49441227D01*
X2164151Y49441214D01*
X2217369Y49359757D01*
X2219463Y49356242D01*
X2230421Y49335995D01*
X2230423Y49335992D01*
X2244564Y49317822D01*
X2246942Y49314492D01*
X2300157Y49233040D01*
X2366067Y49161442D01*
X2368712Y49158318D01*
X2382838Y49140168D01*
X2382847Y49140159D01*
X2399777Y49124574D01*
X2402661Y49121691D01*
X2468579Y49050085D01*
X2545373Y48990314D01*
X2548488Y48987676D01*
X2553112Y48983419D01*
X2565422Y48972085D01*
X2584693Y48959495D01*
X2588024Y48957117D01*
X2664810Y48897352D01*
X2664817Y48897347D01*
X2688847Y48884343D01*
X2750408Y48851028D01*
X2753903Y48848945D01*
X2773178Y48836352D01*
X2787746Y48829962D01*
X2794258Y48827105D01*
X2797925Y48825313D01*
X2883513Y48778995D01*
X2975549Y48747399D01*
X2979358Y48745913D01*
X3000439Y48736666D01*
X3022754Y48731016D01*
X3026673Y48729848D01*
X3118709Y48698252D01*
X3214701Y48682234D01*
X3218679Y48681401D01*
X3241008Y48675746D01*
X3263964Y48673844D01*
X3267973Y48673345D01*
X3363988Y48657323D01*
X3363989Y48657323D01*
X3461280Y48657323D01*
X3465370Y48657154D01*
X3488323Y48655252D01*
X3511276Y48657154D01*
X3515366Y48657323D01*
X3612658Y48657323D01*
X3708672Y48673345D01*
X3712681Y48673844D01*
X3735638Y48675746D01*
X3757975Y48681403D01*
X3761921Y48682231D01*
X3857937Y48698252D01*
X3949996Y48729857D01*
X3953887Y48731014D01*
X3976207Y48736666D01*
X3997313Y48745925D01*
X4001059Y48747386D01*
X4093133Y48778995D01*
X4178749Y48825329D01*
X4182355Y48827092D01*
X4203468Y48836352D01*
X4222770Y48848963D01*
X4226211Y48851014D01*
X4311832Y48897349D01*
X4388658Y48957146D01*
X4391908Y48959467D01*
X4411221Y48972084D01*
X4428165Y48987683D01*
X4431257Y48990302D01*
X4508067Y49050085D01*
X4573984Y49121691D01*
X4576855Y49124562D01*
X4593800Y49140160D01*
X4607962Y49158356D01*
X4610556Y49161419D01*
X4676487Y49233038D01*
X4729713Y49314508D01*
X4732079Y49317822D01*
X4746225Y49335995D01*
X4757193Y49356263D01*
X4759263Y49359737D01*
X4812496Y49441216D01*
X4851586Y49530335D01*
X4853371Y49533984D01*
X4864337Y49554247D01*
X4871826Y49576064D01*
X4873276Y49579783D01*
X4912386Y49668942D01*
X4936278Y49763291D01*
X4937433Y49767171D01*
X4944915Y49788964D01*
X4948706Y49811688D01*
X4949534Y49815637D01*
X4973431Y49910002D01*
X4981468Y50007003D01*
X4981973Y50011044D01*
X4985761Y50033742D01*
X4986418Y50065598D01*
X4986574Y50068619D01*
X4993966Y50157823D01*
X4986574Y50247024D01*
X4986418Y50250065D01*
X4986349Y50253407D01*
X4985761Y50281904D01*
X4985584Y50282963D01*
X4981973Y50304605D01*
X4981467Y50308653D01*
X4973431Y50405644D01*
X4949539Y50499988D01*
X4948702Y50503987D01*
X4944915Y50526682D01*
X4937437Y50548465D01*
X4936274Y50552372D01*
X4936272Y50552380D01*
X4912386Y50646704D01*
X4873286Y50735843D01*
X4871820Y50739602D01*
X4864337Y50761399D01*
X4853375Y50781654D01*
X4851586Y50785313D01*
X4812496Y50874430D01*
X4759270Y50955899D01*
X4757197Y50959377D01*
X4746225Y50979651D01*
X4732076Y50997830D01*
X4729710Y51001144D01*
X4708920Y51032965D01*
X4676487Y51082609D01*
X4610578Y51154205D01*
X4607933Y51157328D01*
X4593803Y51175482D01*
X4593800Y51175486D01*
X4576866Y51191075D01*
X4576861Y51191080D01*
X4573967Y51193974D01*
X4508066Y51265562D01*
X4431272Y51325333D01*
X4428154Y51327974D01*
X4411221Y51343562D01*
X4391945Y51356156D01*
X4388635Y51358519D01*
X4311832Y51418297D01*
X4226248Y51464613D01*
X4222734Y51466707D01*
X4203468Y51479295D01*
X4186430Y51486768D01*
X4182386Y51488542D01*
X4178714Y51490337D01*
X4093137Y51536649D01*
X4093136Y51536650D01*
X4093133Y51536651D01*
X4055298Y51549640D01*
X4001091Y51568250D01*
X3997279Y51569737D01*
X3976207Y51578980D01*
X3953894Y51584632D01*
X3949974Y51585799D01*
X3857939Y51617394D01*
X3761951Y51633412D01*
X3757947Y51634252D01*
X3735641Y51639900D01*
X3712695Y51641802D01*
X3708637Y51642308D01*
X3612659Y51658323D01*
X3612658Y51658323D01*
X3515354Y51658323D01*
X3511265Y51658492D01*
X3488323Y51660393D01*
X3465380Y51658492D01*
X3461292Y51658323D01*
X3363987Y51658323D01*
X3268007Y51642307D01*
X3263946Y51641801D01*
X3241007Y51639901D01*
X3241006Y51639900D01*
X3218700Y51634252D01*
X3214696Y51633412D01*
X3118704Y51617394D01*
X3026675Y51585800D01*
X3022755Y51584633D01*
X3000444Y51578982D01*
X3000426Y51578976D01*
X2979356Y51569735D01*
X2975548Y51568249D01*
X2883513Y51536652D01*
X2883505Y51536648D01*
X2797928Y51490335D01*
X2794252Y51488539D01*
X2773183Y51479297D01*
X2773167Y51479288D01*
X2753911Y51466707D01*
X2750397Y51464613D01*
X2664817Y51418300D01*
X2664810Y51418295D01*
X2588023Y51358529D01*
X2584694Y51356152D01*
X2565431Y51343567D01*
X2565419Y51343558D01*
X2548490Y51327974D01*
X2545369Y51325332D01*
X2468583Y51265566D01*
X2468581Y51265564D01*
X2402669Y51193966D01*
X2399778Y51191075D01*
X2382847Y51175487D01*
X2382846Y51175486D01*
X2368702Y51157316D01*
X2366059Y51154196D01*
X2300159Y51082609D01*
X2246935Y51001146D01*
X2244559Y50997818D01*
X2230422Y50979653D01*
X2230415Y50979643D01*
X2219460Y50959399D01*
X2217366Y50955885D01*
X2164151Y50874433D01*
X2164146Y50874424D01*
X2125063Y50785324D01*
X2123266Y50781650D01*
X2112311Y50761406D01*
X2112308Y50761398D01*
X2104832Y50739623D01*
X2103346Y50735813D01*
X2064260Y50646705D01*
X2040372Y50552380D01*
X2039206Y50548461D01*
X2031731Y50526685D01*
X2031729Y50526676D01*
X2027942Y50503987D01*
X2027103Y50499984D01*
X2003215Y50405647D01*
X1995177Y50308657D01*
X1994671Y50304599D01*
X1991863Y50287764D01*
X1990887Y50281912D01*
X1990885Y50281902D01*
X1990885Y50258893D01*
X1990716Y50254804D01*
X1982680Y50157823D01*
X371649Y50157823D01*
X371649Y50157824D01*
X391474Y50282990D01*
X392339Y50287230D01*
X438721Y50472392D01*
X488211Y50657084D01*
X489407Y50660918D01*
X554257Y50842155D01*
X622320Y51019460D01*
X623756Y51022817D01*
X706432Y51197616D01*
X792407Y51366349D01*
X794012Y51369249D01*
X893728Y51535612D01*
X996727Y51694214D01*
X998429Y51696665D01*
X1114208Y51852772D01*
X1233183Y51999691D01*
X1234927Y52001728D01*
X1364833Y52145056D01*
X1366443Y52146746D01*
X1499383Y52279685D01*
X1501099Y52281318D01*
X1644427Y52411221D01*
X1646420Y52412928D01*
X1793344Y52531906D01*
X1949474Y52647698D01*
X1951932Y52649405D01*
X2110534Y52752401D01*
X2276883Y52852106D01*
X2279796Y52853718D01*
X2448495Y52939675D01*
X2623358Y53022378D01*
X2626679Y53023797D01*
X2804019Y53091870D01*
X2985238Y53156710D01*
X2989027Y53157894D01*
X3173694Y53207376D01*
X3358940Y53253776D01*
X3363159Y53254636D01*
X3555205Y53285053D01*
X3740535Y53312543D01*
X3745189Y53313009D01*
X3956676Y53324092D01*
X4058298Y53329084D01*
X4123054Y53332263D01*
X4125482Y53332323D01*
X26982102Y53332323D01*
X26984531Y53332263D01*
G37*
%TD.AperFunction*%
%TD*%
M02*
