%TF.GenerationSoftware,KiCad,Pcbnew,7.0.9*%
%TF.CreationDate,2024-03-26T06:33:17-07:00*%
%TF.ProjectId,cnft-tpl-esp32cam,636e6674-2d74-4706-9c2d-657370333263,rev?*%
%TF.SameCoordinates,Original*%
%TF.FileFunction,Copper,L2,Bot*%
%TF.FilePolarity,Positive*%
%FSLAX46Y46*%
G04 Gerber Fmt 4.6, Leading zero omitted, Abs format (unit mm)*
G04 Created by KiCad (PCBNEW 7.0.9) date 2024-03-26 06:33:17*
%MOMM*%
%LPD*%
G01*
G04 APERTURE LIST*
%TA.AperFunction,ComponentPad*%
%ADD10R,1.700000X1.700000*%
%TD*%
%TA.AperFunction,ComponentPad*%
%ADD11O,1.700000X1.700000*%
%TD*%
%TA.AperFunction,ViaPad*%
%ADD12C,0.600000*%
%TD*%
%TA.AperFunction,Conductor*%
%ADD13C,0.400000*%
%TD*%
%TA.AperFunction,Conductor*%
%ADD14C,0.500000*%
%TD*%
%TA.AperFunction,Conductor*%
%ADD15C,0.300000*%
%TD*%
G04 APERTURE END LIST*
D10*
%TO.P,J2,1,Pin_1*%
%TO.N,unconnected-(J2-Pin_1-Pad1)*%
X4114800Y8880000D03*
D11*
%TO.P,J2,2,Pin_2*%
%TO.N,unconnected-(J2-Pin_2-Pad2)*%
X4114800Y11420000D03*
%TO.P,J2,3,Pin_3*%
%TO.N,unconnected-(J2-Pin_3-Pad3)*%
X4114800Y13960000D03*
%TO.P,J2,4,Pin_4*%
%TO.N,unconnected-(J2-Pin_4-Pad4)*%
X4114800Y16500000D03*
%TO.P,J2,5,Pin_5*%
%TO.N,unconnected-(J2-Pin_5-Pad5)*%
X4114800Y19040000D03*
%TO.P,J2,6,Pin_6*%
%TO.N,DONE*%
X4114800Y21580000D03*
%TO.P,J2,7,Pin_7*%
%TO.N,GND*%
X4114800Y24120000D03*
%TO.P,J2,8,Pin_8*%
%TO.N,PWOUT*%
X4114800Y26660000D03*
%TD*%
D10*
%TO.P,J5,1,Pin_1*%
%TO.N,GPIO3*%
X7950000Y8890000D03*
D11*
%TO.P,J5,2,Pin_2*%
%TO.N,PWOUT*%
X10490000Y8890000D03*
%TO.P,J5,3,Pin_3*%
%TO.N,GND*%
X13030000Y8890000D03*
%TD*%
D10*
%TO.P,J1,1,Pin_1*%
%TO.N,unconnected-(J1-Pin_1-Pad1)*%
X26980000Y8880000D03*
D11*
%TO.P,J1,2,Pin_2*%
%TO.N,GPIO1*%
X26980000Y11420000D03*
%TO.P,J1,3,Pin_3*%
%TO.N,GPIO3*%
X26980000Y13960000D03*
%TO.P,J1,4,Pin_4*%
%TO.N,unconnected-(J1-Pin_4-Pad4)*%
X26980000Y16500000D03*
%TO.P,J1,5,Pin_5*%
%TO.N,GND*%
X26980000Y19040000D03*
%TO.P,J1,6,Pin_6*%
%TO.N,unconnected-(J1-Pin_6-Pad6)*%
X26980000Y21580000D03*
%TO.P,J1,7,Pin_7*%
%TO.N,unconnected-(J1-Pin_7-Pad7)*%
X26980000Y24120000D03*
%TO.P,J1,8,Pin_8*%
%TO.N,unconnected-(J1-Pin_8-Pad8)*%
X26980000Y26660000D03*
%TD*%
D10*
%TO.P,J4,1,Pin_1*%
%TO.N,GPIO1*%
X23114000Y8890000D03*
D11*
%TO.P,J4,2,Pin_2*%
%TO.N,PWOUT*%
X20574000Y8890000D03*
%TO.P,J4,3,Pin_3*%
%TO.N,GND*%
X18034000Y8890000D03*
%TD*%
D12*
%TO.N,GND*%
X17018000Y37846000D03*
X12192000Y40132000D03*
X13462000Y35306000D03*
X7620000Y34798000D03*
%TO.N,PWOUT*%
X13462000Y36576000D03*
X23901400Y36576000D03*
%TO.N,Net-(JP2-B)*%
X19304000Y49784000D03*
X20320000Y40132000D03*
%TO.N,Net-(U1-DRV)*%
X13462000Y41148000D03*
X16002000Y43180000D03*
%TD*%
D13*
%TO.N,GPIO1*%
X23114000Y10414000D02*
X24120000Y11420000D01*
X23114000Y8890000D02*
X23114000Y10414000D01*
X24120000Y11420000D02*
X26980000Y11420000D01*
D14*
%TO.N,PWOUT*%
X10490000Y23088800D02*
X10490000Y8890000D01*
X4114800Y26660000D02*
X6918800Y26660000D01*
D15*
X23901400Y36576000D02*
X13462000Y36576000D01*
D14*
X6918800Y26660000D02*
X10490000Y23088800D01*
D15*
%TO.N,Net-(JP2-B)*%
X20320000Y40132000D02*
X20320000Y48768000D01*
X20320000Y48768000D02*
X19304000Y49784000D01*
%TO.N,Net-(U1-DRV)*%
X15494000Y43180000D02*
X16002000Y43180000D01*
X13462000Y41148000D02*
X15494000Y43180000D01*
%TD*%
%TA.AperFunction,Conductor*%
%TO.N,GND*%
G36*
X26984652Y53332257D02*
G01*
X27075143Y53327812D01*
X27135777Y53324833D01*
X27361698Y53312991D01*
X27366822Y53312479D01*
X27546682Y53285798D01*
X27743778Y53254580D01*
X27748460Y53253625D01*
X27930177Y53208106D01*
X28117907Y53157803D01*
X28122157Y53156475D01*
X28300736Y53092578D01*
X28480291Y53023653D01*
X28484063Y53022040D01*
X28656720Y52940379D01*
X28827239Y52853494D01*
X28830508Y52851684D01*
X28924860Y52795132D01*
X28995029Y52753074D01*
X29155142Y52649095D01*
X29157925Y52647162D01*
X29312415Y52532585D01*
X29460013Y52413062D01*
X29460683Y52412520D01*
X29462975Y52410556D01*
X29526210Y52353244D01*
X29604740Y52282068D01*
X29606678Y52280224D01*
X29740722Y52146180D01*
X29742566Y52144242D01*
X29871045Y52002488D01*
X29873018Y52000185D01*
X29993081Y51851920D01*
X30107660Y51697427D01*
X30109593Y51694644D01*
X30213573Y51534530D01*
X30312178Y51370018D01*
X30313992Y51366741D01*
X30400878Y51196221D01*
X30482538Y51023565D01*
X30484151Y51019793D01*
X30553077Y50840237D01*
X30616973Y50661659D01*
X30618303Y50657402D01*
X30668612Y50469651D01*
X30714118Y50287985D01*
X30715081Y50283265D01*
X30746297Y50086184D01*
X30772974Y49906347D01*
X30773489Y49901200D01*
X30785335Y49675213D01*
X30792757Y49524153D01*
X30792823Y49521478D01*
X30792823Y3804167D01*
X30792757Y3801493D01*
X30785589Y3655566D01*
X30773426Y3423990D01*
X30772911Y3418849D01*
X30746984Y3244049D01*
X30714964Y3041878D01*
X30714002Y3037159D01*
X30669299Y2858692D01*
X30618127Y2667713D01*
X30616798Y2663456D01*
X30553759Y2487268D01*
X30483903Y2305287D01*
X30482290Y2301516D01*
X30401559Y2130819D01*
X30313668Y1958323D01*
X30311854Y1955046D01*
X30214245Y1792191D01*
X30109167Y1630385D01*
X30107234Y1627601D01*
X29993744Y1474574D01*
X29872483Y1324828D01*
X29870510Y1322526D01*
X29743198Y1182056D01*
X29741353Y1180119D01*
X29606011Y1044775D01*
X29604073Y1042930D01*
X29463623Y915633D01*
X29461321Y913660D01*
X29311551Y792374D01*
X29158547Y678899D01*
X29155764Y676966D01*
X28993927Y571866D01*
X28831099Y474270D01*
X28827823Y472456D01*
X28655307Y384553D01*
X28484639Y303832D01*
X28480867Y302219D01*
X28392054Y268126D01*
X28298811Y232333D01*
X28264596Y220091D01*
X28122709Y169323D01*
X28118453Y167993D01*
X27927412Y116803D01*
X27748991Y72109D01*
X27744271Y71146D01*
X27542052Y39116D01*
X27367328Y13197D01*
X27362180Y12682D01*
X27121659Y75D01*
X27118806Y0D01*
X3988743Y0D01*
X3986068Y66D01*
X3970856Y813D01*
X3744951Y12652D01*
X3739804Y13167D01*
X3559892Y39853D01*
X3362885Y71056D01*
X3358173Y72017D01*
X3299025Y86832D01*
X3176461Y117533D01*
X2988745Y167830D01*
X2984488Y169159D01*
X2805879Y233066D01*
X2626344Y301983D01*
X2622572Y303596D01*
X2449918Y385254D01*
X2279393Y472141D01*
X2276116Y473955D01*
X2111615Y572553D01*
X1951490Y676539D01*
X1948706Y678472D01*
X1794212Y793053D01*
X1645956Y913108D01*
X1643654Y915081D01*
X1501880Y1043577D01*
X1499942Y1045421D01*
X1365919Y1179444D01*
X1364075Y1181382D01*
X1235579Y1323156D01*
X1233606Y1325458D01*
X1113552Y1473713D01*
X998970Y1628208D01*
X997054Y1630966D01*
X893052Y1791116D01*
X865446Y1837174D01*
X794443Y1955635D01*
X792649Y1958875D01*
X705750Y2129425D01*
X695943Y2150160D01*
X624092Y2302078D01*
X622481Y2305846D01*
X615386Y2324328D01*
X553577Y2485347D01*
X489648Y2664017D01*
X488334Y2668228D01*
X438039Y2855934D01*
X392507Y3037708D01*
X391557Y3042373D01*
X371687Y3167824D01*
X1982680Y3167824D01*
X1990699Y3071049D01*
X1990885Y3066546D01*
X1990885Y3043739D01*
X1994637Y3021250D01*
X1995194Y3016782D01*
X2000645Y2951011D01*
X2003215Y2920002D01*
X2003216Y2919999D01*
X2027052Y2825868D01*
X2027976Y2821461D01*
X2031728Y2798976D01*
X2031732Y2798960D01*
X2039139Y2777382D01*
X2040424Y2773066D01*
X2064258Y2678948D01*
X2064260Y2678943D01*
X2103261Y2590028D01*
X2104899Y2585831D01*
X2112308Y2564248D01*
X2112311Y2564243D01*
X2123168Y2544180D01*
X2125147Y2540132D01*
X2164150Y2451216D01*
X2217253Y2369935D01*
X2219560Y2366064D01*
X2230422Y2345993D01*
X2244431Y2327995D01*
X2247049Y2324328D01*
X2300158Y2243039D01*
X2365918Y2171605D01*
X2368830Y2168167D01*
X2382843Y2150163D01*
X2382844Y2150162D01*
X2382846Y2150160D01*
X2395827Y2138211D01*
X2399618Y2134720D01*
X2402804Y2131534D01*
X2468572Y2060092D01*
X2468574Y2060090D01*
X2468579Y2060085D01*
X2511566Y2026627D01*
X2545205Y2000444D01*
X2548644Y1997532D01*
X2565425Y1982084D01*
X2584521Y1969608D01*
X2588182Y1966994D01*
X2598613Y1958875D01*
X2664814Y1907349D01*
X2750228Y1861125D01*
X2754065Y1858839D01*
X2773178Y1846352D01*
X2794093Y1837178D01*
X2798096Y1835220D01*
X2883513Y1788995D01*
X2975357Y1757465D01*
X2979532Y1755837D01*
X2994462Y1749288D01*
X3000436Y1746667D01*
X3000437Y1746667D01*
X3000439Y1746666D01*
X3022561Y1741064D01*
X3026850Y1739788D01*
X3118709Y1708252D01*
X3214502Y1692268D01*
X3218882Y1691350D01*
X3241008Y1685746D01*
X3263762Y1683861D01*
X3268193Y1683308D01*
X3363988Y1667323D01*
X3363989Y1667323D01*
X3461072Y1667323D01*
X3465574Y1667137D01*
X3467978Y1666938D01*
X3488323Y1665252D01*
X3508667Y1666938D01*
X3511072Y1667137D01*
X3515574Y1667323D01*
X3612657Y1667323D01*
X3612658Y1667323D01*
X3708469Y1683311D01*
X3712871Y1683860D01*
X3732416Y1685480D01*
X3735629Y1685745D01*
X3735632Y1685746D01*
X3735638Y1685746D01*
X3757759Y1691348D01*
X3762129Y1692265D01*
X3857937Y1708252D01*
X3949791Y1739786D01*
X3954088Y1741065D01*
X3976207Y1746666D01*
X3976208Y1746667D01*
X3976210Y1746667D01*
X3981292Y1748897D01*
X3997112Y1755836D01*
X4001263Y1757457D01*
X4093133Y1788995D01*
X4178566Y1835230D01*
X4182543Y1837174D01*
X4203468Y1846352D01*
X4222597Y1858850D01*
X4226388Y1861110D01*
X4311832Y1907349D01*
X4388472Y1967002D01*
X4392107Y1969597D01*
X4411221Y1982084D01*
X4428017Y1997547D01*
X4431412Y2000423D01*
X4508067Y2060085D01*
X4573845Y2131540D01*
X4577006Y2134701D01*
X4593800Y2150160D01*
X4607817Y2168171D01*
X4610716Y2171593D01*
X4676487Y2243038D01*
X4729604Y2324342D01*
X4732194Y2327969D01*
X4746225Y2345995D01*
X4757094Y2366080D01*
X4759375Y2369910D01*
X4812496Y2451216D01*
X4851508Y2540157D01*
X4853464Y2544156D01*
X4864337Y2564247D01*
X4871760Y2585872D01*
X4873361Y2589976D01*
X4912386Y2678942D01*
X4936225Y2773083D01*
X4937501Y2777369D01*
X4944915Y2798964D01*
X4948671Y2821479D01*
X4949587Y2825849D01*
X4973431Y2920002D01*
X4981451Y3016795D01*
X4982005Y3021238D01*
X4985761Y3043742D01*
X4986415Y3075440D01*
X4986590Y3078806D01*
X4987470Y3089439D01*
X4993966Y3167823D01*
X4993966Y3167824D01*
X26112680Y3167824D01*
X26120699Y3071049D01*
X26120885Y3066546D01*
X26120885Y3043739D01*
X26124637Y3021250D01*
X26125194Y3016782D01*
X26130645Y2951011D01*
X26133215Y2920002D01*
X26133216Y2919999D01*
X26157052Y2825868D01*
X26157976Y2821461D01*
X26161728Y2798976D01*
X26161732Y2798960D01*
X26169139Y2777382D01*
X26170424Y2773066D01*
X26194258Y2678948D01*
X26194260Y2678943D01*
X26233261Y2590028D01*
X26234899Y2585831D01*
X26242308Y2564248D01*
X26242311Y2564243D01*
X26253168Y2544180D01*
X26255147Y2540132D01*
X26294150Y2451216D01*
X26347253Y2369935D01*
X26349560Y2366064D01*
X26360422Y2345993D01*
X26374431Y2327995D01*
X26377049Y2324328D01*
X26430158Y2243039D01*
X26495918Y2171605D01*
X26498830Y2168167D01*
X26512843Y2150163D01*
X26512844Y2150162D01*
X26512846Y2150160D01*
X26525827Y2138211D01*
X26529618Y2134720D01*
X26532804Y2131534D01*
X26598572Y2060092D01*
X26598574Y2060090D01*
X26598579Y2060085D01*
X26641566Y2026627D01*
X26675205Y2000444D01*
X26678644Y1997532D01*
X26695425Y1982084D01*
X26714521Y1969608D01*
X26718182Y1966994D01*
X26728613Y1958875D01*
X26794814Y1907349D01*
X26880228Y1861125D01*
X26884065Y1858839D01*
X26903178Y1846352D01*
X26924093Y1837178D01*
X26928096Y1835220D01*
X27013513Y1788995D01*
X27105357Y1757465D01*
X27109532Y1755837D01*
X27124462Y1749288D01*
X27130436Y1746667D01*
X27130437Y1746667D01*
X27130439Y1746666D01*
X27152561Y1741064D01*
X27156850Y1739788D01*
X27248709Y1708252D01*
X27344502Y1692268D01*
X27348882Y1691350D01*
X27371008Y1685746D01*
X27393762Y1683861D01*
X27398193Y1683308D01*
X27493988Y1667323D01*
X27493989Y1667323D01*
X27591072Y1667323D01*
X27595574Y1667137D01*
X27597978Y1666938D01*
X27618323Y1665252D01*
X27638667Y1666938D01*
X27641072Y1667137D01*
X27645574Y1667323D01*
X27742657Y1667323D01*
X27742658Y1667323D01*
X27838469Y1683311D01*
X27842871Y1683860D01*
X27862416Y1685480D01*
X27865629Y1685745D01*
X27865632Y1685746D01*
X27865638Y1685746D01*
X27887759Y1691348D01*
X27892129Y1692265D01*
X27987937Y1708252D01*
X28079791Y1739786D01*
X28084088Y1741065D01*
X28106207Y1746666D01*
X28106208Y1746667D01*
X28106210Y1746667D01*
X28111292Y1748897D01*
X28127112Y1755836D01*
X28131263Y1757457D01*
X28223133Y1788995D01*
X28308566Y1835230D01*
X28312543Y1837174D01*
X28333468Y1846352D01*
X28352597Y1858850D01*
X28356388Y1861110D01*
X28441832Y1907349D01*
X28518472Y1967002D01*
X28522107Y1969597D01*
X28541221Y1982084D01*
X28558017Y1997547D01*
X28561412Y2000423D01*
X28638067Y2060085D01*
X28703845Y2131540D01*
X28707006Y2134701D01*
X28723800Y2150160D01*
X28737817Y2168171D01*
X28740716Y2171593D01*
X28806487Y2243038D01*
X28859604Y2324342D01*
X28862194Y2327969D01*
X28876225Y2345995D01*
X28887094Y2366080D01*
X28889375Y2369910D01*
X28942496Y2451216D01*
X28981508Y2540157D01*
X28983464Y2544156D01*
X28994337Y2564247D01*
X29001760Y2585872D01*
X29003361Y2589976D01*
X29042386Y2678942D01*
X29066225Y2773083D01*
X29067501Y2777369D01*
X29074915Y2798964D01*
X29078671Y2821479D01*
X29079587Y2825849D01*
X29103431Y2920002D01*
X29111451Y3016795D01*
X29112005Y3021238D01*
X29115761Y3043742D01*
X29116415Y3075440D01*
X29116590Y3078806D01*
X29117470Y3089439D01*
X29123966Y3167823D01*
X29116590Y3256842D01*
X29116415Y3260218D01*
X29115761Y3291904D01*
X29112006Y3314403D01*
X29111450Y3318864D01*
X29103431Y3415644D01*
X29079589Y3509791D01*
X29078669Y3514185D01*
X29074915Y3536682D01*
X29067505Y3558267D01*
X29066224Y3562570D01*
X29066223Y3562575D01*
X29042386Y3656704D01*
X29003378Y3745632D01*
X29001749Y3749809D01*
X28994337Y3771399D01*
X28994334Y3771405D01*
X28983474Y3791474D01*
X28981495Y3795522D01*
X28972715Y3815536D01*
X28942496Y3884430D01*
X28889382Y3965727D01*
X28887093Y3969568D01*
X28876225Y3989651D01*
X28862206Y4007662D01*
X28859598Y4011315D01*
X28806487Y4092608D01*
X28740719Y4164051D01*
X28737815Y4167480D01*
X28723800Y4185486D01*
X28707017Y4200936D01*
X28703834Y4204120D01*
X28638073Y4275555D01*
X28638069Y4275558D01*
X28638067Y4275561D01*
X28561439Y4335203D01*
X28558007Y4338110D01*
X28550019Y4345463D01*
X28541221Y4353562D01*
X28541218Y4353564D01*
X28541217Y4353565D01*
X28522117Y4366044D01*
X28518461Y4368654D01*
X28441835Y4428295D01*
X28441834Y4428296D01*
X28356429Y4474515D01*
X28352558Y4476822D01*
X28333474Y4489290D01*
X28333468Y4489294D01*
X28312581Y4498456D01*
X28308539Y4500432D01*
X28223133Y4546651D01*
X28223132Y4546652D01*
X28131291Y4578181D01*
X28127096Y4579818D01*
X28106210Y4588979D01*
X28106208Y4588980D01*
X28084091Y4594582D01*
X28079776Y4595867D01*
X27987944Y4627393D01*
X27987938Y4627394D01*
X27892162Y4643376D01*
X27887754Y4644300D01*
X27865636Y4649901D01*
X27842893Y4651786D01*
X27838425Y4652343D01*
X27809369Y4657191D01*
X27742658Y4668323D01*
X27645562Y4668323D01*
X27641060Y4668509D01*
X27618323Y4670393D01*
X27595586Y4668509D01*
X27591084Y4668323D01*
X27493988Y4668323D01*
X27447144Y4660507D01*
X27398219Y4652343D01*
X27393751Y4651786D01*
X27371008Y4649901D01*
X27371006Y4649900D01*
X27348892Y4644301D01*
X27344484Y4643376D01*
X27248707Y4627394D01*
X27248705Y4627394D01*
X27156874Y4595868D01*
X27152559Y4594583D01*
X27130435Y4588979D01*
X27109557Y4579821D01*
X27105361Y4578184D01*
X27013515Y4546652D01*
X27013508Y4546649D01*
X26928113Y4500436D01*
X26924067Y4498458D01*
X26903180Y4489296D01*
X26884078Y4476817D01*
X26880209Y4474512D01*
X26794824Y4428304D01*
X26794811Y4428295D01*
X26718180Y4368653D01*
X26714516Y4366036D01*
X26695421Y4353560D01*
X26678638Y4338112D01*
X26675204Y4335203D01*
X26598581Y4275564D01*
X26598571Y4275554D01*
X26532809Y4204119D01*
X26529626Y4200936D01*
X26512849Y4185490D01*
X26498839Y4167490D01*
X26495928Y4164054D01*
X26430159Y4092609D01*
X26430155Y4092603D01*
X26377050Y4011323D01*
X26374436Y4007661D01*
X26360421Y3989652D01*
X26349563Y3969590D01*
X26347259Y3965722D01*
X26294150Y3884432D01*
X26255144Y3795509D01*
X26253166Y3791463D01*
X26242309Y3771400D01*
X26234897Y3749809D01*
X26233259Y3745613D01*
X26194263Y3656714D01*
X26194255Y3656691D01*
X26170422Y3562575D01*
X26169137Y3558259D01*
X26161731Y3536686D01*
X26157976Y3514185D01*
X26157052Y3509778D01*
X26133215Y3415647D01*
X26125194Y3318864D01*
X26124637Y3314396D01*
X26120885Y3291908D01*
X26120885Y3269102D01*
X26120699Y3264600D01*
X26112680Y3167824D01*
X4993966Y3167824D01*
X4986590Y3256842D01*
X4986415Y3260218D01*
X4985761Y3291904D01*
X4982006Y3314403D01*
X4981450Y3318864D01*
X4973431Y3415644D01*
X4949589Y3509791D01*
X4948669Y3514185D01*
X4944915Y3536682D01*
X4937505Y3558267D01*
X4936224Y3562570D01*
X4936223Y3562575D01*
X4912386Y3656704D01*
X4873378Y3745632D01*
X4871749Y3749809D01*
X4864337Y3771399D01*
X4864334Y3771405D01*
X4853474Y3791474D01*
X4851495Y3795522D01*
X4842715Y3815536D01*
X4812496Y3884430D01*
X4759382Y3965727D01*
X4757093Y3969568D01*
X4746225Y3989651D01*
X4732206Y4007662D01*
X4729598Y4011315D01*
X4676487Y4092608D01*
X4610719Y4164051D01*
X4607815Y4167480D01*
X4593800Y4185486D01*
X4577017Y4200936D01*
X4573834Y4204120D01*
X4508073Y4275555D01*
X4508069Y4275558D01*
X4508067Y4275561D01*
X4431439Y4335203D01*
X4428007Y4338110D01*
X4420019Y4345463D01*
X4411221Y4353562D01*
X4411218Y4353564D01*
X4411217Y4353565D01*
X4392117Y4366044D01*
X4388461Y4368654D01*
X4311835Y4428295D01*
X4311834Y4428296D01*
X4226429Y4474515D01*
X4222558Y4476822D01*
X4203474Y4489290D01*
X4203468Y4489294D01*
X4182581Y4498456D01*
X4178539Y4500432D01*
X4093133Y4546651D01*
X4093132Y4546652D01*
X4001291Y4578181D01*
X3997096Y4579818D01*
X3976210Y4588979D01*
X3976208Y4588980D01*
X3954091Y4594582D01*
X3949776Y4595867D01*
X3857944Y4627393D01*
X3857938Y4627394D01*
X3762162Y4643376D01*
X3757754Y4644300D01*
X3735636Y4649901D01*
X3712893Y4651786D01*
X3708425Y4652343D01*
X3679369Y4657191D01*
X3612658Y4668323D01*
X3515562Y4668323D01*
X3511060Y4668509D01*
X3488323Y4670393D01*
X3465586Y4668509D01*
X3461084Y4668323D01*
X3363988Y4668323D01*
X3317144Y4660507D01*
X3268219Y4652343D01*
X3263751Y4651786D01*
X3241008Y4649901D01*
X3241006Y4649900D01*
X3218892Y4644301D01*
X3214484Y4643376D01*
X3118707Y4627394D01*
X3118705Y4627394D01*
X3026874Y4595868D01*
X3022559Y4594583D01*
X3000435Y4588979D01*
X2979557Y4579821D01*
X2975361Y4578184D01*
X2883515Y4546652D01*
X2883508Y4546649D01*
X2798113Y4500436D01*
X2794067Y4498458D01*
X2773180Y4489296D01*
X2754078Y4476817D01*
X2750209Y4474512D01*
X2664824Y4428304D01*
X2664811Y4428295D01*
X2588180Y4368653D01*
X2584516Y4366036D01*
X2565421Y4353560D01*
X2548638Y4338112D01*
X2545204Y4335203D01*
X2468581Y4275564D01*
X2468571Y4275554D01*
X2402809Y4204119D01*
X2399626Y4200936D01*
X2382849Y4185490D01*
X2368839Y4167490D01*
X2365928Y4164054D01*
X2300159Y4092609D01*
X2300155Y4092603D01*
X2247050Y4011323D01*
X2244436Y4007661D01*
X2230421Y3989652D01*
X2219563Y3969590D01*
X2217259Y3965722D01*
X2164150Y3884432D01*
X2125144Y3795509D01*
X2123166Y3791463D01*
X2112309Y3771400D01*
X2104897Y3749809D01*
X2103259Y3745613D01*
X2064263Y3656714D01*
X2064255Y3656691D01*
X2040422Y3562575D01*
X2039137Y3558259D01*
X2031731Y3536686D01*
X2027976Y3514185D01*
X2027052Y3509778D01*
X2003215Y3415647D01*
X1995194Y3318864D01*
X1994637Y3314396D01*
X1990885Y3291908D01*
X1990885Y3269102D01*
X1990699Y3264600D01*
X1982680Y3167824D01*
X371687Y3167824D01*
X360354Y3239380D01*
X333662Y3419330D01*
X333150Y3424454D01*
X327269Y3536686D01*
X321318Y3650226D01*
X315367Y3771400D01*
X313889Y3801492D01*
X313823Y3804166D01*
X313823Y7985142D01*
X2964300Y7985142D01*
X2964302Y7985121D01*
X2967214Y7960012D01*
X2967214Y7960010D01*
X2967215Y7960009D01*
X3012594Y7857235D01*
X3092035Y7777794D01*
X3194809Y7732415D01*
X3219935Y7729500D01*
X5009664Y7729501D01*
X5034791Y7732415D01*
X5137565Y7777794D01*
X5217006Y7857235D01*
X5262385Y7960009D01*
X5265300Y7985135D01*
X5265300Y7995142D01*
X6799500Y7995142D01*
X6799502Y7995121D01*
X6802414Y7970012D01*
X6802414Y7970010D01*
X6802415Y7970009D01*
X6847794Y7867235D01*
X6927235Y7787794D01*
X7030009Y7742415D01*
X7055135Y7739500D01*
X8844864Y7739501D01*
X8869991Y7742415D01*
X8972765Y7787794D01*
X9052206Y7867235D01*
X9097585Y7970009D01*
X9100500Y7995135D01*
X9100499Y9784864D01*
X9097585Y9809991D01*
X9052206Y9912765D01*
X8972765Y9992206D01*
X8869991Y10037585D01*
X8844865Y10040500D01*
X8844864Y10040500D01*
X7055141Y10040500D01*
X7055120Y10040498D01*
X7030011Y10037586D01*
X6927234Y9992206D01*
X6847794Y9912766D01*
X6802415Y9809991D01*
X6799500Y9784866D01*
X6799500Y7995142D01*
X5265300Y7995142D01*
X5265299Y9774864D01*
X5262385Y9799991D01*
X5217006Y9902765D01*
X5137565Y9982206D01*
X5034791Y10027585D01*
X5009665Y10030500D01*
X5009664Y10030500D01*
X3219941Y10030500D01*
X3219920Y10030498D01*
X3194811Y10027586D01*
X3092034Y9982206D01*
X3012594Y9902766D01*
X2967215Y9799991D01*
X2964300Y9774866D01*
X2964300Y7985142D01*
X313823Y7985142D01*
X313823Y11420000D01*
X2959371Y11420000D01*
X2979043Y11207691D01*
X3037394Y11002613D01*
X3132432Y10811747D01*
X3184657Y10742591D01*
X3260928Y10641593D01*
X3418498Y10497948D01*
X3528342Y10429935D01*
X3599775Y10385706D01*
X3599777Y10385704D01*
X3599779Y10385704D01*
X3599781Y10385702D01*
X3798602Y10308679D01*
X4008190Y10269500D01*
X4008191Y10269500D01*
X4221409Y10269500D01*
X4221410Y10269500D01*
X4430998Y10308679D01*
X4629819Y10385702D01*
X4811102Y10497948D01*
X4968672Y10641593D01*
X5097166Y10811745D01*
X5192205Y11002611D01*
X5250556Y11207690D01*
X5270229Y11420000D01*
X5250556Y11632310D01*
X5192205Y11837389D01*
X5120738Y11980916D01*
X5097167Y12028254D01*
X4968670Y12198409D01*
X4811103Y12342051D01*
X4811099Y12342054D01*
X4629824Y12454295D01*
X4629822Y12454297D01*
X4430998Y12531321D01*
X4430994Y12531322D01*
X4221410Y12570500D01*
X4008190Y12570500D01*
X4008189Y12570500D01*
X3798605Y12531322D01*
X3798601Y12531321D01*
X3599777Y12454297D01*
X3599775Y12454295D01*
X3418500Y12342054D01*
X3418496Y12342051D01*
X3260929Y12198409D01*
X3132432Y12028254D01*
X3037394Y11837388D01*
X2979043Y11632310D01*
X2959371Y11420001D01*
X2959371Y11420000D01*
X313823Y11420000D01*
X313823Y13960000D01*
X2959371Y13960000D01*
X2979043Y13747691D01*
X3037394Y13542613D01*
X3132432Y13351747D01*
X3132434Y13351745D01*
X3260928Y13181593D01*
X3418498Y13037948D01*
X3418500Y13037947D01*
X3599775Y12925706D01*
X3599777Y12925704D01*
X3599779Y12925704D01*
X3599781Y12925702D01*
X3798602Y12848679D01*
X4008190Y12809500D01*
X4008191Y12809500D01*
X4221409Y12809500D01*
X4221410Y12809500D01*
X4430998Y12848679D01*
X4629819Y12925702D01*
X4811102Y13037948D01*
X4968672Y13181593D01*
X5097166Y13351745D01*
X5192205Y13542611D01*
X5250556Y13747690D01*
X5270229Y13960000D01*
X5250556Y14172310D01*
X5192205Y14377389D01*
X5144882Y14472427D01*
X5097167Y14568254D01*
X4968670Y14738409D01*
X4811103Y14882051D01*
X4811099Y14882054D01*
X4629824Y14994295D01*
X4629822Y14994297D01*
X4430998Y15071321D01*
X4430994Y15071322D01*
X4221410Y15110500D01*
X4008190Y15110500D01*
X4008189Y15110500D01*
X3798605Y15071322D01*
X3798601Y15071321D01*
X3599777Y14994297D01*
X3599775Y14994295D01*
X3418500Y14882054D01*
X3418496Y14882051D01*
X3260929Y14738409D01*
X3132432Y14568254D01*
X3037394Y14377388D01*
X2979043Y14172310D01*
X2959371Y13960001D01*
X2959371Y13960000D01*
X313823Y13960000D01*
X313823Y16500000D01*
X2959371Y16500000D01*
X2979043Y16287691D01*
X3037394Y16082613D01*
X3132432Y15891747D01*
X3132434Y15891745D01*
X3260928Y15721593D01*
X3418498Y15577948D01*
X3418500Y15577947D01*
X3599775Y15465706D01*
X3599777Y15465704D01*
X3599779Y15465704D01*
X3599781Y15465702D01*
X3798602Y15388679D01*
X4008190Y15349500D01*
X4008191Y15349500D01*
X4221409Y15349500D01*
X4221410Y15349500D01*
X4430998Y15388679D01*
X4629819Y15465702D01*
X4811102Y15577948D01*
X4968672Y15721593D01*
X5097166Y15891745D01*
X5192205Y16082611D01*
X5250556Y16287690D01*
X5270229Y16500000D01*
X5250556Y16712310D01*
X5192205Y16917389D01*
X5144882Y17012427D01*
X5097167Y17108254D01*
X4968670Y17278409D01*
X4811103Y17422051D01*
X4811099Y17422054D01*
X4629824Y17534295D01*
X4629822Y17534297D01*
X4430998Y17611321D01*
X4430994Y17611322D01*
X4221410Y17650500D01*
X4008190Y17650500D01*
X4008189Y17650500D01*
X3798605Y17611322D01*
X3798601Y17611321D01*
X3599777Y17534297D01*
X3599775Y17534295D01*
X3418500Y17422054D01*
X3418496Y17422051D01*
X3260929Y17278409D01*
X3132432Y17108254D01*
X3037394Y16917388D01*
X2979043Y16712310D01*
X2959371Y16500001D01*
X2959371Y16500000D01*
X313823Y16500000D01*
X313823Y19040000D01*
X2959371Y19040000D01*
X2979043Y18827691D01*
X3037394Y18622613D01*
X3132432Y18431747D01*
X3132434Y18431745D01*
X3260928Y18261593D01*
X3418498Y18117948D01*
X3599059Y18006149D01*
X3599775Y18005706D01*
X3599777Y18005704D01*
X3599779Y18005704D01*
X3599781Y18005702D01*
X3798602Y17928679D01*
X4008190Y17889500D01*
X4008191Y17889500D01*
X4221409Y17889500D01*
X4221410Y17889500D01*
X4430998Y17928679D01*
X4629819Y18005702D01*
X4811102Y18117948D01*
X4968672Y18261593D01*
X5097166Y18431745D01*
X5192205Y18622611D01*
X5250556Y18827690D01*
X5270229Y19040000D01*
X5250556Y19252310D01*
X5192205Y19457389D01*
X5097298Y19647990D01*
X5097167Y19648254D01*
X5054334Y19704973D01*
X4968672Y19818407D01*
X4811102Y19962052D01*
X4629824Y20074295D01*
X4629822Y20074297D01*
X4430998Y20151321D01*
X4430994Y20151322D01*
X4221410Y20190500D01*
X4008190Y20190500D01*
X4008189Y20190500D01*
X3798605Y20151322D01*
X3798601Y20151321D01*
X3599777Y20074297D01*
X3599775Y20074295D01*
X3418500Y19962054D01*
X3418496Y19962051D01*
X3260929Y19818409D01*
X3132432Y19648254D01*
X3037394Y19457388D01*
X2979043Y19252310D01*
X2959371Y19040001D01*
X2959371Y19040000D01*
X313823Y19040000D01*
X313823Y21580000D01*
X2959371Y21580000D01*
X2979043Y21367691D01*
X3037394Y21162613D01*
X3132432Y20971747D01*
X3132434Y20971745D01*
X3260928Y20801593D01*
X3418498Y20657948D01*
X3418500Y20657947D01*
X3599775Y20545706D01*
X3599777Y20545704D01*
X3599779Y20545704D01*
X3599781Y20545702D01*
X3798602Y20468679D01*
X4008190Y20429500D01*
X4008191Y20429500D01*
X4221409Y20429500D01*
X4221410Y20429500D01*
X4430998Y20468679D01*
X4629819Y20545702D01*
X4811102Y20657948D01*
X4968672Y20801593D01*
X5097166Y20971745D01*
X5192205Y21162611D01*
X5250556Y21367690D01*
X5270229Y21580000D01*
X5250556Y21792310D01*
X5192205Y21997389D01*
X5144882Y22092427D01*
X5097167Y22188254D01*
X4968670Y22358409D01*
X4811103Y22502051D01*
X4811099Y22502054D01*
X4629824Y22614295D01*
X4629822Y22614297D01*
X4430998Y22691321D01*
X4430994Y22691322D01*
X4221410Y22730500D01*
X4008190Y22730500D01*
X4008189Y22730500D01*
X3798605Y22691322D01*
X3798601Y22691321D01*
X3599777Y22614297D01*
X3599775Y22614295D01*
X3418500Y22502054D01*
X3418496Y22502051D01*
X3260929Y22358409D01*
X3132432Y22188254D01*
X3037394Y21997388D01*
X2979043Y21792310D01*
X2959371Y21580001D01*
X2959371Y21580000D01*
X313823Y21580000D01*
X313823Y24270001D01*
X2973772Y24270001D01*
X2973773Y24270000D01*
X3637735Y24270000D01*
X3614800Y24191889D01*
X3614800Y24048111D01*
X3637735Y23970000D01*
X2973773Y23970000D01*
X2979537Y23907784D01*
X2979538Y23907783D01*
X3037861Y23702796D01*
X3037863Y23702792D01*
X3132859Y23512011D01*
X3261300Y23341930D01*
X3418799Y23198350D01*
X3418802Y23198347D01*
X3600001Y23086155D01*
X3600013Y23086149D01*
X3798729Y23009166D01*
X3798742Y23009162D01*
X3964800Y22978121D01*
X3964800Y23638830D01*
X3972485Y23635320D01*
X4079037Y23620000D01*
X4150563Y23620000D01*
X4257115Y23635320D01*
X4264800Y23638830D01*
X4264800Y22978122D01*
X4430857Y23009162D01*
X4430870Y23009166D01*
X4629586Y23086149D01*
X4629598Y23086155D01*
X4810797Y23198347D01*
X4810800Y23198350D01*
X4968299Y23341930D01*
X5096740Y23512011D01*
X5191736Y23702792D01*
X5191738Y23702796D01*
X5250061Y23907783D01*
X5250062Y23907784D01*
X5255827Y23970000D01*
X4591865Y23970000D01*
X4614800Y24048111D01*
X4614800Y24191889D01*
X4591865Y24270000D01*
X5255827Y24270000D01*
X5255827Y24270001D01*
X5250062Y24332217D01*
X5250061Y24332218D01*
X5191738Y24537205D01*
X5191736Y24537209D01*
X5096740Y24727990D01*
X4968299Y24898071D01*
X4810800Y25041651D01*
X4810797Y25041654D01*
X4629598Y25153846D01*
X4629586Y25153852D01*
X4430868Y25230836D01*
X4430858Y25230839D01*
X4264800Y25261881D01*
X4264800Y24601171D01*
X4257115Y24604680D01*
X4150563Y24620000D01*
X4079037Y24620000D01*
X3972485Y24604680D01*
X3964800Y24601171D01*
X3964800Y25261881D01*
X3964799Y25261881D01*
X3798741Y25230839D01*
X3798731Y25230836D01*
X3600013Y25153852D01*
X3600001Y25153846D01*
X3418802Y25041654D01*
X3418799Y25041651D01*
X3261300Y24898071D01*
X3132859Y24727990D01*
X3037863Y24537209D01*
X3037861Y24537205D01*
X2979538Y24332218D01*
X2979537Y24332217D01*
X2973772Y24270001D01*
X313823Y24270001D01*
X313823Y26660000D01*
X2959371Y26660000D01*
X2979043Y26447691D01*
X3037394Y26242613D01*
X3132432Y26051747D01*
X3132434Y26051745D01*
X3260928Y25881593D01*
X3418498Y25737948D01*
X3418500Y25737947D01*
X3599775Y25625706D01*
X3599777Y25625704D01*
X3599779Y25625704D01*
X3599781Y25625702D01*
X3798602Y25548679D01*
X4008190Y25509500D01*
X4008191Y25509500D01*
X4221409Y25509500D01*
X4221410Y25509500D01*
X4430998Y25548679D01*
X4629819Y25625702D01*
X4811102Y25737948D01*
X4968672Y25881593D01*
X5097166Y26051745D01*
X5097168Y26051749D01*
X5099818Y26056028D01*
X5101581Y26054937D01*
X5143048Y26097165D01*
X5193415Y26109500D01*
X6645625Y26109500D01*
X6709694Y26088683D01*
X6722700Y26077575D01*
X9907575Y22892701D01*
X9938158Y22832677D01*
X9939500Y22815626D01*
X9939500Y9963042D01*
X9918683Y9898973D01*
X9887882Y9870369D01*
X9793697Y9812052D01*
X9793695Y9812050D01*
X9636129Y9668409D01*
X9507632Y9498254D01*
X9412594Y9307388D01*
X9354243Y9102310D01*
X9334571Y8890001D01*
X9334571Y8890000D01*
X9354243Y8677691D01*
X9412594Y8472613D01*
X9507632Y8281747D01*
X9507634Y8281745D01*
X9636128Y8111593D01*
X9793698Y7967948D01*
X9974259Y7856149D01*
X9974975Y7855706D01*
X9974977Y7855704D01*
X9974979Y7855704D01*
X9974981Y7855702D01*
X10173802Y7778679D01*
X10383390Y7739500D01*
X10383391Y7739500D01*
X10596609Y7739500D01*
X10596610Y7739500D01*
X10806198Y7778679D01*
X11005019Y7855702D01*
X11186302Y7967948D01*
X11343872Y8111593D01*
X11472366Y8281745D01*
X11567405Y8472611D01*
X11625756Y8677690D01*
X11645429Y8890000D01*
X11631530Y9040001D01*
X11888972Y9040001D01*
X11888973Y9040000D01*
X12552935Y9040000D01*
X12530000Y8961889D01*
X12530000Y8818111D01*
X12552935Y8740000D01*
X11888973Y8740000D01*
X11894737Y8677784D01*
X11894738Y8677783D01*
X11953061Y8472796D01*
X11953063Y8472792D01*
X12048059Y8282011D01*
X12176500Y8111930D01*
X12333999Y7968350D01*
X12334002Y7968347D01*
X12515201Y7856155D01*
X12515213Y7856149D01*
X12713929Y7779166D01*
X12713942Y7779162D01*
X12880000Y7748121D01*
X12880000Y8408830D01*
X12887685Y8405320D01*
X12994237Y8390000D01*
X13065763Y8390000D01*
X13172315Y8405320D01*
X13180000Y8408830D01*
X13180000Y7748122D01*
X13346057Y7779162D01*
X13346070Y7779166D01*
X13544786Y7856149D01*
X13544798Y7856155D01*
X13725997Y7968347D01*
X13726000Y7968350D01*
X13883499Y8111930D01*
X14011940Y8282011D01*
X14106936Y8472792D01*
X14106938Y8472796D01*
X14165261Y8677783D01*
X14165262Y8677784D01*
X14171027Y8740000D01*
X13507065Y8740000D01*
X13530000Y8818111D01*
X13530000Y8961889D01*
X13507065Y9040000D01*
X14171027Y9040000D01*
X14171027Y9040001D01*
X16892972Y9040001D01*
X16892973Y9040000D01*
X17556935Y9040000D01*
X17534000Y8961889D01*
X17534000Y8818111D01*
X17556935Y8740000D01*
X16892973Y8740000D01*
X16898737Y8677784D01*
X16898738Y8677783D01*
X16957061Y8472796D01*
X16957063Y8472792D01*
X17052059Y8282011D01*
X17180500Y8111930D01*
X17337999Y7968350D01*
X17338002Y7968347D01*
X17519201Y7856155D01*
X17519213Y7856149D01*
X17717929Y7779166D01*
X17717942Y7779162D01*
X17884000Y7748121D01*
X17884000Y8408830D01*
X17891685Y8405320D01*
X17998237Y8390000D01*
X18069763Y8390000D01*
X18176315Y8405320D01*
X18184000Y8408830D01*
X18184000Y7748122D01*
X18350057Y7779162D01*
X18350070Y7779166D01*
X18548786Y7856149D01*
X18548798Y7856155D01*
X18729997Y7968347D01*
X18730000Y7968350D01*
X18887499Y8111930D01*
X19015940Y8282011D01*
X19110936Y8472792D01*
X19110938Y8472796D01*
X19169261Y8677783D01*
X19169262Y8677784D01*
X19175027Y8740000D01*
X18511065Y8740000D01*
X18534000Y8818111D01*
X18534000Y8890000D01*
X19418571Y8890000D01*
X19438243Y8677691D01*
X19496594Y8472613D01*
X19591632Y8281747D01*
X19591634Y8281745D01*
X19720128Y8111593D01*
X19877698Y7967948D01*
X20058259Y7856149D01*
X20058975Y7855706D01*
X20058977Y7855704D01*
X20058979Y7855704D01*
X20058981Y7855702D01*
X20257802Y7778679D01*
X20467390Y7739500D01*
X20467391Y7739500D01*
X20680609Y7739500D01*
X20680610Y7739500D01*
X20890198Y7778679D01*
X21089019Y7855702D01*
X21270302Y7967948D01*
X21300132Y7995142D01*
X21963500Y7995142D01*
X21963502Y7995121D01*
X21966414Y7970012D01*
X21966414Y7970010D01*
X21966415Y7970009D01*
X22011794Y7867235D01*
X22091235Y7787794D01*
X22194009Y7742415D01*
X22219135Y7739500D01*
X24008864Y7739501D01*
X24033991Y7742415D01*
X24136765Y7787794D01*
X24216206Y7867235D01*
X24261585Y7970009D01*
X24263341Y7985142D01*
X25829500Y7985142D01*
X25829502Y7985121D01*
X25832414Y7960012D01*
X25832414Y7960010D01*
X25832415Y7960009D01*
X25877794Y7857235D01*
X25957235Y7777794D01*
X26060009Y7732415D01*
X26085135Y7729500D01*
X27874864Y7729501D01*
X27899991Y7732415D01*
X28002765Y7777794D01*
X28082206Y7857235D01*
X28127585Y7960009D01*
X28130500Y7985135D01*
X28130499Y9774864D01*
X28127585Y9799991D01*
X28082206Y9902765D01*
X28002765Y9982206D01*
X27899991Y10027585D01*
X27874865Y10030500D01*
X27874864Y10030500D01*
X26085141Y10030500D01*
X26085120Y10030498D01*
X26060011Y10027586D01*
X25957234Y9982206D01*
X25877794Y9902766D01*
X25832415Y9799991D01*
X25829500Y9774866D01*
X25829500Y7985142D01*
X24263341Y7985142D01*
X24264500Y7995135D01*
X24264499Y9784864D01*
X24261585Y9809991D01*
X24216206Y9912765D01*
X24136765Y9992206D01*
X24033991Y10037585D01*
X24008865Y10040500D01*
X23723500Y10040500D01*
X23659431Y10061317D01*
X23619835Y10115817D01*
X23614500Y10149500D01*
X23614500Y10161536D01*
X23635317Y10225605D01*
X23646425Y10238611D01*
X24295389Y10887575D01*
X24355413Y10918158D01*
X24372464Y10919500D01*
X25876489Y10919500D01*
X25940558Y10898683D01*
X25974062Y10859084D01*
X25997631Y10811749D01*
X25997633Y10811747D01*
X25997634Y10811745D01*
X26126128Y10641593D01*
X26283698Y10497948D01*
X26393542Y10429935D01*
X26464975Y10385706D01*
X26464977Y10385704D01*
X26464979Y10385704D01*
X26464981Y10385702D01*
X26663802Y10308679D01*
X26873390Y10269500D01*
X26873391Y10269500D01*
X27086609Y10269500D01*
X27086610Y10269500D01*
X27296198Y10308679D01*
X27495019Y10385702D01*
X27676302Y10497948D01*
X27833872Y10641593D01*
X27962366Y10811745D01*
X28057405Y11002611D01*
X28115756Y11207690D01*
X28135429Y11420000D01*
X28115756Y11632310D01*
X28057405Y11837389D01*
X27985938Y11980916D01*
X27962367Y12028254D01*
X27833870Y12198409D01*
X27676303Y12342051D01*
X27676299Y12342054D01*
X27495024Y12454295D01*
X27495022Y12454297D01*
X27296198Y12531321D01*
X27296194Y12531322D01*
X27086610Y12570500D01*
X26873390Y12570500D01*
X26873389Y12570500D01*
X26663805Y12531322D01*
X26663801Y12531321D01*
X26464977Y12454297D01*
X26464975Y12454295D01*
X26283700Y12342054D01*
X26283696Y12342051D01*
X26126129Y12198409D01*
X25997631Y12028252D01*
X25974062Y11980916D01*
X25926870Y11932842D01*
X25876489Y11920500D01*
X24185531Y11920500D01*
X24162362Y11922991D01*
X24156073Y11924359D01*
X24104062Y11920639D01*
X24100177Y11920500D01*
X24084197Y11920500D01*
X24068383Y11918227D01*
X24064518Y11917812D01*
X24012518Y11914092D01*
X24012514Y11914091D01*
X24006482Y11911841D01*
X23983923Y11906083D01*
X23977545Y11905166D01*
X23977539Y11905164D01*
X23930117Y11883507D01*
X23926522Y11882018D01*
X23877669Y11863796D01*
X23877663Y11863793D01*
X23872508Y11859934D01*
X23852489Y11848055D01*
X23846626Y11845377D01*
X23846625Y11845377D01*
X23807223Y11811236D01*
X23804197Y11808797D01*
X23791409Y11799223D01*
X23780103Y11787919D01*
X23777259Y11785271D01*
X23737855Y11751127D01*
X23737854Y11751126D01*
X23734375Y11745712D01*
X23719758Y11727574D01*
X22806426Y10814242D01*
X22788288Y10799625D01*
X22782874Y10796146D01*
X22782873Y10796145D01*
X22748729Y10756741D01*
X22746081Y10753897D01*
X22734777Y10742591D01*
X22725203Y10729803D01*
X22722764Y10726777D01*
X22688623Y10687375D01*
X22688623Y10687374D01*
X22685945Y10681511D01*
X22674066Y10661492D01*
X22670207Y10656337D01*
X22670204Y10656331D01*
X22651982Y10607478D01*
X22650493Y10603883D01*
X22628836Y10556461D01*
X22628834Y10556455D01*
X22627917Y10550077D01*
X22622159Y10527518D01*
X22619909Y10521486D01*
X22619908Y10521482D01*
X22616188Y10469482D01*
X22615773Y10465617D01*
X22613500Y10449803D01*
X22613500Y10433824D01*
X22613361Y10429939D01*
X22609641Y10377927D01*
X22611009Y10371637D01*
X22613500Y10348470D01*
X22613500Y10149500D01*
X22592683Y10085431D01*
X22538183Y10045835D01*
X22504500Y10040500D01*
X22219141Y10040500D01*
X22219120Y10040498D01*
X22194011Y10037586D01*
X22091234Y9992206D01*
X22011794Y9912766D01*
X21966415Y9809991D01*
X21963500Y9784866D01*
X21963500Y7995142D01*
X21300132Y7995142D01*
X21427872Y8111593D01*
X21556366Y8281745D01*
X21651405Y8472611D01*
X21709756Y8677690D01*
X21729429Y8890000D01*
X21709756Y9102310D01*
X21651405Y9307389D01*
X21556498Y9497990D01*
X21556367Y9498254D01*
X21513534Y9554973D01*
X21427872Y9668407D01*
X21270302Y9812052D01*
X21124498Y9902330D01*
X21089024Y9924295D01*
X21089022Y9924297D01*
X20890198Y10001321D01*
X20890194Y10001322D01*
X20680610Y10040500D01*
X20467390Y10040500D01*
X20467389Y10040500D01*
X20257805Y10001322D01*
X20257801Y10001321D01*
X20058977Y9924297D01*
X20058975Y9924295D01*
X19877700Y9812054D01*
X19877696Y9812051D01*
X19720129Y9668409D01*
X19591632Y9498254D01*
X19496594Y9307388D01*
X19438243Y9102310D01*
X19418571Y8890001D01*
X19418571Y8890000D01*
X18534000Y8890000D01*
X18534000Y8961889D01*
X18511065Y9040000D01*
X19175027Y9040000D01*
X19175027Y9040001D01*
X19169262Y9102217D01*
X19169261Y9102218D01*
X19110938Y9307205D01*
X19110936Y9307209D01*
X19015940Y9497990D01*
X18887499Y9668071D01*
X18730000Y9811651D01*
X18729997Y9811654D01*
X18548798Y9923846D01*
X18548786Y9923852D01*
X18350068Y10000836D01*
X18350058Y10000839D01*
X18184000Y10031881D01*
X18184000Y9371171D01*
X18176315Y9374680D01*
X18069763Y9390000D01*
X17998237Y9390000D01*
X17891685Y9374680D01*
X17884000Y9371171D01*
X17884000Y10031881D01*
X17883999Y10031881D01*
X17717941Y10000839D01*
X17717931Y10000836D01*
X17519213Y9923852D01*
X17519201Y9923846D01*
X17338002Y9811654D01*
X17337999Y9811651D01*
X17180500Y9668071D01*
X17052059Y9497990D01*
X16957063Y9307209D01*
X16957061Y9307205D01*
X16898738Y9102218D01*
X16898737Y9102217D01*
X16892972Y9040001D01*
X14171027Y9040001D01*
X14165262Y9102217D01*
X14165261Y9102218D01*
X14106938Y9307205D01*
X14106936Y9307209D01*
X14011940Y9497990D01*
X13883499Y9668071D01*
X13726000Y9811651D01*
X13725997Y9811654D01*
X13544798Y9923846D01*
X13544786Y9923852D01*
X13346068Y10000836D01*
X13346058Y10000839D01*
X13180000Y10031881D01*
X13180000Y9371171D01*
X13172315Y9374680D01*
X13065763Y9390000D01*
X12994237Y9390000D01*
X12887685Y9374680D01*
X12880000Y9371171D01*
X12880000Y10031881D01*
X12879999Y10031881D01*
X12713941Y10000839D01*
X12713931Y10000836D01*
X12515213Y9923852D01*
X12515201Y9923846D01*
X12334002Y9811654D01*
X12333999Y9811651D01*
X12176500Y9668071D01*
X12048059Y9497990D01*
X11953063Y9307209D01*
X11953061Y9307205D01*
X11894738Y9102218D01*
X11894737Y9102217D01*
X11888972Y9040001D01*
X11631530Y9040001D01*
X11625756Y9102310D01*
X11567405Y9307389D01*
X11472498Y9497990D01*
X11472367Y9498254D01*
X11429534Y9554973D01*
X11343872Y9668407D01*
X11186302Y9812052D01*
X11092117Y9870370D01*
X11048605Y9921796D01*
X11040500Y9963042D01*
X11040500Y13960000D01*
X25824571Y13960000D01*
X25844243Y13747691D01*
X25902594Y13542613D01*
X25997632Y13351747D01*
X25997634Y13351745D01*
X26126128Y13181593D01*
X26283698Y13037948D01*
X26283700Y13037947D01*
X26464975Y12925706D01*
X26464977Y12925704D01*
X26464979Y12925704D01*
X26464981Y12925702D01*
X26663802Y12848679D01*
X26873390Y12809500D01*
X26873391Y12809500D01*
X27086609Y12809500D01*
X27086610Y12809500D01*
X27296198Y12848679D01*
X27495019Y12925702D01*
X27676302Y13037948D01*
X27833872Y13181593D01*
X27962366Y13351745D01*
X28057405Y13542611D01*
X28115756Y13747690D01*
X28135429Y13960000D01*
X28115756Y14172310D01*
X28057405Y14377389D01*
X28010082Y14472427D01*
X27962367Y14568254D01*
X27833870Y14738409D01*
X27676303Y14882051D01*
X27676299Y14882054D01*
X27495024Y14994295D01*
X27495022Y14994297D01*
X27296198Y15071321D01*
X27296194Y15071322D01*
X27086610Y15110500D01*
X26873390Y15110500D01*
X26873389Y15110500D01*
X26663805Y15071322D01*
X26663801Y15071321D01*
X26464977Y14994297D01*
X26464975Y14994295D01*
X26283700Y14882054D01*
X26283696Y14882051D01*
X26126129Y14738409D01*
X25997632Y14568254D01*
X25902594Y14377388D01*
X25844243Y14172310D01*
X25824571Y13960001D01*
X25824571Y13960000D01*
X11040500Y13960000D01*
X11040500Y16500000D01*
X25824571Y16500000D01*
X25844243Y16287691D01*
X25902594Y16082613D01*
X25997632Y15891747D01*
X25997634Y15891745D01*
X26126128Y15721593D01*
X26283698Y15577948D01*
X26283700Y15577947D01*
X26464975Y15465706D01*
X26464977Y15465704D01*
X26464979Y15465704D01*
X26464981Y15465702D01*
X26663802Y15388679D01*
X26873390Y15349500D01*
X26873391Y15349500D01*
X27086609Y15349500D01*
X27086610Y15349500D01*
X27296198Y15388679D01*
X27495019Y15465702D01*
X27676302Y15577948D01*
X27833872Y15721593D01*
X27962366Y15891745D01*
X28057405Y16082611D01*
X28115756Y16287690D01*
X28135429Y16500000D01*
X28115756Y16712310D01*
X28057405Y16917389D01*
X28010082Y17012427D01*
X27962367Y17108254D01*
X27833870Y17278409D01*
X27676303Y17422051D01*
X27676299Y17422054D01*
X27495024Y17534295D01*
X27495022Y17534297D01*
X27296198Y17611321D01*
X27296194Y17611322D01*
X27086610Y17650500D01*
X26873390Y17650500D01*
X26873389Y17650500D01*
X26663805Y17611322D01*
X26663801Y17611321D01*
X26464977Y17534297D01*
X26464975Y17534295D01*
X26283700Y17422054D01*
X26283696Y17422051D01*
X26126129Y17278409D01*
X25997632Y17108254D01*
X25902594Y16917388D01*
X25844243Y16712310D01*
X25824571Y16500001D01*
X25824571Y16500000D01*
X11040500Y16500000D01*
X11040500Y19190001D01*
X25838972Y19190001D01*
X25838973Y19190000D01*
X26502935Y19190000D01*
X26480000Y19111889D01*
X26480000Y18968111D01*
X26502935Y18890000D01*
X25838973Y18890000D01*
X25844737Y18827784D01*
X25844738Y18827783D01*
X25903061Y18622796D01*
X25903063Y18622792D01*
X25998059Y18432011D01*
X26126500Y18261930D01*
X26283999Y18118350D01*
X26284002Y18118347D01*
X26465201Y18006155D01*
X26465213Y18006149D01*
X26663929Y17929166D01*
X26663942Y17929162D01*
X26830000Y17898121D01*
X26830000Y18558830D01*
X26837685Y18555320D01*
X26944237Y18540000D01*
X27015763Y18540000D01*
X27122315Y18555320D01*
X27130000Y18558830D01*
X27130000Y17898122D01*
X27296057Y17929162D01*
X27296070Y17929166D01*
X27494786Y18006149D01*
X27494798Y18006155D01*
X27675997Y18118347D01*
X27676000Y18118350D01*
X27833499Y18261930D01*
X27961940Y18432011D01*
X28056936Y18622792D01*
X28056938Y18622796D01*
X28115261Y18827783D01*
X28115262Y18827784D01*
X28121027Y18890000D01*
X27457065Y18890000D01*
X27480000Y18968111D01*
X27480000Y19111889D01*
X27457065Y19190000D01*
X28121027Y19190000D01*
X28121027Y19190001D01*
X28115262Y19252217D01*
X28115261Y19252218D01*
X28056938Y19457205D01*
X28056936Y19457209D01*
X27961940Y19647990D01*
X27833499Y19818071D01*
X27676000Y19961651D01*
X27675997Y19961654D01*
X27494798Y20073846D01*
X27494786Y20073852D01*
X27296068Y20150836D01*
X27296058Y20150839D01*
X27130000Y20181881D01*
X27130000Y19521171D01*
X27122315Y19524680D01*
X27015763Y19540000D01*
X26944237Y19540000D01*
X26837685Y19524680D01*
X26830000Y19521171D01*
X26830000Y20181881D01*
X26829999Y20181881D01*
X26663941Y20150839D01*
X26663931Y20150836D01*
X26465213Y20073852D01*
X26465201Y20073846D01*
X26284002Y19961654D01*
X26283999Y19961651D01*
X26126500Y19818071D01*
X25998059Y19647990D01*
X25903063Y19457209D01*
X25903061Y19457205D01*
X25844738Y19252218D01*
X25844737Y19252217D01*
X25838972Y19190001D01*
X11040500Y19190001D01*
X11040500Y21580000D01*
X25824571Y21580000D01*
X25844243Y21367691D01*
X25902594Y21162613D01*
X25997632Y20971747D01*
X25997634Y20971745D01*
X26126128Y20801593D01*
X26283698Y20657948D01*
X26283700Y20657947D01*
X26464975Y20545706D01*
X26464977Y20545704D01*
X26464979Y20545704D01*
X26464981Y20545702D01*
X26663802Y20468679D01*
X26873390Y20429500D01*
X26873391Y20429500D01*
X27086609Y20429500D01*
X27086610Y20429500D01*
X27296198Y20468679D01*
X27495019Y20545702D01*
X27676302Y20657948D01*
X27833872Y20801593D01*
X27962366Y20971745D01*
X28057405Y21162611D01*
X28115756Y21367690D01*
X28135429Y21580000D01*
X28115756Y21792310D01*
X28057405Y21997389D01*
X28010082Y22092427D01*
X27962367Y22188254D01*
X27833870Y22358409D01*
X27676303Y22502051D01*
X27676299Y22502054D01*
X27495024Y22614295D01*
X27495022Y22614297D01*
X27296198Y22691321D01*
X27296194Y22691322D01*
X27086610Y22730500D01*
X26873390Y22730500D01*
X26873389Y22730500D01*
X26663805Y22691322D01*
X26663801Y22691321D01*
X26464977Y22614297D01*
X26464975Y22614295D01*
X26283700Y22502054D01*
X26283696Y22502051D01*
X26126129Y22358409D01*
X25997632Y22188254D01*
X25902594Y21997388D01*
X25844243Y21792310D01*
X25824571Y21580001D01*
X25824571Y21580000D01*
X11040500Y21580000D01*
X11040500Y23079404D01*
X11042762Y23145621D01*
X11042761Y23145623D01*
X11042762Y23145626D01*
X11032188Y23189011D01*
X11031149Y23194483D01*
X11025070Y23238717D01*
X11025070Y23238720D01*
X11017410Y23256353D01*
X11011484Y23273976D01*
X11006933Y23292652D01*
X10985052Y23331567D01*
X10982568Y23336569D01*
X10964780Y23377519D01*
X10964780Y23377520D01*
X10952645Y23392435D01*
X10942188Y23407799D01*
X10932765Y23424559D01*
X10901194Y23456130D01*
X10897454Y23460275D01*
X10869278Y23494908D01*
X10869276Y23494910D01*
X10853570Y23505996D01*
X10839353Y23517971D01*
X10237324Y24120000D01*
X25824571Y24120000D01*
X25844243Y23907691D01*
X25902594Y23702613D01*
X25997632Y23511747D01*
X26038143Y23458103D01*
X26126128Y23341593D01*
X26283698Y23197948D01*
X26464259Y23086149D01*
X26464975Y23085706D01*
X26464977Y23085704D01*
X26464979Y23085704D01*
X26464981Y23085702D01*
X26663802Y23008679D01*
X26873390Y22969500D01*
X26873391Y22969500D01*
X27086609Y22969500D01*
X27086610Y22969500D01*
X27296198Y23008679D01*
X27495019Y23085702D01*
X27676302Y23197948D01*
X27833872Y23341593D01*
X27962366Y23511745D01*
X28057405Y23702611D01*
X28115756Y23907690D01*
X28135429Y24120000D01*
X28115756Y24332310D01*
X28057405Y24537389D01*
X27962498Y24727990D01*
X27962367Y24728254D01*
X27919534Y24784973D01*
X27833872Y24898407D01*
X27676302Y25042052D01*
X27495024Y25154295D01*
X27495022Y25154297D01*
X27296198Y25231321D01*
X27296194Y25231322D01*
X27086610Y25270500D01*
X26873390Y25270500D01*
X26873389Y25270500D01*
X26663805Y25231322D01*
X26663801Y25231321D01*
X26464977Y25154297D01*
X26464975Y25154295D01*
X26283700Y25042054D01*
X26283696Y25042051D01*
X26126129Y24898409D01*
X25997632Y24728254D01*
X25902594Y24537388D01*
X25844243Y24332310D01*
X25824571Y24120001D01*
X25824571Y24120000D01*
X10237324Y24120000D01*
X7697326Y26660000D01*
X25824571Y26660000D01*
X25844243Y26447691D01*
X25902594Y26242613D01*
X25997632Y26051747D01*
X25997634Y26051745D01*
X26126128Y25881593D01*
X26283698Y25737948D01*
X26283700Y25737947D01*
X26464975Y25625706D01*
X26464977Y25625704D01*
X26464979Y25625704D01*
X26464981Y25625702D01*
X26663802Y25548679D01*
X26873390Y25509500D01*
X26873391Y25509500D01*
X27086609Y25509500D01*
X27086610Y25509500D01*
X27296198Y25548679D01*
X27495019Y25625702D01*
X27676302Y25737948D01*
X27833872Y25881593D01*
X27962366Y26051745D01*
X28057405Y26242611D01*
X28115756Y26447690D01*
X28135429Y26660000D01*
X28115756Y26872310D01*
X28057405Y27077389D01*
X27996414Y27199877D01*
X27962367Y27268254D01*
X27833870Y27438409D01*
X27676303Y27582051D01*
X27676299Y27582054D01*
X27495024Y27694295D01*
X27495022Y27694297D01*
X27296198Y27771321D01*
X27296194Y27771322D01*
X27086610Y27810500D01*
X26873390Y27810500D01*
X26873389Y27810500D01*
X26663805Y27771322D01*
X26663801Y27771321D01*
X26464977Y27694297D01*
X26464975Y27694295D01*
X26283700Y27582054D01*
X26283696Y27582051D01*
X26126129Y27438409D01*
X25997632Y27268254D01*
X25902594Y27077388D01*
X25844243Y26872310D01*
X25824571Y26660001D01*
X25824571Y26660000D01*
X7697326Y26660000D01*
X7314708Y27042618D01*
X7269482Y27091042D01*
X7269481Y27091043D01*
X7269480Y27091044D01*
X7269476Y27091047D01*
X7269474Y27091048D01*
X7231336Y27114240D01*
X7226721Y27117382D01*
X7191146Y27144358D01*
X7191140Y27144362D01*
X7173249Y27151418D01*
X7156611Y27159682D01*
X7140180Y27169673D01*
X7097187Y27181720D01*
X7091896Y27183499D01*
X7050365Y27199876D01*
X7050360Y27199877D01*
X7031235Y27201844D01*
X7012984Y27205313D01*
X6994469Y27210500D01*
X6994465Y27210500D01*
X6949824Y27210500D01*
X6944247Y27210786D01*
X6912595Y27214040D01*
X6899828Y27215352D01*
X6899827Y27215352D01*
X6899826Y27215352D01*
X6880880Y27212085D01*
X6862359Y27210500D01*
X5193415Y27210500D01*
X5129346Y27231317D01*
X5101061Y27264742D01*
X5099818Y27263972D01*
X5097168Y27268252D01*
X4968670Y27438409D01*
X4811103Y27582051D01*
X4811099Y27582054D01*
X4629824Y27694295D01*
X4629822Y27694297D01*
X4430998Y27771321D01*
X4430994Y27771322D01*
X4221410Y27810500D01*
X4008190Y27810500D01*
X4008189Y27810500D01*
X3798605Y27771322D01*
X3798601Y27771321D01*
X3599777Y27694297D01*
X3599775Y27694295D01*
X3418500Y27582054D01*
X3418496Y27582051D01*
X3260929Y27438409D01*
X3132432Y27268254D01*
X3037394Y27077388D01*
X2979043Y26872310D01*
X2959371Y26660001D01*
X2959371Y26660000D01*
X313823Y26660000D01*
X313823Y36575997D01*
X12856318Y36575997D01*
X12876955Y36419241D01*
X12937465Y36273157D01*
X13033713Y36147724D01*
X13033718Y36147718D01*
X13159159Y36051464D01*
X13305238Y35990956D01*
X13357492Y35984077D01*
X13461996Y35970318D01*
X13462000Y35970318D01*
X13462004Y35970318D01*
X13551578Y35982112D01*
X13618762Y35990956D01*
X13764841Y36051464D01*
X13831973Y36102977D01*
X13895475Y36125463D01*
X13898328Y36125500D01*
X23465072Y36125500D01*
X23529141Y36104683D01*
X23531425Y36102977D01*
X23598559Y36051464D01*
X23744638Y35990956D01*
X23796892Y35984077D01*
X23901396Y35970318D01*
X23901400Y35970318D01*
X23901404Y35970318D01*
X23990978Y35982112D01*
X24058162Y35990956D01*
X24204241Y36051464D01*
X24329682Y36147718D01*
X24425936Y36273159D01*
X24486444Y36419238D01*
X24507082Y36576000D01*
X24507082Y36576004D01*
X24486444Y36732760D01*
X24486444Y36732762D01*
X24425936Y36878841D01*
X24329682Y37004282D01*
X24329677Y37004286D01*
X24329676Y37004287D01*
X24204243Y37100535D01*
X24204241Y37100536D01*
X24058162Y37161044D01*
X24058161Y37161045D01*
X24058159Y37161045D01*
X23901404Y37181682D01*
X23901396Y37181682D01*
X23744640Y37161045D01*
X23598558Y37100536D01*
X23531427Y37049024D01*
X23467925Y37026537D01*
X23465072Y37026500D01*
X13898328Y37026500D01*
X13834259Y37047317D01*
X13831973Y37049024D01*
X13764841Y37100536D01*
X13618762Y37161044D01*
X13618761Y37161045D01*
X13618759Y37161045D01*
X13462004Y37181682D01*
X13461996Y37181682D01*
X13305240Y37161045D01*
X13159156Y37100535D01*
X13033723Y37004287D01*
X13033713Y37004277D01*
X12937465Y36878844D01*
X12876955Y36732760D01*
X12856318Y36576004D01*
X12856318Y36575997D01*
X313823Y36575997D01*
X313823Y41147997D01*
X12856318Y41147997D01*
X12876955Y40991241D01*
X12876955Y40991239D01*
X12876956Y40991238D01*
X12937464Y40845159D01*
X12937465Y40845157D01*
X13033713Y40719724D01*
X13033718Y40719718D01*
X13159159Y40623464D01*
X13305238Y40562956D01*
X13357492Y40556077D01*
X13461996Y40542318D01*
X13462000Y40542318D01*
X13462004Y40542318D01*
X13551578Y40554112D01*
X13618762Y40562956D01*
X13764841Y40623464D01*
X13890282Y40719718D01*
X13986536Y40845159D01*
X14047044Y40991238D01*
X14058088Y41075133D01*
X14087090Y41135934D01*
X14089044Y41137942D01*
X15582188Y42631086D01*
X15642210Y42661667D01*
X15700973Y42654712D01*
X15758017Y42631084D01*
X15845238Y42594956D01*
X15876590Y42590829D01*
X16001996Y42574318D01*
X16002000Y42574318D01*
X16002004Y42574318D01*
X16091578Y42586112D01*
X16158762Y42594956D01*
X16304841Y42655464D01*
X16430282Y42751718D01*
X16526536Y42877159D01*
X16587044Y43023238D01*
X16607682Y43180000D01*
X16607682Y43180004D01*
X16587044Y43336760D01*
X16587044Y43336762D01*
X16526536Y43482841D01*
X16473225Y43552317D01*
X16430286Y43608277D01*
X16430285Y43608278D01*
X16430282Y43608282D01*
X16430277Y43608286D01*
X16430276Y43608287D01*
X16304843Y43704535D01*
X16304841Y43704536D01*
X16158762Y43765044D01*
X16158761Y43765045D01*
X16158759Y43765045D01*
X16002004Y43785682D01*
X16001996Y43785682D01*
X15845240Y43765045D01*
X15699158Y43704536D01*
X15632027Y43653024D01*
X15568525Y43630537D01*
X15565672Y43630500D01*
X15522367Y43630500D01*
X15516261Y43630843D01*
X15476966Y43635270D01*
X15476963Y43635270D01*
X15418520Y43624212D01*
X15359715Y43615349D01*
X15351906Y43612940D01*
X15351729Y43613511D01*
X15351043Y43613286D01*
X15351241Y43612722D01*
X15343528Y43610023D01*
X15290926Y43582223D01*
X15237356Y43556425D01*
X15230610Y43551826D01*
X15230275Y43552317D01*
X15229675Y43551891D01*
X15230028Y43551413D01*
X15223464Y43546569D01*
X15181400Y43504505D01*
X15137808Y43464058D01*
X15132715Y43457671D01*
X15132248Y43458044D01*
X15123367Y43446473D01*
X13451977Y41775082D01*
X13391953Y41744499D01*
X13389130Y41744090D01*
X13305243Y41733046D01*
X13305238Y41733045D01*
X13159156Y41672535D01*
X13033723Y41576287D01*
X13033713Y41576277D01*
X12937465Y41450844D01*
X12876955Y41304760D01*
X12856318Y41148004D01*
X12856318Y41147997D01*
X313823Y41147997D01*
X313823Y49521479D01*
X313889Y49524153D01*
X321585Y49680804D01*
X325887Y49763070D01*
X333088Y49900757D01*
X333598Y49905853D01*
X361050Y50090909D01*
X371649Y50157823D01*
X1982680Y50157823D01*
X1988561Y50086844D01*
X1990699Y50061049D01*
X1990885Y50056546D01*
X1990885Y50033739D01*
X1994637Y50011250D01*
X1995194Y50006782D01*
X2000645Y49941011D01*
X2003215Y49910002D01*
X2003216Y49909999D01*
X2027052Y49815868D01*
X2027976Y49811461D01*
X2031728Y49788976D01*
X2031732Y49788960D01*
X2039139Y49767382D01*
X2040424Y49763066D01*
X2064258Y49668948D01*
X2064260Y49668943D01*
X2103261Y49580028D01*
X2104899Y49575831D01*
X2112308Y49554248D01*
X2112311Y49554243D01*
X2123168Y49534180D01*
X2125147Y49530132D01*
X2164150Y49441216D01*
X2217253Y49359935D01*
X2219560Y49356064D01*
X2230422Y49335993D01*
X2244431Y49317995D01*
X2247049Y49314328D01*
X2300158Y49233039D01*
X2365918Y49161605D01*
X2368830Y49158167D01*
X2382843Y49140163D01*
X2382844Y49140162D01*
X2382846Y49140160D01*
X2394149Y49129755D01*
X2399618Y49124720D01*
X2402804Y49121534D01*
X2468572Y49050092D01*
X2468574Y49050090D01*
X2468579Y49050085D01*
X2501259Y49024649D01*
X2545205Y48990444D01*
X2548644Y48987532D01*
X2565425Y48972084D01*
X2584521Y48959608D01*
X2588182Y48956994D01*
X2618564Y48933347D01*
X2664814Y48897349D01*
X2750228Y48851125D01*
X2754065Y48848839D01*
X2773178Y48836352D01*
X2794093Y48827178D01*
X2798096Y48825220D01*
X2883513Y48778995D01*
X2975357Y48747465D01*
X2979532Y48745837D01*
X2993670Y48739635D01*
X3000436Y48736667D01*
X3000437Y48736667D01*
X3000439Y48736666D01*
X3022561Y48731064D01*
X3026850Y48729788D01*
X3118709Y48698252D01*
X3214502Y48682268D01*
X3218882Y48681350D01*
X3241008Y48675746D01*
X3263762Y48673861D01*
X3268193Y48673308D01*
X3363988Y48657323D01*
X3363989Y48657323D01*
X3461072Y48657323D01*
X3465574Y48657137D01*
X3467978Y48656938D01*
X3488323Y48655252D01*
X3508667Y48656938D01*
X3511072Y48657137D01*
X3515574Y48657323D01*
X3612657Y48657323D01*
X3612658Y48657323D01*
X3708469Y48673311D01*
X3712871Y48673860D01*
X3732416Y48675480D01*
X3735629Y48675745D01*
X3735632Y48675746D01*
X3735638Y48675746D01*
X3757759Y48681348D01*
X3762129Y48682265D01*
X3857937Y48698252D01*
X3949791Y48729786D01*
X3954088Y48731065D01*
X3976207Y48736666D01*
X3976208Y48736667D01*
X3976210Y48736667D01*
X3981292Y48738897D01*
X3997112Y48745836D01*
X4001263Y48747457D01*
X4093133Y48778995D01*
X4178566Y48825230D01*
X4182543Y48827174D01*
X4203468Y48836352D01*
X4222597Y48848850D01*
X4226388Y48851110D01*
X4311832Y48897349D01*
X4388472Y48957002D01*
X4392107Y48959597D01*
X4411221Y48972084D01*
X4428017Y48987547D01*
X4431412Y48990423D01*
X4508067Y49050085D01*
X4573845Y49121540D01*
X4577006Y49124701D01*
X4593800Y49140160D01*
X4607817Y49158171D01*
X4610716Y49161593D01*
X4676487Y49233038D01*
X4729604Y49314342D01*
X4732194Y49317969D01*
X4746225Y49335995D01*
X4757094Y49356080D01*
X4759375Y49359910D01*
X4812496Y49441216D01*
X4851508Y49530157D01*
X4853464Y49534156D01*
X4864337Y49554247D01*
X4871760Y49575872D01*
X4873361Y49579976D01*
X4912386Y49668942D01*
X4936225Y49763083D01*
X4937501Y49767369D01*
X4943210Y49783997D01*
X18698318Y49783997D01*
X18718955Y49627241D01*
X18718955Y49627239D01*
X18718956Y49627238D01*
X18749190Y49554247D01*
X18779465Y49481157D01*
X18875713Y49355724D01*
X18875718Y49355718D01*
X18875722Y49355715D01*
X18875723Y49355714D01*
X18929658Y49314328D01*
X19001159Y49259464D01*
X19147238Y49198956D01*
X19171915Y49195708D01*
X19231129Y49187911D01*
X19291933Y49158910D01*
X19293977Y49156919D01*
X19837575Y48613322D01*
X19868158Y48553298D01*
X19869500Y48536247D01*
X19869500Y40568328D01*
X19848683Y40504259D01*
X19846976Y40501973D01*
X19795464Y40434842D01*
X19734955Y40288760D01*
X19714318Y40132004D01*
X19714318Y40131997D01*
X19734955Y39975241D01*
X19795465Y39829157D01*
X19891713Y39703724D01*
X19891718Y39703718D01*
X20017159Y39607464D01*
X20163238Y39546956D01*
X20215492Y39540077D01*
X20319996Y39526318D01*
X20320000Y39526318D01*
X20320004Y39526318D01*
X20409578Y39538112D01*
X20476762Y39546956D01*
X20622841Y39607464D01*
X20748282Y39703718D01*
X20844536Y39829159D01*
X20905044Y39975238D01*
X20925682Y40132000D01*
X20925682Y40132004D01*
X20905044Y40288760D01*
X20905044Y40288762D01*
X20844536Y40434841D01*
X20793023Y40501974D01*
X20770537Y40565475D01*
X20770500Y40568328D01*
X20770500Y48739635D01*
X20770843Y48745741D01*
X20774589Y48778995D01*
X20775270Y48785035D01*
X20764211Y48843480D01*
X20755348Y48902287D01*
X20755346Y48902290D01*
X20752940Y48910092D01*
X20753513Y48910270D01*
X20753287Y48910958D01*
X20752721Y48910759D01*
X20750024Y48918467D01*
X20750023Y48918472D01*
X20722222Y48971073D01*
X20696425Y49024642D01*
X20696423Y49024644D01*
X20696421Y49024649D01*
X20691823Y49031394D01*
X20692315Y49031731D01*
X20691895Y49032322D01*
X20691415Y49031967D01*
X20686567Y49038535D01*
X20686566Y49038538D01*
X20644504Y49080600D01*
X20604055Y49124194D01*
X20604054Y49124195D01*
X20604051Y49124198D01*
X20597670Y49129287D01*
X20598042Y49129755D01*
X20586467Y49138637D01*
X19931081Y49794023D01*
X19900498Y49854047D01*
X19900089Y49856871D01*
X19889044Y49940760D01*
X19889044Y49940762D01*
X19828536Y50086841D01*
X19774070Y50157823D01*
X26112680Y50157823D01*
X26118561Y50086844D01*
X26120699Y50061049D01*
X26120885Y50056546D01*
X26120885Y50033739D01*
X26124637Y50011250D01*
X26125194Y50006782D01*
X26130645Y49941011D01*
X26133215Y49910002D01*
X26133216Y49909999D01*
X26157052Y49815868D01*
X26157976Y49811461D01*
X26161728Y49788976D01*
X26161732Y49788960D01*
X26169139Y49767382D01*
X26170424Y49763066D01*
X26194258Y49668948D01*
X26194260Y49668943D01*
X26233261Y49580028D01*
X26234899Y49575831D01*
X26242308Y49554248D01*
X26242311Y49554243D01*
X26253168Y49534180D01*
X26255147Y49530132D01*
X26294150Y49441216D01*
X26347253Y49359935D01*
X26349560Y49356064D01*
X26360422Y49335993D01*
X26374431Y49317995D01*
X26377049Y49314328D01*
X26430158Y49233039D01*
X26495918Y49161605D01*
X26498830Y49158167D01*
X26512843Y49140163D01*
X26512844Y49140162D01*
X26512846Y49140160D01*
X26524149Y49129755D01*
X26529618Y49124720D01*
X26532804Y49121534D01*
X26598572Y49050092D01*
X26598574Y49050090D01*
X26598579Y49050085D01*
X26631259Y49024649D01*
X26675205Y48990444D01*
X26678644Y48987532D01*
X26695425Y48972084D01*
X26714521Y48959608D01*
X26718182Y48956994D01*
X26748564Y48933347D01*
X26794814Y48897349D01*
X26880228Y48851125D01*
X26884065Y48848839D01*
X26903178Y48836352D01*
X26924093Y48827178D01*
X26928096Y48825220D01*
X27013513Y48778995D01*
X27105357Y48747465D01*
X27109532Y48745837D01*
X27123670Y48739635D01*
X27130436Y48736667D01*
X27130437Y48736667D01*
X27130439Y48736666D01*
X27152561Y48731064D01*
X27156850Y48729788D01*
X27248709Y48698252D01*
X27344502Y48682268D01*
X27348882Y48681350D01*
X27371008Y48675746D01*
X27393762Y48673861D01*
X27398193Y48673308D01*
X27493988Y48657323D01*
X27493989Y48657323D01*
X27591072Y48657323D01*
X27595574Y48657137D01*
X27597978Y48656938D01*
X27618323Y48655252D01*
X27638667Y48656938D01*
X27641072Y48657137D01*
X27645574Y48657323D01*
X27742657Y48657323D01*
X27742658Y48657323D01*
X27838469Y48673311D01*
X27842871Y48673860D01*
X27862416Y48675480D01*
X27865629Y48675745D01*
X27865632Y48675746D01*
X27865638Y48675746D01*
X27887759Y48681348D01*
X27892129Y48682265D01*
X27987937Y48698252D01*
X28079791Y48729786D01*
X28084088Y48731065D01*
X28106207Y48736666D01*
X28106208Y48736667D01*
X28106210Y48736667D01*
X28111292Y48738897D01*
X28127112Y48745836D01*
X28131263Y48747457D01*
X28223133Y48778995D01*
X28308566Y48825230D01*
X28312543Y48827174D01*
X28333468Y48836352D01*
X28352597Y48848850D01*
X28356388Y48851110D01*
X28441832Y48897349D01*
X28518472Y48957002D01*
X28522107Y48959597D01*
X28541221Y48972084D01*
X28558017Y48987547D01*
X28561412Y48990423D01*
X28638067Y49050085D01*
X28703845Y49121540D01*
X28707006Y49124701D01*
X28723800Y49140160D01*
X28737817Y49158171D01*
X28740716Y49161593D01*
X28806487Y49233038D01*
X28859604Y49314342D01*
X28862194Y49317969D01*
X28876225Y49335995D01*
X28887094Y49356080D01*
X28889375Y49359910D01*
X28942496Y49441216D01*
X28981508Y49530157D01*
X28983464Y49534156D01*
X28994337Y49554247D01*
X29001760Y49575872D01*
X29003361Y49579976D01*
X29042386Y49668942D01*
X29066225Y49763083D01*
X29067501Y49767369D01*
X29074915Y49788964D01*
X29078671Y49811479D01*
X29079587Y49815849D01*
X29103431Y49910002D01*
X29111451Y50006795D01*
X29112005Y50011238D01*
X29115761Y50033742D01*
X29116415Y50065440D01*
X29116590Y50068806D01*
X29118084Y50086841D01*
X29123966Y50157823D01*
X29116590Y50246842D01*
X29116415Y50250218D01*
X29115761Y50281904D01*
X29112006Y50304403D01*
X29111450Y50308864D01*
X29103431Y50405644D01*
X29079589Y50499791D01*
X29078669Y50504185D01*
X29074915Y50526682D01*
X29067505Y50548267D01*
X29066224Y50552570D01*
X29066223Y50552575D01*
X29042386Y50646704D01*
X29003378Y50735632D01*
X29001749Y50739809D01*
X28994337Y50761399D01*
X28994334Y50761405D01*
X28983474Y50781474D01*
X28981495Y50785522D01*
X28956699Y50842050D01*
X28942496Y50874430D01*
X28889382Y50955727D01*
X28887093Y50959568D01*
X28876225Y50979651D01*
X28862206Y50997662D01*
X28859598Y51001315D01*
X28806487Y51082608D01*
X28740719Y51154051D01*
X28737815Y51157480D01*
X28723800Y51175486D01*
X28707017Y51190936D01*
X28703834Y51194120D01*
X28638073Y51265555D01*
X28638069Y51265558D01*
X28638067Y51265561D01*
X28561439Y51325203D01*
X28558007Y51328110D01*
X28550019Y51335463D01*
X28541221Y51343562D01*
X28541218Y51343564D01*
X28541217Y51343565D01*
X28522117Y51356044D01*
X28518461Y51358654D01*
X28441835Y51418295D01*
X28441834Y51418296D01*
X28356429Y51464515D01*
X28352558Y51466822D01*
X28333474Y51479290D01*
X28333468Y51479294D01*
X28312581Y51488456D01*
X28308539Y51490432D01*
X28223133Y51536651D01*
X28223132Y51536652D01*
X28131291Y51568181D01*
X28127096Y51569818D01*
X28106210Y51578979D01*
X28106208Y51578980D01*
X28084091Y51584582D01*
X28079776Y51585867D01*
X27987944Y51617393D01*
X27987938Y51617394D01*
X27892162Y51633376D01*
X27887754Y51634300D01*
X27865636Y51639901D01*
X27842893Y51641786D01*
X27838425Y51642343D01*
X27809369Y51647191D01*
X27742658Y51658323D01*
X27645562Y51658323D01*
X27641060Y51658509D01*
X27618323Y51660393D01*
X27595586Y51658509D01*
X27591084Y51658323D01*
X27493988Y51658323D01*
X27447144Y51650507D01*
X27398219Y51642343D01*
X27393751Y51641786D01*
X27371008Y51639901D01*
X27371006Y51639900D01*
X27348892Y51634301D01*
X27344484Y51633376D01*
X27248707Y51617394D01*
X27248705Y51617394D01*
X27156874Y51585868D01*
X27152559Y51584583D01*
X27130435Y51578979D01*
X27109557Y51569821D01*
X27105361Y51568184D01*
X27013515Y51536652D01*
X27013508Y51536649D01*
X26928113Y51490436D01*
X26924067Y51488458D01*
X26903180Y51479296D01*
X26884078Y51466817D01*
X26880209Y51464512D01*
X26794824Y51418304D01*
X26794811Y51418295D01*
X26718180Y51358653D01*
X26714516Y51356036D01*
X26695421Y51343560D01*
X26678638Y51328112D01*
X26675204Y51325203D01*
X26598581Y51265564D01*
X26598571Y51265554D01*
X26532809Y51194119D01*
X26529626Y51190936D01*
X26512849Y51175490D01*
X26498839Y51157490D01*
X26495928Y51154054D01*
X26430159Y51082609D01*
X26430155Y51082603D01*
X26377050Y51001323D01*
X26374436Y50997661D01*
X26360421Y50979652D01*
X26349563Y50959590D01*
X26347259Y50955722D01*
X26294150Y50874432D01*
X26255144Y50785509D01*
X26253166Y50781463D01*
X26242309Y50761400D01*
X26234897Y50739809D01*
X26233259Y50735613D01*
X26194263Y50646714D01*
X26194255Y50646691D01*
X26170422Y50552575D01*
X26169137Y50548259D01*
X26161731Y50526686D01*
X26157976Y50504185D01*
X26157052Y50499778D01*
X26133215Y50405647D01*
X26125194Y50308864D01*
X26124637Y50304396D01*
X26120885Y50281908D01*
X26120885Y50259102D01*
X26120699Y50254600D01*
X26117192Y50212277D01*
X26112680Y50157823D01*
X19774070Y50157823D01*
X19732282Y50212282D01*
X19732277Y50212286D01*
X19732276Y50212287D01*
X19606843Y50308535D01*
X19606049Y50308864D01*
X19460762Y50369044D01*
X19460761Y50369045D01*
X19460759Y50369045D01*
X19304004Y50389682D01*
X19303996Y50389682D01*
X19147240Y50369045D01*
X19001156Y50308535D01*
X18875723Y50212287D01*
X18875713Y50212277D01*
X18779465Y50086844D01*
X18718955Y49940760D01*
X18698318Y49784004D01*
X18698318Y49783997D01*
X4943210Y49783997D01*
X4944915Y49788964D01*
X4948671Y49811479D01*
X4949587Y49815849D01*
X4973431Y49910002D01*
X4981451Y50006795D01*
X4982005Y50011238D01*
X4985761Y50033742D01*
X4986415Y50065440D01*
X4986590Y50068806D01*
X4988084Y50086841D01*
X4993966Y50157823D01*
X4986590Y50246842D01*
X4986415Y50250218D01*
X4985761Y50281904D01*
X4982006Y50304403D01*
X4981450Y50308864D01*
X4973431Y50405644D01*
X4949589Y50499791D01*
X4948669Y50504185D01*
X4944915Y50526682D01*
X4937505Y50548267D01*
X4936224Y50552570D01*
X4936223Y50552575D01*
X4912386Y50646704D01*
X4873378Y50735632D01*
X4871749Y50739809D01*
X4864337Y50761399D01*
X4864334Y50761405D01*
X4853474Y50781474D01*
X4851495Y50785522D01*
X4826699Y50842050D01*
X4812496Y50874430D01*
X4759382Y50955727D01*
X4757093Y50959568D01*
X4746225Y50979651D01*
X4732206Y50997662D01*
X4729598Y51001315D01*
X4676487Y51082608D01*
X4610719Y51154051D01*
X4607815Y51157480D01*
X4593800Y51175486D01*
X4577017Y51190936D01*
X4573834Y51194120D01*
X4508073Y51265555D01*
X4508069Y51265558D01*
X4508067Y51265561D01*
X4431439Y51325203D01*
X4428007Y51328110D01*
X4420019Y51335463D01*
X4411221Y51343562D01*
X4411218Y51343564D01*
X4411217Y51343565D01*
X4392117Y51356044D01*
X4388461Y51358654D01*
X4311835Y51418295D01*
X4311834Y51418296D01*
X4226429Y51464515D01*
X4222558Y51466822D01*
X4203474Y51479290D01*
X4203468Y51479294D01*
X4182581Y51488456D01*
X4178539Y51490432D01*
X4093133Y51536651D01*
X4093132Y51536652D01*
X4001291Y51568181D01*
X3997096Y51569818D01*
X3976210Y51578979D01*
X3976208Y51578980D01*
X3954091Y51584582D01*
X3949776Y51585867D01*
X3857944Y51617393D01*
X3857938Y51617394D01*
X3762162Y51633376D01*
X3757754Y51634300D01*
X3735636Y51639901D01*
X3712893Y51641786D01*
X3708425Y51642343D01*
X3679369Y51647191D01*
X3612658Y51658323D01*
X3515562Y51658323D01*
X3511060Y51658509D01*
X3488323Y51660393D01*
X3465586Y51658509D01*
X3461084Y51658323D01*
X3363988Y51658323D01*
X3317144Y51650507D01*
X3268219Y51642343D01*
X3263751Y51641786D01*
X3241008Y51639901D01*
X3241006Y51639900D01*
X3218892Y51634301D01*
X3214484Y51633376D01*
X3118707Y51617394D01*
X3118705Y51617394D01*
X3026874Y51585868D01*
X3022559Y51584583D01*
X3000435Y51578979D01*
X2979557Y51569821D01*
X2975361Y51568184D01*
X2883515Y51536652D01*
X2883508Y51536649D01*
X2798113Y51490436D01*
X2794067Y51488458D01*
X2773180Y51479296D01*
X2754078Y51466817D01*
X2750209Y51464512D01*
X2664824Y51418304D01*
X2664811Y51418295D01*
X2588180Y51358653D01*
X2584516Y51356036D01*
X2565421Y51343560D01*
X2548638Y51328112D01*
X2545204Y51325203D01*
X2468581Y51265564D01*
X2468571Y51265554D01*
X2402809Y51194119D01*
X2399626Y51190936D01*
X2382849Y51175490D01*
X2368839Y51157490D01*
X2365928Y51154054D01*
X2300159Y51082609D01*
X2300155Y51082603D01*
X2247050Y51001323D01*
X2244436Y50997661D01*
X2230421Y50979652D01*
X2219563Y50959590D01*
X2217259Y50955722D01*
X2164150Y50874432D01*
X2125144Y50785509D01*
X2123166Y50781463D01*
X2112309Y50761400D01*
X2104897Y50739809D01*
X2103259Y50735613D01*
X2064263Y50646714D01*
X2064255Y50646691D01*
X2040422Y50552575D01*
X2039137Y50548259D01*
X2031731Y50526686D01*
X2027976Y50504185D01*
X2027052Y50499778D01*
X2003215Y50405647D01*
X1995194Y50308864D01*
X1994637Y50304396D01*
X1990885Y50281908D01*
X1990885Y50259102D01*
X1990699Y50254600D01*
X1987192Y50212277D01*
X1982680Y50157823D01*
X371649Y50157823D01*
X371649Y50157824D01*
X391439Y50282770D01*
X392391Y50287434D01*
X438718Y50472376D01*
X485426Y50646691D01*
X488159Y50656892D01*
X489485Y50661134D01*
X489673Y50661659D01*
X554243Y50842118D01*
X622251Y51019281D01*
X623828Y51022968D01*
X706432Y51197616D01*
X792334Y51366205D01*
X794088Y51369375D01*
X893728Y51535612D01*
X996636Y51694074D01*
X998526Y51696796D01*
X1114208Y51852772D01*
X1233107Y51999598D01*
X1235029Y52001841D01*
X1364751Y52144965D01*
X1366520Y52146823D01*
X1499307Y52279609D01*
X1501147Y52281362D01*
X1644297Y52411104D01*
X1646532Y52413019D01*
X1793344Y52531906D01*
X1949336Y52647596D01*
X1952056Y52649485D01*
X2110518Y52752391D01*
X2276729Y52852013D01*
X2279958Y52853801D01*
X2448495Y52939675D01*
X2623179Y53022293D01*
X2626842Y53023860D01*
X2804019Y53091870D01*
X2985043Y53156640D01*
X2989236Y53157950D01*
X3173694Y53207376D01*
X3358708Y53253718D01*
X3363402Y53254675D01*
X3555226Y53285056D01*
X3740308Y53312509D01*
X3745424Y53313021D01*
X3956611Y53324089D01*
X4111875Y53331715D01*
X4122918Y53332257D01*
X4125593Y53332323D01*
X26981978Y53332323D01*
X26984652Y53332257D01*
G37*
%TD.AperFunction*%
%TD*%
M02*
