%TF.GenerationSoftware,KiCad,Pcbnew,7.0.9*%
%TF.CreationDate,2024-03-26T06:33:17-07:00*%
%TF.ProjectId,cnft-tpl-esp32cam,636e6674-2d74-4706-9c2d-657370333263,rev?*%
%TF.SameCoordinates,Original*%
%TF.FileFunction,Legend,Bot*%
%TF.FilePolarity,Positive*%
%FSLAX46Y46*%
G04 Gerber Fmt 4.6, Leading zero omitted, Abs format (unit mm)*
G04 Created by KiCad (PCBNEW 7.0.9) date 2024-03-26 06:33:17*
%MOMM*%
%LPD*%
G01*
G04 APERTURE LIST*
%ADD10C,0.300000*%
%ADD11C,0.170000*%
%ADD12R,1.700000X1.700000*%
%ADD13O,1.700000X1.700000*%
G04 APERTURE END LIST*
D10*
X23772257Y37013775D02*
X23700828Y37156632D01*
X23700828Y37156632D02*
X23700828Y37370918D01*
X23700828Y37370918D02*
X23772257Y37585204D01*
X23772257Y37585204D02*
X23915114Y37728061D01*
X23915114Y37728061D02*
X24057971Y37799490D01*
X24057971Y37799490D02*
X24343685Y37870918D01*
X24343685Y37870918D02*
X24557971Y37870918D01*
X24557971Y37870918D02*
X24843685Y37799490D01*
X24843685Y37799490D02*
X24986542Y37728061D01*
X24986542Y37728061D02*
X25129400Y37585204D01*
X25129400Y37585204D02*
X25200828Y37370918D01*
X25200828Y37370918D02*
X25200828Y37228061D01*
X25200828Y37228061D02*
X25129400Y37013775D01*
X25129400Y37013775D02*
X25057971Y36942347D01*
X25057971Y36942347D02*
X24557971Y36942347D01*
X24557971Y36942347D02*
X24557971Y37228061D01*
X25200828Y36299490D02*
X23700828Y36299490D01*
X23700828Y35728061D02*
X23700828Y34728061D01*
X23700828Y34728061D02*
X25200828Y35728061D01*
X25200828Y35728061D02*
X25200828Y34728061D01*
X25057971Y32156633D02*
X25129400Y32228061D01*
X25129400Y32228061D02*
X25200828Y32442347D01*
X25200828Y32442347D02*
X25200828Y32585204D01*
X25200828Y32585204D02*
X25129400Y32799490D01*
X25129400Y32799490D02*
X24986542Y32942347D01*
X24986542Y32942347D02*
X24843685Y33013776D01*
X24843685Y33013776D02*
X24557971Y33085204D01*
X24557971Y33085204D02*
X24343685Y33085204D01*
X24343685Y33085204D02*
X24057971Y33013776D01*
X24057971Y33013776D02*
X23915114Y32942347D01*
X23915114Y32942347D02*
X23772257Y32799490D01*
X23772257Y32799490D02*
X23700828Y32585204D01*
X23700828Y32585204D02*
X23700828Y32442347D01*
X23700828Y32442347D02*
X23772257Y32228061D01*
X23772257Y32228061D02*
X23843685Y32156633D01*
X23772257Y30728061D02*
X23700828Y30870918D01*
X23700828Y30870918D02*
X23700828Y31085204D01*
X23700828Y31085204D02*
X23772257Y31299490D01*
X23772257Y31299490D02*
X23915114Y31442347D01*
X23915114Y31442347D02*
X24057971Y31513776D01*
X24057971Y31513776D02*
X24343685Y31585204D01*
X24343685Y31585204D02*
X24557971Y31585204D01*
X24557971Y31585204D02*
X24843685Y31513776D01*
X24843685Y31513776D02*
X24986542Y31442347D01*
X24986542Y31442347D02*
X25129400Y31299490D01*
X25129400Y31299490D02*
X25200828Y31085204D01*
X25200828Y31085204D02*
X25200828Y30942347D01*
X25200828Y30942347D02*
X25129400Y30728061D01*
X25129400Y30728061D02*
X25057971Y30656633D01*
X25057971Y30656633D02*
X24557971Y30656633D01*
X24557971Y30656633D02*
X24557971Y30942347D01*
X25200828Y29156633D02*
X24486542Y29656633D01*
X25200828Y30013776D02*
X23700828Y30013776D01*
X23700828Y30013776D02*
X23700828Y29442347D01*
X23700828Y29442347D02*
X23772257Y29299490D01*
X23772257Y29299490D02*
X23843685Y29228061D01*
X23843685Y29228061D02*
X23986542Y29156633D01*
X23986542Y29156633D02*
X24200828Y29156633D01*
X24200828Y29156633D02*
X24343685Y29228061D01*
X24343685Y29228061D02*
X24415114Y29299490D01*
X24415114Y29299490D02*
X24486542Y29442347D01*
X24486542Y29442347D02*
X24486542Y30013776D01*
D11*
X12606998Y6009654D02*
X12559379Y6104892D01*
X12559379Y6104892D02*
X12559379Y6247749D01*
X12559379Y6247749D02*
X12606998Y6390606D01*
X12606998Y6390606D02*
X12702236Y6485844D01*
X12702236Y6485844D02*
X12797474Y6533463D01*
X12797474Y6533463D02*
X12987950Y6581082D01*
X12987950Y6581082D02*
X13130807Y6581082D01*
X13130807Y6581082D02*
X13321283Y6533463D01*
X13321283Y6533463D02*
X13416521Y6485844D01*
X13416521Y6485844D02*
X13511760Y6390606D01*
X13511760Y6390606D02*
X13559379Y6247749D01*
X13559379Y6247749D02*
X13559379Y6152511D01*
X13559379Y6152511D02*
X13511760Y6009654D01*
X13511760Y6009654D02*
X13464140Y5962035D01*
X13464140Y5962035D02*
X13130807Y5962035D01*
X13130807Y5962035D02*
X13130807Y6152511D01*
X13559379Y5533463D02*
X12559379Y5533463D01*
X12559379Y5533463D02*
X13559379Y4962035D01*
X13559379Y4962035D02*
X12559379Y4962035D01*
X13559379Y4485844D02*
X12559379Y4485844D01*
X12559379Y4485844D02*
X12559379Y4247749D01*
X12559379Y4247749D02*
X12606998Y4104892D01*
X12606998Y4104892D02*
X12702236Y4009654D01*
X12702236Y4009654D02*
X12797474Y3962035D01*
X12797474Y3962035D02*
X12987950Y3914416D01*
X12987950Y3914416D02*
X13130807Y3914416D01*
X13130807Y3914416D02*
X13321283Y3962035D01*
X13321283Y3962035D02*
X13416521Y4009654D01*
X13416521Y4009654D02*
X13511760Y4104892D01*
X13511760Y4104892D02*
X13559379Y4247749D01*
X13559379Y4247749D02*
X13559379Y4485844D01*
X9689179Y6676320D02*
X10689179Y6342987D01*
X10689179Y6342987D02*
X9689179Y6009654D01*
X10641560Y5247749D02*
X10689179Y5342987D01*
X10689179Y5342987D02*
X10689179Y5533463D01*
X10689179Y5533463D02*
X10641560Y5628701D01*
X10641560Y5628701D02*
X10593940Y5676320D01*
X10593940Y5676320D02*
X10498702Y5723939D01*
X10498702Y5723939D02*
X10212988Y5723939D01*
X10212988Y5723939D02*
X10117750Y5676320D01*
X10117750Y5676320D02*
X10070131Y5628701D01*
X10070131Y5628701D02*
X10022512Y5533463D01*
X10022512Y5533463D02*
X10022512Y5342987D01*
X10022512Y5342987D02*
X10070131Y5247749D01*
X10641560Y4390606D02*
X10689179Y4485844D01*
X10689179Y4485844D02*
X10689179Y4676320D01*
X10689179Y4676320D02*
X10641560Y4771558D01*
X10641560Y4771558D02*
X10593940Y4819177D01*
X10593940Y4819177D02*
X10498702Y4866796D01*
X10498702Y4866796D02*
X10212988Y4866796D01*
X10212988Y4866796D02*
X10117750Y4819177D01*
X10117750Y4819177D02*
X10070131Y4771558D01*
X10070131Y4771558D02*
X10022512Y4676320D01*
X10022512Y4676320D02*
X10022512Y4485844D01*
X10022512Y4485844D02*
X10070131Y4390606D01*
X17661598Y6009654D02*
X17613979Y6104892D01*
X17613979Y6104892D02*
X17613979Y6247749D01*
X17613979Y6247749D02*
X17661598Y6390606D01*
X17661598Y6390606D02*
X17756836Y6485844D01*
X17756836Y6485844D02*
X17852074Y6533463D01*
X17852074Y6533463D02*
X18042550Y6581082D01*
X18042550Y6581082D02*
X18185407Y6581082D01*
X18185407Y6581082D02*
X18375883Y6533463D01*
X18375883Y6533463D02*
X18471121Y6485844D01*
X18471121Y6485844D02*
X18566360Y6390606D01*
X18566360Y6390606D02*
X18613979Y6247749D01*
X18613979Y6247749D02*
X18613979Y6152511D01*
X18613979Y6152511D02*
X18566360Y6009654D01*
X18566360Y6009654D02*
X18518740Y5962035D01*
X18518740Y5962035D02*
X18185407Y5962035D01*
X18185407Y5962035D02*
X18185407Y6152511D01*
X18613979Y5533463D02*
X17613979Y5533463D01*
X17613979Y5533463D02*
X18613979Y4962035D01*
X18613979Y4962035D02*
X17613979Y4962035D01*
X18613979Y4485844D02*
X17613979Y4485844D01*
X17613979Y4485844D02*
X17613979Y4247749D01*
X17613979Y4247749D02*
X17661598Y4104892D01*
X17661598Y4104892D02*
X17756836Y4009654D01*
X17756836Y4009654D02*
X17852074Y3962035D01*
X17852074Y3962035D02*
X18042550Y3914416D01*
X18042550Y3914416D02*
X18185407Y3914416D01*
X18185407Y3914416D02*
X18375883Y3962035D01*
X18375883Y3962035D02*
X18471121Y4009654D01*
X18471121Y4009654D02*
X18566360Y4104892D01*
X18566360Y4104892D02*
X18613979Y4247749D01*
X18613979Y4247749D02*
X18613979Y4485844D01*
X19849179Y6676320D02*
X20849179Y6342987D01*
X20849179Y6342987D02*
X19849179Y6009654D01*
X20801560Y5247749D02*
X20849179Y5342987D01*
X20849179Y5342987D02*
X20849179Y5533463D01*
X20849179Y5533463D02*
X20801560Y5628701D01*
X20801560Y5628701D02*
X20753940Y5676320D01*
X20753940Y5676320D02*
X20658702Y5723939D01*
X20658702Y5723939D02*
X20372988Y5723939D01*
X20372988Y5723939D02*
X20277750Y5676320D01*
X20277750Y5676320D02*
X20230131Y5628701D01*
X20230131Y5628701D02*
X20182512Y5533463D01*
X20182512Y5533463D02*
X20182512Y5342987D01*
X20182512Y5342987D02*
X20230131Y5247749D01*
X20801560Y4390606D02*
X20849179Y4485844D01*
X20849179Y4485844D02*
X20849179Y4676320D01*
X20849179Y4676320D02*
X20801560Y4771558D01*
X20801560Y4771558D02*
X20753940Y4819177D01*
X20753940Y4819177D02*
X20658702Y4866796D01*
X20658702Y4866796D02*
X20372988Y4866796D01*
X20372988Y4866796D02*
X20277750Y4819177D01*
X20277750Y4819177D02*
X20230131Y4771558D01*
X20230131Y4771558D02*
X20182512Y4676320D01*
X20182512Y4676320D02*
X20182512Y4485844D01*
X20182512Y4485844D02*
X20230131Y4390606D01*
X22741598Y6009654D02*
X22693979Y6104892D01*
X22693979Y6104892D02*
X22693979Y6247749D01*
X22693979Y6247749D02*
X22741598Y6390606D01*
X22741598Y6390606D02*
X22836836Y6485844D01*
X22836836Y6485844D02*
X22932074Y6533463D01*
X22932074Y6533463D02*
X23122550Y6581082D01*
X23122550Y6581082D02*
X23265407Y6581082D01*
X23265407Y6581082D02*
X23455883Y6533463D01*
X23455883Y6533463D02*
X23551121Y6485844D01*
X23551121Y6485844D02*
X23646360Y6390606D01*
X23646360Y6390606D02*
X23693979Y6247749D01*
X23693979Y6247749D02*
X23693979Y6152511D01*
X23693979Y6152511D02*
X23646360Y6009654D01*
X23646360Y6009654D02*
X23598740Y5962035D01*
X23598740Y5962035D02*
X23265407Y5962035D01*
X23265407Y5962035D02*
X23265407Y6152511D01*
X23693979Y5533463D02*
X22693979Y5533463D01*
X22693979Y5533463D02*
X22693979Y5152511D01*
X22693979Y5152511D02*
X22741598Y5057273D01*
X22741598Y5057273D02*
X22789217Y5009654D01*
X22789217Y5009654D02*
X22884455Y4962035D01*
X22884455Y4962035D02*
X23027312Y4962035D01*
X23027312Y4962035D02*
X23122550Y5009654D01*
X23122550Y5009654D02*
X23170169Y5057273D01*
X23170169Y5057273D02*
X23217788Y5152511D01*
X23217788Y5152511D02*
X23217788Y5533463D01*
X23693979Y4533463D02*
X22693979Y4533463D01*
X22693979Y3866797D02*
X22693979Y3676321D01*
X22693979Y3676321D02*
X22741598Y3581083D01*
X22741598Y3581083D02*
X22836836Y3485845D01*
X22836836Y3485845D02*
X23027312Y3438226D01*
X23027312Y3438226D02*
X23360645Y3438226D01*
X23360645Y3438226D02*
X23551121Y3485845D01*
X23551121Y3485845D02*
X23646360Y3581083D01*
X23646360Y3581083D02*
X23693979Y3676321D01*
X23693979Y3676321D02*
X23693979Y3866797D01*
X23693979Y3866797D02*
X23646360Y3962035D01*
X23646360Y3962035D02*
X23551121Y4057273D01*
X23551121Y4057273D02*
X23360645Y4104892D01*
X23360645Y4104892D02*
X23027312Y4104892D01*
X23027312Y4104892D02*
X22836836Y4057273D01*
X22836836Y4057273D02*
X22741598Y3962035D01*
X22741598Y3962035D02*
X22693979Y3866797D01*
X23693979Y2485845D02*
X23693979Y3057273D01*
X23693979Y2771559D02*
X22693979Y2771559D01*
X22693979Y2771559D02*
X22836836Y2866797D01*
X22836836Y2866797D02*
X22932074Y2962035D01*
X22932074Y2962035D02*
X22979693Y3057273D01*
X7476198Y6009654D02*
X7428579Y6104892D01*
X7428579Y6104892D02*
X7428579Y6247749D01*
X7428579Y6247749D02*
X7476198Y6390606D01*
X7476198Y6390606D02*
X7571436Y6485844D01*
X7571436Y6485844D02*
X7666674Y6533463D01*
X7666674Y6533463D02*
X7857150Y6581082D01*
X7857150Y6581082D02*
X8000007Y6581082D01*
X8000007Y6581082D02*
X8190483Y6533463D01*
X8190483Y6533463D02*
X8285721Y6485844D01*
X8285721Y6485844D02*
X8380960Y6390606D01*
X8380960Y6390606D02*
X8428579Y6247749D01*
X8428579Y6247749D02*
X8428579Y6152511D01*
X8428579Y6152511D02*
X8380960Y6009654D01*
X8380960Y6009654D02*
X8333340Y5962035D01*
X8333340Y5962035D02*
X8000007Y5962035D01*
X8000007Y5962035D02*
X8000007Y6152511D01*
X8428579Y5533463D02*
X7428579Y5533463D01*
X7428579Y5533463D02*
X7428579Y5152511D01*
X7428579Y5152511D02*
X7476198Y5057273D01*
X7476198Y5057273D02*
X7523817Y5009654D01*
X7523817Y5009654D02*
X7619055Y4962035D01*
X7619055Y4962035D02*
X7761912Y4962035D01*
X7761912Y4962035D02*
X7857150Y5009654D01*
X7857150Y5009654D02*
X7904769Y5057273D01*
X7904769Y5057273D02*
X7952388Y5152511D01*
X7952388Y5152511D02*
X7952388Y5533463D01*
X8428579Y4533463D02*
X7428579Y4533463D01*
X7428579Y3866797D02*
X7428579Y3676321D01*
X7428579Y3676321D02*
X7476198Y3581083D01*
X7476198Y3581083D02*
X7571436Y3485845D01*
X7571436Y3485845D02*
X7761912Y3438226D01*
X7761912Y3438226D02*
X8095245Y3438226D01*
X8095245Y3438226D02*
X8285721Y3485845D01*
X8285721Y3485845D02*
X8380960Y3581083D01*
X8380960Y3581083D02*
X8428579Y3676321D01*
X8428579Y3676321D02*
X8428579Y3866797D01*
X8428579Y3866797D02*
X8380960Y3962035D01*
X8380960Y3962035D02*
X8285721Y4057273D01*
X8285721Y4057273D02*
X8095245Y4104892D01*
X8095245Y4104892D02*
X7761912Y4104892D01*
X7761912Y4104892D02*
X7571436Y4057273D01*
X7571436Y4057273D02*
X7476198Y3962035D01*
X7476198Y3962035D02*
X7428579Y3866797D01*
X7428579Y3104892D02*
X7428579Y2485845D01*
X7428579Y2485845D02*
X7809531Y2819178D01*
X7809531Y2819178D02*
X7809531Y2676321D01*
X7809531Y2676321D02*
X7857150Y2581083D01*
X7857150Y2581083D02*
X7904769Y2533464D01*
X7904769Y2533464D02*
X8000007Y2485845D01*
X8000007Y2485845D02*
X8238102Y2485845D01*
X8238102Y2485845D02*
X8333340Y2533464D01*
X8333340Y2533464D02*
X8380960Y2581083D01*
X8380960Y2581083D02*
X8428579Y2676321D01*
X8428579Y2676321D02*
X8428579Y2962035D01*
X8428579Y2962035D02*
X8380960Y3057273D01*
X8380960Y3057273D02*
X8333340Y3104892D01*
%TO.C,G\u002A\u002A\u002A*%
G36*
X9470635Y22397839D02*
G01*
X9470635Y22187464D01*
X9199362Y22187464D01*
X8928089Y22187464D01*
X8928089Y22397839D01*
X8928089Y22608214D01*
X9199362Y22608214D01*
X9470635Y22608214D01*
X9470635Y22397839D01*
G37*
G36*
X13058080Y22403375D02*
G01*
X13058080Y22198536D01*
X11507949Y22198536D01*
X9957819Y22198536D01*
X9957819Y22403375D01*
X9957819Y22608214D01*
X11507949Y22608214D01*
X13058080Y22608214D01*
X13058080Y22403375D01*
G37*
G36*
X9470635Y32263314D02*
G01*
X9470635Y32052939D01*
X9199362Y32052939D01*
X8928089Y32052939D01*
X8928089Y32263314D01*
X8928089Y32473689D01*
X9199362Y32473689D01*
X9470635Y32473689D01*
X9470635Y32263314D01*
G37*
G36*
X13058080Y32268850D02*
G01*
X13058080Y32064011D01*
X11507949Y32064011D01*
X9957819Y32064011D01*
X9957819Y32268850D01*
X9957819Y32473689D01*
X11507949Y32473689D01*
X13058080Y32473689D01*
X13058080Y32268850D01*
G37*
G36*
X10533582Y41038161D02*
G01*
X10533582Y39305337D01*
X9664401Y39305337D01*
X8795221Y39305337D01*
X8795221Y41038161D01*
X8795221Y42770986D01*
X9664401Y42770986D01*
X10533582Y42770986D01*
X10533582Y41038161D01*
G37*
G36*
X17365229Y40168981D02*
G01*
X17365229Y39460350D01*
X14298185Y39460350D01*
X11231140Y39460350D01*
X11231140Y40168981D01*
X11231140Y40877612D01*
X14298185Y40877612D01*
X17365229Y40877612D01*
X17365229Y40168981D01*
G37*
G36*
X22414227Y30309042D02*
G01*
X22414227Y29838466D01*
X22309039Y29838466D01*
X22203852Y29838466D01*
X22203852Y30198318D01*
X22203852Y30558170D01*
X21561655Y30558170D01*
X20919458Y30558170D01*
X20919458Y30668894D01*
X20919458Y30779617D01*
X21666842Y30779617D01*
X22414227Y30779617D01*
X22414227Y30309042D01*
G37*
G36*
X15195046Y22491954D02*
G01*
X15195046Y22043523D01*
X17547923Y22043523D01*
X19900800Y22043523D01*
X19900800Y21650454D01*
X19900800Y21257385D01*
X17547923Y21257385D01*
X15195046Y21257385D01*
X15195046Y20808955D01*
X15195046Y20360524D01*
X14824122Y20360524D01*
X14453198Y20360524D01*
X14453198Y21650454D01*
X14453198Y22940385D01*
X14824122Y22940385D01*
X15195046Y22940385D01*
X15195046Y22491954D01*
G37*
G36*
X19900800Y28149931D02*
G01*
X19900800Y27756862D01*
X18738202Y27756862D01*
X17575604Y27756862D01*
X17575604Y27086984D01*
X17575604Y26417106D01*
X17210216Y26417106D01*
X16844828Y26417106D01*
X16844828Y27086984D01*
X16844828Y27756862D01*
X16019937Y27756862D01*
X15195046Y27756862D01*
X15195046Y26987333D01*
X15195046Y26217804D01*
X14824122Y26217804D01*
X14453198Y26217804D01*
X14453198Y27380402D01*
X14453198Y28543000D01*
X17176999Y28543000D01*
X19900800Y28543000D01*
X19900800Y28149931D01*
G37*
G36*
X19900800Y18854683D02*
G01*
X19900800Y17692085D01*
X19507732Y17692085D01*
X19114663Y17692085D01*
X19114663Y18461614D01*
X19114663Y19231143D01*
X18322989Y19231143D01*
X17531315Y19231143D01*
X17531315Y18561265D01*
X17531315Y17891387D01*
X17160391Y17891387D01*
X16789466Y17891387D01*
X16789466Y18561265D01*
X16789466Y19231143D01*
X15992256Y19231143D01*
X15195046Y19231143D01*
X15195046Y18461614D01*
X15195046Y17692085D01*
X14824122Y17692085D01*
X14453198Y17692085D01*
X14453198Y18854683D01*
X14453198Y20017281D01*
X17176999Y20017281D01*
X19900800Y20017281D01*
X19900800Y18854683D01*
G37*
G36*
X22414227Y19325258D02*
G01*
X22414227Y18854683D01*
X22309039Y18854683D01*
X22203852Y18854683D01*
X22203852Y19214534D01*
X22203852Y19574386D01*
X21982405Y19574386D01*
X21760957Y19574386D01*
X21760957Y19269896D01*
X21760957Y18965406D01*
X21661306Y18965406D01*
X21561655Y18965406D01*
X21561655Y19269896D01*
X21561655Y19574386D01*
X21345744Y19574386D01*
X21129833Y19574386D01*
X21129833Y19214534D01*
X21129833Y18854683D01*
X21024645Y18854683D01*
X20919458Y18854683D01*
X20919458Y19325258D01*
X20919458Y19795833D01*
X21666842Y19795833D01*
X22414227Y19795833D01*
X22414227Y19325258D01*
G37*
G36*
X22414227Y24761788D02*
G01*
X22414227Y24291213D01*
X22309039Y24291213D01*
X22203852Y24291213D01*
X22203852Y24651065D01*
X22203852Y25010916D01*
X21982405Y25010916D01*
X21760957Y25010916D01*
X21760957Y24706426D01*
X21760957Y24401936D01*
X21661306Y24401936D01*
X21561655Y24401936D01*
X21561655Y24706426D01*
X21561655Y25010916D01*
X21345744Y25010916D01*
X21129833Y25010916D01*
X21129833Y24651065D01*
X21129833Y24291213D01*
X21024645Y24291213D01*
X20919458Y24291213D01*
X20919458Y24761788D01*
X20919458Y25232364D01*
X21666842Y25232364D01*
X22414227Y25232364D01*
X22414227Y24761788D01*
G37*
G36*
X19900800Y33591997D02*
G01*
X19900800Y32429399D01*
X19507732Y32429399D01*
X19114663Y32429399D01*
X19114663Y33198929D01*
X19114663Y33968458D01*
X18322989Y33968458D01*
X17531315Y33968458D01*
X17531315Y33298580D01*
X17531315Y32628702D01*
X17160391Y32628702D01*
X16789466Y32628702D01*
X16789466Y33298580D01*
X16789466Y33968458D01*
X15992256Y33968458D01*
X15195046Y33968458D01*
X15195046Y33198929D01*
X15195046Y32429399D01*
X14824122Y32429399D01*
X14453198Y32429399D01*
X14453198Y33591997D01*
X14453198Y34754595D01*
X17176999Y34754595D01*
X19900800Y34754595D01*
X19900800Y33591997D01*
G37*
G36*
X22414227Y18522512D02*
G01*
X22414227Y18411788D01*
X21951956Y18411434D01*
X21489684Y18411080D01*
X21844000Y18258773D01*
X22198316Y18106465D01*
X22201498Y18011152D01*
X22204680Y17915840D01*
X21852719Y17765533D01*
X21500757Y17615226D01*
X21957492Y17614902D01*
X22414227Y17614578D01*
X22414227Y17498318D01*
X22414227Y17382058D01*
X21666842Y17382058D01*
X20919458Y17382058D01*
X20919458Y17490823D01*
X20919458Y17599589D01*
X21402852Y17803036D01*
X21403830Y17803447D01*
X21500555Y17844321D01*
X21590383Y17882595D01*
X21671381Y17917421D01*
X21741612Y17947953D01*
X21799143Y17973344D01*
X21842041Y17992749D01*
X21868369Y18005319D01*
X21876195Y18010209D01*
X21866629Y18014211D01*
X21838432Y18026208D01*
X21793769Y18045287D01*
X21734700Y18070567D01*
X21663286Y18101163D01*
X21581587Y18136196D01*
X21491661Y18174781D01*
X21395569Y18216038D01*
X20924994Y18418141D01*
X20921825Y18525688D01*
X20918656Y18633235D01*
X21666441Y18633235D01*
X22414227Y18633235D01*
X22414227Y18522512D01*
G37*
G36*
X22414227Y35252852D02*
G01*
X22414227Y35142128D01*
X21951956Y35141774D01*
X21489684Y35141420D01*
X21844000Y34989113D01*
X22198316Y34836805D01*
X22201498Y34741492D01*
X22204680Y34646180D01*
X21852719Y34495873D01*
X21500757Y34345566D01*
X21957492Y34345242D01*
X22414227Y34344918D01*
X22414227Y34228658D01*
X22414227Y34112398D01*
X21666842Y34112398D01*
X20919458Y34112398D01*
X20919458Y34221164D01*
X20919458Y34329929D01*
X21402852Y34533376D01*
X21403830Y34533787D01*
X21500555Y34574661D01*
X21590383Y34612935D01*
X21671381Y34647761D01*
X21741612Y34678293D01*
X21799143Y34703684D01*
X21842041Y34723089D01*
X21868369Y34735659D01*
X21876195Y34740549D01*
X21866629Y34744551D01*
X21838432Y34756548D01*
X21793769Y34775628D01*
X21734700Y34800907D01*
X21663286Y34831503D01*
X21581587Y34866536D01*
X21491661Y34905121D01*
X21395569Y34946378D01*
X20924994Y35148481D01*
X20921825Y35256028D01*
X20918656Y35363575D01*
X21666441Y35363575D01*
X22414227Y35363575D01*
X22414227Y35252852D01*
G37*
G36*
X19900800Y31571291D02*
G01*
X19900800Y31178222D01*
X18264859Y31177779D01*
X18055030Y31177698D01*
X17847227Y31177558D01*
X17659793Y31177353D01*
X17491804Y31177076D01*
X17342335Y31176718D01*
X17210461Y31176271D01*
X17095256Y31175726D01*
X16995797Y31175075D01*
X16911159Y31174309D01*
X16840415Y31173420D01*
X16782643Y31172400D01*
X16736916Y31171239D01*
X16702310Y31169930D01*
X16677900Y31168464D01*
X16662761Y31166832D01*
X16655969Y31165026D01*
X16656598Y31163038D01*
X16659711Y31161704D01*
X16681429Y31153328D01*
X16722334Y31137981D01*
X16781281Y31116086D01*
X16857124Y31088062D01*
X16948715Y31054330D01*
X17054907Y31015309D01*
X17174556Y30971422D01*
X17306513Y30923087D01*
X17449633Y30870725D01*
X17602769Y30814757D01*
X17764774Y30755603D01*
X17934502Y30693684D01*
X18110806Y30629419D01*
X18292540Y30563229D01*
X19900800Y29977717D01*
X19900800Y29609138D01*
X19900800Y29240559D01*
X17176858Y29240559D01*
X14452915Y29240559D01*
X14455824Y29630860D01*
X14458734Y30021160D01*
X16097444Y30026697D01*
X17736153Y30032233D01*
X16097444Y30620489D01*
X14458734Y31208744D01*
X14455821Y31586552D01*
X14452907Y31964360D01*
X17176854Y31964360D01*
X19900800Y31964360D01*
X19900800Y31571291D01*
G37*
G36*
X13058080Y26466932D02*
G01*
X13058080Y26262093D01*
X11913862Y26262093D01*
X11738197Y26262083D01*
X11573446Y26262033D01*
X11428199Y26261920D01*
X11301102Y26261719D01*
X11190798Y26261408D01*
X11095935Y26260960D01*
X11015157Y26260353D01*
X10947109Y26259562D01*
X10890436Y26258564D01*
X10843784Y26257333D01*
X10805798Y26255845D01*
X10775124Y26254078D01*
X10750406Y26252006D01*
X10730290Y26249605D01*
X10713421Y26246852D01*
X10698444Y26243722D01*
X10684004Y26240191D01*
X10630354Y26224584D01*
X10553286Y26192256D01*
X10487287Y26149073D01*
X10425731Y26091212D01*
X10398414Y26059345D01*
X10340940Y25969330D01*
X10302820Y25869164D01*
X10284199Y25759543D01*
X10285222Y25641160D01*
X10306031Y25514709D01*
X10313583Y25483943D01*
X10322697Y25449784D01*
X10329182Y25428898D01*
X10330533Y25423032D01*
X10327425Y25417705D01*
X10316454Y25413992D01*
X10294764Y25411604D01*
X10259498Y25410255D01*
X10207800Y25409657D01*
X10136815Y25409521D01*
X10074209Y25409821D01*
X10010828Y25411171D01*
X9966591Y25413703D01*
X9939812Y25417526D01*
X9928807Y25422747D01*
X9928227Y25424017D01*
X9924773Y25442993D01*
X9921278Y25478707D01*
X9918121Y25526571D01*
X9915681Y25581997D01*
X9914226Y25655698D01*
X9915819Y25715186D01*
X9920910Y25766084D01*
X9929910Y25815132D01*
X9933636Y25831307D01*
X9972146Y25950322D01*
X10026911Y26056519D01*
X10096915Y26148245D01*
X10181143Y26223848D01*
X10248136Y26273166D01*
X10102977Y26273166D01*
X9957819Y26273166D01*
X9957819Y26472468D01*
X9957819Y26671771D01*
X11507949Y26671771D01*
X13058080Y26671771D01*
X13058080Y26466932D01*
G37*
G36*
X9622986Y43833933D02*
G01*
X9824950Y43833933D01*
X10123904Y43833933D01*
X10123904Y43778571D01*
X10123904Y43723209D01*
X10013181Y43723209D01*
X10010643Y43723209D01*
X9961041Y43722852D01*
X9929417Y43721299D01*
X9911776Y43717772D01*
X9904121Y43711494D01*
X9902457Y43701691D01*
X9907378Y43689658D01*
X9926014Y43672012D01*
X9960571Y43648493D01*
X10013181Y43617480D01*
X10123904Y43554788D01*
X10123904Y43489522D01*
X10123411Y43460400D01*
X10121722Y43434309D01*
X10119245Y43424255D01*
X10111228Y43427962D01*
X10087439Y43440781D01*
X10052037Y43460598D01*
X10009108Y43485153D01*
X9972813Y43505778D01*
X9934851Y43526527D01*
X9907398Y43540565D01*
X9894740Y43545625D01*
X9892946Y43545056D01*
X9880185Y43532782D01*
X9863704Y43509640D01*
X9854731Y43497851D01*
X9824823Y43470640D01*
X9788835Y43447931D01*
X9765832Y43438081D01*
X9706423Y43427152D01*
X9650041Y43437656D01*
X9598729Y43469361D01*
X9585783Y43481230D01*
X9560413Y43510152D01*
X9543192Y43542357D01*
X9532677Y43582529D01*
X9527426Y43635351D01*
X9525997Y43705506D01*
X9525997Y43723209D01*
X9622986Y43723209D01*
X9627911Y43655128D01*
X9628334Y43649544D01*
X9633513Y43609430D01*
X9642691Y43583994D01*
X9658149Y43566549D01*
X9663836Y43562235D01*
X9702492Y43546015D01*
X9739910Y43549621D01*
X9771130Y43571437D01*
X9791187Y43609848D01*
X9794090Y43621051D01*
X9801299Y43662716D01*
X9801830Y43696482D01*
X9795424Y43715828D01*
X9794662Y43716369D01*
X9778103Y43719835D01*
X9746355Y43722282D01*
X9705514Y43723209D01*
X9622986Y43723209D01*
X9525997Y43723209D01*
X9525997Y43833933D01*
X9622986Y43833933D01*
G37*
G36*
X21437091Y26594072D02*
G01*
X21512013Y26594009D01*
X21633555Y26593649D01*
X21736160Y26592836D01*
X21821905Y26591408D01*
X21892867Y26589204D01*
X21951122Y26586060D01*
X21998747Y26581814D01*
X22037817Y26576305D01*
X22070409Y26569371D01*
X22098600Y26560848D01*
X22124467Y26550576D01*
X22150084Y26538391D01*
X22221891Y26493516D01*
X22295758Y26424259D01*
X22355568Y26339794D01*
X22399338Y26242476D01*
X22400689Y26238422D01*
X22417483Y26164714D01*
X22424893Y26081303D01*
X22422585Y25997942D01*
X22410226Y25924386D01*
X22387581Y25857635D01*
X22338689Y25766694D01*
X22273869Y25688972D01*
X22195191Y25626360D01*
X22104728Y25580751D01*
X22004549Y25554034D01*
X21997349Y25553105D01*
X21962376Y25550564D01*
X21908204Y25548291D01*
X21837024Y25546329D01*
X21751024Y25544723D01*
X21652397Y25543516D01*
X21543331Y25542751D01*
X21426018Y25542473D01*
X20919458Y25542390D01*
X20919458Y25658250D01*
X20919458Y25774110D01*
X21459235Y25777278D01*
X21567510Y25777929D01*
X21673174Y25778653D01*
X21760407Y25779438D01*
X21831197Y25780377D01*
X21887531Y25781563D01*
X21931396Y25783088D01*
X21964782Y25785045D01*
X21989673Y25787527D01*
X22008059Y25790626D01*
X22021927Y25794436D01*
X22033264Y25799049D01*
X22044058Y25804557D01*
X22061997Y25815120D01*
X22119256Y25863716D01*
X22164120Y25925638D01*
X22193385Y25995603D01*
X22203852Y26068327D01*
X22203822Y26072082D01*
X22192412Y26145007D01*
X22162419Y26214896D01*
X22116813Y26274706D01*
X22104386Y26287029D01*
X22085973Y26304084D01*
X22067382Y26318323D01*
X22046614Y26330001D01*
X22021675Y26339372D01*
X21990565Y26346689D01*
X21951289Y26352207D01*
X21901850Y26356179D01*
X21840251Y26358860D01*
X21764494Y26360503D01*
X21672584Y26361362D01*
X21562522Y26361691D01*
X21432313Y26361745D01*
X20919458Y26361745D01*
X20919458Y26478004D01*
X20919458Y26594264D01*
X21437091Y26594072D01*
G37*
G36*
X22404816Y22504062D02*
G01*
X22409832Y22495884D01*
X22412673Y22476265D01*
X22413938Y22441638D01*
X22414227Y22388435D01*
X22414227Y22266816D01*
X22250909Y22212377D01*
X22087592Y22157938D01*
X22087592Y21882051D01*
X22087592Y21606165D01*
X22250909Y21550868D01*
X22414227Y21495570D01*
X22414227Y21376478D01*
X22413745Y21336647D01*
X22412005Y21295762D01*
X22409292Y21268041D01*
X22405922Y21257972D01*
X22399094Y21260110D01*
X22372979Y21269045D01*
X22328963Y21284387D01*
X22268734Y21305540D01*
X22193978Y21331910D01*
X22106381Y21362899D01*
X22007629Y21397912D01*
X21899408Y21436352D01*
X21783405Y21477625D01*
X21661306Y21521134D01*
X20924994Y21783708D01*
X20924994Y21880492D01*
X21244883Y21880492D01*
X21245234Y21880271D01*
X21259051Y21875088D01*
X21290355Y21864400D01*
X21335945Y21849239D01*
X21392621Y21830633D01*
X21457183Y21809613D01*
X21526432Y21787209D01*
X21597167Y21764451D01*
X21666188Y21742368D01*
X21730296Y21721991D01*
X21786291Y21704349D01*
X21830973Y21690472D01*
X21861141Y21681391D01*
X21873596Y21678135D01*
X21876477Y21688584D01*
X21878992Y21717739D01*
X21880979Y21762153D01*
X21882284Y21818380D01*
X21882753Y21882974D01*
X21882419Y21947420D01*
X21881487Y22003672D01*
X21880067Y22048119D01*
X21878269Y22077315D01*
X21876204Y22087813D01*
X21874085Y22087449D01*
X21855155Y22082145D01*
X21819875Y22071315D01*
X21771365Y22055984D01*
X21712743Y22037176D01*
X21647129Y22015916D01*
X21577644Y21993228D01*
X21507407Y21970137D01*
X21439536Y21947668D01*
X21377153Y21926843D01*
X21323377Y21908689D01*
X21281326Y21894230D01*
X21254122Y21884489D01*
X21244883Y21880492D01*
X20924994Y21880492D01*
X20924994Y21882157D01*
X20924994Y21980606D01*
X21650234Y22238996D01*
X21731026Y22267778D01*
X21848903Y22309757D01*
X21876204Y22319476D01*
X21959797Y22349234D01*
X22061975Y22385593D01*
X22153701Y22418216D01*
X22233241Y22446488D01*
X22298861Y22469791D01*
X22348825Y22487508D01*
X22381400Y22499024D01*
X22394850Y22503721D01*
X22397024Y22504366D01*
X22404816Y22504062D01*
G37*
G36*
X13058080Y34793349D02*
G01*
X13058080Y34588510D01*
X11903786Y34588318D01*
X11790251Y34588299D01*
X11610284Y34588246D01*
X11450365Y34588113D01*
X11309165Y34587841D01*
X11185356Y34587367D01*
X11077608Y34586632D01*
X10984593Y34585574D01*
X10904981Y34584132D01*
X10837444Y34582245D01*
X10780651Y34579854D01*
X10733276Y34576895D01*
X10693987Y34573310D01*
X10661457Y34569036D01*
X10634356Y34564013D01*
X10611355Y34558180D01*
X10591126Y34551476D01*
X10572339Y34543841D01*
X10553665Y34535212D01*
X10533775Y34525530D01*
X10474260Y34488453D01*
X10414739Y34436532D01*
X10363572Y34377235D01*
X10327271Y34317133D01*
X10324554Y34311073D01*
X10294941Y34218664D01*
X10282703Y34119565D01*
X10288849Y34021536D01*
X10295255Y33989032D01*
X10327520Y33894178D01*
X10377369Y33811782D01*
X10443796Y33743250D01*
X10525793Y33689991D01*
X10539980Y33682817D01*
X10558618Y33673643D01*
X10576873Y33665507D01*
X10596071Y33658344D01*
X10617537Y33652093D01*
X10642596Y33646692D01*
X10672573Y33642078D01*
X10708793Y33638188D01*
X10752581Y33634961D01*
X10805263Y33632334D01*
X10868164Y33630245D01*
X10942608Y33628631D01*
X11029921Y33627431D01*
X11131427Y33626580D01*
X11248453Y33626019D01*
X11382323Y33625683D01*
X11534363Y33625510D01*
X11705897Y33625439D01*
X11898250Y33625407D01*
X13058080Y33625214D01*
X13058080Y33420099D01*
X13058080Y33214983D01*
X11820744Y33218320D01*
X10583407Y33221656D01*
X10489292Y33246639D01*
X10486901Y33247276D01*
X10358682Y33291305D01*
X10244527Y33350440D01*
X10145553Y33423702D01*
X10062877Y33510112D01*
X9997616Y33608692D01*
X9950888Y33718461D01*
X9933342Y33787378D01*
X9919582Y33881297D01*
X9914013Y33980097D01*
X9917045Y34075471D01*
X9929089Y34159113D01*
X9932348Y34173076D01*
X9969214Y34284087D01*
X10022726Y34387615D01*
X10090295Y34479392D01*
X10169332Y34555149D01*
X10225544Y34599582D01*
X10091681Y34599582D01*
X9957819Y34599582D01*
X9957819Y34798885D01*
X9957819Y34998187D01*
X11507949Y34998187D01*
X13058080Y34998187D01*
X13058080Y34793349D01*
G37*
G36*
X9828181Y44186405D02*
G01*
X9885243Y44184430D01*
X9960799Y44173765D01*
X10024022Y44155598D01*
X10047310Y44145555D01*
X10133447Y44096041D01*
X10210625Y44032377D01*
X10275549Y43958172D01*
X10324922Y43877038D01*
X10355449Y43792584D01*
X10361786Y43756902D01*
X10366734Y43688388D01*
X10365288Y43614754D01*
X10357767Y43544861D01*
X10344490Y43487572D01*
X10325461Y43438841D01*
X10273579Y43348048D01*
X10206030Y43269246D01*
X10125569Y43204448D01*
X10034948Y43155669D01*
X9936921Y43124925D01*
X9834241Y43114229D01*
X9749599Y43120616D01*
X9649311Y43145696D01*
X9557627Y43187803D01*
X9476239Y43244826D01*
X9406840Y43314653D01*
X9351123Y43395174D01*
X9310780Y43484277D01*
X9287503Y43579851D01*
X9282986Y43679785D01*
X9285307Y43694668D01*
X9397960Y43694668D01*
X9398387Y43605334D01*
X9402643Y43581456D01*
X9422421Y43519152D01*
X9452585Y43454801D01*
X9489031Y43396439D01*
X9527657Y43352102D01*
X9550021Y43333393D01*
X9628652Y43285227D01*
X9716687Y43253573D01*
X9808761Y43239966D01*
X9899508Y43245935D01*
X9935736Y43253955D01*
X10027596Y43288043D01*
X10106830Y43338700D01*
X10171494Y43404478D01*
X10219641Y43483931D01*
X10220424Y43485650D01*
X10238920Y43533509D01*
X10249265Y43581366D01*
X10253853Y43640167D01*
X10254144Y43665247D01*
X10242595Y43760511D01*
X10211311Y43846430D01*
X10161115Y43921685D01*
X10092831Y43984958D01*
X10007283Y44034931D01*
X9992607Y44041280D01*
X9963805Y44050826D01*
X9931270Y44056619D01*
X9888873Y44059542D01*
X9830487Y44060482D01*
X9828181Y44060490D01*
X9772889Y44060129D01*
X9733077Y44057935D01*
X9702318Y44052864D01*
X9674187Y44043873D01*
X9642256Y44029919D01*
X9580415Y43994457D01*
X9510893Y43934613D01*
X9456071Y43862544D01*
X9417807Y43781484D01*
X9397960Y43694668D01*
X9285307Y43694668D01*
X9298921Y43781967D01*
X9308377Y43814307D01*
X9351728Y43913318D01*
X9412743Y44000204D01*
X9489828Y44073358D01*
X9581387Y44131172D01*
X9685828Y44172039D01*
X9731721Y44181572D01*
X9806001Y44187173D01*
X9828181Y44186405D01*
G37*
G36*
X17811801Y43473945D02*
G01*
X17919751Y43472285D01*
X18022332Y43469429D01*
X18115413Y43465402D01*
X18194864Y43460227D01*
X18256555Y43453931D01*
X18519272Y43411602D01*
X18816500Y43344631D01*
X19103026Y43258654D01*
X19379643Y43153396D01*
X19647149Y43028583D01*
X19906337Y42883940D01*
X19913118Y42879823D01*
X20166793Y42712721D01*
X20406475Y42528842D01*
X20631437Y42329047D01*
X20840953Y42114195D01*
X21034294Y41885147D01*
X21210734Y41642762D01*
X21369546Y41387900D01*
X21510003Y41121421D01*
X21631377Y40844184D01*
X21666632Y40752435D01*
X21732324Y40563413D01*
X21787214Y40376382D01*
X21832351Y40186656D01*
X21868782Y39989552D01*
X21897554Y39780383D01*
X21919714Y39554465D01*
X21920207Y39548389D01*
X21923047Y39512830D01*
X21925181Y39485262D01*
X21927043Y39460350D01*
X19801149Y39460350D01*
X17675255Y39460350D01*
X17675255Y40329530D01*
X17675255Y41198711D01*
X15853852Y41198711D01*
X15674053Y41198745D01*
X15480468Y41198859D01*
X15294003Y41199050D01*
X15115813Y41199312D01*
X14947054Y41199643D01*
X14788882Y41200036D01*
X14642452Y41200488D01*
X14508922Y41200995D01*
X14389445Y41201551D01*
X14285178Y41202152D01*
X14197278Y41202795D01*
X14126898Y41203474D01*
X14075197Y41204185D01*
X14043328Y41204924D01*
X14032448Y41205686D01*
X14032838Y41207884D01*
X14041246Y41227155D01*
X14059206Y41261134D01*
X14084844Y41306674D01*
X14116285Y41360627D01*
X14151652Y41419845D01*
X14189073Y41481178D01*
X14226671Y41541478D01*
X14262572Y41597598D01*
X14294900Y41646389D01*
X14335792Y41705759D01*
X14441215Y41850108D01*
X14549318Y41984653D01*
X14665705Y42116164D01*
X14795982Y42251409D01*
X14802883Y42258311D01*
X15001412Y42445716D01*
X15203004Y42613924D01*
X15411536Y42765764D01*
X15630884Y42904067D01*
X15864924Y43031660D01*
X15960971Y43078949D01*
X16211959Y43188734D01*
X16468343Y43280834D01*
X16733015Y43356112D01*
X17008868Y43415432D01*
X17298795Y43459656D01*
X17336068Y43463435D01*
X17408912Y43468127D01*
X17497037Y43471499D01*
X17596314Y43473576D01*
X17702612Y43474383D01*
X17811801Y43473945D01*
G37*
G36*
X14057361Y45192952D02*
G01*
X14206473Y45192768D01*
X14493040Y45192402D01*
X14758719Y45192040D01*
X15004349Y45191676D01*
X15230773Y45191303D01*
X15438830Y45190915D01*
X15629364Y45190505D01*
X15803214Y45190068D01*
X15961222Y45189596D01*
X16104229Y45189083D01*
X16233076Y45188523D01*
X16348604Y45187908D01*
X16451655Y45187234D01*
X16543070Y45186492D01*
X16623689Y45185677D01*
X16694354Y45184783D01*
X16755907Y45183802D01*
X16809188Y45182729D01*
X16855038Y45181556D01*
X16894299Y45180278D01*
X16927812Y45178887D01*
X16956418Y45177378D01*
X16980958Y45175744D01*
X17002273Y45173978D01*
X17021205Y45172075D01*
X17038595Y45170027D01*
X17154132Y45153995D01*
X17409792Y45106664D01*
X17648500Y45045116D01*
X17870278Y44969343D01*
X18075153Y44879338D01*
X18263148Y44775093D01*
X18367545Y44706118D01*
X18540563Y44571220D01*
X18700183Y44419347D01*
X18845566Y44251511D01*
X18975872Y44068720D01*
X19090263Y43871983D01*
X19187901Y43662311D01*
X19205594Y43618951D01*
X19218809Y43583174D01*
X19222967Y43562497D01*
X19217791Y43554012D01*
X19203004Y43554810D01*
X19178329Y43561982D01*
X19150209Y43570866D01*
X19105090Y43585113D01*
X19059301Y43599566D01*
X18964373Y43627414D01*
X18835904Y43660298D01*
X18696476Y43691658D01*
X18552161Y43720227D01*
X18409033Y43744733D01*
X18273163Y43763908D01*
X18238260Y43767738D01*
X18153594Y43774401D01*
X18054423Y43779498D01*
X17944815Y43783027D01*
X17828834Y43784990D01*
X17710547Y43785387D01*
X17594020Y43784217D01*
X17483318Y43781481D01*
X17382507Y43777178D01*
X17295654Y43771310D01*
X17226825Y43763875D01*
X17147280Y43752274D01*
X16916051Y43713058D01*
X16700592Y43667401D01*
X16496495Y43614073D01*
X16299352Y43551843D01*
X16104753Y43479480D01*
X15908290Y43395753D01*
X15829231Y43359170D01*
X15552924Y43216608D01*
X15289981Y43057050D01*
X15039806Y42880018D01*
X14801806Y42685037D01*
X14575386Y42471627D01*
X14359952Y42239313D01*
X14154910Y41987616D01*
X14085043Y41896269D01*
X12658092Y41896269D01*
X11231140Y41896269D01*
X11231140Y43546339D01*
X11231140Y45196407D01*
X14057361Y45192952D01*
G37*
G36*
X21116648Y21080228D02*
G01*
X21667396Y21080228D01*
X21747847Y21080228D01*
X22415335Y21080228D01*
X22412013Y20712072D01*
X22411177Y20622180D01*
X22410250Y20539692D01*
X22409163Y20474522D01*
X22407730Y20424114D01*
X22405769Y20385913D01*
X22403096Y20357362D01*
X22399528Y20335906D01*
X22394882Y20318990D01*
X22388973Y20304057D01*
X22381620Y20288554D01*
X22372757Y20271858D01*
X22332242Y20214004D01*
X22280826Y20159970D01*
X22224511Y20115475D01*
X22169296Y20086236D01*
X22098918Y20065384D01*
X22008695Y20053859D01*
X21921907Y20058885D01*
X21841545Y20079616D01*
X21770603Y20115206D01*
X21712075Y20164809D01*
X21668953Y20227581D01*
X21641661Y20282349D01*
X21613932Y20240447D01*
X21559619Y20172836D01*
X21493300Y20120287D01*
X21418162Y20088011D01*
X21333901Y20075884D01*
X21240216Y20083777D01*
X21162673Y20104389D01*
X21082542Y20144037D01*
X21017731Y20199314D01*
X20968861Y20269668D01*
X20936553Y20354546D01*
X20931443Y20378608D01*
X20927304Y20409504D01*
X20924175Y20449294D01*
X20921939Y20500628D01*
X20920484Y20566154D01*
X20919695Y20648523D01*
X20919458Y20750383D01*
X20919458Y20858780D01*
X21116648Y20858780D01*
X21120708Y20656710D01*
X21121050Y20640264D01*
X21123181Y20564576D01*
X21126412Y20506839D01*
X21131543Y20463523D01*
X21139373Y20431094D01*
X21150703Y20406022D01*
X21166332Y20384775D01*
X21187062Y20363821D01*
X21188518Y20362473D01*
X21241885Y20326907D01*
X21300972Y20309552D01*
X21361688Y20309318D01*
X21419941Y20325113D01*
X21471642Y20355844D01*
X21512700Y20400421D01*
X21539023Y20457751D01*
X21541294Y20469506D01*
X21544933Y20504974D01*
X21547853Y20554945D01*
X21549800Y20614534D01*
X21550521Y20678854D01*
X21550582Y20858780D01*
X21747847Y20858780D01*
X21751816Y20645637D01*
X21753162Y20583961D01*
X21755326Y20520167D01*
X21758201Y20472958D01*
X21762071Y20439177D01*
X21767218Y20415668D01*
X21773927Y20399277D01*
X21792122Y20371128D01*
X21837327Y20326762D01*
X21891281Y20297805D01*
X21950214Y20283964D01*
X22010351Y20284948D01*
X22067922Y20300465D01*
X22119152Y20330221D01*
X22160270Y20373927D01*
X22187504Y20431289D01*
X22188294Y20434038D01*
X22195371Y20469857D01*
X22200203Y20519778D01*
X22202970Y20586459D01*
X22203852Y20672560D01*
X22203852Y20858780D01*
X21975849Y20858780D01*
X21747847Y20858780D01*
X21550582Y20858780D01*
X21333615Y20858780D01*
X21116648Y20858780D01*
X20919458Y20858780D01*
X20919458Y21080228D01*
X21116648Y21080228D01*
G37*
G36*
X21827340Y17090868D02*
G01*
X21928122Y17084814D01*
X22011312Y17074501D01*
X22078293Y17059806D01*
X22130450Y17040609D01*
X22163244Y17023286D01*
X22208930Y16994748D01*
X22245787Y16967004D01*
X22301629Y16908305D01*
X22352717Y16835000D01*
X22393030Y16755997D01*
X22417985Y16678963D01*
X22422690Y16640180D01*
X22423991Y16585852D01*
X22421817Y16526192D01*
X22416488Y16469653D01*
X22408326Y16424686D01*
X22377884Y16339920D01*
X22326582Y16253183D01*
X22259962Y16178923D01*
X22180553Y16119403D01*
X22090881Y16076884D01*
X21993477Y16053629D01*
X21961790Y16050597D01*
X21904856Y16047426D01*
X21834313Y16045134D01*
X21754627Y16043721D01*
X21670265Y16043186D01*
X21585694Y16043529D01*
X21505383Y16044749D01*
X21433797Y16046847D01*
X21375404Y16049822D01*
X21334671Y16053673D01*
X21254750Y16072344D01*
X21163738Y16113241D01*
X21081964Y16172267D01*
X21012032Y16247473D01*
X20956546Y16336906D01*
X20945008Y16360798D01*
X20929400Y16397998D01*
X20919836Y16432542D01*
X20914329Y16472696D01*
X20910889Y16526728D01*
X20910602Y16568240D01*
X21136070Y16568240D01*
X21142461Y16499592D01*
X21167674Y16428250D01*
X21211140Y16368726D01*
X21271931Y16322229D01*
X21349121Y16289972D01*
X21378901Y16284329D01*
X21428719Y16279287D01*
X21492381Y16275451D01*
X21565570Y16272855D01*
X21643967Y16271532D01*
X21723254Y16271517D01*
X21799112Y16272842D01*
X21867222Y16275542D01*
X21923267Y16279650D01*
X21962928Y16285199D01*
X21979322Y16289085D01*
X22053122Y16319158D01*
X22115270Y16366080D01*
X22162220Y16427322D01*
X22186146Y16480413D01*
X22199069Y16548824D01*
X22198451Y16611367D01*
X22185447Y16665622D01*
X22157424Y16716405D01*
X22111855Y16770126D01*
X22111739Y16770247D01*
X22087392Y16794042D01*
X22063308Y16813011D01*
X22036685Y16827695D01*
X22004725Y16838635D01*
X21964625Y16846373D01*
X21913588Y16851450D01*
X21848811Y16854406D01*
X21767496Y16855783D01*
X21666842Y16856121D01*
X21666392Y16856121D01*
X21565832Y16855779D01*
X21484598Y16854398D01*
X21419888Y16851434D01*
X21368901Y16846348D01*
X21328834Y16838597D01*
X21296887Y16827641D01*
X21270256Y16812938D01*
X21246141Y16793947D01*
X21221740Y16770126D01*
X21183190Y16725941D01*
X21155275Y16679626D01*
X21140647Y16629600D01*
X21136070Y16568240D01*
X20910602Y16568240D01*
X20910367Y16602362D01*
X20921755Y16697214D01*
X20948753Y16781557D01*
X20992903Y16859749D01*
X21055745Y16936147D01*
X21058123Y16938656D01*
X21099814Y16979390D01*
X21141163Y17011952D01*
X21185376Y17037322D01*
X21235662Y17056477D01*
X21295226Y17070397D01*
X21367275Y17080059D01*
X21455015Y17086442D01*
X21561655Y17090525D01*
X21567456Y17090684D01*
X21666842Y17092174D01*
X21707579Y17092785D01*
X21827340Y17090868D01*
G37*
G36*
X21827340Y29669072D02*
G01*
X21928122Y29663018D01*
X22011312Y29652705D01*
X22078293Y29638010D01*
X22130450Y29618813D01*
X22163244Y29601490D01*
X22208930Y29572952D01*
X22245787Y29545208D01*
X22301629Y29486509D01*
X22352717Y29413204D01*
X22393030Y29334201D01*
X22417985Y29257167D01*
X22422690Y29218385D01*
X22423991Y29164056D01*
X22421817Y29104396D01*
X22416488Y29047857D01*
X22408326Y29002890D01*
X22377884Y28918124D01*
X22326582Y28831387D01*
X22259962Y28757127D01*
X22180553Y28697607D01*
X22090881Y28655088D01*
X21993477Y28631833D01*
X21961790Y28628801D01*
X21904856Y28625630D01*
X21834313Y28623338D01*
X21754627Y28621925D01*
X21670265Y28621390D01*
X21585694Y28621733D01*
X21505383Y28622953D01*
X21433797Y28625051D01*
X21375404Y28628026D01*
X21334671Y28631877D01*
X21254750Y28650548D01*
X21163738Y28691445D01*
X21081964Y28750472D01*
X21012032Y28825677D01*
X20956546Y28915110D01*
X20945008Y28939002D01*
X20929400Y28976202D01*
X20919836Y29010746D01*
X20914329Y29050900D01*
X20910889Y29104932D01*
X20910602Y29146444D01*
X21136070Y29146444D01*
X21142461Y29077796D01*
X21167674Y29006454D01*
X21211140Y28946930D01*
X21271931Y28900433D01*
X21349121Y28868176D01*
X21378901Y28862533D01*
X21428719Y28857491D01*
X21492381Y28853655D01*
X21565570Y28851059D01*
X21643967Y28849736D01*
X21723254Y28849721D01*
X21799112Y28851046D01*
X21867222Y28853746D01*
X21923267Y28857854D01*
X21962928Y28863403D01*
X21979322Y28867289D01*
X22053122Y28897362D01*
X22115270Y28944284D01*
X22162220Y29005526D01*
X22186146Y29058617D01*
X22199069Y29127028D01*
X22198451Y29189571D01*
X22185447Y29243826D01*
X22157424Y29294609D01*
X22111855Y29348330D01*
X22111739Y29348451D01*
X22087392Y29372246D01*
X22063308Y29391215D01*
X22036685Y29405899D01*
X22004725Y29416839D01*
X21964625Y29424577D01*
X21913588Y29429654D01*
X21848811Y29432610D01*
X21767496Y29433987D01*
X21666842Y29434325D01*
X21666392Y29434325D01*
X21565832Y29433984D01*
X21484598Y29432602D01*
X21419888Y29429638D01*
X21368901Y29424552D01*
X21328834Y29416801D01*
X21296887Y29405845D01*
X21270256Y29391142D01*
X21246141Y29372151D01*
X21221740Y29348330D01*
X21183190Y29304145D01*
X21155275Y29257830D01*
X21140647Y29207804D01*
X21136070Y29146444D01*
X20910602Y29146444D01*
X20910367Y29180566D01*
X20921755Y29275418D01*
X20948753Y29359761D01*
X20992903Y29437953D01*
X21055745Y29514351D01*
X21058123Y29516860D01*
X21099814Y29557594D01*
X21141163Y29590156D01*
X21185376Y29615526D01*
X21235662Y29634681D01*
X21295226Y29648601D01*
X21367275Y29658263D01*
X21455015Y29664646D01*
X21561655Y29668729D01*
X21567456Y29668888D01*
X21666842Y29670378D01*
X21707579Y29670989D01*
X21827340Y29669072D01*
G37*
G36*
X21827340Y33821209D02*
G01*
X21928122Y33815154D01*
X22011312Y33804841D01*
X22078293Y33790146D01*
X22130450Y33770949D01*
X22163244Y33753626D01*
X22208930Y33725088D01*
X22245787Y33697344D01*
X22301629Y33638645D01*
X22352717Y33565340D01*
X22393030Y33486337D01*
X22417985Y33409303D01*
X22422690Y33370521D01*
X22423991Y33316192D01*
X22421817Y33256532D01*
X22416488Y33199993D01*
X22408326Y33155026D01*
X22377884Y33070260D01*
X22326582Y32983523D01*
X22259962Y32909263D01*
X22180553Y32849743D01*
X22090881Y32807224D01*
X21993477Y32783969D01*
X21961790Y32780937D01*
X21904856Y32777766D01*
X21834313Y32775474D01*
X21754627Y32774061D01*
X21670265Y32773526D01*
X21585694Y32773869D01*
X21505383Y32775089D01*
X21433797Y32777187D01*
X21375404Y32780162D01*
X21334671Y32784013D01*
X21254750Y32802684D01*
X21163738Y32843581D01*
X21081964Y32902608D01*
X21012032Y32977813D01*
X20956546Y33067246D01*
X20945008Y33091138D01*
X20929400Y33128338D01*
X20919836Y33162882D01*
X20914329Y33203036D01*
X20910889Y33257068D01*
X20910602Y33298580D01*
X21136070Y33298580D01*
X21142461Y33229932D01*
X21167674Y33158590D01*
X21211140Y33099066D01*
X21271931Y33052569D01*
X21349121Y33020312D01*
X21378901Y33014669D01*
X21428719Y33009627D01*
X21492381Y33005791D01*
X21565570Y33003195D01*
X21643967Y33001872D01*
X21723254Y33001857D01*
X21799112Y33003182D01*
X21867222Y33005882D01*
X21923267Y33009990D01*
X21962928Y33015539D01*
X21979322Y33019425D01*
X22053122Y33049498D01*
X22115270Y33096420D01*
X22162220Y33157662D01*
X22186146Y33210753D01*
X22199069Y33279164D01*
X22198451Y33341707D01*
X22185447Y33395962D01*
X22157424Y33446745D01*
X22111855Y33500466D01*
X22111739Y33500587D01*
X22087392Y33524382D01*
X22063308Y33543351D01*
X22036685Y33558035D01*
X22004725Y33568975D01*
X21964625Y33576713D01*
X21913588Y33581790D01*
X21848811Y33584746D01*
X21767496Y33586123D01*
X21666842Y33586461D01*
X21666392Y33586461D01*
X21565832Y33586120D01*
X21484598Y33584738D01*
X21419888Y33581774D01*
X21368901Y33576688D01*
X21328834Y33568937D01*
X21296887Y33557981D01*
X21270256Y33543278D01*
X21246141Y33524287D01*
X21221740Y33500466D01*
X21183190Y33456281D01*
X21155275Y33409966D01*
X21140647Y33359940D01*
X21136070Y33298580D01*
X20910602Y33298580D01*
X20910367Y33332702D01*
X20921755Y33427554D01*
X20948753Y33511897D01*
X20992903Y33590089D01*
X21055745Y33666487D01*
X21058123Y33668996D01*
X21099814Y33709730D01*
X21141163Y33742292D01*
X21185376Y33767662D01*
X21235662Y33786817D01*
X21295226Y33800737D01*
X21367275Y33810399D01*
X21455015Y33816782D01*
X21561655Y33820865D01*
X21567456Y33821024D01*
X21666842Y33822514D01*
X21707579Y33823125D01*
X21827340Y33821209D01*
G37*
G36*
X21827340Y36700023D02*
G01*
X21928122Y36693969D01*
X22011312Y36683655D01*
X22078293Y36668961D01*
X22130450Y36649764D01*
X22163244Y36632440D01*
X22208930Y36603902D01*
X22245787Y36576158D01*
X22301629Y36517460D01*
X22352717Y36444154D01*
X22393030Y36365152D01*
X22417985Y36288118D01*
X22422690Y36249335D01*
X22423991Y36195006D01*
X22421817Y36135346D01*
X22416488Y36078807D01*
X22408326Y36033840D01*
X22377884Y35949075D01*
X22326582Y35862337D01*
X22259962Y35788077D01*
X22180553Y35728557D01*
X22090881Y35686039D01*
X21993477Y35662783D01*
X21961790Y35659751D01*
X21904856Y35656581D01*
X21834313Y35654289D01*
X21754627Y35652875D01*
X21670265Y35652340D01*
X21585694Y35652683D01*
X21505383Y35653904D01*
X21433797Y35656001D01*
X21375404Y35658976D01*
X21334671Y35662827D01*
X21254750Y35681498D01*
X21163738Y35722395D01*
X21081964Y35781422D01*
X21012032Y35856627D01*
X20956546Y35946060D01*
X20945008Y35969952D01*
X20929400Y36007152D01*
X20919836Y36041696D01*
X20914329Y36081850D01*
X20910889Y36135883D01*
X20910603Y36177394D01*
X21136070Y36177394D01*
X21142461Y36108746D01*
X21167674Y36037405D01*
X21211140Y35977880D01*
X21271931Y35931384D01*
X21349121Y35899127D01*
X21378901Y35893484D01*
X21428719Y35888441D01*
X21492381Y35884605D01*
X21565570Y35882009D01*
X21643967Y35880687D01*
X21723254Y35880671D01*
X21799112Y35881997D01*
X21867222Y35884696D01*
X21923267Y35888804D01*
X21962928Y35894354D01*
X21979322Y35898239D01*
X22053122Y35928312D01*
X22115270Y35975234D01*
X22162220Y36036477D01*
X22186146Y36089567D01*
X22199069Y36157978D01*
X22198451Y36220521D01*
X22185447Y36274777D01*
X22157424Y36325559D01*
X22111855Y36379281D01*
X22111739Y36379401D01*
X22087392Y36403196D01*
X22063308Y36422165D01*
X22036685Y36436849D01*
X22004725Y36447789D01*
X21964625Y36455527D01*
X21913588Y36460604D01*
X21848811Y36463560D01*
X21767496Y36464937D01*
X21666842Y36465276D01*
X21666392Y36465276D01*
X21565832Y36464934D01*
X21484598Y36463552D01*
X21419888Y36460588D01*
X21368901Y36455502D01*
X21328834Y36447751D01*
X21296887Y36436795D01*
X21270256Y36422092D01*
X21246141Y36403101D01*
X21221740Y36379281D01*
X21183190Y36335096D01*
X21155275Y36288780D01*
X21140647Y36238754D01*
X21136070Y36177394D01*
X20910603Y36177394D01*
X20910367Y36211516D01*
X20921755Y36306368D01*
X20948753Y36390711D01*
X20992903Y36468903D01*
X21055745Y36545301D01*
X21058123Y36547810D01*
X21099814Y36588544D01*
X21141163Y36621106D01*
X21185376Y36646476D01*
X21235662Y36665631D01*
X21295226Y36679551D01*
X21367275Y36689213D01*
X21455015Y36695596D01*
X21561655Y36699680D01*
X21567456Y36699839D01*
X21666842Y36701328D01*
X21707579Y36701939D01*
X21827340Y36700023D01*
G37*
G36*
X22246220Y15861537D02*
G01*
X22278254Y15821267D01*
X22318173Y15755686D01*
X22355156Y15678967D01*
X22386347Y15597173D01*
X22408889Y15516365D01*
X22413634Y15489905D01*
X22420058Y15429411D01*
X22423541Y15359503D01*
X22423946Y15288000D01*
X22421134Y15222723D01*
X22414968Y15171493D01*
X22390256Y15077049D01*
X22351074Y14992056D01*
X22298114Y14923991D01*
X22230538Y14872036D01*
X22147508Y14835371D01*
X22048186Y14813178D01*
X21977006Y14808801D01*
X21884254Y14820362D01*
X21797849Y14850590D01*
X21720751Y14897978D01*
X21655918Y14961019D01*
X21606309Y15038207D01*
X21592727Y15069149D01*
X21577195Y15116686D01*
X21563675Y15175608D01*
X21550767Y15251290D01*
X21540597Y15315463D01*
X21529697Y15375007D01*
X21519010Y15419987D01*
X21507364Y15454456D01*
X21493588Y15482467D01*
X21476511Y15508073D01*
X21464311Y15522870D01*
X21419029Y15558235D01*
X21367344Y15575813D01*
X21313062Y15576516D01*
X21259993Y15561258D01*
X21211943Y15530951D01*
X21172722Y15486510D01*
X21146138Y15428847D01*
X21141465Y15411415D01*
X21133207Y15369289D01*
X21130025Y15334430D01*
X21135741Y15273114D01*
X21151085Y15201112D01*
X21173807Y15127497D01*
X21201659Y15060854D01*
X21206585Y15050793D01*
X21223877Y15014543D01*
X21235991Y14987668D01*
X21240556Y14975381D01*
X21238157Y14972247D01*
X21221595Y14958551D01*
X21192745Y14937344D01*
X21155695Y14911695D01*
X21119678Y14888162D01*
X21087602Y14870059D01*
X21066613Y14863019D01*
X21053276Y14865492D01*
X21051515Y14866755D01*
X21035233Y14886465D01*
X21014369Y14921157D01*
X20991440Y14965679D01*
X20968965Y15014877D01*
X20949461Y15063598D01*
X20935445Y15106688D01*
X20935429Y15106749D01*
X20922558Y15170488D01*
X20914091Y15245688D01*
X20910414Y15324152D01*
X20911910Y15397679D01*
X20918964Y15458073D01*
X20938795Y15528533D01*
X20978370Y15610049D01*
X21031723Y15680776D01*
X21096053Y15737150D01*
X21168558Y15775605D01*
X21229056Y15794009D01*
X21323236Y15806899D01*
X21415231Y15801587D01*
X21501989Y15778987D01*
X21580458Y15740010D01*
X21647584Y15685570D01*
X21700315Y15616580D01*
X21709348Y15600652D01*
X21728370Y15561763D01*
X21743919Y15519524D01*
X21757326Y15469257D01*
X21769923Y15406281D01*
X21783041Y15325918D01*
X21787348Y15298844D01*
X21803945Y15215115D01*
X21823401Y15150562D01*
X21847113Y15102883D01*
X21876476Y15069777D01*
X21912890Y15048943D01*
X21957749Y15038079D01*
X22006905Y15035588D01*
X22068852Y15047897D01*
X22119240Y15079037D01*
X22157985Y15128923D01*
X22185003Y15197470D01*
X22200211Y15284593D01*
X22199835Y15365078D01*
X22185214Y15455258D01*
X22158245Y15546585D01*
X22120985Y15632127D01*
X22075490Y15704954D01*
X22049886Y15738530D01*
X22136799Y15812071D01*
X22223713Y15885611D01*
X22246220Y15861537D01*
G37*
G36*
X22246220Y23667553D02*
G01*
X22278254Y23627283D01*
X22318173Y23561701D01*
X22355156Y23484982D01*
X22386347Y23403188D01*
X22408889Y23322381D01*
X22413634Y23295921D01*
X22420058Y23235427D01*
X22423541Y23165518D01*
X22423946Y23094015D01*
X22421134Y23028738D01*
X22414968Y22977509D01*
X22390256Y22883065D01*
X22351074Y22798072D01*
X22298114Y22730007D01*
X22230538Y22678052D01*
X22147508Y22641387D01*
X22048186Y22619194D01*
X21977006Y22614817D01*
X21884254Y22626378D01*
X21797849Y22656605D01*
X21720751Y22703993D01*
X21655918Y22767035D01*
X21606309Y22844223D01*
X21592727Y22875165D01*
X21577195Y22922701D01*
X21563675Y22981624D01*
X21550767Y23057305D01*
X21540597Y23121479D01*
X21529697Y23181022D01*
X21519010Y23226002D01*
X21507364Y23260472D01*
X21493588Y23288483D01*
X21476511Y23314088D01*
X21464311Y23328885D01*
X21419029Y23364251D01*
X21367344Y23381828D01*
X21313062Y23382531D01*
X21259993Y23367273D01*
X21211943Y23336967D01*
X21172722Y23292526D01*
X21146138Y23234863D01*
X21141465Y23217431D01*
X21133207Y23175304D01*
X21130025Y23140445D01*
X21135741Y23079129D01*
X21151085Y23007128D01*
X21173807Y22933513D01*
X21201659Y22866870D01*
X21206585Y22856808D01*
X21223877Y22820558D01*
X21235991Y22793684D01*
X21240556Y22781396D01*
X21238157Y22778263D01*
X21221595Y22764567D01*
X21192745Y22743359D01*
X21155695Y22717710D01*
X21119678Y22694178D01*
X21087602Y22676074D01*
X21066613Y22669034D01*
X21053276Y22671507D01*
X21051515Y22672771D01*
X21035233Y22692480D01*
X21014369Y22727173D01*
X20991440Y22771695D01*
X20968965Y22820893D01*
X20949461Y22869614D01*
X20935445Y22912704D01*
X20935429Y22912765D01*
X20922558Y22976504D01*
X20914091Y23051704D01*
X20910414Y23130167D01*
X20911910Y23203695D01*
X20918964Y23264089D01*
X20938795Y23334549D01*
X20978370Y23416065D01*
X21031723Y23486792D01*
X21096053Y23543165D01*
X21168558Y23581620D01*
X21229056Y23600025D01*
X21323236Y23612915D01*
X21415231Y23607603D01*
X21501989Y23585002D01*
X21580458Y23546026D01*
X21647584Y23491586D01*
X21700315Y23422596D01*
X21709348Y23406668D01*
X21728370Y23367779D01*
X21743919Y23325540D01*
X21757326Y23275272D01*
X21769923Y23212297D01*
X21783041Y23131934D01*
X21787348Y23104860D01*
X21803945Y23021131D01*
X21823401Y22956577D01*
X21847113Y22908899D01*
X21876476Y22875793D01*
X21912890Y22854959D01*
X21957749Y22844095D01*
X22006905Y22841603D01*
X22068852Y22853913D01*
X22119240Y22885053D01*
X22157985Y22934939D01*
X22185003Y23003485D01*
X22200211Y23090608D01*
X22199835Y23171093D01*
X22185214Y23261273D01*
X22158245Y23352600D01*
X22120985Y23438143D01*
X22075490Y23510970D01*
X22049886Y23544546D01*
X22136799Y23618086D01*
X22223713Y23691627D01*
X22246220Y23667553D01*
G37*
G36*
X22246220Y32591878D02*
G01*
X22278254Y32551607D01*
X22318173Y32486026D01*
X22355156Y32409307D01*
X22386347Y32327513D01*
X22408889Y32246705D01*
X22413634Y32220245D01*
X22420058Y32159751D01*
X22423541Y32089843D01*
X22423946Y32018340D01*
X22421134Y31953063D01*
X22414968Y31901833D01*
X22390256Y31807389D01*
X22351074Y31722396D01*
X22298114Y31654332D01*
X22230538Y31602376D01*
X22147508Y31565711D01*
X22048186Y31543518D01*
X21977006Y31539141D01*
X21884254Y31550702D01*
X21797849Y31580930D01*
X21720751Y31628318D01*
X21655918Y31691359D01*
X21606309Y31768547D01*
X21592727Y31799489D01*
X21577195Y31847026D01*
X21563675Y31905948D01*
X21550767Y31981630D01*
X21540597Y32045803D01*
X21529697Y32105347D01*
X21519010Y32150327D01*
X21507364Y32184796D01*
X21493588Y32212807D01*
X21476511Y32238413D01*
X21464311Y32253210D01*
X21419029Y32288575D01*
X21367344Y32306153D01*
X21313062Y32306856D01*
X21259993Y32291598D01*
X21211943Y32261291D01*
X21172722Y32216850D01*
X21146138Y32159187D01*
X21141465Y32141755D01*
X21133207Y32099629D01*
X21130025Y32064770D01*
X21135741Y32003454D01*
X21151085Y31931452D01*
X21173807Y31857837D01*
X21201659Y31791194D01*
X21206585Y31781133D01*
X21223877Y31744883D01*
X21235991Y31718008D01*
X21240556Y31705721D01*
X21238157Y31702587D01*
X21221595Y31688891D01*
X21192745Y31667684D01*
X21155695Y31642035D01*
X21119678Y31618502D01*
X21087602Y31600399D01*
X21066613Y31593359D01*
X21053276Y31595832D01*
X21051515Y31597095D01*
X21035233Y31616805D01*
X21014369Y31651497D01*
X20991440Y31696019D01*
X20968965Y31745217D01*
X20949461Y31793938D01*
X20935445Y31837028D01*
X20935429Y31837089D01*
X20922558Y31900828D01*
X20914091Y31976028D01*
X20910414Y32054492D01*
X20911910Y32128019D01*
X20918964Y32188413D01*
X20938795Y32258873D01*
X20978370Y32340389D01*
X21031723Y32411116D01*
X21096053Y32467490D01*
X21168558Y32505945D01*
X21229056Y32524349D01*
X21323236Y32537239D01*
X21415231Y32531927D01*
X21501989Y32509327D01*
X21580458Y32470350D01*
X21647584Y32415910D01*
X21700315Y32346920D01*
X21709348Y32330992D01*
X21728370Y32292103D01*
X21743919Y32249864D01*
X21757326Y32199597D01*
X21769923Y32136621D01*
X21783041Y32056258D01*
X21787348Y32029184D01*
X21803945Y31945455D01*
X21823401Y31880902D01*
X21847113Y31833223D01*
X21876476Y31800117D01*
X21912890Y31779283D01*
X21957749Y31768419D01*
X22006905Y31765928D01*
X22068852Y31778237D01*
X22119240Y31809377D01*
X22157985Y31859263D01*
X22185003Y31927810D01*
X22200211Y32014933D01*
X22199835Y32095418D01*
X22185214Y32185598D01*
X22158245Y32276925D01*
X22120985Y32362467D01*
X22075490Y32435294D01*
X22049886Y32468870D01*
X22136799Y32542411D01*
X22223713Y32615951D01*
X22246220Y32591878D01*
G37*
G36*
X22246220Y37950901D02*
G01*
X22278254Y37910631D01*
X22318173Y37845049D01*
X22355156Y37768330D01*
X22386347Y37686536D01*
X22408889Y37605729D01*
X22413634Y37579269D01*
X22420058Y37518775D01*
X22423541Y37448866D01*
X22423946Y37377363D01*
X22421134Y37312086D01*
X22414968Y37260856D01*
X22390256Y37166413D01*
X22351074Y37081420D01*
X22298114Y37013355D01*
X22230538Y36961400D01*
X22147508Y36924735D01*
X22048186Y36902542D01*
X21977006Y36898165D01*
X21884254Y36909725D01*
X21797849Y36939953D01*
X21720751Y36987341D01*
X21655918Y37050383D01*
X21606309Y37127571D01*
X21592727Y37158513D01*
X21577195Y37206049D01*
X21563675Y37264972D01*
X21550767Y37340653D01*
X21540597Y37404826D01*
X21529697Y37464370D01*
X21519010Y37509350D01*
X21507364Y37543820D01*
X21493588Y37571831D01*
X21476511Y37597436D01*
X21464311Y37612233D01*
X21419029Y37647599D01*
X21367344Y37665176D01*
X21313062Y37665879D01*
X21259993Y37650621D01*
X21211943Y37620315D01*
X21172722Y37575873D01*
X21146138Y37518210D01*
X21141465Y37500779D01*
X21133207Y37458652D01*
X21130025Y37423793D01*
X21135741Y37362477D01*
X21151085Y37290476D01*
X21173807Y37216861D01*
X21201659Y37150218D01*
X21206585Y37140156D01*
X21223877Y37103906D01*
X21235991Y37077032D01*
X21240556Y37064744D01*
X21238157Y37061611D01*
X21221595Y37047914D01*
X21192745Y37026707D01*
X21155695Y37001058D01*
X21119678Y36977525D01*
X21087602Y36959422D01*
X21066613Y36952382D01*
X21053276Y36954855D01*
X21051515Y36956119D01*
X21035233Y36975828D01*
X21014369Y37010521D01*
X20991440Y37055043D01*
X20968965Y37104241D01*
X20949461Y37152962D01*
X20935445Y37196051D01*
X20935429Y37196113D01*
X20922558Y37259852D01*
X20914091Y37335052D01*
X20910414Y37413515D01*
X20911910Y37487043D01*
X20918964Y37547437D01*
X20938795Y37617897D01*
X20978370Y37699413D01*
X21031723Y37770140D01*
X21096053Y37826513D01*
X21168558Y37864968D01*
X21229056Y37883373D01*
X21323236Y37896263D01*
X21415231Y37890951D01*
X21501989Y37868350D01*
X21580458Y37829374D01*
X21647584Y37774934D01*
X21700315Y37705943D01*
X21709348Y37690016D01*
X21728370Y37651126D01*
X21743919Y37608888D01*
X21757326Y37558620D01*
X21769923Y37495645D01*
X21783041Y37415282D01*
X21787348Y37388208D01*
X21803945Y37304479D01*
X21823401Y37239925D01*
X21847113Y37192246D01*
X21876476Y37159141D01*
X21912890Y37138306D01*
X21957749Y37127443D01*
X22006905Y37124951D01*
X22068852Y37137261D01*
X22119240Y37168401D01*
X22157985Y37218287D01*
X22185003Y37286833D01*
X22200211Y37373956D01*
X22199835Y37454441D01*
X22185214Y37544621D01*
X22158245Y37635948D01*
X22120985Y37721491D01*
X22075490Y37794318D01*
X22049886Y37827894D01*
X22136799Y37901434D01*
X22223713Y37974975D01*
X22246220Y37950901D01*
G37*
G36*
X9982498Y31584156D02*
G01*
X9992479Y31581547D01*
X10023049Y31573525D01*
X10072774Y31560464D01*
X10140426Y31542686D01*
X10224779Y31520515D01*
X10324603Y31494273D01*
X10438672Y31464283D01*
X10565757Y31430868D01*
X10704631Y31394350D01*
X10854066Y31355053D01*
X11012835Y31313299D01*
X11179709Y31269412D01*
X11353461Y31223713D01*
X11532862Y31176525D01*
X13058080Y30775344D01*
X13058080Y30567106D01*
X13058080Y30564462D01*
X13057837Y30499563D01*
X13057195Y30443136D01*
X13056226Y30398599D01*
X13055005Y30369370D01*
X13053605Y30358868D01*
X13053172Y30358778D01*
X13038519Y30355032D01*
X13004183Y30346064D01*
X12951626Y30332260D01*
X12882310Y30314008D01*
X12797696Y30291694D01*
X12699244Y30265706D01*
X12588417Y30236431D01*
X12466677Y30204255D01*
X12335483Y30169566D01*
X12196299Y30132751D01*
X12050585Y30094196D01*
X11899803Y30054290D01*
X11745414Y30013418D01*
X11588879Y29971969D01*
X11431661Y29930329D01*
X11275220Y29888885D01*
X11121018Y29848024D01*
X10970517Y29808134D01*
X10825177Y29769601D01*
X10686461Y29732812D01*
X10555829Y29698155D01*
X10434743Y29666016D01*
X10324665Y29636783D01*
X10227056Y29610843D01*
X10143377Y29588583D01*
X10075090Y29570389D01*
X10023657Y29556649D01*
X9990538Y29547750D01*
X9977195Y29544079D01*
X9975235Y29543543D01*
X9969182Y29543991D01*
X9964715Y29550288D01*
X9961596Y29565148D01*
X9959585Y29591288D01*
X9958445Y29631425D01*
X9957935Y29688273D01*
X9957819Y29764550D01*
X9957849Y29827828D01*
X9958138Y29888169D01*
X9958998Y29931612D01*
X9960739Y29961056D01*
X9963672Y29979398D01*
X9968108Y29989537D01*
X9974357Y29994370D01*
X9982732Y29996798D01*
X9983905Y29997069D01*
X10002148Y30001331D01*
X10040248Y30010251D01*
X10096795Y30023498D01*
X10170382Y30040742D01*
X10259599Y30061653D01*
X10363038Y30085900D01*
X10479292Y30113155D01*
X10606949Y30143085D01*
X10744604Y30175361D01*
X10890846Y30209654D01*
X11044267Y30245632D01*
X11203459Y30282965D01*
X11219047Y30286621D01*
X11404583Y30330168D01*
X11569730Y30369007D01*
X11715586Y30403413D01*
X11843246Y30433662D01*
X11953807Y30460031D01*
X12048366Y30482796D01*
X12128017Y30502232D01*
X12193859Y30518617D01*
X12246986Y30532225D01*
X12288497Y30543333D01*
X12319486Y30552218D01*
X12341050Y30559154D01*
X12354285Y30564419D01*
X12360289Y30568288D01*
X12360157Y30571037D01*
X12354985Y30572943D01*
X12354457Y30573058D01*
X12336282Y30577240D01*
X12298125Y30586170D01*
X12241438Y30599504D01*
X12167674Y30616898D01*
X12078285Y30638010D01*
X11974722Y30662496D01*
X11858438Y30690012D01*
X11730885Y30720215D01*
X11593515Y30752761D01*
X11447781Y30787307D01*
X11295133Y30823510D01*
X11137025Y30861025D01*
X9963355Y31139578D01*
X9960353Y31365092D01*
X9957352Y31590605D01*
X9982498Y31584156D01*
G37*
G36*
X10552958Y37874056D02*
G01*
X10665997Y37873806D01*
X10878816Y37873313D01*
X11071135Y37872824D01*
X11244054Y37872326D01*
X11398675Y37871802D01*
X11536099Y37871238D01*
X11657426Y37870620D01*
X11763758Y37869931D01*
X11856194Y37869158D01*
X11935837Y37868286D01*
X12003787Y37867299D01*
X12061144Y37866182D01*
X12109010Y37864921D01*
X12148486Y37863501D01*
X12180671Y37861907D01*
X12206668Y37860124D01*
X12227578Y37858137D01*
X12244500Y37855931D01*
X12258536Y37853492D01*
X12270786Y37850804D01*
X12406707Y37810850D01*
X12545317Y37752817D01*
X12669312Y37681366D01*
X12776433Y37597628D01*
X12794091Y37581047D01*
X12888245Y37475212D01*
X12967206Y37354813D01*
X13029858Y37222142D01*
X13075086Y37079492D01*
X13101774Y36929154D01*
X13104085Y36904514D01*
X13107373Y36815677D01*
X13104814Y36718466D01*
X13096855Y36622630D01*
X13083938Y36537920D01*
X13076537Y36503933D01*
X13032373Y36361711D01*
X12969737Y36229793D01*
X12889955Y36109711D01*
X12794353Y36002995D01*
X12684257Y35911176D01*
X12560994Y35835785D01*
X12425889Y35778351D01*
X12422531Y35777204D01*
X12399398Y35769277D01*
X12377837Y35762090D01*
X12356717Y35755605D01*
X12334911Y35749787D01*
X12311288Y35744600D01*
X12284719Y35740007D01*
X12254075Y35735973D01*
X12218226Y35732462D01*
X12176044Y35729436D01*
X12126398Y35726860D01*
X12068160Y35724699D01*
X12000199Y35722915D01*
X11921388Y35721472D01*
X11830595Y35720335D01*
X11726693Y35719467D01*
X11608551Y35718832D01*
X11475041Y35718394D01*
X11325033Y35718116D01*
X11157397Y35717964D01*
X10971005Y35717899D01*
X10764727Y35717887D01*
X10537433Y35717891D01*
X8916548Y35717891D01*
X8919551Y35936570D01*
X8922553Y36155249D01*
X10555726Y36161066D01*
X10582845Y36161162D01*
X10805555Y36161922D01*
X11007365Y36162587D01*
X11189389Y36163209D01*
X11352743Y36163838D01*
X11498542Y36164525D01*
X11627900Y36165321D01*
X11741934Y36166276D01*
X11841758Y36167442D01*
X11928487Y36168870D01*
X12003236Y36170609D01*
X12067120Y36172711D01*
X12121255Y36175227D01*
X12166755Y36178207D01*
X12204735Y36181703D01*
X12236311Y36185765D01*
X12262598Y36190443D01*
X12284710Y36195789D01*
X12303763Y36201854D01*
X12320872Y36208688D01*
X12337151Y36216342D01*
X12353717Y36224866D01*
X12371684Y36234313D01*
X12392166Y36244732D01*
X12442489Y36273084D01*
X12527117Y36339398D01*
X12597618Y36420619D01*
X12651612Y36513747D01*
X12686716Y36615783D01*
X12689200Y36627166D01*
X12698353Y36692134D01*
X12702694Y36767379D01*
X12702220Y36844927D01*
X12696929Y36916807D01*
X12686819Y36975046D01*
X12663341Y37047974D01*
X12613243Y37146544D01*
X12545648Y37231818D01*
X12460973Y37303395D01*
X12359635Y37360871D01*
X12242052Y37403844D01*
X12155683Y37428322D01*
X10536350Y37431532D01*
X8917017Y37434743D01*
X8917017Y37656187D01*
X8917017Y37877631D01*
X10552958Y37874056D01*
G37*
G36*
X21755788Y27877518D02*
G01*
X21852214Y27874930D01*
X21931973Y27869897D01*
X21998100Y27862037D01*
X22053628Y27850964D01*
X22101594Y27836297D01*
X22145031Y27817651D01*
X22192364Y27790412D01*
X22267918Y27729035D01*
X22332439Y27653522D01*
X22382222Y27568547D01*
X22413564Y27478784D01*
X22424647Y27407672D01*
X22424572Y27308362D01*
X22408093Y27210509D01*
X22376241Y27119529D01*
X22330049Y27040835D01*
X22303762Y27005758D01*
X22374950Y26919039D01*
X22395730Y26893454D01*
X22421879Y26860333D01*
X22439911Y26836299D01*
X22446791Y26825312D01*
X22446790Y26825128D01*
X22438577Y26814539D01*
X22417875Y26794504D01*
X22389419Y26769058D01*
X22357942Y26742239D01*
X22328178Y26718084D01*
X22304860Y26700630D01*
X22292723Y26693915D01*
X22285792Y26698892D01*
X22267175Y26718059D01*
X22240650Y26748270D01*
X22209462Y26785939D01*
X22135210Y26877963D01*
X22072648Y26855283D01*
X22056584Y26849790D01*
X22037236Y26844506D01*
X22014997Y26840425D01*
X21987119Y26837393D01*
X21950848Y26835256D01*
X21903436Y26833860D01*
X21842132Y26833051D01*
X21764184Y26832676D01*
X21666842Y26832580D01*
X21579306Y26832668D01*
X21490762Y26833232D01*
X21419281Y26834645D01*
X21362076Y26837275D01*
X21316357Y26841491D01*
X21279338Y26847661D01*
X21248230Y26856155D01*
X21220243Y26867340D01*
X21192591Y26881586D01*
X21162485Y26899261D01*
X21154086Y26904429D01*
X21066863Y26970896D01*
X20998305Y27049137D01*
X20948802Y27138464D01*
X20918743Y27238189D01*
X20908517Y27347627D01*
X20909030Y27358257D01*
X21136535Y27358257D01*
X21137782Y27316071D01*
X21148201Y27255849D01*
X21171146Y27205542D01*
X21209010Y27158556D01*
X21218733Y27148624D01*
X21243824Y27124659D01*
X21268153Y27105754D01*
X21294583Y27091311D01*
X21325976Y27080730D01*
X21365197Y27073414D01*
X21415108Y27068766D01*
X21478573Y27066186D01*
X21558454Y27065076D01*
X21657615Y27064840D01*
X21660848Y27064840D01*
X21740106Y27065124D01*
X21811913Y27065884D01*
X21873329Y27067050D01*
X21921417Y27068552D01*
X21953236Y27070317D01*
X21965851Y27072276D01*
X21965455Y27077001D01*
X21954824Y27095998D01*
X21933994Y27125295D01*
X21905705Y27160855D01*
X21838124Y27241997D01*
X21879815Y27279021D01*
X21890251Y27288195D01*
X21927190Y27319743D01*
X21961336Y27347813D01*
X22001165Y27379582D01*
X22077033Y27285248D01*
X22152900Y27190914D01*
X22174058Y27232156D01*
X22177598Y27239710D01*
X22190898Y27283411D01*
X22198754Y27335160D01*
X22200174Y27385447D01*
X22194165Y27424763D01*
X22190066Y27436342D01*
X22157637Y27498874D01*
X22112354Y27554768D01*
X22059106Y27598879D01*
X22002785Y27626065D01*
X21992627Y27628589D01*
X21960955Y27633121D01*
X21914335Y27636511D01*
X21850974Y27638836D01*
X21769075Y27640174D01*
X21666842Y27640602D01*
X21666363Y27640602D01*
X21567576Y27640330D01*
X21488078Y27639189D01*
X21425028Y27636689D01*
X21375586Y27632339D01*
X21336912Y27625648D01*
X21306165Y27616126D01*
X21280505Y27603282D01*
X21257091Y27586625D01*
X21233083Y27565665D01*
X21203791Y27536384D01*
X21164937Y27483069D01*
X21143433Y27425657D01*
X21136535Y27358257D01*
X20909030Y27358257D01*
X20911460Y27408668D01*
X20931988Y27513485D01*
X20971179Y27608664D01*
X21027951Y27692396D01*
X21101220Y27762868D01*
X21189904Y27818269D01*
X21221221Y27832207D01*
X21267816Y27847794D01*
X21321480Y27859703D01*
X21385215Y27868310D01*
X21462019Y27873993D01*
X21554895Y27877126D01*
X21666842Y27878087D01*
X21755788Y27877518D01*
G37*
G36*
X11872568Y29172321D02*
G01*
X11984736Y29171598D01*
X12077263Y29170307D01*
X12150797Y29168441D01*
X12205983Y29165993D01*
X12243467Y29162957D01*
X12292902Y29156574D01*
X12450441Y29125906D01*
X12590739Y29081405D01*
X12713938Y29022938D01*
X12820185Y28950372D01*
X12909624Y28863572D01*
X12982399Y28762407D01*
X13038655Y28646741D01*
X13078537Y28516443D01*
X13102189Y28371378D01*
X13103141Y28361574D01*
X13107830Y28253619D01*
X13103308Y28141328D01*
X13090304Y28031091D01*
X13069549Y27929303D01*
X13041772Y27842354D01*
X13027607Y27809418D01*
X12971123Y27707077D01*
X12900716Y27613417D01*
X12820054Y27532860D01*
X12732806Y27469830D01*
X12667717Y27436010D01*
X12560282Y27394597D01*
X12442082Y27363160D01*
X12319071Y27343184D01*
X12197204Y27336157D01*
X12105857Y27336112D01*
X12105857Y27534421D01*
X12105857Y27732730D01*
X12202740Y27740008D01*
X12329856Y27755972D01*
X12442396Y27784515D01*
X12536895Y27825600D01*
X12613619Y27879464D01*
X12672832Y27946342D01*
X12714798Y28026473D01*
X12739784Y28120093D01*
X12748054Y28227438D01*
X12740275Y28326600D01*
X12714290Y28426186D01*
X12670741Y28514362D01*
X12610344Y28589247D01*
X12606603Y28592900D01*
X12553917Y28637190D01*
X12494229Y28673952D01*
X12425427Y28703687D01*
X12345402Y28726894D01*
X12252043Y28744073D01*
X12143240Y28755726D01*
X12016883Y28762350D01*
X11870860Y28764447D01*
X11640818Y28764447D01*
X11640818Y28044744D01*
X11640818Y27325040D01*
X11269457Y27325040D01*
X11221243Y27325137D01*
X11127601Y27325852D01*
X11037926Y27327186D01*
X10955853Y27329050D01*
X10885017Y27331353D01*
X10829055Y27334005D01*
X10791602Y27336915D01*
X10782890Y27337912D01*
X10633361Y27363284D01*
X10493307Y27402657D01*
X10367496Y27454708D01*
X10336867Y27470303D01*
X10291797Y27496146D01*
X10251972Y27524298D01*
X10210849Y27559601D01*
X10161884Y27606898D01*
X10106011Y27666731D01*
X10038349Y27756395D01*
X9987134Y27850821D01*
X9950832Y27953718D01*
X9927910Y28068793D01*
X9916835Y28199757D01*
X9917095Y28240513D01*
X10281677Y28240513D01*
X10291214Y28146510D01*
X10316659Y28056474D01*
X10358029Y27974109D01*
X10415343Y27903118D01*
X10445994Y27875282D01*
X10509332Y27830836D01*
X10583575Y27795407D01*
X10674228Y27766081D01*
X10677075Y27765315D01*
X10707587Y27757927D01*
X10739437Y27752129D01*
X10776094Y27747649D01*
X10821026Y27744216D01*
X10877699Y27741561D01*
X10949582Y27739411D01*
X11040142Y27737496D01*
X11319719Y27732273D01*
X11319719Y28248360D01*
X11319719Y28764447D01*
X11117358Y28764447D01*
X11031125Y28763666D01*
X10899715Y28758499D01*
X10786559Y28748055D01*
X10689486Y28731818D01*
X10606329Y28709274D01*
X10534920Y28679909D01*
X10473089Y28643207D01*
X10418667Y28598655D01*
X10402253Y28582135D01*
X10348336Y28509295D01*
X10310255Y28425609D01*
X10288030Y28334781D01*
X10281677Y28240513D01*
X9917095Y28240513D01*
X9917759Y28344616D01*
X9934161Y28481874D01*
X9966821Y28605817D01*
X10016223Y28717810D01*
X10082846Y28819223D01*
X10167173Y28911424D01*
X10196330Y28937725D01*
X10287083Y29005596D01*
X10388858Y29061505D01*
X10504978Y29107092D01*
X10638769Y29143995D01*
X10657465Y29148137D01*
X10678785Y29152242D01*
X10701839Y29155740D01*
X10728483Y29158695D01*
X10760573Y29161169D01*
X10799963Y29163227D01*
X10848510Y29164931D01*
X10908068Y29166346D01*
X10980494Y29167535D01*
X11067643Y29168562D01*
X11171369Y29169489D01*
X11293530Y29170382D01*
X11319719Y29170551D01*
X11435979Y29171303D01*
X11586731Y29172090D01*
X11740115Y29172483D01*
X11872568Y29172321D01*
G37*
G36*
X12316836Y19097498D02*
G01*
X12400743Y19089957D01*
X12471791Y19078729D01*
X12566492Y19054863D01*
X12693962Y19007079D01*
X12804981Y18944917D01*
X12899243Y18868692D01*
X12976441Y18778718D01*
X13036270Y18675312D01*
X13078424Y18558788D01*
X13102595Y18429460D01*
X13106176Y18379610D01*
X13107460Y18318660D01*
X13105940Y18262311D01*
X13104240Y18237896D01*
X13089487Y18126361D01*
X13062814Y18029262D01*
X13022144Y17941930D01*
X12965400Y17859698D01*
X12890507Y17777895D01*
X12791857Y17681012D01*
X12924968Y17681012D01*
X13058080Y17681012D01*
X13058080Y17487246D01*
X13058080Y17293480D01*
X11869252Y17293480D01*
X11715970Y17293502D01*
X11539353Y17293607D01*
X11382599Y17293811D01*
X11244430Y17294131D01*
X11123567Y17294584D01*
X11018733Y17295186D01*
X10928647Y17295953D01*
X10852033Y17296902D01*
X10787611Y17298050D01*
X10734103Y17299413D01*
X10690230Y17301007D01*
X10654715Y17302849D01*
X10626278Y17304956D01*
X10603641Y17307343D01*
X10585526Y17310028D01*
X10577795Y17311404D01*
X10441458Y17345730D01*
X10320066Y17396278D01*
X10213913Y17462668D01*
X10123297Y17544520D01*
X10048513Y17641453D01*
X9989856Y17753089D01*
X9947624Y17879048D01*
X9922110Y18018950D01*
X9913613Y18172415D01*
X9914215Y18215207D01*
X9925587Y18355484D01*
X9951770Y18481322D01*
X9993296Y18594751D01*
X10050694Y18697805D01*
X10112796Y18779237D01*
X10197687Y18860711D01*
X10295299Y18925635D01*
X10406661Y18974550D01*
X10532802Y19007999D01*
X10674754Y19026524D01*
X10777174Y19034191D01*
X10777174Y18833713D01*
X10777174Y18633235D01*
X10701677Y18633235D01*
X10644609Y18629787D01*
X10558624Y18611495D01*
X10480234Y18579193D01*
X10413771Y18534840D01*
X10363570Y18480395D01*
X10340194Y18445090D01*
X10316105Y18401706D01*
X10300018Y18359153D01*
X10290438Y18311709D01*
X10285868Y18253655D01*
X10284812Y18179269D01*
X10285612Y18127348D01*
X10290708Y18052594D01*
X10301764Y17992097D01*
X10320232Y17941061D01*
X10347567Y17894691D01*
X10385225Y17848191D01*
X10419430Y17813459D01*
X10457876Y17782874D01*
X10500877Y17758284D01*
X10550937Y17739095D01*
X10610556Y17724712D01*
X10682237Y17714540D01*
X10768482Y17707986D01*
X10871792Y17704454D01*
X10994668Y17703349D01*
X11284133Y17703157D01*
X11596528Y17703157D01*
X11920395Y17703241D01*
X11931904Y17703251D01*
X12018076Y17703760D01*
X12100022Y17704962D01*
X12174158Y17706752D01*
X12236900Y17709028D01*
X12284665Y17711685D01*
X12313869Y17714620D01*
X12329854Y17717392D01*
X12437400Y17746503D01*
X12530775Y17791121D01*
X12608946Y17850483D01*
X12670879Y17923827D01*
X12715538Y18010392D01*
X12721357Y18027513D01*
X12734936Y18089060D01*
X12743112Y18161515D01*
X12745526Y18236917D01*
X12741815Y18307307D01*
X12731619Y18364723D01*
X12704009Y18439817D01*
X12656898Y18516921D01*
X12594301Y18579420D01*
X12515776Y18627577D01*
X12420877Y18661651D01*
X12309160Y18681904D01*
X12180181Y18688597D01*
X12079507Y18684643D01*
X11974034Y18668992D01*
X11883506Y18640745D01*
X11805664Y18599158D01*
X11738249Y18543491D01*
X11730545Y18535640D01*
X11694287Y18493293D01*
X11664871Y18447382D01*
X11641668Y18395272D01*
X11624052Y18334328D01*
X11611396Y18261916D01*
X11603072Y18175400D01*
X11598454Y18072145D01*
X11596915Y17949517D01*
X11596528Y17703157D01*
X11284133Y17703157D01*
X11289622Y18038096D01*
X11290929Y18110396D01*
X11293150Y18203179D01*
X11295802Y18278297D01*
X11299042Y18338449D01*
X11303026Y18386331D01*
X11307911Y18424642D01*
X11313852Y18456078D01*
X11318336Y18475181D01*
X11360708Y18609033D01*
X11418742Y18727228D01*
X11492442Y18829773D01*
X11581815Y18916674D01*
X11686867Y18987936D01*
X11807603Y19043565D01*
X11944030Y19083568D01*
X11977248Y19089639D01*
X12050276Y19097421D01*
X12135371Y19101287D01*
X12180181Y19101290D01*
X12226302Y19101294D01*
X12316836Y19097498D01*
G37*
G36*
X11607969Y16634671D02*
G01*
X11747432Y16634635D01*
X11867523Y16634517D01*
X11969971Y16634268D01*
X12056504Y16633840D01*
X12128850Y16633185D01*
X12188736Y16632253D01*
X12237892Y16630997D01*
X12278046Y16629368D01*
X12310924Y16627317D01*
X12338256Y16624797D01*
X12361770Y16621757D01*
X12383194Y16618151D01*
X12404255Y16613929D01*
X12426682Y16609043D01*
X12544624Y16577055D01*
X12675735Y16524632D01*
X12790470Y16458341D01*
X12888362Y16378646D01*
X12968944Y16286013D01*
X13031750Y16180907D01*
X13076313Y16063793D01*
X13102168Y15935137D01*
X13108742Y15812413D01*
X13096527Y15687620D01*
X13064686Y15571508D01*
X13013611Y15465115D01*
X12943697Y15369475D01*
X12855337Y15285626D01*
X12790536Y15234020D01*
X12924308Y15234020D01*
X13058080Y15234020D01*
X13058080Y15029181D01*
X13058080Y14824343D01*
X10987548Y14824343D01*
X8917017Y14824343D01*
X8917017Y15029181D01*
X8917017Y15234020D01*
X9583979Y15234020D01*
X10250941Y15234020D01*
X10195727Y15271342D01*
X10144191Y15310273D01*
X10061783Y15393009D01*
X9994604Y15489139D01*
X9945677Y15594757D01*
X9934887Y15632999D01*
X9923304Y15701797D01*
X9919789Y15743349D01*
X10285652Y15743349D01*
X10285724Y15731364D01*
X10295845Y15627694D01*
X10323288Y15536800D01*
X10368432Y15458273D01*
X10431653Y15391707D01*
X10513329Y15336694D01*
X10613839Y15292825D01*
X10733559Y15259694D01*
X10738783Y15258587D01*
X10759783Y15254594D01*
X10782638Y15251196D01*
X10809193Y15248346D01*
X10841292Y15245997D01*
X10880780Y15244101D01*
X10929502Y15242612D01*
X10989301Y15241481D01*
X11062023Y15240662D01*
X11149511Y15240107D01*
X11253611Y15239770D01*
X11376166Y15239602D01*
X11519022Y15239556D01*
X11593106Y15239559D01*
X11723598Y15239602D01*
X11834737Y15239744D01*
X11928376Y15240044D01*
X12006366Y15240561D01*
X12070562Y15241355D01*
X12122815Y15242483D01*
X12164978Y15244006D01*
X12198905Y15245981D01*
X12226448Y15248468D01*
X12249460Y15251526D01*
X12269793Y15255214D01*
X12289301Y15259591D01*
X12309836Y15264715D01*
X12392981Y15289689D01*
X12496505Y15334957D01*
X12581152Y15391423D01*
X12647192Y15459328D01*
X12694895Y15538908D01*
X12724532Y15630402D01*
X12732878Y15681315D01*
X12735671Y15777782D01*
X12722048Y15870119D01*
X12693039Y15954755D01*
X12649674Y16028119D01*
X12592984Y16086637D01*
X12566441Y16105759D01*
X12492401Y16146392D01*
X12405131Y16180330D01*
X12310696Y16205031D01*
X12306510Y16205859D01*
X12284198Y16209850D01*
X12260095Y16213251D01*
X12232351Y16216108D01*
X12199114Y16218468D01*
X12158536Y16220377D01*
X12108766Y16221880D01*
X12047953Y16223026D01*
X11974246Y16223859D01*
X11885797Y16224426D01*
X11780754Y16224774D01*
X11657267Y16224949D01*
X11513486Y16224997D01*
X11472220Y16224994D01*
X11334428Y16224919D01*
X11216449Y16224710D01*
X11116448Y16224319D01*
X11032594Y16223701D01*
X10963054Y16222808D01*
X10905995Y16221595D01*
X10859584Y16220015D01*
X10821989Y16218021D01*
X10791377Y16215568D01*
X10765915Y16212608D01*
X10743771Y16209096D01*
X10723111Y16204985D01*
X10658310Y16189149D01*
X10553000Y16152917D01*
X10466758Y16107430D01*
X10398667Y16052154D01*
X10347812Y15986557D01*
X10344187Y15980457D01*
X10315634Y15925619D01*
X10297728Y15873171D01*
X10288418Y15815090D01*
X10285652Y15743349D01*
X9919789Y15743349D01*
X9916633Y15780664D01*
X9915150Y15862741D01*
X9919134Y15941168D01*
X9928864Y16009085D01*
X9938909Y16050667D01*
X9981719Y16165718D01*
X10044832Y16272061D01*
X10128364Y16369911D01*
X10129283Y16370827D01*
X10209511Y16442319D01*
X10294683Y16500446D01*
X10388949Y16547277D01*
X10496462Y16584876D01*
X10621374Y16615312D01*
X10621424Y16615322D01*
X10641470Y16619063D01*
X10663431Y16622294D01*
X10688991Y16625052D01*
X10719838Y16627375D01*
X10757656Y16629297D01*
X10804131Y16630856D01*
X10860950Y16632088D01*
X10929798Y16633031D01*
X11012362Y16633720D01*
X11110326Y16634192D01*
X11225378Y16634484D01*
X11359202Y16634633D01*
X11513486Y16634674D01*
X11607969Y16634671D01*
G37*
G36*
X11607969Y21506511D02*
G01*
X11747432Y21506475D01*
X11867523Y21506356D01*
X11969971Y21506108D01*
X12056504Y21505680D01*
X12128850Y21505024D01*
X12188736Y21504093D01*
X12237892Y21502837D01*
X12278046Y21501208D01*
X12310924Y21499157D01*
X12338256Y21496636D01*
X12361770Y21493597D01*
X12383194Y21489991D01*
X12404255Y21485769D01*
X12426682Y21480883D01*
X12544624Y21448894D01*
X12675735Y21396472D01*
X12790470Y21330181D01*
X12888362Y21250486D01*
X12968944Y21157853D01*
X13031750Y21052746D01*
X13076313Y20935633D01*
X13102168Y20806977D01*
X13108742Y20684253D01*
X13096527Y20559459D01*
X13064686Y20443348D01*
X13013611Y20336954D01*
X12943697Y20241315D01*
X12855337Y20157466D01*
X12790536Y20105860D01*
X12924308Y20105860D01*
X13058080Y20105860D01*
X13058080Y19901021D01*
X13058080Y19696182D01*
X10987548Y19696182D01*
X8917017Y19696182D01*
X8917017Y19901021D01*
X8917017Y20105860D01*
X9583979Y20105860D01*
X10250941Y20105860D01*
X10195727Y20143182D01*
X10144191Y20182112D01*
X10061783Y20264848D01*
X9994604Y20360979D01*
X9945677Y20466596D01*
X9934887Y20504838D01*
X9923304Y20573636D01*
X9919789Y20615188D01*
X10285652Y20615188D01*
X10285724Y20603204D01*
X10295845Y20499534D01*
X10323288Y20408639D01*
X10368432Y20330113D01*
X10431653Y20263547D01*
X10513329Y20208534D01*
X10613839Y20164665D01*
X10733559Y20131534D01*
X10738783Y20130426D01*
X10759783Y20126433D01*
X10782638Y20123035D01*
X10809193Y20120185D01*
X10841292Y20117836D01*
X10880780Y20115941D01*
X10929502Y20114451D01*
X10989301Y20113321D01*
X11062023Y20112502D01*
X11149511Y20111947D01*
X11253611Y20111609D01*
X11376166Y20111441D01*
X11519022Y20111396D01*
X11593106Y20111398D01*
X11723598Y20111441D01*
X11834737Y20111583D01*
X11928376Y20111884D01*
X12006366Y20112401D01*
X12070562Y20113195D01*
X12122815Y20114323D01*
X12164978Y20115845D01*
X12198905Y20117821D01*
X12226448Y20120308D01*
X12249460Y20123366D01*
X12269793Y20127054D01*
X12289301Y20131430D01*
X12309836Y20136554D01*
X12392981Y20161528D01*
X12496505Y20206796D01*
X12581152Y20263263D01*
X12647192Y20331167D01*
X12694895Y20410747D01*
X12724532Y20502242D01*
X12732878Y20553155D01*
X12735671Y20649621D01*
X12722048Y20741959D01*
X12693039Y20826595D01*
X12649674Y20899959D01*
X12592984Y20958477D01*
X12566441Y20977598D01*
X12492401Y21018231D01*
X12405131Y21052170D01*
X12310696Y21076870D01*
X12306510Y21077698D01*
X12284198Y21081690D01*
X12260095Y21085091D01*
X12232351Y21087948D01*
X12199114Y21090308D01*
X12158536Y21092216D01*
X12108766Y21093720D01*
X12047953Y21094865D01*
X11974246Y21095698D01*
X11885797Y21096266D01*
X11780754Y21096613D01*
X11657267Y21096788D01*
X11513486Y21096836D01*
X11472220Y21096833D01*
X11334428Y21096759D01*
X11216449Y21096549D01*
X11116448Y21096159D01*
X11032594Y21095540D01*
X10963054Y21094647D01*
X10905995Y21093434D01*
X10859584Y21091854D01*
X10821989Y21089861D01*
X10791377Y21087407D01*
X10765915Y21084448D01*
X10743771Y21080936D01*
X10723111Y21076825D01*
X10658310Y21060989D01*
X10553000Y21024757D01*
X10466758Y20979269D01*
X10398667Y20923994D01*
X10347812Y20858396D01*
X10344187Y20852296D01*
X10315634Y20797458D01*
X10297728Y20745011D01*
X10288418Y20686929D01*
X10285652Y20615188D01*
X9919789Y20615188D01*
X9916633Y20652504D01*
X9915150Y20734581D01*
X9919134Y20813008D01*
X9928864Y20880925D01*
X9938909Y20922507D01*
X9981719Y21037557D01*
X10044832Y21143901D01*
X10128364Y21241750D01*
X10129283Y21242667D01*
X10209511Y21314158D01*
X10294683Y21372286D01*
X10388949Y21419116D01*
X10496462Y21456716D01*
X10621374Y21487151D01*
X10621424Y21487161D01*
X10641470Y21490902D01*
X10663431Y21494134D01*
X10688991Y21496892D01*
X10719838Y21499214D01*
X10757656Y21501136D01*
X10804131Y21502695D01*
X10860950Y21503928D01*
X10929798Y21504870D01*
X11012362Y21505560D01*
X11110326Y21506032D01*
X11225378Y21506324D01*
X11359202Y21506472D01*
X11513486Y21506514D01*
X11607969Y21506511D01*
G37*
G36*
X17177648Y17238118D02*
G01*
X17182639Y17238118D01*
X17446904Y17238034D01*
X17689094Y17237788D01*
X17909277Y17237380D01*
X18107520Y17236809D01*
X18283892Y17236074D01*
X18438460Y17235175D01*
X18571292Y17234113D01*
X18682456Y17232885D01*
X18772021Y17231492D01*
X18840053Y17229933D01*
X18886620Y17228209D01*
X18911791Y17226317D01*
X19055379Y17199044D01*
X19211055Y17149817D01*
X19355369Y17081793D01*
X19487890Y16995182D01*
X19608185Y16890191D01*
X19645643Y16850963D01*
X19727976Y16748671D01*
X19796197Y16637147D01*
X19851634Y16513619D01*
X19895613Y16375314D01*
X19929463Y16219460D01*
X19936050Y16167034D01*
X19940342Y16096750D01*
X19941915Y16017007D01*
X19940913Y15933059D01*
X19937482Y15850160D01*
X19931766Y15773566D01*
X19923910Y15708529D01*
X19914058Y15660306D01*
X19894030Y15593059D01*
X19873774Y15534440D01*
X19851232Y15480273D01*
X19823011Y15421665D01*
X19786730Y15354993D01*
X19695359Y15219635D01*
X19587517Y15096656D01*
X19465372Y14987863D01*
X19331094Y14895064D01*
X19186851Y14820067D01*
X19034813Y14764681D01*
X18968432Y14747109D01*
X18902779Y14733706D01*
X18833825Y14724161D01*
X18756879Y14717968D01*
X18667249Y14714622D01*
X18560243Y14713619D01*
X18350670Y14713619D01*
X18350670Y15106688D01*
X18350670Y15499757D01*
X18530596Y15499949D01*
X18599570Y15500695D01*
X18687182Y15504629D01*
X18759625Y15512557D01*
X18820973Y15525169D01*
X18875298Y15543157D01*
X18926675Y15567214D01*
X18943732Y15576780D01*
X19020439Y15634319D01*
X19081147Y15706483D01*
X19125183Y15792033D01*
X19151876Y15889729D01*
X19160552Y15998331D01*
X19159435Y16039062D01*
X19147338Y16135126D01*
X19121095Y16215744D01*
X19079603Y16282909D01*
X19021755Y16338617D01*
X18946448Y16384862D01*
X18945950Y16385111D01*
X18927834Y16394299D01*
X18911255Y16402617D01*
X18895087Y16410107D01*
X18878202Y16416810D01*
X18859471Y16422766D01*
X18837767Y16428017D01*
X18811962Y16432603D01*
X18780929Y16436565D01*
X18743539Y16439945D01*
X18698666Y16442783D01*
X18645180Y16445120D01*
X18581955Y16446996D01*
X18507863Y16448454D01*
X18421776Y16449534D01*
X18322566Y16450276D01*
X18209105Y16450722D01*
X18080266Y16450912D01*
X17934921Y16450888D01*
X17771943Y16450690D01*
X17590202Y16450360D01*
X17388573Y16449938D01*
X17165927Y16449465D01*
X15610260Y16446236D01*
X15529004Y16421116D01*
X15515425Y16416837D01*
X15423136Y16381857D01*
X15350161Y16341266D01*
X15294146Y16292538D01*
X15252739Y16233143D01*
X15223587Y16160554D01*
X15204337Y16072241D01*
X15204232Y16071563D01*
X15197930Y15969629D01*
X15210099Y15871446D01*
X15240112Y15782102D01*
X15245678Y15770957D01*
X15284115Y15714285D01*
X15336993Y15658024D01*
X15398636Y15607607D01*
X15463368Y15568466D01*
X15486192Y15557690D01*
X15544674Y15534818D01*
X15606254Y15518427D01*
X15675636Y15507698D01*
X15757524Y15501812D01*
X15856620Y15499949D01*
X16025473Y15499757D01*
X16025473Y15106688D01*
X16025473Y14713619D01*
X15823112Y14713619D01*
X15805958Y14713652D01*
X15661451Y14717090D01*
X15534210Y14726667D01*
X15420441Y14743068D01*
X15316346Y14766976D01*
X15218131Y14799077D01*
X15121998Y14840055D01*
X15098087Y14851634D01*
X14950226Y14935861D01*
X14819455Y15033494D01*
X14706209Y15143985D01*
X14610922Y15266784D01*
X14534030Y15401345D01*
X14475967Y15547118D01*
X14437169Y15703554D01*
X14423669Y15793393D01*
X14412659Y15964651D01*
X14421030Y16130885D01*
X14448034Y16290730D01*
X14492921Y16442820D01*
X14554941Y16585788D01*
X14633344Y16718268D01*
X14727380Y16838893D01*
X14836301Y16946299D01*
X14959356Y17039119D01*
X15095797Y17115986D01*
X15244872Y17175534D01*
X15255737Y17179080D01*
X15279986Y17187004D01*
X15302742Y17194186D01*
X15325130Y17200662D01*
X15348275Y17206470D01*
X15373303Y17211644D01*
X15401340Y17216222D01*
X15433512Y17220240D01*
X15470943Y17223735D01*
X15514760Y17226743D01*
X15566089Y17229301D01*
X15626054Y17231444D01*
X15695782Y17233210D01*
X15776398Y17234634D01*
X15869029Y17235754D01*
X15974798Y17236606D01*
X16094833Y17237226D01*
X16230259Y17237650D01*
X16382201Y17237916D01*
X16551786Y17238059D01*
X16740138Y17238116D01*
X16948384Y17238123D01*
X17177648Y17238118D01*
G37*
G36*
X17177648Y37910219D02*
G01*
X17182639Y37910219D01*
X17446904Y37910135D01*
X17689094Y37909889D01*
X17909277Y37909481D01*
X18107520Y37908910D01*
X18283892Y37908175D01*
X18438460Y37907277D01*
X18571292Y37906214D01*
X18682456Y37904986D01*
X18772021Y37903593D01*
X18840053Y37902035D01*
X18886620Y37900310D01*
X18911791Y37898418D01*
X19055379Y37871145D01*
X19211055Y37821918D01*
X19355369Y37753894D01*
X19487890Y37667283D01*
X19608185Y37562292D01*
X19645643Y37523064D01*
X19727976Y37420772D01*
X19796197Y37309249D01*
X19851634Y37185720D01*
X19895613Y37047415D01*
X19929463Y36891561D01*
X19936050Y36839135D01*
X19940342Y36768851D01*
X19941915Y36689108D01*
X19940913Y36605160D01*
X19937482Y36522261D01*
X19931766Y36445667D01*
X19923910Y36380631D01*
X19914058Y36332407D01*
X19894030Y36265160D01*
X19873774Y36206541D01*
X19851232Y36152374D01*
X19823011Y36093766D01*
X19786730Y36027094D01*
X19695359Y35891736D01*
X19587517Y35768757D01*
X19465372Y35659964D01*
X19331094Y35567165D01*
X19186851Y35492168D01*
X19034813Y35436782D01*
X18968432Y35419210D01*
X18902779Y35405807D01*
X18833825Y35396262D01*
X18756879Y35390069D01*
X18667249Y35386723D01*
X18560243Y35385720D01*
X18350670Y35385720D01*
X18350670Y35778789D01*
X18350670Y36171858D01*
X18530596Y36172050D01*
X18599570Y36172796D01*
X18687182Y36176731D01*
X18759625Y36184658D01*
X18820973Y36197270D01*
X18875298Y36215258D01*
X18926675Y36239315D01*
X18943732Y36248881D01*
X19020439Y36306420D01*
X19081147Y36378584D01*
X19125183Y36464134D01*
X19151876Y36561830D01*
X19160552Y36670433D01*
X19159435Y36711163D01*
X19147338Y36807227D01*
X19121095Y36887845D01*
X19079603Y36955010D01*
X19021755Y37010718D01*
X18946448Y37056963D01*
X18945950Y37057212D01*
X18927834Y37066400D01*
X18911255Y37074718D01*
X18895087Y37082208D01*
X18878202Y37088911D01*
X18859471Y37094867D01*
X18837767Y37100118D01*
X18811962Y37104704D01*
X18780929Y37108667D01*
X18743539Y37112046D01*
X18698666Y37114884D01*
X18645180Y37117221D01*
X18581955Y37119098D01*
X18507863Y37120555D01*
X18421776Y37121635D01*
X18322566Y37122377D01*
X18209105Y37122823D01*
X18080266Y37123013D01*
X17934921Y37122989D01*
X17771943Y37122792D01*
X17590202Y37122461D01*
X17388573Y37122039D01*
X17165927Y37121566D01*
X15610260Y37118337D01*
X15529004Y37093217D01*
X15515425Y37088938D01*
X15423136Y37053958D01*
X15350161Y37013368D01*
X15294146Y36964639D01*
X15252739Y36905244D01*
X15223587Y36832655D01*
X15204337Y36744343D01*
X15204232Y36743664D01*
X15197930Y36641730D01*
X15210099Y36543547D01*
X15240112Y36454203D01*
X15245678Y36443058D01*
X15284115Y36386386D01*
X15336993Y36330125D01*
X15398636Y36279708D01*
X15463368Y36240567D01*
X15486192Y36229791D01*
X15544674Y36206919D01*
X15606254Y36190528D01*
X15675636Y36179799D01*
X15757524Y36173913D01*
X15856620Y36172050D01*
X16025473Y36171858D01*
X16025473Y35778789D01*
X16025473Y35385720D01*
X15823112Y35385720D01*
X15805958Y35385753D01*
X15661451Y35389191D01*
X15534210Y35398769D01*
X15420441Y35415169D01*
X15316346Y35439077D01*
X15218131Y35471178D01*
X15121998Y35512156D01*
X15098087Y35523735D01*
X14950226Y35607962D01*
X14819455Y35705595D01*
X14706209Y35816086D01*
X14610922Y35938886D01*
X14534030Y36073446D01*
X14475967Y36219219D01*
X14437169Y36375655D01*
X14423669Y36465495D01*
X14412659Y36636752D01*
X14421030Y36802986D01*
X14448034Y36962831D01*
X14492921Y37114921D01*
X14554941Y37257889D01*
X14633344Y37390369D01*
X14727380Y37510995D01*
X14836301Y37618400D01*
X14959356Y37711220D01*
X15095797Y37788087D01*
X15244872Y37847635D01*
X15255737Y37851181D01*
X15279986Y37859105D01*
X15302742Y37866287D01*
X15325130Y37872764D01*
X15348275Y37878571D01*
X15373303Y37883745D01*
X15401340Y37888323D01*
X15433512Y37892341D01*
X15470943Y37895836D01*
X15514760Y37898844D01*
X15566089Y37901402D01*
X15626054Y37903545D01*
X15695782Y37905311D01*
X15776398Y37906735D01*
X15869029Y37907855D01*
X15974798Y37908707D01*
X16094833Y37909327D01*
X16230259Y37909751D01*
X16382201Y37910017D01*
X16551786Y37910160D01*
X16740138Y37910217D01*
X16948384Y37910224D01*
X17177648Y37910219D01*
G37*
G36*
X12238122Y25052016D02*
G01*
X12280051Y25049652D01*
X12329324Y25045329D01*
X12386693Y25038510D01*
X12503001Y25016944D01*
X12604320Y24985370D01*
X12694717Y24941999D01*
X12778260Y24885046D01*
X12859019Y24812725D01*
X12911272Y24756014D01*
X12985332Y24652902D01*
X13041132Y24540056D01*
X13079588Y24415451D01*
X13101617Y24277066D01*
X13102786Y24264991D01*
X13107540Y24214641D01*
X13110336Y24177389D01*
X13111197Y24146203D01*
X13110141Y24114050D01*
X13107189Y24073895D01*
X13102361Y24018707D01*
X13084005Y23888132D01*
X13047235Y23750190D01*
X12994128Y23626431D01*
X12925059Y23517339D01*
X12840403Y23423398D01*
X12740536Y23345093D01*
X12625832Y23282907D01*
X12496666Y23237324D01*
X12436105Y23225282D01*
X12360165Y23216915D01*
X12275124Y23212307D01*
X12187158Y23211513D01*
X12102440Y23214589D01*
X12027147Y23221589D01*
X11967453Y23232570D01*
X11915723Y23248103D01*
X11803408Y23297876D01*
X11701076Y23367169D01*
X11608424Y23456206D01*
X11525155Y23565215D01*
X11515326Y23580163D01*
X11491089Y23618057D01*
X11469500Y23654089D01*
X11448999Y23691460D01*
X11428028Y23733372D01*
X11405027Y23783025D01*
X11378436Y23843619D01*
X11346696Y23918355D01*
X11308248Y24010435D01*
X11274085Y24091958D01*
X11235810Y24180867D01*
X11202939Y24253583D01*
X11174143Y24312670D01*
X11148094Y24360691D01*
X11123463Y24400210D01*
X11098920Y24433792D01*
X11073137Y24463999D01*
X11019635Y24512815D01*
X10938983Y24561466D01*
X10848257Y24593204D01*
X10751033Y24606868D01*
X10650888Y24601295D01*
X10553704Y24577542D01*
X10467461Y24536898D01*
X10396415Y24480193D01*
X10340777Y24407643D01*
X10300756Y24319462D01*
X10276561Y24215867D01*
X10270132Y24109313D01*
X10281931Y24006910D01*
X10311059Y23912250D01*
X10356464Y23827858D01*
X10417092Y23756260D01*
X10491887Y23699980D01*
X10517049Y23687034D01*
X10578040Y23663836D01*
X10648498Y23644688D01*
X10720090Y23631672D01*
X10784481Y23626871D01*
X10854680Y23626871D01*
X10854680Y23431480D01*
X10854680Y23236088D01*
X10727355Y23243701D01*
X10611264Y23255789D01*
X10473819Y23286054D01*
X10350983Y23332883D01*
X10242598Y23396373D01*
X10148509Y23476620D01*
X10068557Y23573720D01*
X10002586Y23687769D01*
X9983891Y23727811D01*
X9960101Y23785575D01*
X9942798Y23840428D01*
X9931049Y23897368D01*
X9923919Y23961390D01*
X9920475Y24037490D01*
X9919783Y24130663D01*
X9920297Y24197694D01*
X9921750Y24258945D01*
X9924513Y24306860D01*
X9928999Y24346172D01*
X9935619Y24381609D01*
X9944786Y24417902D01*
X9960810Y24469847D01*
X10012498Y24591186D01*
X10080034Y24700775D01*
X10161731Y24796504D01*
X10255899Y24876263D01*
X10360850Y24937941D01*
X10394886Y24953300D01*
X10474137Y24982376D01*
X10555353Y25001601D01*
X10644988Y25012265D01*
X10749493Y25015657D01*
X10798574Y25015291D01*
X10878194Y25011584D01*
X10945864Y25002751D01*
X11008122Y24987392D01*
X11071508Y24964107D01*
X11142562Y24931497D01*
X11163459Y24920986D01*
X11206759Y24896355D01*
X11245943Y24868528D01*
X11287102Y24832895D01*
X11336328Y24784844D01*
X11367289Y24752821D01*
X11402909Y24712916D01*
X11434886Y24672248D01*
X11464858Y24627966D01*
X11494462Y24577218D01*
X11525335Y24517154D01*
X11559113Y24444924D01*
X11597433Y24357675D01*
X11641931Y24252558D01*
X11664953Y24197668D01*
X11701417Y24111519D01*
X11731647Y24041623D01*
X11756984Y23985216D01*
X11778770Y23939533D01*
X11798345Y23901809D01*
X11817052Y23869279D01*
X11836230Y23839179D01*
X11857222Y23808744D01*
X11875516Y23784126D01*
X11933147Y23722067D01*
X11997589Y23676770D01*
X12073359Y23645551D01*
X12164975Y23625723D01*
X12238914Y23620048D01*
X12328590Y23624632D01*
X12415072Y23640094D01*
X12489793Y23665389D01*
X12541547Y23693428D01*
X12611986Y23751342D01*
X12667541Y23824895D01*
X12707743Y23913215D01*
X12732123Y24015428D01*
X12740211Y24130663D01*
X12738815Y24184777D01*
X12727024Y24285854D01*
X12702178Y24373393D01*
X12663007Y24451169D01*
X12608242Y24522960D01*
X12585620Y24545741D01*
X12515264Y24596733D01*
X12430971Y24635098D01*
X12336771Y24659268D01*
X12236692Y24667673D01*
X12183364Y24667673D01*
X12183364Y24856251D01*
X12183486Y24903846D01*
X12184281Y24962358D01*
X12186018Y25003443D01*
X12188931Y25029978D01*
X12193255Y25044842D01*
X12199224Y25050914D01*
X12208990Y25052188D01*
X12238122Y25052016D01*
G37*
G36*
X18137048Y25762367D02*
G01*
X18258509Y25762219D01*
X18365173Y25761929D01*
X18458156Y25761487D01*
X18538572Y25760884D01*
X18607536Y25760112D01*
X18666161Y25759161D01*
X18715562Y25758022D01*
X18756854Y25756686D01*
X18791152Y25755144D01*
X18819569Y25753387D01*
X18843220Y25751406D01*
X18863219Y25749191D01*
X18880681Y25746734D01*
X19035695Y25713328D01*
X19185953Y25660287D01*
X19325226Y25588229D01*
X19454433Y25496672D01*
X19574496Y25385137D01*
X19659176Y25288774D01*
X19755404Y25153741D01*
X19831708Y25011240D01*
X19889175Y24859150D01*
X19928893Y24695354D01*
X19935858Y24650883D01*
X19945325Y24526987D01*
X19943190Y24394047D01*
X19930001Y24258768D01*
X19906306Y24127859D01*
X19872656Y24008025D01*
X19835166Y23911027D01*
X19759688Y23762767D01*
X19667649Y23628059D01*
X19560302Y23507929D01*
X19438901Y23403404D01*
X19304702Y23315508D01*
X19158958Y23245267D01*
X19002924Y23193707D01*
X18837854Y23161855D01*
X18821413Y23160433D01*
X18784437Y23158735D01*
X18729782Y23157250D01*
X18657044Y23155976D01*
X18565816Y23154911D01*
X18455692Y23154052D01*
X18326267Y23153398D01*
X18177133Y23152946D01*
X18007886Y23152696D01*
X17818119Y23152645D01*
X17607425Y23152790D01*
X17375400Y23153131D01*
X17121637Y23153665D01*
X16901871Y23154203D01*
X16699716Y23154738D01*
X16517530Y23155277D01*
X16354217Y23155833D01*
X16208680Y23156423D01*
X16079825Y23157059D01*
X15966554Y23157758D01*
X15867772Y23158533D01*
X15782383Y23159400D01*
X15709291Y23160372D01*
X15647400Y23161464D01*
X15595613Y23162691D01*
X15552835Y23164068D01*
X15517970Y23165609D01*
X15489922Y23167329D01*
X15467594Y23169243D01*
X15449891Y23171364D01*
X15435717Y23173708D01*
X15423976Y23176289D01*
X15275143Y23220177D01*
X15117361Y23284909D01*
X14975730Y23364554D01*
X14849959Y23459306D01*
X14739759Y23569358D01*
X14644840Y23694902D01*
X14592067Y23781860D01*
X14517051Y23936508D01*
X14461762Y24096724D01*
X14426749Y24260331D01*
X14412560Y24425151D01*
X14414788Y24475970D01*
X15198212Y24475970D01*
X15204257Y24376748D01*
X15226639Y24280806D01*
X15263821Y24191565D01*
X15314269Y24112444D01*
X15376445Y24046866D01*
X15448815Y23998249D01*
X15462606Y23991147D01*
X15477595Y23983421D01*
X15492072Y23976464D01*
X15507170Y23970236D01*
X15524022Y23964696D01*
X15543760Y23959806D01*
X15567518Y23955524D01*
X15596429Y23951811D01*
X15631625Y23948626D01*
X15674239Y23945930D01*
X15725403Y23943682D01*
X15786252Y23941842D01*
X15857917Y23940370D01*
X15941531Y23939226D01*
X16038227Y23938369D01*
X16149138Y23937760D01*
X16275397Y23937359D01*
X16418137Y23937125D01*
X16578490Y23937019D01*
X16757589Y23936999D01*
X16956567Y23937026D01*
X17176557Y23937061D01*
X17291087Y23937071D01*
X17501267Y23937094D01*
X17690997Y23937151D01*
X17861401Y23937279D01*
X18013604Y23937513D01*
X18148730Y23937890D01*
X18267905Y23938448D01*
X18372253Y23939222D01*
X18462900Y23940248D01*
X18540969Y23941565D01*
X18607586Y23943207D01*
X18663875Y23945212D01*
X18710962Y23947616D01*
X18749971Y23950455D01*
X18782026Y23953767D01*
X18808254Y23957588D01*
X18829777Y23961953D01*
X18847722Y23966901D01*
X18863213Y23972467D01*
X18877374Y23978687D01*
X18891331Y23985599D01*
X18906209Y23993239D01*
X18927999Y24005544D01*
X18992678Y24056015D01*
X19051192Y24121496D01*
X19099881Y24196633D01*
X19135087Y24276074D01*
X19153150Y24354466D01*
X19156197Y24381870D01*
X19160382Y24417656D01*
X19163335Y24440690D01*
X19164459Y24467305D01*
X19160696Y24514832D01*
X19152195Y24569254D01*
X19140267Y24622568D01*
X19126227Y24666768D01*
X19104614Y24714908D01*
X19049168Y24801730D01*
X18979195Y24871909D01*
X18895018Y24925156D01*
X18796960Y24961183D01*
X18793960Y24961800D01*
X18768015Y24964305D01*
X18721865Y24966623D01*
X18657077Y24968754D01*
X18575221Y24970698D01*
X18477863Y24972454D01*
X18366574Y24974023D01*
X18242922Y24975405D01*
X18108474Y24976600D01*
X17964801Y24977607D01*
X17813469Y24978428D01*
X17656048Y24979061D01*
X17494106Y24979507D01*
X17329212Y24979766D01*
X17162934Y24979837D01*
X16996840Y24979722D01*
X16832500Y24979419D01*
X16671482Y24978929D01*
X16515354Y24978251D01*
X16365685Y24977387D01*
X16224043Y24976335D01*
X16091996Y24975096D01*
X15971114Y24973670D01*
X15862965Y24972057D01*
X15769118Y24970257D01*
X15691140Y24968269D01*
X15630600Y24966094D01*
X15589068Y24963732D01*
X15568111Y24961183D01*
X15496952Y24937334D01*
X15407855Y24888884D01*
X15333082Y24824152D01*
X15273577Y24744224D01*
X15230284Y24650181D01*
X15204146Y24543109D01*
X15198212Y24475970D01*
X14414788Y24475970D01*
X14419743Y24589006D01*
X14436809Y24704268D01*
X14478619Y24873125D01*
X14538575Y25030334D01*
X14615951Y25175055D01*
X14710022Y25306444D01*
X14820062Y25423659D01*
X14945347Y25525858D01*
X15085152Y25612199D01*
X15238752Y25681840D01*
X15405421Y25733938D01*
X15416638Y25736686D01*
X15429655Y25739613D01*
X15443649Y25742256D01*
X15459735Y25744631D01*
X15479027Y25746756D01*
X15502638Y25748649D01*
X15531682Y25750326D01*
X15567274Y25751806D01*
X15610528Y25753106D01*
X15662557Y25754242D01*
X15724477Y25755234D01*
X15797400Y25756097D01*
X15882441Y25756850D01*
X15980715Y25757510D01*
X16093335Y25758095D01*
X16221414Y25758621D01*
X16366069Y25759107D01*
X16528411Y25759569D01*
X16709556Y25760026D01*
X16910618Y25760494D01*
X17132710Y25760992D01*
X17162934Y25761058D01*
X17268799Y25761288D01*
X17480956Y25761716D01*
X17672745Y25762047D01*
X17845281Y25762272D01*
X17999677Y25762382D01*
X18137048Y25762367D01*
G37*
%TD*%
%LPC*%
D12*
%TO.C,J2*%
X4114800Y8880000D03*
D13*
X4114800Y11420000D03*
X4114800Y13960000D03*
X4114800Y16500000D03*
X4114800Y19040000D03*
X4114800Y21580000D03*
X4114800Y24120000D03*
X4114800Y26660000D03*
%TD*%
D12*
%TO.C,J5*%
X7950000Y8890000D03*
D13*
X10490000Y8890000D03*
X13030000Y8890000D03*
%TD*%
D12*
%TO.C,J1*%
X26980000Y8880000D03*
D13*
X26980000Y11420000D03*
X26980000Y13960000D03*
X26980000Y16500000D03*
X26980000Y19040000D03*
X26980000Y21580000D03*
X26980000Y24120000D03*
X26980000Y26660000D03*
%TD*%
D12*
%TO.C,J4*%
X23114000Y8890000D03*
D13*
X20574000Y8890000D03*
X18034000Y8890000D03*
%TD*%
%LPD*%
M02*
