M48
; DRILL file {KiCad 7.0.9} date Tue Mar 26 06:33:18 2024
; FORMAT={-:-/ absolute / inch / decimal}
; #@! TF.CreationDate,2024-03-26T06:33:18-07:00
; #@! TF.GenerationSoftware,Kicad,Pcbnew,7.0.9
; #@! TF.FileFunction,Plated,1,2,PTH
FMAT,2
INCH
; #@! TA.AperFunction,Plated,PTH,ViaDrill
T1C0.0118
; #@! TA.AperFunction,Plated,PTH,ComponentDrill
T2C0.0394
%
G90
G05
T1
X0.3Y1.37
X0.48Y1.58
X0.53Y1.62
X0.53Y1.44
X0.53Y1.39
X0.63Y1.7
X0.67Y1.49
X0.76Y1.96
X0.8Y1.58
X0.941Y1.44
T2
X0.162Y1.0496
X0.162Y0.9496
X0.162Y0.8496
X0.162Y0.7496
X0.162Y0.6496
X0.162Y0.5496
X0.162Y0.4496
X0.162Y0.3496
X0.313Y0.35
X0.413Y0.35
X0.513Y0.35
X0.71Y0.35
X0.81Y0.35
X0.91Y0.35
X1.0622Y1.0496
X1.0622Y0.9496
X1.0622Y0.8496
X1.0622Y0.7496
X1.0622Y0.6496
X1.0622Y0.5496
X1.0622Y0.4496
X1.0622Y0.3496
T0
M30
